<mxfile host="Electron" modified="2023-03-31T15:28:46.129Z" agent="Mozilla/5.0 (X11; Linux x86_64) AppleWebKit/537.36 (KHTML, like Gecko) draw.io/21.1.2 Chrome/106.0.5249.199 Electron/21.4.3 Safari/537.36" etag="juye3q-9Y4xoWz9ABTLw" version="21.1.2" type="device">
  <diagram name="Page-1" id="74b105a0-9070-1c63-61bc-23e55f88626e">
    <mxGraphModel dx="1434" dy="870" grid="1" gridSize="10" guides="1" tooltips="1" connect="1" arrows="1" fold="1" page="1" pageScale="1.5" pageWidth="1169" pageHeight="826" background="none" math="0" shadow="0">
      <root>
        <mxCell id="0" style=";html=1;" />
        <mxCell id="1" style=";html=1;" parent="0" />
        <mxCell id="9QPtc-Q_uSKH_jWS5O0u-1" value="" style="rounded=0;whiteSpace=wrap;html=1;fillColor=#bac8d3;strokeColor=#23445d;" parent="1" vertex="1">
          <mxGeometry x="110" y="167.5" width="1200" height="600" as="geometry" />
        </mxCell>
        <mxCell id="AzqcnyQzKy9WL4qiRQvG-4" value="" style="edgeStyle=orthogonalEdgeStyle;rounded=0;orthogonalLoop=1;jettySize=auto;html=1;fontColor=#000000;strokeColor=#000000;" parent="1" source="-qlfuwF-1jwrvafE3BXy-18" target="AzqcnyQzKy9WL4qiRQvG-3" edge="1">
          <mxGeometry relative="1" as="geometry" />
        </mxCell>
        <mxCell id="-qlfuwF-1jwrvafE3BXy-18" value="AWS Glue Job" style="strokeWidth=2;dashed=0;align=left;fontSize=12;shape=rect;verticalLabelPosition=bottom;verticalAlign=top;fillColor=#ffe6cc;strokeColor=#d79b00;fontColor=#000000;" parent="1" vertex="1">
          <mxGeometry x="620" y="590" width="150" height="90" as="geometry" />
        </mxCell>
        <mxCell id="-qlfuwF-1jwrvafE3BXy-6" value="" style="edgeStyle=orthogonalEdgeStyle;rounded=0;orthogonalLoop=1;jettySize=auto;html=1;fontColor=#000000;strokeColor=#000000;" parent="1" source="10b056a9c633e61c-4" target="-qlfuwF-1jwrvafE3BXy-4" edge="1">
          <mxGeometry relative="1" as="geometry" />
        </mxCell>
        <mxCell id="10b056a9c633e61c-4" value="Source S3 bucket" style="strokeWidth=2;dashed=0;align=left;fontSize=12;shape=rect;verticalLabelPosition=bottom;verticalAlign=top;fillColor=#ffe6cc;strokeColor=#d79b00;fontColor=#000000;" parent="1" vertex="1">
          <mxGeometry x="150" y="590" width="150" height="90" as="geometry" />
        </mxCell>
        <mxCell id="-qlfuwF-1jwrvafE3BXy-19" value="" style="edgeStyle=orthogonalEdgeStyle;rounded=0;orthogonalLoop=1;jettySize=auto;html=1;fontColor=#000000;strokeColor=#000000;" parent="1" source="-qlfuwF-1jwrvafE3BXy-4" target="-qlfuwF-1jwrvafE3BXy-18" edge="1">
          <mxGeometry relative="1" as="geometry" />
        </mxCell>
        <mxCell id="-qlfuwF-1jwrvafE3BXy-4" value="AWS Glue Catalog" style="strokeWidth=2;dashed=0;align=left;fontSize=12;shape=rect;verticalLabelPosition=bottom;verticalAlign=top;fillColor=#ffe6cc;strokeColor=#d79b00;fontColor=#000000;" parent="1" vertex="1">
          <mxGeometry x="390" y="590" width="150" height="90" as="geometry" />
        </mxCell>
        <mxCell id="AzqcnyQzKy9WL4qiRQvG-12" value="" style="edgeStyle=orthogonalEdgeStyle;rounded=0;orthogonalLoop=1;jettySize=auto;html=1;fontColor=#000000;strokeColor=#000000;" parent="1" source="AzqcnyQzKy9WL4qiRQvG-3" target="AzqcnyQzKy9WL4qiRQvG-11" edge="1">
          <mxGeometry relative="1" as="geometry" />
        </mxCell>
        <mxCell id="AzqcnyQzKy9WL4qiRQvG-3" value="AWS S3 Bucket" style="strokeWidth=2;dashed=0;align=left;fontSize=12;shape=rect;verticalLabelPosition=bottom;verticalAlign=top;fillColor=#ffe6cc;strokeColor=#d79b00;fontColor=#000000;" parent="1" vertex="1">
          <mxGeometry x="862" y="590" width="150" height="90" as="geometry" />
        </mxCell>
        <mxCell id="4-l5QpAymt0JCEmgXWtR-4" value="" style="edgeStyle=orthogonalEdgeStyle;rounded=0;orthogonalLoop=1;jettySize=auto;html=1;strokeColor=#000000;" parent="1" source="AzqcnyQzKy9WL4qiRQvG-11" target="4-l5QpAymt0JCEmgXWtR-3" edge="1">
          <mxGeometry relative="1" as="geometry" />
        </mxCell>
        <mxCell id="AzqcnyQzKy9WL4qiRQvG-11" value="AWS crawler" style="strokeWidth=2;dashed=0;align=left;fontSize=12;shape=rect;verticalLabelPosition=bottom;verticalAlign=top;fillColor=#ffe6cc;strokeColor=#d79b00;fontColor=#000000;" parent="1" vertex="1">
          <mxGeometry x="1110" y="590" width="150" height="90" as="geometry" />
        </mxCell>
        <mxCell id="gBLqwSam2B5bGnSU_4D6-28" value="" style="shape=image;verticalLabelPosition=bottom;labelBackgroundColor=default;verticalAlign=top;aspect=fixed;imageAspect=0;image=data:image/svg+xml,PHN2ZyB4bWxucz0iaHR0cDovL3d3dy53My5vcmcvMjAwMC9zdmciIHZpZXdCb3g9IjAgMCAxMDAgMTAwIj48ZGVmcy8+PGRlZnM+PGxpbmVhckdyYWRpZW50IHkyPSIwIiB5MT0iMSIgeDI9IjEiIHgxPSIwIiBpZD0iYSI+PHN0b3Agc3RvcC1jb2xvcj0iIzFCNjYwRiIgb2Zmc2V0PSIwJSIvPjxzdG9wIHN0b3AtY29sb3I9IiM2Q0FFM0UiIG9mZnNldD0iMTAwJSIvPjwvbGluZWFyR3JhZGllbnQ+PC9kZWZzPjxnPjxwYXRoIGQ9Im0gMCwwIGggMTAwIHYgMTAwIGggLTEwMCB6IiBmaWxsLXJ1bGU9ImV2ZW5vZGQiIGZpbGw9InVybCgjYSkiLz48cGF0aCBkPSJtIDc2LjA0NSw1My42MTYgMC40OCwtMy4zOCBjIDQuNDI2LDIuNjUxIDQuNDg0LDMuNzQ2IDQuNDgyLDMuNzc2IC0wLjAwNywwLjAwNiAtMC43NjMsMC42MzYgLTQuOTYyLC0wLjM5NiB6IG0gLTIuNDI5LC0wLjY3NSBjIC03LjY1LC0yLjMxNSAtMTguMzA0LC03LjIwMiAtMjIuNjE1LC05LjI0IDAsLTAuMDE4IDAuMDA1LC0wLjAzNCAwLjAwNSwtMC4wNTEgMCwtMS42NTYgLTEuMzQ4LC0zLjAwNCAtMy4wMDUsLTMuMDA0IC0xLjY1NSwwIC0zLjAwMywxLjM0OCAtMy4wMDIsMy4wMDQgMCwxLjY1NiAxLjM0OCwzLjAwNCAzLjAwMiwzLjAwMyAwLjcyNywwIDEuMzg4LC0wLjI3MSAxLjkwOSwtMC43MDIgNS4wNzIsMi40MDEgMTUuNjQ0LDcuMjE4IDIzLjM1LDkuNDkyIGwgLTMuMDQ4LDIxLjUwOCBjIC0wLjAwOSwwLjA1OSAtMC4wMTMsMC4xMTcgLTAuMDEyLDAuMTc2IDAsMS44OTQgLTguMzg0LDUuMzczIC0yMi4wODMsNS4zNzMgLTEzLjg0NCwwIC0yMi4zMTYsLTMuNDc5IC0yMi4zMTYsLTUuMzczIDAsLTAuMDU3IC0wLjAwNCwtMC4xMTQgLTAuMDExLC0wLjE3IGwgLTYuMzY4LC00Ni41MDkgYyA1LjUxMSwzLjc5NCAxNy4zNjUsNS44MDEgMjguNzAzLDUuODAyIDExLjMyLDAgMjMuMTU0LC0yIDI4LjY3NiwtNS43ODMgeiBtIC01NC44NjYsLTI3LjM0NCBjIDAuMDksLTEuNjQ1IDkuNTQzLC04LjA5OCAyOS4zNzUsLTguMDk3IDE5LjgzLDAgMjkuMjg0LDYuNDUxIDI5LjM3NSw4LjA5NyB2IDAuNTYxIGMgLTEuMDg3LDMuNjg5IC0xMy4zMzgsNy41OTEgLTI5LjM3NSw3LjU5MiAtMTYuMDY1LDAgLTI4LjMyMSwtMy45MTUgLTI5LjM3NSwtNy42MDkgeiBtIDYxLjI1LDAuMDI4IGMgMCwtNC4zMzEgLTEyLjQxNywtMTAuNjI1IC0zMS44NzUsLTEwLjYyNSAtMTkuNDU3LDAgLTMxLjg3NSw2LjI5NCAtMzEuODc1LDEwLjYyNSBsIDAuMTE3LDAuOTQyIDYuOTM1LDUwLjY1NSBjIDAuMTY2LDUuNjY1IDE1LjI3NCw3Ljc3OCAyNC44MTUsNy43NzggMTEuODQsMCAyNC40MTksLTIuNzIzIDI0LjU4MiwtNy43NzQgbCAyLjk5NSwtMjEuMTIxIGMgMS42NjYsMC4zOTkgMy4wMzgsMC42MDMgNC4xMzgsMC42MDIgMS40NzksMCAyLjQ3OSwtMC4zNjEgMy4wODUsLTEuMDg0IDAuNDk4LC0wLjU5MyAwLjY4OCwtMS4zMSAwLjU0NSwtMi4wNzMgLTAuMzI0LC0xLjczIC0yLjM3NywtMy41OTUgLTYuNTYsLTUuOTgyIGwgMi45NywtMjAuOTUyIHoiIGZpbGwtcnVsZT0iZXZlbm9kZCIgZmlsbD0iI2ZmZiIvPjwvZz48L3N2Zz4=;" parent="1" vertex="1">
          <mxGeometry x="180" y="615.72" width="40" height="40" as="geometry" />
        </mxCell>
        <mxCell id="gBLqwSam2B5bGnSU_4D6-29" value="" style="shape=image;verticalLabelPosition=bottom;labelBackgroundColor=default;verticalAlign=top;aspect=fixed;imageAspect=0;image=data:image/svg+xml,PHN2ZyB4bWxucz0iaHR0cDovL3d3dy53My5vcmcvMjAwMC9zdmciIHZpZXdCb3g9IjAgMCAxMDAgMTAwIj48ZGVmcy8+PGRlZnM+PGxpbmVhckdyYWRpZW50IHkyPSIwIiB5MT0iMSIgeDI9IjEiIHgxPSIwIiBpZD0iYSI+PHN0b3Agc3RvcC1jb2xvcj0iIzFCNjYwRiIgb2Zmc2V0PSIwJSIvPjxzdG9wIHN0b3AtY29sb3I9IiM2Q0FFM0UiIG9mZnNldD0iMTAwJSIvPjwvbGluZWFyR3JhZGllbnQ+PC9kZWZzPjxnPjxwYXRoIGQ9Im0gMCwwIGggMTAwIHYgMTAwIGggLTEwMCB6IiBmaWxsLXJ1bGU9ImV2ZW5vZGQiIGZpbGw9InVybCgjYSkiLz48cGF0aCBkPSJtIDc2LjA0NSw1My42MTYgMC40OCwtMy4zOCBjIDQuNDI2LDIuNjUxIDQuNDg0LDMuNzQ2IDQuNDgyLDMuNzc2IC0wLjAwNywwLjAwNiAtMC43NjMsMC42MzYgLTQuOTYyLC0wLjM5NiB6IG0gLTIuNDI5LC0wLjY3NSBjIC03LjY1LC0yLjMxNSAtMTguMzA0LC03LjIwMiAtMjIuNjE1LC05LjI0IDAsLTAuMDE4IDAuMDA1LC0wLjAzNCAwLjAwNSwtMC4wNTEgMCwtMS42NTYgLTEuMzQ4LC0zLjAwNCAtMy4wMDUsLTMuMDA0IC0xLjY1NSwwIC0zLjAwMywxLjM0OCAtMy4wMDIsMy4wMDQgMCwxLjY1NiAxLjM0OCwzLjAwNCAzLjAwMiwzLjAwMyAwLjcyNywwIDEuMzg4LC0wLjI3MSAxLjkwOSwtMC43MDIgNS4wNzIsMi40MDEgMTUuNjQ0LDcuMjE4IDIzLjM1LDkuNDkyIGwgLTMuMDQ4LDIxLjUwOCBjIC0wLjAwOSwwLjA1OSAtMC4wMTMsMC4xMTcgLTAuMDEyLDAuMTc2IDAsMS44OTQgLTguMzg0LDUuMzczIC0yMi4wODMsNS4zNzMgLTEzLjg0NCwwIC0yMi4zMTYsLTMuNDc5IC0yMi4zMTYsLTUuMzczIDAsLTAuMDU3IC0wLjAwNCwtMC4xMTQgLTAuMDExLC0wLjE3IGwgLTYuMzY4LC00Ni41MDkgYyA1LjUxMSwzLjc5NCAxNy4zNjUsNS44MDEgMjguNzAzLDUuODAyIDExLjMyLDAgMjMuMTU0LC0yIDI4LjY3NiwtNS43ODMgeiBtIC01NC44NjYsLTI3LjM0NCBjIDAuMDksLTEuNjQ1IDkuNTQzLC04LjA5OCAyOS4zNzUsLTguMDk3IDE5LjgzLDAgMjkuMjg0LDYuNDUxIDI5LjM3NSw4LjA5NyB2IDAuNTYxIGMgLTEuMDg3LDMuNjg5IC0xMy4zMzgsNy41OTEgLTI5LjM3NSw3LjU5MiAtMTYuMDY1LDAgLTI4LjMyMSwtMy45MTUgLTI5LjM3NSwtNy42MDkgeiBtIDYxLjI1LDAuMDI4IGMgMCwtNC4zMzEgLTEyLjQxNywtMTAuNjI1IC0zMS44NzUsLTEwLjYyNSAtMTkuNDU3LDAgLTMxLjg3NSw2LjI5NCAtMzEuODc1LDEwLjYyNSBsIDAuMTE3LDAuOTQyIDYuOTM1LDUwLjY1NSBjIDAuMTY2LDUuNjY1IDE1LjI3NCw3Ljc3OCAyNC44MTUsNy43NzggMTEuODQsMCAyNC40MTksLTIuNzIzIDI0LjU4MiwtNy43NzQgbCAyLjk5NSwtMjEuMTIxIGMgMS42NjYsMC4zOTkgMy4wMzgsMC42MDMgNC4xMzgsMC42MDIgMS40NzksMCAyLjQ3OSwtMC4zNjEgMy4wODUsLTEuMDg0IDAuNDk4LC0wLjU5MyAwLjY4OCwtMS4zMSAwLjU0NSwtMi4wNzMgLTAuMzI0LC0xLjczIC0yLjM3NywtMy41OTUgLTYuNTYsLTUuOTgyIGwgMi45NywtMjAuOTUyIHoiIGZpbGwtcnVsZT0iZXZlbm9kZCIgZmlsbD0iI2ZmZiIvPjwvZz48L3N2Zz4=;" parent="1" vertex="1">
          <mxGeometry x="947" y="610" width="50" height="50" as="geometry" />
        </mxCell>
        <mxCell id="i3nGPntlqTUSJxihndr1-5" value="save files" style="text;html=1;align=center;verticalAlign=middle;resizable=0;points=[];autosize=1;strokeColor=none;fillColor=none;fontColor=#000000;" parent="1" vertex="1">
          <mxGeometry x="780" y="610" width="70" height="30" as="geometry" />
        </mxCell>
        <mxCell id="dRJTYx54ZhGCLM6XIU96-2" value="&lt;svg class=&quot;w-6 h-6&quot; height=&quot;48&quot; width=&quot;48&quot; xmlns=&quot;http://www.w3.org/2000/svg&quot;&gt;&lt;path d=&quot;M21.306 18.375C23.678 18.932 26.68 19 28 19c1.321 0 4.323-.068 6.695-.625L29 29.764V33h-2v-3.236l-5.694-11.389zM28 15c3.95 0 6.573.561 7.617 1-1.044.441-3.667 1-7.617 1-3.949 0-6.571-.559-7.616-1 1.045-.439 3.667-1 7.616-1zm3 20v-4.764l6.642-13.284c.226-.278.358-.593.358-.952 0-2.783-7.654-3-10-3-2.345 0-10 .217-10 3 0 .359.131.674.358.952L25 30.236V35h6zM4 2h5v2H6v40h3v2H4V2zm12 40h24v-2H16v2zm0-4h24v-2H16v2zm0-26h24v-2H16v2zm0-4h24V6H16v2zm-3 36h29V4H13v40zm-2 2h33V2H11v44z&quot; fill=&quot;#4D27AA&quot; fill-rule=&quot;evenodd&quot;&gt;&lt;/path&gt;&lt;/svg&gt;" style="text;whiteSpace=wrap;html=1;verticalAlign=middle;align=center;" parent="1" vertex="1">
          <mxGeometry x="425" y="600.72" width="80" height="70" as="geometry" />
        </mxCell>
        <mxCell id="dRJTYx54ZhGCLM6XIU96-3" value="&lt;svg style=&quot;font-size: 26px;&quot; class=&quot;w-6 h-6&quot; height=&quot;40&quot; width=&quot;40&quot; xmlns=&quot;http://www.w3.org/2000/svg&quot;&gt;&lt;defs&gt;&lt;linearGradient x1=&quot;0%&quot; y1=&quot;100%&quot; x2=&quot;100%&quot; y2=&quot;0%&quot; id=&quot;Arch_AWS-Glue_32_svg__a&quot;&gt;&lt;stop stop-color=&quot;#4D27A8&quot; offset=&quot;0%&quot;&gt;&lt;/stop&gt;&lt;stop stop-color=&quot;#A166FF&quot; offset=&quot;100%&quot;&gt;&lt;/stop&gt;&lt;/linearGradient&gt;&lt;/defs&gt;&lt;g fill=&quot;none&quot; fill-rule=&quot;evenodd&quot;&gt;&lt;path d=&quot;M0 0h40v40H0z&quot; fill=&quot;url(#Arch_AWS-Glue_32_svg__a)&quot;&gt;&lt;/path&gt;&lt;path d=&quot;M27.163 15.543c-1.839.412-4.673.495-6.663.495-1.977 0-4.785-.082-6.625-.486l5.539 8.197a.504.504 0 01.086.281v1.068c.701.202 1.349.205 2 .007V24.03c0-.1.03-.2.087-.282l5.576-8.205zm1.69-.771l.03.02-6.383 9.392v1.276a.5.5 0 01-.314.464 4.382 4.382 0 01-1.653.329 4.909 4.909 0 01-1.706-.324.501.501 0 01-.327-.47v-1.275l-6.395-9.465A.572.572 0 0112 14.41c0-1.425 4.692-1.689 7.488-1.72l.012 1.002c-3.343.036-5.421.41-6.212.7.943.309 3.533.644 7.212.644 3.45 0 5.943-.295 7.017-.587-.5-.133-1.416-.315-3.078-.519l.121-.994c4.122.503 4.44.928 4.44 1.474 0 .131-.06.25-.147.362zM16.5 11.008h1v-1.001h-1v1.001zm-1 .501V9.506a.5.5 0 01.5-.501h2a.5.5 0 01.5.5v2.004a.5.5 0 01-.5.501h-2a.5.5 0 01-.5-.5zm5-3.506h1V7.002h-1v1.001zm-1 .501V6.501A.5.5 0 0120 6h2a.5.5 0 01.5.5v2.004a.5.5 0 01-.5.501h-2a.5.5 0 01-.5-.5zm2 4.508h1V12.01h-1v1.002zm-.5-2.004h2a.5.5 0 01.5.501v2.004a.5.5 0 01-.5.5h-2a.5.5 0 01-.5-.5v-2.004a.5.5 0 01.5-.5zm3.424 18.325a.5.5 0 01-.079.536l-3.469 3.96a.5.5 0 01-.752 0l-3.469-3.96a.5.5 0 01.376-.83h1.453v-1.002h1v1.503a.5.5 0 01-.5.5h-.849L20.5 32.74l2.365-2.699H22a.5.5 0 01-.5-.5v-1.503h1v1.002h1.469c.196 0 .374.114.455.294z&quot; fill=&quot;#FFF&quot;&gt;&lt;/path&gt;&lt;/g&gt;&lt;/svg&gt;" style="text;whiteSpace=wrap;html=1;align=center;verticalAlign=middle;" parent="1" vertex="1">
          <mxGeometry x="660" y="602.5" width="70" height="65" as="geometry" />
        </mxCell>
        <mxCell id="dRJTYx54ZhGCLM6XIU96-6" value="create table" style="text;html=1;align=center;verticalAlign=middle;resizable=0;points=[];autosize=1;strokeColor=none;fillColor=none;fontColor=#000000;" parent="1" vertex="1">
          <mxGeometry x="300" y="610" width="90" height="30" as="geometry" />
        </mxCell>
        <mxCell id="4-l5QpAymt0JCEmgXWtR-1" value="" style="shape=image;verticalLabelPosition=bottom;labelBackgroundColor=default;verticalAlign=top;aspect=fixed;imageAspect=0;image=data:image/png,iVBORw0KGgoAAAANSUhEUgAAAckAAAIACAYAAADpMJeQAAAAAXNSR0IArs4c6QAAAARnQU1BAACxjwv8YQUAAAAJcEhZcwAADsMAAA7DAcdvqGQAAP+lSURBVHhe7P3JliTLdSbonmoSJPr2JFmDqlt3XvEG8QI1OPcFYnzvgK91hrWSa52VDUGAaDOrb09VkUkkSSSIviPRI8nqcOUT2m/YJiGqpubh7mYeob7W7yKqJrpld7K3iKia2lv/w//wP5zF//Q//U9v/ff//X9/cu7/+X/+n7d+85vfXAzXofU//o//4wm9NfxX/9V/9db/+r/+r2/9L//L/3JCJ+Xf//3f9/r//X//3738z//z//z/+9GPfvRPW/mbD3/4w7/5D/6D/+A3b731Vse/9+/9ex3O/e7v/u7x/I4dO54e/sP/8D/8zb//7//7fUw7/sAHPvCbZ8+e/ebTn/70nzb8f3/84x/3+PV//V//10nsuCR+JV79d//df3eMhVtj2IzeOYS3rTHymvE5/UY/oTHS3YL/9r/9b7sslV7tawnaVjqX9h95l+z7UoczuLAy7OLHMsL//D//z2/9l//lf/nW//a//W/9mLPXvv/P//P/PJYt8T374Ac/+OIzn/nMey1JHgcOSIoG0D/6R//oeK5+vmPHjqeJOgkO/rP/7D8z1t9r5Tt/9Vd/dYwX/8f/8X/0UgzJpPocxKvEQPFIuTWGzehtxYzeDNeMz4H2eJjR3Ir/5r/5b46yJFnN+hqh70rnUtnP2felDme4TyPAJUaQHPVvJfmlL33pSIODx8klzjabfKfh3TZg3k/ykxANoFkydM4MdDy/Y8eOp4OMbeXHPvYxK8jjRNj4bkny3YZn4sS/+3f/7hg/fvWrXx3r55AgaqVjNyuxcEsMm9GbYRZPZ/RmuGZ81lapPR5cf9e+JUlJKivK0D4HfVc6d02SS/Y96WwJD2WEMLGGf/kv/2Vvh4f/+r/+r/v1+s72iUR5SJDvZWC01eRv2mryOFDGJClxOl/P7dix42liHOPDBPj9liRf/PrXvz7Gn60ryEC8ErwFcUFUMBWbtsSvGb2KWRzNuRm9Ga4ZnwNt75ok0z76Reexk+SafU86WwICI8OPZQRtsgR+//33T+jgoQ2GkwRpNgl1C8agqSvKMWnu2LHj6eJ3fud3+r1J9ZIcf/ORj3ykH7fyvba6fCcxK0lya7IUr7LSSCwSm5wb49WIGb2KMY46Dl9b4iNcOz6ndJ3rL+lb27RPkoq+a+Jfg75HmvX4HM7Z96SzJYxGwNRjGSGMUmCSZO4rSJBtMLyXpPd7v/d7v/n4xz9+HCSf/OQnj7PKmhgdL23D7tix4+kgD+7k2FZrEmaOjfMGceIdO1D1IZ4tEH/EKsFTKX4lsNZYNcOMXsUYR2vSmNGb4ZrxGdK30vWS/Nb+azv6jU6j59rPErRdorkFobFk35POZnCRxrKsC3M862wrQgdmfVZIjn/6p3/aH95RUgAnbwPhnQ984APvGRAeyMmggA996EMniTDJUOmcgVMH1o4dO54mMgEWA8bk6NgqM+O/wY7TO2LQD37wg+NDf+eQwCkeJXYJqJLTGK9GzOjNIK6NwT19riHx+FrxGapuXH+XJKl0Pb1WOca+RoTPGc2tcH2VwXG1b2dkDRoqJSsE1C2JEb+UmSCMQO1rBg/s+ArIv/7X//qtf/7P/3m/vg2IZ83x37WtmmRXk14ZFCfnxvOzdjt27Hi6qHFgITb0FaU48nd/93cvxaYZxKGsMpQ5Tmxcw4zeDCb+YzxNX2u4dnyGtFPO6K0hPCr1K9aTW3Kyczj2NSJ8zmhuBTpr9u0zkHNwcQygBMS37ulXptVD71/9q3817a8i2V3bv/zLv+xPpbXV4Ivm8O/H8e+KLUlyrc0tJNnKg/p4nPpDYtbvY/X9qljj8xZkWNPrY/E36/e++n4sGSB8Nxy3XsWkfM86x+JaVpnilWCZ+JfbPoK5BwlnMasCjTUkhuonK7Cc0++M5ohrxufAA5b0UuUJzTWkvTLfZCA3/do9nPVVoT1+0UifKbdsq2uL7yRHNE0y2BkPjvsH54AJF1rVZcayVQmgbVWGbVM0k6nXwBH/4i/+4q0vf/nL/V5kS5DvtBVkf1DnkgGWATKeq8dPEVWGUcbXQb43HW+KfUfZ7gtur+QBnvrykNbXe+1cX1EmRo31xCxxSNwTswTOJM0t8Ss0l1BXs/pN30oLhBnNEdeMz6BvvGYFGzqheQ7h1fXpV50cs/4qJDc2cX36u0R20Bcasa+SPJG/d7IGjJolyKgukrSUs85mqAYIXP/Vr3512t8IzALjN4d/1uC7kP1eg/sOdUA8JbxOAW7E6yzbVuz2vQxoPpTOcq9S3FBP/GhJ8t2G/h1Kq8l6j7IGWkFT/LHSUYpLiYdjvBoRGmtIXzVWWgVJejOaFdeOz0kq+FCGXtXfOaR/cd7qFd3IMvY34n//3//33rfrs3K8pG9tJUJ9ocW+sXHs2ytriKEsSfPWG5kX8S03vsOwkhAUQpmYcp9x1meF/rX97ne/27dZG/o2KyevA2HHbWFPlK837tu+D+UvEmIe7EsfuUfZYsj7rf7il7/85TFG2a2qScM58Uoy+PM///MejwRVSUkwncWsitBZQ42jYiQ4p58ZzYprx2fQd5J0pZf6GvAYfaNjixX/EhY+xr5GpE21WTA7N4LM9Bz74gHNat9+sAZZOiUBzDBcPOtwBkwowzDFMabZT2ivgcL02Zy9ryI5uG0TZX2abQkGxmwALp0fsdZmy/VvMp6Cfnb73h33oR80gvF8ktmrIk+ze8lIkmZiR0uUfdt1LaFIRH/8x3/c45/Yl90tyWkWsypm9EaIjYCHmli23JO7dnymB/26HSa5zGhvBVr6ravTWZ8V+nWd65OYg5H+EiTGz33uc10OkwP9opn+T7LyDBomW7tQhnePEBNbMnWgvVma0rsUJT8Mjf2N0N+f/dmfSZLPm5N/lWPH2etAeCq4j8DyVPAmyRrs9r0tVB69z1lZvjuZNu+1eHJ8kKeWHhS0iyVeiUdiITjOuTXUGLgV4qR7lWLfjGbFteOzdiYLEqsHKyX63GdFa+xnRJ0gfO1rX+uxnkxop1yDfq0A0aqvHdyaoNn3O9/5TpfDipIus4KPfbsga6gECaLzn//852/9m3/zb7pR4jRLYDSdytZmCBT5s5/97Ehz1ucISmwzv+fNkb+aewqce/x+5BbUwXEJct2l16+1va+Z8qU8PRRGPh6Lp1m/l/aday69dq3tbt/L8RCy+iWgStMkW+lcYkkrfef6ne9973s9Zn3lK1/p8UvQFvRr0E1c2hK/xng4QoJRJiBbBUpO4usW+uEJrhGfk+AyoXC9fsmypX/ya/v1r3/9rbw6MMldOeuzQjvyup7e9Bkk6a3BlrLkmj6DHOvj5IMljFkZgcwgKlMzMDpmMJzlKxoRcAu0bU7cV5LVsbcmSdcIWK5Lkr0kgNXrc20ddGvQftbWuWz5vApGviq28ngfiDyQvrf0v9Ru6/VQ2yovlT/X7PZdRuS5b/tWkDF9OB6vuSvQTR3vKfUhhiSJtrInSisqSVK8EsMSqxK0xcOt8WuMhyPERklCX4FziZNbcO34DEkqoRvdnYN+9YlX10eW0NuKTDb0m8S7RX79p6+qx9r/sXIOo9IwNOt0RIyujEIqna1ojv7CjXYOn6daDaY4/xI84KN9rkliRcfLCDJAlxA6qc/OrUE/NajkmshRz88w0puhPsSUaxIMRnoj0q4GJiX+tug3sqmH3ta+ITSUsRFsnQClv7HPWl9D6KQ+O7eG3b7rCA3lzL54wEuOI2uufQzgK6vLxk9PlFY1EqUYJv4kOSYeWT2lvoYxHo5IHBXQJTbxMUlzRm8J147P6T/JatbXEtL/pYm5wvWhFR2O/cyg/Yxe5eXkgzVc0whtwPQ37GRQZ0BtHUgGodL14yBUriF9ZqDrW935fHYO2qO1dH4N4zUjtDHI8YIeWXMtWVNfQqUDlVf1fL6E6CM6rjRzvIa0w7/j9JmHs/L5EvTvWv1D9JDPx/5GxIa5ZrfvKR7avqELjoNPfOITvU0+e0iEB4nyYPeeKL/1rW8dg3fi36WJchYTKxIbEx8lGaXjGb0lXDM+Q/q/a5J03SjDJYgc6EWHYz8zuGZGr/Jy8sEarmmENrieNyfuD+2A4FAH1xoyKBNo1F3baLzfVpJodrQ+TlDPt+tOjlPfitZfR+PlpASf136DkcYMtd3smvHzipzHC/lS+qzKu4YlmjMstU3fzqV0Xj1ttgKtikqj9p0+cl7bepz6Vuz2XW6bvp1L6bx62qSuTL0lyePvwj4kbLUqG599QgCHY5PyZ9/85jePyVAMrHFwy5bgLCZWJDYmPibJOJ7RW8I14zOk/7skSbhrksw1kQOtyDL2MYNrRppQeTn5YA3XNEIbLCdJMg6d4zVom7pBd4Bt2z9AN2ifn6B+toTxmiXMrls6V6/bgpHOEmbXQm3TAtTJ8ax9RW27pf2I8foR2uBpvG6GZs/etiI0Zhj7mmF23Qyz65bO1eu2YKSzhNm1UNtEJ8GsfUVtu6X9iPH6EdrEVrkmxw3G5yu/enIL3n777V6KFX4c4RAz+ncov/3tb5+sHt2vVEqc97mSlCRsEYqP4qRzM3pLuGZ8hvR/aZJM21dNkpXeJTxoN9KEysvJB2u4lhH02/4Mmp4kk/SybXoOkqltmxZEj+caDbP857P+RujfwPjGN77R7xmQwfemPA2m7hHkNXjKbDaYRn0uYUazwsACOsYfvuhav1v7gLQ1O8avx97RnPVZwZ70kQH+b//tv+00tsyyK7THg+v1Sw6Y9VkRm3iqrgazrdjtO+83eGj7ksmj/+qeNNSnryAckuhxYvxQaHGll55PyHEm4K3s36GMrLHzJbLPYmIFXSjpli48SEPXAv2M3hJGXwjdc+BL2ir5Oz4qna1I/6+SJEeaW6FvdNK3kixjXzNov0Qz9ZMP1vAqRgjDdzVC++tJkgMnOW5NkhkE4BpJVpI0CGd9zSCIesSY8slB9jjyOQgwNXhHj1sH2oxmBZ1C6vjK2yNm9EaEn5R4FQzI64u9Y38jPHatXzrxxV7X3SVZAR4ESPxXudbAHgKLADvKkvIcdvsu4zHsS+e+yE2XX/rSl/qEpf09SpIUE8SIFg+O73h1Pg8ZteOeKPMSdDJEl1t+RYRsa0gcpQe2FR/pRdyc0VtCeApC9xzuIz5D+ifH1r6hyl9pjfKsQVt04ktJ/Fv40GaJZuonH6xhZHoLA3AfRpDQmqOeJMmt261gC0WZAdDQk+SWQEZuA8T3iRhBQI48kW0NZocjvVqew4xmhYGFjziGc4KQgDOjtwX0IukkQK4hg1rf3rtITwmiW/SrDV2A67xcmY6rPGugX3xagYRmdLvbd45bsi/50MeLz9jAqrL9PUqShMQHyFOukETZ0BMlGUyolFlVnrNz4uASyB5dBM4rZ/SWMPIROucQH1ePvSudrUj/7Le1b0hb11Va5/Q6IjrM+HXMt8b+RizpufZ/8sEarmmEJEkOayUo2dXt0y2oM8aGniS3GsKAiBxe+yRAMYYAOco7gqFC5y7Gn9GsyBZN7KE/Dqfc0ldtk6Cn3CIb0Eva0s/o7KmfQ3RDDvQSnMf+RrCFVQh5w3/63dr/bt9lPIZ99QFop97+Hi1JgrhQjzOhrl8NaTHn+KshwG8iVz1fUXU5AzvSRexKN7HvjN4SRh4eMz5D+sf71r4hfY9+tabTGYwROhMLTLLIscXH8TqjV/s/+WAJGVz1WAeYIeQaMIoRQrgG8xgYaa6h/bnRfxwwo0OvIc4+JFW0NidJ7chgtcKpahCdyVyhfehkBo7e1r5nNCvYIAa3wqBfs3LHM3ozXNO+0YP29IMGehxeOeuzgn4NMNdldh96qZ/Dbt9lPLR96VyJlxzr1/g8jNM6bh8d2bkyOW8x5KVEWeWb1Ud9jtjH7+2P3+OJJeQiZWWcQdPJGigAME0Q5yrN2tcM2rS/44CRIC9JkmmbZHk4Pt6TnPVZEZnNUMhAbvJwZEYY5R1B5pnB41SzPitmNCuiV07pmIPEOfUzo1mRNuEp/D2mfSsMFjTQQrP2NYO+I3v4r3LM+qxI292+czy0fQXl6FzpvHPt7yaSJHz84x8/xpEkytyjhPE3IVOHqssZXnf71r5m0Petj9+XPhxRCWR7Qd1N/yh1DRhleAYLQm8r2t9xJRlnhSS+NQzJsR83uL+56cGdzC7IShb3TczQGGIm7wyuj1Er7S2Y0RuBH7xxULqOo2zp79r21V/lIQPWwNnSv/70L7CGRmakM+cfsdt33mfw0PaNbEr9KX3W/m4mSXo63jMQ2Y1qpd+07b9DWW1AzsB5GPU5w+ts31mfFfq79fF7/HANswspgYCYW4N2INN7co0CK51ZfxXatL+eJCW6mhjjtGvQxnVJko493ZokOeuzIm0o02uqODAZHM/kHaF9ZK2II4z9jZjRrMCHwcXJ8OWc+2q2HrbQh8pX8Fj2hdqWo2e7aUv/5KaDOsgqxr5GpM1u3zke2r7oBQJ79N7+bmq79ZOf/GRPluqt9D3rF+Rh57VgPupzxOtu31mfFU9h/L704Ygw4qkupYu919D3tMLMOTAChswYfE8KTY61Zaagr5bgepKUIMsTZ5tXkkmS4N5CkmRkOgdvifelYo5LDsYnE4eYyVuRN3akLzJHp1swo1mBBw4JeMuxR+1/9KMfTWlWXNu+gRkhPf/1X/91p8d5YdZfhQGpbz8PpL/MLC/pe7fvOh7SvnTuiVkgm1/d8PWW9ncTSbK+Gs9DPHkS9lOf+tR7LRa99CBPdBI/nOmz4nW376y/iqcwfjvRNeiM8gicrRBf3K4CrSEdRmj79xxgyywDfC9LkmxJrQ+YmiS3IMlRsoTDyrInST+LM+uzwrKdshmCvNV4ozJnIK/H7RlEIDBjgmwJzPqsmNEcUfmIg6v7vtmMZsW17etrBdGDgcJht+i1Qt/6FRjIQQb6Js/Y34jdvi/3V/EY9q19RL72dzPbrYkf6i059lIcaef6/Ul24AOSUpI9eR1XOZdQ9RH51ffxexvj9ziLWYILMJFS5kdw1uEawjxBqnCzPiu0rUnSSjDOuxVJlEE71x/cYZRZnxXZOqiyXOoE9GUrKYPHMUegg7G/ETN6FUu80HN4X8O17UsPBqT26uSJTNXht8D1to2iY3RnfVbs9t2Gh7TvzM7t7yaS5OH2TH/RQGKPiboVpljSyv4dyh/84Addt+Sk3+holGvEm2DfrXD9LY7fkw5ncIGLzYow7Ri2MhJF1fYMigaGZn1W6LP9HR/cyUrykOw2Q3s4zAjRem7mM+tzBB7CO3Ak5RYdaBMnRkud7AywxQlmNJcwOuUW+te2L6RP9Upr6yBL+9CKo4fmOez2XcZj2Df6rueMz8M4PRnHt4ASRzqyovTEK914M1Fe1hC5tuB1te85pH1o3dr4PelsCRonqwIhtjCwhNDaYgRt2t/JgzvKOGsc9RyGtj1J2laY9Vmhf6j8Xyp7DB/FxwG2yD+jN2LGj3Mx8jlc075B9OP6S/qubTl6ZB5lWoJ+YYnmFuz2PY/ox/Vb+jY+D+O0jtubQx7skSgb3vnhD3/Y76smUVZZU5c8Rh3M2m3V71O0b1Db3ur4fanTGa5pBG3a35NPknTICeoyfov8M3ojlviJw53DNe0baOs619+1b/pFpzr9rK8K7aDS2e27jsewr/F5GKd13N4cfIdSTFJvq8m+opQoPaFK77OVWlC/a1k/T32rfvfx+7Dj96TDJVzTCNq0v6slSbhvIyhDd+xrxIzeiCV+9DmjOeJ1GGSuoVeyZJApZ32N0HakVY/PYbfveWh7iX2Nz8M4reP25pCYpO7+ZUP/DuV3vvOdfp8r8kiWdfsxT1MGVSepb9XvPn4fdvyedLaEaxuh/R3vST7FJEleynffoO5/b5F/Rm/EEj/sNqM54pr2zUDQ1nWuv0vfrrnWINvtu4y72tf4PIzTOm5vElaTn/jEJ3psaujfofSkpKdTyeKJz8h1bvVY61v0C/v4fdjxe9LZEhCoDLv4sYwA7e9JJ0m6Y3zKp8tL5J/RG7HEz9Ygek37pl9t7zLI0lYZZ0cz9Mb+ZtB2RnMrdvsu4672NT4P47SO25vDhz/84R6TPFCYl6G3sm+7/vSnP+2yWEHWRJkHS+rKsuok9S36hX38Puz4PelsCdc0ArS/44B5qkkSDXIrHefcrL+KGb0RS/y8SUkSMhOt9GpfS9B2ieYW7PZdxl3ta3wexmkdtzeHj370o7201eprIsoDeqKsMkmOkb0mSKg6SX2LfmEfvw87fl/qcISGb3qShMr/pU7g+ugvJR1sCXIzmiOW+NlC/9r2rf26zvWX6jf1+r0yMoWPLViieQ7aun637xxb7TueMz4P47SO25uDuPL7v//7x2Ovr6srylb2RJmVZOSsX3up52t9i36fin2XUNve6vjt/9ZwbSNA+3ul7VbthraPmiTJSeZa1lnTGmY0Ryzx86YlSV9ETt/5vlNon8MSzXPQttp1t+8pttrXuXre+DyM0zpubxbiixVkjsWpQ70nSrIlUVpFjjqox6lv0e9Tse8SattbHb/95DlgWOn1R+qMspWRcVsBdIyeG6W1nxkw3P56ksxWxsH5TupL4Kxx2PJKu54kvXFn1mdFeB1lIP9MthnoC+gPPTKR3bmxvxEzejOMvDiO0c/hmvbVl/ZeA2VQhMZW3WqXtr6XxrHR8nor9GZ9Vuz2XcdMBw9lXzyFL+PzME4zZp8yjomyypo6XczswZdnOh2xj9+HHb+dqTW4CCyFHedixLcaYoQnv9CghLG/Edq0v+NXQBZma6tIu/JKu2OSnPVZQW48UHh9k8NWA2hrVpJfOFAn+6yvGWY0K6oNUg9v7DajWXFt+3JIZXTj+rv26wXHaKBJJk4/9jdit+/LfZ7DfdrX6gqcqzo3Pg/jNGP2SaPFrvca3qlf/SBvZK46iR9KeKM+R9y6fS/BrY7fk6w8QxhFAL74xS92IbYyAeOTXYxgpsCgsz4rMNz+jtutkqRkGcQJ15DkWBJsT5Jenj7rs8ILfMlfDa9+iSP4jTNbCfRHZg5Ahwwz67NiRm8J4Sm2yfbFGq5tX7rQPz3rt9LdouO0UfIVX+Lm6OhukX+373k8tH1nujY+D+M0Y/ZJQoxK/Gnluw39dyhnGP1OApjptGIfvw8/fnsHa2AocGEM4udUzIgoNAwtARPahaFf/OIX/Zc9MGFZPfY3wk+vtL+XkqT6Vkze99qTpJcSz/qs8Iqpr33ta/3nZzgeRK5R1hl+/OMf97fyk5f+zA6VHJEBZn1WzGhWRK+pp6RzPwMzo1lxbfvqm3PShXvE3sofOS6B75+5Xr9mpBwf3VmfFbt95/0G6St8PIR9E9BT15/xeRinx3H8FCHmfOxjH+v1liDfb+i/QwlJTsqci56d8/NPM51WPAX7bsEtj9/phRW1M3VMMABDyPznIDPriNCQn1PZYkDwEyjt77jdalZ21yQJrm2JFq3naM/6rCAzA/hiMMUxHGSmNZO54rvf/W6nQWfVgFWva5jRrMj2RAzMsTkOPeN7RrOi8qH+2PatunAN3slCv9n6WIM27OE3CNNv5Bj7mkHb3b7LeGj7hq77UT5TF/Ta32uRJH2PUul3KMWuhvca3mEHSYFu2TS3ftTphy4krFGfI27dvrM+K57C+D2euBQ6sEQl5BrMcDCtbtZhwM/oraH9nawkle4zbk2WnDN117Rre5Kc9bUEjpQleWTnDKO8I7QfaVUDn8OMZgW+zHjimPSdbYqtfczwWPbFI+fMcWigh4fa1wz6J6uy0r0Uu33neGj74sGWmfPkiw3a32tzT3J8duLtt9/uiVJSIqstRvaMHpK4kjDugn383t/4PflwDS6S6ZNtKcKsR7kGs18KYHhllDFm7TW0v2OSjMMpR+dbQtolqWYlOetrRByVMjlAZvOZpcxkrnDNTM6tss9oVnAOwUVdXxyD082Mv4Zr2hfSNrJsBTnxoF77U98SZHb7zvsNHtq+5FPSdfRNxvb3WiRJk3q/FCIGWU22BJnz/WUDtvrYQcCmCys59qWnUYdruFX7nsNTGL8nHyyBwsZzDKmTKHYJ2jE+ITCN+ZHWObS/44CpCS9JbytybZLkTK4ZGIKsZEiAItNM3hHaVVozg6xhRrOCTvEEjsMnbO3rmvYNjymj39Ca9VmR4OK6yLFlcFXs9l2Gdg9t3/ACqbe/12Yl+YEPfOClc5JnK/tXQ372s5/1rcLPfe5zfduRXtSrHtewj9+HHb8vnRgxXpTjLQaAyrCSUiq9LWh/fcAkKV6aHGtC5ZytvnklWeUlyyjTObhupAkzY8wwo1mBD/zQq1mUkoP6bEZvxC3Yt2Lr4K6IbWb0zmG37zoew76RKZ+pt7/XJkmeQf9qiAdI6MITlR5cscLc4kNPwb7noD0+ZvTOocqLBnpVpnNw3UgTql5PPpjhFozQ/u4tSVpNNrx2SZJzJtCEtxm9Ebdg34rXcZCtYUaz4k2w75ucJMWjFov6DzZ7+IQu3KNUn60QRzwF+56D9viY0TuHKi8a6FWZzsF1I02oej354BI8phHa370myVZuTpLBQxphDTOaFeErPFUnndHbise0b8VjD7IgNNCrMp2D62b0dvvOMbMvmm9qkhSX7G419N+h9IPNtlq//OUvT/W3Fbdk33PQHh8zelsRGuhVmc7BdTN6d0qS46C/xAgR4K5GaH/3niRbeVGSjCzKSxxhixHWMKNZET7wVFcayhm9JVzTvhWvMsi26nQGdHb7voyHtq/6m5wkPcxzSJT9dyh9FcTXYeh7y0oy2Mfvw43fkw/WMAow63CG+zBC+7v3JNlwpyRJlvs2whpmNEdEr4JLLWf0lnBN+1bcZZCB6+5jkO32PcVD21c9MqUPdePzME5PxvLrBnFJolRvZX/i1XccvUjgEn/ex+/Djd+TD9ZQL1KfdTjDfRih/d05SSZB5ppXSZJQjbDVEDPjb3WIGb0KPESvSnp+1SD62PatuOYgA33v9v0tHtq+6p6CrEkSjM/DOD0Zz68j/LTWIS5ZUfZE6asg9LXVj27Vvltxy+P35IM1XNMI7e+1S5JbMaNXQafRL74Em/A4o7eEa9q3Irqd9bUG192HnqM75VY+dvtux2hfdUkS7XymbnwexunJeH7d4DuUSonyd3/3d3N/sj/IQ19sFYy6rLhV+26F687JuIbQ0Xd42MrHuX6nJ2e4phHa38mAeewkWeV9CCOsYUavIjNwvPgiry9iO/bZJf1e074V1xhkVV597/b9LR7Dvr7Q7VzVu/F5GKcn4/l1Q94GlmSZ71QmUbovyV7nbH3L9t2CWx6/05MjKpHcTMZA3tawBrNEbRnAgHdupHkO7e84YMy0ankOkuIhMR7Lhp4kt/CQNgZyHCqycajUl6A9GtFbvRm/5UuzM5oVHALy1oq8bQK/M3ozXNO+3hKiTDBAK3TQrn3NELnzhpKq3y3Y7TvvN3ho+/oSvcTvnDJ14/MwTo9j+XXGRz7ykT6RlyTFNvUWr3qijK69y1UZf6s2qL6mzrb7+L2f8Xs8sQQEKKIqLcrIz6OsgfIpghC+KIvxLcGjov29lCRLwjuLpSQ562sG8lKoYMUQ6mQi20zmCu8QjO7iUKGZ+hpmNCvwQrd4o1vl7GdrloCPa9u3Ah39Gmhb9KtdBseM3haQd7fvHA9tX4FUgERbST4yG5+HcXocx68jbLPWnS6w7Zq6FWVD33qN3tmvBvXR15yj33383s/4PVa2wsV+PcMb7AmIsTUYBNph3CzRz/vMsvYSvOG9/R0HjEQ3OtU51BecQ6PRk6SfZ5n1OYLy/HyMWTyZOAJ5Ypg11KfUIq/jaoQ1zGhWeOt+HLLCGzsy87wEj21f/dVB6fF3NDk7Pc/6rODkBrbXeeFbn1t1G+z2XcZD29fbZQDt/ALI6/QrIOdQ45hfKxKrxDjwCyJKidIL0enPr1Wwn/ovf/nLXlY70LWYSYcSxcymFfv4PT9+pxcugeAUiaH8tEgInQNFxoAGPnpmLmMfI/J7kg3HARPH2pooxyTZ0JOk35Oc9VlhtpHfKxtl2mLMn//8511egY3R0OOUHJguZ31WzGhWjDzkmK45/IzmEq5hXzCoDBQDLLO5Lbqt0N6j8/SaAbJlkO72Pe1vCQ9l3wTFKqdzxudhnI5j97WCJGjlOMa07JjBRz/60WOi9NNOfMyEgj7ZlG7p2Xn29baerQuAYB+/y+O3n1yDCzLTwLQtEYbZOsDCaG2PIbQxMvY3Qpv2N02SW7GUJPNjm2vgAPit/G+VPTDDyS9u0x269BijrGFGr6I6gnqOOatZ2oxmxbXtq2/t9Q2hsbX/2o5+s2VE51v0u9t3HY9l38gGPjM+D+N0HLuvFSTDmhizivzUpz6VVWSHRNriWH8rj2Tyh3/4hz050LGVOJvyZT5B51W3a3gs+y6htrvV8XvS4QwuTOMoT3alXDOPWaczVGMQbIsCoGfyw4CJA3GoSxBHBPV2rifJONkayIzXJVnq+RnoiLyQHwXlWEq6nfVZMaM5Q4JLeIMZvRHXtq+BRRccVRkalfY5pG98kwEMcHzM+qzY7ftyXzNUnTyGfY3Pwzg9GcuvGxKX1POEK4hTY6xrSbK/lUfcShKJj7FJPce2+/i9n/HbD9aQgeUCxzHCrMMZMDwySxmV5hr01/7670lymsmq8CziiJmZodXOP/eF3VmfFeSnQDJE+ZciTseRzPTQtZSPMdYwo1cx48s522n6ndGsuLZ96QSf+DDgqiwj3SVwdNeZ/UWn6OFj7G/Ebt91PLR9Hc/0bnw2vPZJEvL9yMSouv0K7k0m7rV2fduVzqy6+Bhb0LHEEr2PNlvCQ9u30l3CrY/f/uEa6iBTOr5kkEFVFkFcj86svxH6bA7zvDlPHzBubivHWdY5cLrieD1Jenhh1mdFjFX5T30LtCdDjMqR0YMtOpjRXEKdOepXXzOaFde2b/rjkAbZSO8SoBP9oquc9VmRdqGx2/dlPLR9q85TNz4P4/Q4hl9HJI4lSdbkqO7z8tq6Xrak2Z949eBOtleBnm0bCvb0WPW6hn38ro/flzqdgQJkW8QcI5YOxk7PwTWuD60taM7SV5KchjPFgeJMW5D2h7InSfckZ/1V4BNGGerxOVB4nDhG3Sr/jN6IJX629nFt+4L2cfa79AsG6aWDTL9Q6ez2XcZj2df4PIzT4xh+U2EVmSSar4y05Nm/Q+l3KNnDKswTomz9la98pevwlu07w62O35MOZ6CwEAhDGWR3wV2M0P6OSTIzr0OyuxiH6zavJCPzKEM9PgfyVuWn3KKDGb0RS/xsoX8L9gXt6SU0RrpbIBGQBR36xsesr4rIXOns9l3GY9nX+DyM05Px+6ZBUkyZXbR8NSSJ0mRfguH/ntSk6zxleikey74z3Or4fanTEQgkuzvOhXdVxKVG0Lb99STJQThHTZZbkaR6zSSpRHPU5Rpm9EYs8bOF/rXtG2iPh9AY6W6BRHDNQbbbdxnaX2Jf4/MwTo9j+E1EVpDexCM5OpdYdqi/22Lhs+9///tv/dEf/VG3jRVl3Zq/BI9l3xludfweO1tDBlmUB3dVxKVG0Lb9vVKSnLS/lyS5VQcxei1nfc0wozdixodzM3ozXNu+Su3xEBoj3S0wyOLs6IX2GiJvpZP+t/Kx23cZd7Wv8XkYp3XcvnEQu7KC9Oq63Jd0Xr3Ftfd/53d+54WvhfhOubfdXKLnEY9l3xludfyeHMyAgVwY5h3fVRF3MUL7u7eV5AGPmiRjfNsJApbjrfLP6I2Y8aM+ozci9rymfZXa08tIqx6vQds4efoP7TVoByOtWp7Dbt9l3NW+xudhnNZx+8YhsS4vPoesKAO/Q9nwzk9+8pP+JqUvfvGLXYd3eYDmsew7QttbHb8nHc7g4sqw0rlZZ1twqRGgOcorP7gTHK67SpJU5v7QrK8ZZvRGVH5qfUZvxLXtm361p5fwH1qV9hpqv6G5BdrDSKuW57DbdxnpV/tL7Gt8Hsbpyfh901C/O5kFQv3s4x//eK9/+tOffu+DH/zgO9564x4lHV4jSW6174jab2hugfYw0qrlOZwbvycHM7g4zIfQyNQlqMqY9TdCu+YY/SsgnCRJErYkyrFNTZK+Jznrs0L/o7yXGqE6kroZU2ZNY38jZvRGVH5qfUZvxLXtSw/agr7Df2hV2jPM5K2rptrXDOl7iWY9v4Tdvsu4q32Nz8M4PRm/byIkwsS9POlak2dLkCn7gzxet/mrX/1qqtdzeCz7BmmjrDS38pC+l2jW80vQV2ipj+P3pMMZNHSBDGsp6ikq52edbQHGLzGCdjVJ1pcJbEmSHMp1aVuTpDdXzPqseFUjmM1F+b6/FP1laT/2N2JGc0Tlp9Zn9EZc2776jo7vMsjqbDl6RkdJplmfFem70qw6rOdn2O27jrva1/g8jNPjWH5TUWPXEMeOt53yFGw7f/x5LS+cmOl2DY9l3+ApjN8u5Bq8ecCFmYWqIzbrcIYZo1XIWZ8VGG2GP96TdBObg3COOMgaRmc6lLZun7vZPeuzwo1wskeOuzxaTeFoVf05lwC2hhm9EaOOGd45upvRrLgF++pbW9/1Co2tT+fV/jk6e6Vvzj/rs2K37zoew77po/bV/vYkeQESDw+x8eR3KIG+63GSU01SqUtO8ZeZTSvehPF7zMRLcJG3OmCaEAade3n5WZNZpzNoC4TwBnu0MDLrsyK/ApIkeUhyvaxbr0tIkqzJEq2G5z/84Q+nfVZwAvLie+ZQ5+At87Z1fX8JLQYgPwPM+hsxozlD9Js6fr/1rW9NaVZc274GFtCNR9fR4PB18KxBu1zjXkx+HQFtA2jsb8Ru33l/I9L/Q9g3fKAtuCrb354kN8DOWt1dC1p8e6/hJFGCXwcZ7Z4xpE7/XpieJDSzacWbMH6nF1bUziK4/W4CUQpia9CJTnWOCT/jYoBuVaJXL7W/Y5JsZZzgmDDXcEiKx7YSa4Ot2+dbtiPwybHwLdCQQynwZLaxBtdF1syu4hRbZlszmhV4oF+6hfw2H/v89Kc/ndKsuLZ9ITz83d/9XXd4Mzqg41mfFdmSwS+H3zo4gt2+836Dh7avWx4CVEo8qbe/PUluQO5Rqnvnq/uXSZot7r3b8EwSYEN+7SXeQNfs65w6n2Jfu2vsO9pwDa/7+O0H51AZUsralCDTRyFLyPJZ3euSGGKkuQYMt78+YJLslMARziHt4ziHmVdPklv6j7yCxZe+9KVeRsEca5R3BPlHw4du6muY0azwrsY4GqewcqBng2ILfRj5ekz7BmlPv2iSCa2xvxFWNGaykkfo4D8ToLGfEWm/23eOh7Yv25ExKxL9sGn725PkRuQF6eolQcL7DS/Yz8sG+I6vh9CvOn9iC75O7/yfXWIrSWJmyxmW7Bs/WsJTGL8nH64hCssx4QBTa8BomMaUWUwVcAva33HAMH4Sn+OtiBO5tpXHJHkO5KbEGJwcHCxKnslcoX1oReaUo3FmmNGsiG7V2UNd0FFmJrQF17QvRBfpF70t2z2xgX5df2m/u33n/QYPbV8z/xyD4Artb0+SG5C4lnjoWF15iHX9/qTbVlbpmWwp6Z892TnHVpVsdYlvwes8fo8NtiLKw0AUsgbtGIUQnN9+80hzDRhufycDJknykkSZGVZNkpcYJIMXyGVwp74G7WqAuqRPmNGsQD9Oz+hmZDkfI1+Cx7avWWBKuiED3tHjwLM+KwzEyO76KvMl8u/2neOh7ascgylZ29+eJDcgb+NRHmJbL3NejGzH/VdDJMlsvcYGbCup5Hgfvy+P35dOnEOUQjiKmHVcQXjKwrClraV1BupWtL+TAZMEuSVJpk2S5GHmtXklCRQnWEQWRlXSwUzmCnLP6I3nljCjWYE+R88xHuN4M3rncA37VtCzvqtMa4gdXBca42A7h92+y3ho+0a+BEp9KdvfniQ3Il//AMmxria9yk7SbPX32mfvfOc73+k6z9ZkbCBZsK97eRk7d5mEvY7j9+RghlwwMh2mziGMxvkdozkysob21wdMEt6W5Bik7SE53ilJAr6rTBnU50Bu1wssdHiJ3DCjWYE+/eIncL463Rpuwb4J3K6pdFNfQ+RVVhkuGWSw23eOh7avRD3yQsb2tyfJDRDfajyUEMdjMQ8+9rGP9R9sZg8/2Fx9iT3YOEmDv2wdQ6/7+H3pxBLGi3WAkXMI8zk24C4ZYND+XilJBo6TJBs2JcnwGv7JwqkoN+fWoP1IE7bqYEZzhD7M3Dg43pRL/S7hmvYNXJeEsLX/BHByVzq1XEPahJ5+d/v+Fg9t3yqbzxzTvfF5GKcn43nHZZAkrS5bguzHLUn2ROkJVg9isS992yGwunQPOgnqUjvP7HsOT2H8nnywhpHhS5UQY1RlbEX7u3OShJokOU0rNyfJIPI8hBHWMKNZETuMenZuRm8J17Lv2C866F7a/10HWRB6u31P8dD2RbMmyZwzPg/j9GQs77gMbjMdYl5/SbrjtlDo9yh9XSNPufoKxpe//OVeZ6etb+s5Z99zeArj9+SDNYwMX6KElBkQSzSX0P6uniQjB7lroDqHLUZYw4xmBT5qcMGbPp2b0VvCNe0LaRv+x37WEJuMtC7Bbt85Htq+obknyYeBe5JK8a/+cLMVpUTpe5GelrbtzQbsc9fX2SlH+26B9q4baV2C+E5o8aGxnxm0n9GrPJx8sIaR8UsUQQDtI8Cly/n292RXkjCTc6vsM3oV+KDfBDG8xdln9JZwTftC2ro+fW/lIf2ONC9BpbXb9xQPaV9IkvSZ8+rG52GcnozlHZfjE5/4RI9/bjV99KMfrZ+925LlM6tI261WlZ6AjX1TbsGSfeNDa9DuUn8eUWnd9/g9+WANI6GtCqgDLIN8xtQa2t+9J8l2/Cj3JKHKm/pWHczoVYQPPJkNCjjKS51u5Ocx7Qu5Br3Q3sJD2ozybuUh7Sq93b6/xUPbF/Yk+XAQ78CKMjEwvyDyu7/7u++3xPnie9/7Xn9TjnuSvq94SXIMluyb+hLS5pbH77FyDiPTWxQAhM+g5vwGhOsvMUT7u3qSjPFfxQjKWk8fa5jRq8AP1OAZ28zoLWHk5zHtW/tGswbmsb8R2mgPlebW/tP3bt85Htq+kAmAPny+J8n7gy3WJMrUnfeWnkPZt129bIANfA+XnWy5bvXhNfvGj5agza2P32PlHOpFsEUBkMFFCHXMz+itof29UpKMk6Tert+cJAO8kwH/ysg0k3lEVXytV/pLmNEbwRbRs7ptE/UZvSWM/DymfTMglK6Pk2/hIfaAGc2t2O07x2PYt04AHOuv/e1J8p5Q70tKjomftl+VvhoiUXp1HRuw0yXj55x916Ad34IZza3ANxqhd5/j91g5h3FQbB1koC2m3SD22qN8GXmkuYT2d/UkyfAJEmQiTwb1OVTF13qlv4QZvRFxSBBsPNrty8Fb+4Cx7WPaN+2V+Bc0o+dz0C4DZEZzK3b7LuMh7UvHkr5jNnCObO1vT5L3hBr/QPxMDM1XQ9rnPVH6QYnY7T7sew7a3fr4PVaWIKPXCzBvKU4Z3s6QwbsE7TBMCXnr/yW/mq1t+3tpwGQWtAVxkjhGu/ai7Vb4+te/3uVhhDgBuUZ5R/g5I2/HD71LjT+jWZHZUpwkuv43/+bf9F9QmdGsuLZ9K7zN39N2cd4t/WunZJ/x1wuqXEvY7TvvN3ho+7oHJvHmVWlgy6/97UnykZAE2uJif88rW/GZrObiP45zTjn6+us6fo8CLYHTIpYOOfA3v/nNzY8JR6kBJjxNha4nqmZ9Vuir/b00YGLYLcjMKUmyoSfJH/3oR9M+K/LEl8AwyrIF+hDQ6E/AYTx0BZ3U1zCjOQPe4lRK9vnud787pVlxbftyaAlA3x4eMFDuoucM0AR09LbMJHf7ruOh7Ru5IOeV7W9Pko+ED3/4w3UB0ROlCZgJEbuxYxIeHzdmnDOxYV/jLPb99a9//ZLPbMEtj9+TDpdAEWBQ2OpRZsDeBVEqmrP+KjAvoTV4ldzRmLW+Bm0Cq8/DNT1JUs6szwp8QnjPoBYsZrOOGbzFwhd1GVTAALQFmrG/ETN6FaMdciwIcuwZzRHXtG9AN5y09ruFh9iAXfTpCT206Ba9WV8Vu30vx2PYt/3tSfIRICZ62jVfDXHc8O4/+kf/qH81JAlLyX5sz+7isrF2V/sGT2H8HjtZggsoRlaVsZNdEd/KBHi/X9pTMgbQmvVZoa2E1vDVgwFPEt9o9BG1rbdNQKv3JGmbZ9ZnBQUKRhTPAJfIDK5DBw1bS5wrsifYrGFGc8SSY1YnWsK17QvRRfqFrX1XeQ0qgxkd9S397/Y97WsJD2XfBLWx3v72JPlIEFM93POhD30ot6beb0nyhS1M4yN+7BdC2DJJLPaPfY09tmPD12n89soaXKA0+6QcxJQRTnkOI2NRAIWM/Y3QRkKT2MYkyaAzoy9B+8P1PUnaTpj1WaF/Mo8yzORcAlkFK9sTdMcQ6Ao2sz4rZvQqwkt1jrxweEZvxLXta0DU45HWrL8KbSI7WnHuLX3Dbt95vxXpN7hP+45BLf21vz1JPgLyBh7w2jrHFhJvv/12f8er71CKk3Yg+Djf5td8wLEksmbf0ZdGaHPr47c3OAcXyNiEQMi5kaktwJABrmODNko5h/Z3HDB1m3VLkkwyVRb0JGk7YdZfRQJClWMc2OdATvJyKG/fVwKdjv2NmNE7BzMqpT5mNEdc274cVKl9HBe9yHEOWYFwcDT0v1X23b7b8Zj2bX97knwE5CshYiTkaVdoK8t+f/Lb3/52f7jK+GLHjDM/rXVX+1bc+vjtDdaAiZQhRClhJEpZwsgQGLTgIYKxvxGdyTZgJDaGS8JTT7kG7a0e63UNaD13o3nWZ4VZBZnJOzP6TOYKbRg9tGJc55RjfyNmNCvwpdRP6uEztlvDte2rP7qw4ql6Du2xvxnSL77pGF26TX0Nu33n/QbajLhP+0L6queNz8M4PY7lHQ8DcdGLBhIfbbu2lWSvt7j5Xiv7ijI/r8WXrLJsv7IpX3idx+9JhzNgANQpIxePzCwhjFSmKAOt0F2DNu3vmCSz3aq+FdoHh3Obk2QwyrMVDEdnHCtOUPU466tiRnNEDXj1vH5mNCtuwb76THmpfgM6iJ6V+t8ifxA6l/a/23feb7DFvrPgZnwexulxHO94GFhAnKkfvxriu7JWkJ5E9ZDNFvtuwS2P35c6m0FjF0URCGXgbkVlHjNoway/Ee2vJ0lJrt6XPBhwE4b2m5Nk+JzJMhvcI7RFh84it2OGuK8gOgPettCHa9o3eohjzuhthe0aWySRZdbfiPBZ6ez2fRmPbV/j8zBO67jdcT30FeXPfvazvvX62c9+tn91Ir5lJckv2I5vbhk7I251/B47W0MIuBAR5azDJYTZlJcqof1Nt1slS+UW5JpDeackWQf2uUFeEYXTYQJGaI/9jZjRW0Llia5j5HO4pn0h+kkQjRyX6BjSby1n/VVoB67f7TvHNexrfB7G6XEM73h8+HqIB3kOxz1R+m7h5z//+eOqj43ZV5KL/S4ZP0EdtylHXxqhHbi+9nlJ/+fG70mHS4iDZ5CFqa3I4MrsNXTDzBq0aX/HJFkMdvFqEmqS/Iu/+ItpnxX65wz4vqsR6I4O7eMnYKEdI6xhRq9i5CnHSn3OaI64pn0h+lF3fZVBeQ7pP06uzPbJ2NeI3b7ncQ37Gp+HcXoyfndcHe82PPOmGk+8WvnxA2Dj+MoluPXxe9LhEhDIAEPA0jqPoV8KzM/6WIJ+298xSXpEue6bn4OkOEmmPUl6unXWZ0WMUI2fYLHVEIwQ3aGVp7hihDXM6FVUHvBYj7fQh2vaF/Sb/rfqNKjtOTlZ0OTs9D72NWK372XQ/6yPNeh3yb6Og3re+DyM03Hs7nhEJHbmQZ4GL9Z9YRfOtmvGGNtCHUejTWeobW51/J50OAMmMKzuoiVnP4clZWxB+zsmSUbLluslyTI4GL0nya0P7pC5yhKDVMOsAQ06Ywy6vM8gWjHys4X+Ldg3QZyThsZW3aZdvpqAXgYYmmNfM+z2PY/Htq/xeRinJ+N3x+Mju3eegD2U/WXoP/3pT7tv5asSbB37bR07aXfL4/fY0RJcaOZZBYizb2UiAyztMSFjj33NoK+W2HqSrPcjlalvwdC2J8kt262MH3nJEVlqfQ3axIEYM/QYIEZYw4zmEio/td81XNu+0QFeBV/XZyZ4CfDgevzTM0SmNez2fbmfEen3Ie07ymZ8HsZpHbc7HhlZiKT0ntdD2ROlt9T4KhB/4P/VtpeMYza/1fF70uESMI5hFyFk0G1lAjK4KE3d9VsCCGjbElxPkh7UucvqEWZJsr6xfgnkNVPyrswq79YAA2SgePSifMZAe+xvxIzeiNEOjvG3NZBd076gb/rAr+sv0S1kMEa3dE2mWV8jdvue9jVDdPFQ9q28RDbj8zBO67jd8ciwiszvUYIHeZSHhyb7gzxeUMHOfKL61GjnJdz6+D3pcAbMprG678lILr/4xS+mHa6BEN7WbpvTrGHsawa/WJAkGUPFSJckzJok27U9Sf7whz+c9llh1kzen/zkJ0c5LjEAMGKVV7BI4Kp9zTCjV0Gn1TmA04F+ZzQrrm1ffdOD0sr+Lr9nxx5+XUK/XlRM7gTlWZ8Vu3234zHta3w27EnyxiCODguOnij9iod3A/uKCPtdMoZuffxOL6qIIxuU1ak5fIRZg8Gh1JmlufcAhsYWUH6SZBLjXVeTcJgB9STpZ11mfVaQ2SzFd4LMOCiuGm+Ud4StCDJcarhgRrMCL/hi1Hrur//6r1/6fbYZrm3f9Bk9e4sHOpw2M7o1eG8j2Q0wOg69rfpOv7t953ho++KBPPQIAq2VifF5GKcvjeEdN4f3WnzuLxv4xje+0X3GQ5F5xVsdS475Mli9PYXxOz1ZYXCN59xkpQiPAGNqDdphVtu8649gUcY5aFeTZCvHmcxmuM7TsVaSLdFu+tFloAPGjQxkyrsrZzJXCAbjk4Rk2vp04YzmDGZUwZ/8yZ/04DOjN+La9oXalp4NrrwCa9ZnhTYGmgFSHf2S/nf7LuOh7UvP7EePZHNOm/a3J8kngMTiVvZEafL2hS98ofsJG7Nr7JwtzZSx962P35MP1+DCCKFOCZBZwRIw7FHh1JWV1hY05fckGYO8CuyxtwTZX3A+62tE+GRExhWczD7UlVXWGegodMxYYvxZ8JphRrOCc4B+8GgmbkuNrtPXFlzTvlUX+uS4ZoN0XfuawcrEYFOvNGELD7t95/0GD21fgQycp3Oy+qz97UnyCaB+b70tQN5tsfXZj3/8454o/dQWu8Z/2Zlt+TFfUn8K4/dY2YJ6YYTEzBpkdEoyMAxujFWaW9D+TgaMZAlbtl3TFnLcys1JMois+DcDSaAa5R0RI0A1Ol1uCaQzmhX0yslSCmjOc5oZvTVcy75ANxwULXTRIc/Y3wxZlWzV6Qy7fed4aPsmQTp2Hl/atL89ST4BiKcf//jHU++/Q2nrU4JiR/bkO2yb0jm2z/i69fF7PLmGZNdaGjyY0Mk5EAAoyf2G0KhMraH99QGTRJd7k4f7i6vQxmwnW7WHxHpRksRnlBpZyMUgo6wjxqASHYK99PrZDDOaFYKl0gyKftmEbZzf6nDXtO/IIzkMLvxv0S8etXOfq9LZ6luw23cdD2lfwdGxevjRV/vbk+QTgVtYn/zkJ3u9xdf32nH/DiV7sjd7snN8Wb0m0Vsfv8cTawjD1eEJmIG7BnvEZg0YpxDKuUQB0P5OBoxEJ+Elaa4hyTRJ8pBYL06SmfECOWAm7wiOQfF0B3Wve0uQm9EckXtFeMxeO9tUg6/hmvatbfFLXwI4upx+1meF+xna6bvS2qLbYLfvMh7avgGZ9JeE2f72JPkE4PcolZKk71CKsW1l2X+w2cM7bMm2fIed6wpS/SmM3+OJJYTAeC4DNowtwaDSFtNRUKVT6S6h/Z0MmC3JcUSuOSTYzUkyshu8QBZGpVyYyVwhIFQ51ccbxWuY0axIoAt/9JtAM6M34tr21YaTpzSjxDs6mRGuQdvIPtLd0v9u33m/wUPbNzJF7/r0efvbk+QTgLhaFyK2Xh1LlK3sLxtw3zGTLKVxFbs/hfF7crCEkVnHhMXQJSAEpiqtLWh/L60kU78UlybJyM6gCSqMQJ4M7jXE+IwpSFTaWzCjWVH50Ze6Em8zejNc274B50SDTFt0C9qzizoadYtzlGuG3b7bod/7tm+t07/P1dvfniSfCA67cx31QZ6G/sTr97///f79R3aWMN0vlDztJrD3rY/f6cmKGaOIYUYHW2EWalasvDSYtL+TAVONcg5mOrX9IcH2JHmJETKYI0udAa1Bu3EmD1t1MKM5Qh8JMHE457b0cQv2rQj/1YnXUNu6vs4Cd/vevn3xIfFmpUEuK4D2tyfJ1wAtzvZE+Td/8zc9MeZrRx7uSTIL+Mctjt+TD9bwd3/3d71EEGMGzOjwM2SrKAPd8Uj7HNrfnZNkIFkqzXRa/aJ7kpkBR/EGNKOMRp6BzCOt1LcEmxnNiugVbI1xEM4y9nsO17JvnFwJcfSUsz5nqPJueWCmYrfvMh7DvmSic7Sd11f725PkawBxt6E/zPOd73yn+xAbszU7x8+qP9/a+D2eWEKcfESEnXU8IgMsQrh+lr1n0K799QFzUPhFSTJts0Xr+lZuXkkGFE4GcLM5sszkrWAw15Ojyrx1Nj6jWcEGHEKgwY9jfeJ3i46vbV+IY9IJevq1mkBz7GsG/Rp06EQetHb73r590SOLpO28Y/K1vz1JvgbwrldPvza829B/h5LdrSj5dfzrlsdvZ2QNGiWzVyIRECNryICwpeK4zkRn/Y3Qrv0dk2SUD1uSZa5JebjmuJKc9TlDAgqlksGsPoN6DdokSFT9obml/xnNivBAv/hzzGE4yRb62lzTvpD2kJXSlr4DA8M1lU50PutvhvS52/cU+nto+zrnODLuSfL1wac+9aletmR5/A6lV9Cxue/8sv+tj9/jyTVomMyqNOjM/DCjk3OgBAJktliZ2YL2dxwwkl0S3tYHeGr7w43lniS38kFeyqdUMidIjXLOQOYYAehPvzFu7WeGGc2KGJt+BbOsOPDnDRIzmiOubV+IXgTv6BbN2s8ayIwGXUeWrdjtu46HtK9j+lY65zP19rcnydcAFiW+GiL2vv322++1ZNkf5PnjP/7jniTjY7c8fo8Ha8jFyhxjhjNnEC8hgyCMe6LJ9WFs7GuENu3vOGAoe2tyDOqK83AtWptWkgkI5DWoyZSgMco6A7mrvCNmfVbMaFaEl5S2GhIAt9AH7a5p3zooIgda6rM+Kzh6VjrpL7Sqsy9ht++83+Ch7ct+oe18eDI+D+P0OHZ3PE3Ybs1Tr63s267xqacwfqcfVGiUsjo7JrYAE5SQY4yFxhaYJbS/l34qC7Ymy6wkQcJshupJMrKtIW3wzhAGM5mi5Mi1BIM+emOI2mfV5xJmNCsSXPCU2ZRj5SXyKa9h3/Sfvjl4ZNqiX9DOdXF0tPhN+lhD+kdnt+/LeAz7CpTqWSXrz/hs2JPkE8cnPvGJHn/bKrInSrG34fkPfvCD4zY7m9/y+J1eOELHYYAwnNrFleAStEm7lK6f9TODwND+ji84l+SS9GryOwcGKu17kvQ7ZLM+R1B2lSf1rSAv3SkzM8+MedZfxYzeiBr81MPjjN4M17QvPSRwKl0feapc56BvekUn+p31N8Nu32Vok3Yp79O+AlOOEyT1Y3wexunJON7x9JC38kBbRfo1p76LV/2azW91/L7U4QwuGAfGXZgB16G1JYAE7e8kSVL2JQkShvY9SbqBPOtvRDVCZKjH5xB5BYnocqsOZvTOIfxt1fE17Zt+o5/QGOluQR1coVf7WoK2lc5u32Xct31Tz7ZZEqXxeRinfcfIJFe93jq5NAbseHwkZpfy/Va+qLYPbnX8vtThDC6sDLv4UkYC110yyKAp9sknyeiwzua36GBGbytm9Ga4tn1BezzMaG6F1VJkibPP+hqx23c7Hsq+dTWpbnwapxJkxq57W6krL40BO+4Pd9E9+ylbDH+3Xf9s9IFbHb8vdTjDfQ4yuHSQNYW+FknSTMn2cXS5RQczejPMeJrRm+Ga9tVWqT0eXH/XvrOlmBlpaJ/Dbt/L8BD2zTkJMkmyJcjjSjIwjmvi3HHbqHbynUlli+H92wWjD9zq+D3pbAkPNcjCxDlQaMOTTpKMzwkYgTFCd+xrxIxexVrAmdGb4dr2BW3Xguga0j76ReexB9lu33VoO7PvUj1jXkI0ZmuZsZxzOx4Ol8bZEWyUmP2BD3ygl+zKvqPdb3X8nnS2BARGhi9lpOLSQUahB8U++ZUkXSZgOTf2NWJGr2LkxXG2rrbq95r2TRul61x/Sd/apn2cPPquiWEN+h5p1uNz2O27jLRRzuw71iNbC67PGt7NmDXuM4aV2brb8bAYJyJ0f0nsdX2126HsSZKt2Tw+cKvj96SzJYyDDFOXMlJxySADCj0o9kkmydCgfCX5Y5ixrxEzehUjL45zbkZvhmvbN30rXZ/BM9Kdobaj3+g0eq79LEHbJZpbEBq7fedI30rXj/at9SRJZQuwL1oyfP9DH/rQcewOT6mfhbaXxoqnioeQdaR3Kf3E6zx4ZTXZ7NqTZPVluNXxe9LZDC7SWJZ1YY5nnW1F6MCszxHt72pJMnxW/i81gutj8MjOIILX2N+IGb0ZRoeD9LkGvFzbvlU3rr9LklS6nl6rHGNfI8LnjOZWuL7K4Hi3729RdeP6mX2THCtagnzWEqQvn7+0ckwcOAfj/tJY8ZgIf/fB40PLOtIeV5kzuEa72E+SbOd6kmTj+IGSf9zi+O2MrEFDpaUwAuqWxIhfykwQRqD2NUNn8gGT5KzPivBZ+b9UbnQoPcrPcXS7hhm9GfJ2inoufa3h2vaFtBv1vAXhUalfb+4gN7/xpfSxrxHhc0ZzK9DZ7buMtBv1DOFhTJI534LrO22svmfcCrQf+9jH+hgWB7I6WYNxf2mseExkO/I++HxIWfFJ50mMytxjPAcP7ODLNYfrF5PkLY7fPsM8BxdngCkB8dnsb4bKtHroecXVrL+KmiQp/C5JkmHSPkZq6Ely1mdFDFHlSJnvdq1BW8aO8tEUpAQtDjH2N2JGsyI20E9m6DnHyDOaI65p3+Bf/st/2fVU5QnNNaS90kuNyUBuuvUKt1lfFbt95/1WRB+pP6Z9of0dEyV88IMf/M1nPvOZXj+Hw3jvpSRr6xbUQVxYQ+jUeuD68dyIkd6I2rbyU89fgsRHiYmeal8z+KI/qNfYGr3hSR2006bSTb9LWGjT4y/bxh+Utzp++wfngAkX1pciX+Lk2lZl/Omf/mmnmUx9DhTalH2SJBntUiPF8A2bV5KUR1nhPfJEti2gOzTInFLy3yL/jF5FficQ8BXelPqY0RxxbfvqG6/K0EQnNM8hvLo+/aqTY9ZfxW7f89D2WvbVxncn2zh+pwXsniiNaUkgwXsNh/F+PK7xYEv8yDVWTTX2WMWCc2sY6Y1AWyIKLceQPkZ6I8IX5NpZP0uoOlFHR13fWSnmXPhS37qKBNfnugOOSRLii/zjFsdv72QNGDULlFFd5H17yllnM9QBFrj+q1/96rS/ERim0Gag/jg441H0oPRFVKcphj0myVmfFX5Nmw7wnZnJpQGGoukNLUEK0KaHsb8RM5ojwk/VNV4FxRnNimvbN06JD2XoRaYtSP8c2+oG3cgy9jdit+86ap/BY9qXnNpKlC2ZvNPG87ttFSkWGMNe8noc3zNk1ZhjcUNM+MhHPtJXRLXtDIkf4g46NZ7cF9BMPKtxbUsiqgksSIzcAtfPkiCoR1+OP/3pT3edXRqD6W1oe5Ikb3389soaMhAtSS2HMyOM4846rgjDSkJQiMGCqX/9r//1tM8KDFNoM1S/Jxllx3BbkGvyZdaGbqQt/eNVOQYKmJ0bQWZGECz+/M//vOsRTUGLbGN/I2Y0R1Q76A+c0++MZsW17Qv6ThCv9FJfAx5jB3Rs0eCfw8d2a9jt+3J/FdUe17Bvxfe+973+ME+DFw3Aizam322l8XwC51q7Xgb1c/EkZerj5zlfr0UTWqLoyPlLEfq1b/WWsDrQbkmy9+24Xhukbb0ux5XuEtLGNSn1V+XSpvHxfiuPK0JQT7Jcg7ZNX8djdX009Kdbn8L47QdrkKVTEsAM0sWzDmfAhDIMU4zBanYb2mvQpv299LJjyq/Ha4iRyjVo9SQ567Piy1/+cg8s4b0iMp4DxX/uc5/r+hNcyITmFvln9EbQLXC4yteWPf3woLyGfelBv/TMOWe0twIt/dbVy6zPit2+67gF++rzV7/6VU/2+pYsv/Od7/TfI2xj+pmxPINAXNECfcd4DLPrg3rd1mvugtpPxawtVF5GzNrPMLt2ROPhD1pS9M7VYwwtC45VtOuP1yjd12xlT5KjnW91/J5k5Rk0xLC6C2X4v/iLv+hMZOBsgfZ+/kRpm9NsAUNjfyP++q//uum3G/SYJKN4Zc6toW5bHGY/PUn6uZZZnxUGpRkGGf7dv/t3R3m2DnCD24AmrxkLXWYF4NzY34gZzXOgZ/ey2GpGs+La9tUuwe8v//IveyLIfTi0xn5G1ATyta997fhDrminXMNu33kfI65l32oTk1pJXhAV2NAm0xrY9lvf+tZbP/vZz05+pJp9t/TPtl//+tff8ov6fAtNOtW3ADqTuWJGc0TlI36H15///OdTmhUmPPhQsjNe/ajxr3/9667r0F1D/ICu//Zv//atb3zjG30ssdmPfvSj/j11MTNxN7F3y3ZwrlEXeyXahp4k+cFTGL/dQGuoBAmic8bjNBwG0TUYlDrl1JzbQOGwoTnrs4Ii29/RSFF86lvAMKlbVdpOYCTGmfVZgUfycj5BoQ7AKHUNBjbjjQEpx7M+K2Y0KwQgZQxqsOCTfbbQrzxdw74ZIPrlsK7XL1m29E9+bdlHYNBndLvb9+nbV99kFgzRSZ/ohYc16B9MttGgO/e90KRTgXgN3/72t7u8JgihGT62YEZzBD3gJ8lOohD4f/rTn05pVtBFrdPLL3/5y/5wFd3N+qtIv7bl+YSfD8w4ClqstaLsi5TDdulJfD2HmiQPx2L5c8n4KYzfkw+WMDokAhyMgJWpGRgBMzEYg6ARAbeg/b2UJJWXINcwGCM1vLTcX0OCFRli2C3ykzsKr3ocjbKEGc0KPOGlOr5z0fMWXNu+EH2ELlq1nyXoV594dX1k2arfYLfvHNe2L+hbKVGFjv638qBd+A/odOxnBteln5ooR50uYUZzhD4E+Opz6jN6I0Y9pL5VvuiCneMT0bESJLQWO8XMk4SX+jkk9iZJtuOeJONXtz5+j5VzqIYADM06HYHpMB+FVDpb0P5Otlu3GidgpBjqsKq8OEninzxkIcNWJ9R+Rm/U5xJmNCtiBw7BycMbfmf0lnBN+0L6j7PP+lpC+t+q0xl2+86x23e3r4QmZmZHrsbTc0g7ZeJ2q/fbXeEx/d+qfU8+WMNDGuEcKLTh6kkyMnNosoyyzrDFCGuY0ayIbqPf8OZ4Rm8J17QvpP+7BlHXbdXpDJEDvd2+v0X0kv53+/4D3iT7tj8P79wpSQbai9uHa19Kkrds35MP1vCQRjgHCm241yTZsClJRu5qhMgyyjrDFiOsYUazIroNTxwk52b0lnBN+0L6D/+zvtZw10G223cd0Uv63+17SvccZjQrotvwdIv2FSvFzPtOkpWPW7bvyQdreEgjnAOFNtz5nuTBML1+SLAXJ8nIQ5ZLBvoWI6xhRrMiusWTLQb6pWfnZvSWcE37Qvq/RLeQtq86yCq93b6/xW7f3b4tZvb4m8VJjadbof0sSYbPW7bvyQdreEgjrEG/FNpwTJLBVkMdDNPrlyZJwENVvpIsM3lHbDHCGmY0K2IHenVPww14gw2PM3pLuJZ9g/R/iYND2l4qb8Vu32Xs9t3tK1aKmQ+dJMd+t+Kh7XvywRpexQhh+K6DjEIbXlpJpjyHg2F6/VWTZGRyvEUHW4ywhhnNivCAt2vNRF/VvpD+4+hjP0uo8ldaW/UL2qKz2/dl7Pbd7StWtrh5pySZdspc39Djb7XBLdv35IM1PKQRzoFCKTbGKcrehFynfpckCVG8mV6cmFOP8o7YYoQ1zGhWhBf9BM4v9buEa9oX0j9H39o3pO2rDDLY7TvHbt/dvmKlmPkqSXKo32uShIe078kHa3hII5wDhR4U25NcbiBvRTXqXZNktkG8usgXq8lhe2SUd8QWI6xhRrMCT3hRcjQ8KR3P6C3hmvaF9H9pEE3frzrIdvvOsdt3t69YKWbeNUmmbSl7/NXfU7DvyQdLGL/Y6VgHmImgS8AoRgjhGsxj4JIvi1JoQ0+SsNVAEMMOibUbaashtCODN3ZwKm+nIA/ZZjJXaB86+bIqelv7ntGsYIMY3BtR6DdvnpjRm+Ga9o0etKcfNNDj8MpZnxX0a4C5rr4J5RL/2u27jN2+b7Z91cXKQ8w8iaWJrWvQNu1TJknq9ynY93hiCblIWRln0HSyBgoATEcplWbtawZtKLShG0mCvCRJpm2dBbWyv/FhS/+R2QyFDOQmD0dmhFHeEWSeGdw5Rpn1WTGjWRG9CjqOOYhjttHPjGZF2oSn8PeY9q0wWNBAC83a1wz6juzhv8ox67MibXf7zrHb9822L4iVh5g5i6Wr0CbtvXHHcUNPkun71u370ocjKgGZ3kXq3tYepa4BowzPYEHobQWFHhR7YpgtM5nRoI4bbB1s2m7N7IKsZPFORDM0hpjJO4PrY9RKewtm9EbgB28CEF3HUbb0d2376q/ygG/ObuBs6V9/+jcDDo3MSGfOP2K377zPYLfvbl+x8hAzX4qlynNI+zFJ8oOnYN/jh2uYXcjJCYi5NWgHMv2XvvSlPkAqnVl/FdpQKMVScDXMsIU6hTYHwxyPm7GOSXLWZ0XaUOZXvvKV7sBkcDyTd4T2kbUijjD2N2JGswIfBhcnw5dzfinB1sMW+lD5Ch7LvlDbcvRsN23pn9x0UAdZxdjXiLTZ7TvHbt83274gVoqZZbu0Y0v8rbG3JNmeJPX7FOz70ocjwkhe7utib2v3xvgwcw6UgSEzBm+ZR9MsYctMQV9NqT1JUnL9Ac+aMJegTQwFZjNJkvWFxWvwlni/BsBxycH5yGTAz+St+OY3v9l1lr7IHJ1uwYxmBR4MMsBbjv2ckZ+5mdGsuLZ9AzNCevZrDehxXpj1VyHg6tvPP+kvM8tL+t7tu47dvm+ufdEVK8VMsbPG0i3xt7ZTP5zvSZJun4J9O9E16IzyOLRlrGM/d1MFWkM6jNB++ooDbJnlgJ9Aacrty30KrklyC6pB4bCy7EnSj7fO+qywbKdshiBvNd6WwUJeP8fCIH52yIwJsiUw67NiRnNE5SMOru6naGY0K65tXz9bFD0YKBx2i14r9K1fgYEcZKBv8oz9jdjt+3J/Fbt932z7ipFipZgpdiaOJq7OYm5FYu/QtidJP52Wvm/ZvsdZzBJcgImUMj+Csw7XEOYJUoWb9VmhbVPwMUmazRRlb0IMGrRz/cEdRpn1WZGtoSrLFuVX0Jd7BOQlj2OOQAdjfyNm9CqWeKHn8L6Ga9uXHgxI7dXJMw7crXC9baPoGN1ZnxW7fbdht++baV8xUqw8xMwxjp6Fdkms5XxPkiMPt2rfkw5ncIGLLd0x7Ri2MhLl1/YMigaGZn1W6JNCm7JPVpJbjRTEsAdjdSOZ2c76HIGH8A4cSblFB9rEidFSJzsDbHGCGc0ljEFnC/1r2xfSp3qltTWIpn1oxdFD8xx2+y5jt++bbV8xUqwUM7MivGvsLedOkuSt2/eksyVonKwKhNhqhBlCa8sg04ZCm5KPD+5E4YPiVzEzkm2FWZ8V+ofK/6Wyx/BRfBxgi/wzeiNm/DgXI5/DNe0bRD+uv6Tv2pajR+ZRpiXoF5ZobsFu3/OIflx/Sd+17W7fOR7SvmKkWHmImbNYuglDzD4myadg35c6neEhjRCaS9CGQptyn3SSpENOUJfxW+Sf0RuxxE8c7hyuad9AW9e5/q590y861elnfVVoB5XObt917PZ9c+z70Emy4lbte9LhEq45yLSh0KbcqyRJuG8jKEN37GvEjN6IWx5koXkO2rrO9Xfp2zX0SpYMMuWsrxHajrTq8Tns9j0PbXf7znHL9n2sJHnL9j3pbAkPaYTQXAOFNuV2Iz3FJEleynffoO5/b5F/Rm/EEj+3MMhCcwkZCNq6zvV36ds11xpku32Xsdt3TrPilu37JiTJc/Y96WwJCFSG79MIobkGCm3KfbJJku4Yn/Lp8hL5Z/RGLPGzdZBd077pV1vXuf6SvtNWGWdHM/TG/mbQdkZzK3b7LmO375xmxRI/t2Dfh06ST8G+J50t4SGNEJproNCDYp9skkSD3ErHOTfrr2JGb8QSP29SEAVOHplDr/a1BG2XaG7Bbt9l7Pad06y4Zfs+VpKEW7XvSx2O0PBNT5JQ+b9Edm1dH/2lpIMtg2BGc8QSP1voX9u+tV/Xuf5S/aZev1dGpvCxBUs0z0Fb1+/2nWO375xuxRI/t2Dfx0ySt2rf/m8ND22E0FwDhTbl3jlJaje0fdQkSU4y17LOmtYwozliiZ83LYj6InL6zvedQvsclmieg7bVrrt9T7Hbd063YomfW7DvUpLcGnuDWfzV11Owbz95DhhWev2ROqNsZWT2hWEdo+dGae1nBgxTaFNyfy1SfanulhfsSqqgXl5p143kbRKzPivC6ygD+bd+GZq+gP7QIxPZnRv7GzGjN8PIi+MY/RyuaV99ae81UAZFaGzVrXZp6/VSHBstr7dCb9ZnxW7fdcx0sNv3zbGvGClWHmLmMYbWuLoFS0lS/+HhVu3bmVqDi8BS2HEuRnyrIUZ4Rx4alDD2N0IbCpUkKbomxq1GSrvySrtjkpz1WUFuPFB4fZPDVgNoa1bitUfoqJN91tcMM5oV1Qaphzd2m9GsuLZ9OaQyunH9Xfv1gmM00CQTpx/7G7Hb9+U+z2G375tj3zFJJoZekiBB7C6J8pgkK27VvidZeYYwigB88Ytf7EJsZQK81Dh1gjCCmQKDzvqswDCFSpIULElG4UXpq4hhS4LtRvLy9FmfFV7QTP7RmS9xQL9xZiuB/sjMAeiQYWZ9VszoLSE8xTbZvljDte2bQEDP+q10t+g4bZR8xc8McXR0t8i/2/c8dvu+ufYVI8XKQ8w8xtC7vkP7kFyPSTIyK2/Vvr2DNcjU4MIYxM+p+GkRCg1DS8CEdmHoF7/4RVc8Jiyrx/5G+GkdCh2TpPpWTN732o30gx/8YNpnxZ/92Z+99bWvfa3//AzHg8g1yjrDj3/84/5WfvLSn+0QJUdkgFmfFTOaFdFr6inp3M/AzGhWXNu+mQnShfsf3sofOS7B3//93/fr9WtGyvHRnfVZsdt33m+QvsLHbt83y75ipFh5iJnHGLr115jE66w6c+0hlj//5S9/eeTjlu07vbCidqaOCQZgCJn/HGRmHREa8nM5WwwIfgKFQimWks1gouytqAZ1bTNcNxLasz4ryMwAfraG4hgOMtOayVzx3e9+t9Ogs2rAqtc1zGhWmHVVA3NsjkPP+J7RrKh8qD+2fasuXIN3stBvtj7WoA17/Pmf//mx38gx9jWDtrt9l7Hb9822b+KvmFnj7tYkKV5nYVOSZY+/eHwK9j2euBQ6sEQl5BrMcDCtbsbDIWb01kChB8Uel/sUXo22hro1cDAWg7+0J74GjpQleWTn2KO8I7QfaVUDn8OMZgW+zHgSeOg72xRb+5jhseyLR86Z49BADw+1rxn0T1ZlpXspdvvOsdt3t69YeYiZ05i6hkO87WXZ0etJ0qTgKdj35MM1uEimT7alTLMe5RqiCFldGWWMWXsNFHpQ7HE2okz9HNIuRm7Hm5NkZjaUyYky28ssZSZzhWtmcm6VfUazgnMYXOr64hicbmb8NVzTvpC2kWUryIkH9dqfemy3ht2+836D3b67fcVKMXOIocf4eg655gMf+ECvJ/7q/ynY9+SDJVDYeI4hdRLFLkE7jkAITGN+pHUO7e+4J14TXpS/Fbk2RprJNQNDkJUMcWAyzeQdoV2lNTPIGmY0K+gUT+A4fMLWvq5p3/CYMvoNrVmfFWaD+ndd5NgyuCp2+y5Du92+v6X1ptkXbbFSzKwx9BIkTmf1mfir36dg35dOjBgvyvEWAwRRRjXCJc7W/o5JEi5NjoHrDkZG66LtVnJQvnKrA4J2l8g6YkZzhD7i7OHt0n7Htlvli0PGOZVLNJdQ22XQoLWFh8jqukrrEtkBrd2+L2O3725fsVLMFDvvEntzTbk32ZOk/iPrq9hX2yoTGeSaLTrQZolm6icfzDAym+NLjKBtnCDKuATtb5oktxhMm9rurkmSDJE5Mm3RgTahcYnhgxnNEfqIY9Bv+JrRW8LI2xbZIP0qbXXYvpjRW0PaKuMnCWhbgNfqV3fRMxqRebfvb7Hbd7evWClmHmJnxxhX15B2SbINxyQJeH0V+2pf5Y2P5XgNrluimfrJB5dgqxHikMrMWC5VQvvrRoqyx3IN2tR2h/rmJBleyRI5MsC36IDMldalss9oVuABOBknzyDD44zeEka+tsgG1b7uBWSP/xI501YZerO+ZtCejusgm20/LSF9oxU5IMe1rxl2+55H2ipDb9bXDNrv9j2Pka8tskHsoVyyr1gpZo5xtB4vQZsk11mS1O+r2BfwikZkvlqSvKsRAMOZsVx6TwPa33QluRVpr7zrShL/ZFZeMsiqEUYdbsGMZgX6QK+c/LEHGegLXFOd/S7yRs/obuFBv6NfvUq/u31fxm7ff6DxptpXrBQzk+Ra/aIYnLZLSfJV7at9lRfNm0iSsw5nCMOUQBl32a5pfydJ8q5goLsmyTgSkGurE64ZYYsOZjQr4gz0ayYqCOTcjN4SRl62yhf7Kl0T+16K9E+O0N7Cg37JnUFW5dii3yC2BXR3+/4D6GO378v09L2l/xnNiqdgX7FSzKxJ8hLkmtyTbOhJMvZ4VftqF1lSyjVbdLBm39RPPljDyPyswxmifDOUOmPYqgBof1ddSUZeDpySTDHKGtaMsEUHM5oVcYQMruhb/RIdj21D9xzY1WPr+uXsHmd3/dYn1NJvyuh4a/8QuWf0tkBbdHb7vozdvrt9xUox81VXkmOSDA/3Zd8ALbmmnlvDrK967uSDNdSLRqbWwPjV8MrQmjE3A4UeFNuVHWMdEt4qtKntDjS6kWZ9jcAjcKAoX6Inh+OZzBVkHmlV+ucwo1kRHvST4/A5o7eEkS/ybRloGdwGmzL9+s5WpbcFeHA9mko0Z32OIK+tqnovY6ueY5PdvnPs9t3tK1YeYuZiXF1CjdOl7PE3/JH3rvYN8B4dRqYq5xrO9TU9OUMlpD7rbAYKwDQlUIpZS5Sx9QYthTZ0I4EZCYXn7TtryGuRhvMXJUmlVzZxIK8+4lAG3RYnrM5O3q0yBzOaFXSrTBCA8Dejt4TRUbYOMrBFI/AovQdxRm8N0YnZKz2Hf7PaWX8j9O1VXhnY6G3tf7fvvN+K3b7/QOtNta9YKWbWGCqmbnnrjjid5Ch2H871+JtEdh/2lV/oLPSUdBkZ13Cur+nJGRCqxBCPo4WZCB1jq3OCtPnSl750NP4l2zUU2vDVD37wg7/5nd/5nY5qiHOIoT7ykY/85nd/93ed60Y6p5wKMnhDfZzPS3glfA69Bm1DIwMsutwy4OhvDRw7/NAtZ3H+kkFWeUnJaWO/c9CW7Tmnn9YJzdA/h+oLdEom8ghQM51W4NHb+r370UuSR3pbsdt3Gbt9/4HGm2hfpVgpZoqdYmhNfFugbaPxmw9/+MOp9/hL9i32jb7D0wzJOVmMQeynj+Sj1CHt0B31B+HjeGIJuWhkUGf1XXmUHEZ07Jih85lzZo4MUulsQVPs8bV0kCS5ZSXpfYFpx1DKduwHnJ9vHWxkxzd5yeDnWRiAg5FtDRzBS4JDZ6R9DvS3BnzgST+cPMdb9cy+I1/OsaNJzazPCg7OzmyvPZm9LBidLfqtfasLFoJZnHnU5wjysocfbPWi4yXaa9But+8cu33fbPuCWClmDjF000vOkyBznbKd60kSj69q38iP/6985Ss9z0iUaJPPsTqoj8d8Iv3ULeba97FyDphRutjP3ZhxJGsTNE4HGFYmiWKI8pXeMu96dELzHCRJimUYSlZS+JblvrZpz2DqbTbUk+SsrxGc5Oc//3n/+RhKN/sEjkVGjr2GH/7whycKD7bKPqNZwbni5GxBz/i0bfLTn/50SnMJZMWX8lvf+lb/JYFZnyP4gW0s/fq5m8wIL4F++YU+48xkmvVXkRWBfslrgEeOLTre7Tvvt2K375ttX7HyEDN7DB3j6hosaA6JsR/XJKnfc/ad6X6E9q5nTzqkT5MOOgXnYXb87W9/+9hHbOq49nsksATJjyJ1KslRJoejyEo0BCFC5lg95yjBz5oQJI66BrMMRmroMxlKZ5yq+HPQDiRV17VzPUkyzqzPCk6M3yrPJfjJT37SHZ5BDACOoV/G5JSzPitmNCvwFeQce5j9+i3OGc0K9sVLjvGIX78rt1Xm2o5f8A8+UydOS8isji/QM775SqV/DtoLhAKDe0/o6n/sa4bdvi/3OaK22+37ZtmXrGKlmCl2iqGJpzXGLiELGTE7u3oNJ4uUNfvadbDatbrGDztUSLJ+T1JeCT0Yc9IS9GvVTm/8NHblr8kP/eQ5aIwhjGJePZ1Ewcrq/KnPEmi2PiReDK3hO9/5zjFJJjHGQN4qXw0yg7a5l1kM241k5jLrs8ISnsLGm8pbjaAdpyUrhdNnJgf0OOuzYkazYuQjx7/61a+63WY0KzgeB8ELvpQmQlvlg3EwkpefbOkfOKd+632JGd01CApmk/Sb7St0Z/1V7PY9j92+b659xUixUsxMPBVLxdQSTxfRru1wP1N5OPfSTt6SfU1KyEnGQBtykl0CVQ8dstRt0wo6melFH5JxknB40L96/7cGF1UjqBMA8STCquQxUYbh9vesgbIvRjPGHzS8/5nPfOaoeOWWJAmH1WPHhz70IcZ9H812PO1vx44dO3b8AxJ/xc52/FJMXUO7rpdZUf7e7/3eMf42GtP+NuDZN7/5zbdAAs392zHZL01AKuQoEwIwuZDn0FRKmnJgP1hDEiQiLk6Grx3WzJ1sTZAi1IuGdxvMRqwIe7kF2ja8zyhJjp6S2nI/ElyX0uwnhm7l+62c9lnRjNlLfKgrK8b2S2j8nhyH7kMA7UvpV1lSv0Q+s8PZ+XOIHmufqW+RYby+nqvtlpA+tFfPtZfQgN2+c0SPtc/Ut8gwXl/P1XZLSB/aq+faS2jAm2zfQ6zssVMMbXRPYusa0ubwrYJ6rUR5tAO08x2z49QPkEvklJ5f2ufPsjhLXkpOcn6WHJ1LUpXbsmrNczRZxav3D9fgnqBEmYtsX3j4BnGM5ImkpuRnDbZF4SQpNvQkB63e0doc61uQay+9boZmnOn5JaR95X92fA41sV/Kw12wpY+0UUae8LlFvmqPWq+yrmFNp1v4n/Ho3Bbeg/SzxssW7PZ9GWs63cL/jEfntvAepJ81XrbgTbbvXeWdXYevnJ/x6FzOL33eyuMipx2/2+i9aGXyz7MkQPcqxxUmSJLylzI7ppCtdJD35MD+QVaL2WKtDdxHkBjt0dozlmkdp7PGnOT4ouHdhq+2VV5PioTZsWPHjh07HgqSbZJmW632FXFL8HLRi1Y+k6MkyZ/97Gc9IdbbgeCcXGcBmN3SrCzlwp4kU8n+qwskSeckTuc9ceRCx26Ufv/73+/EGyPvHJLj+w2d6ZSeZMr3GXfs2LFjx477hhWvnCNRJvc41/C+ZNnwTk2KQbZjs5IEua7mv2OS9M9JGVQj9Sw5fSY5amy/FjxS3Rh6Znnb8F72msG9wo997GN5OGa6VN6xY8eOHTvuA0mO8lCQzw5v+HmvJUo7nX1VKSkmUaaeZCjnjbuqPUlKjBKkA9AgiVIjx3mdkyVrY+qdhr56xEgeBYYwh2nY+vTpjh07duzYcSmSayDnkovytb+WLD0kJGcdV5U1WSYpJklmRXlMkvnQQT5IolT34I4vebo3eUiQ72FABq9Z2/aqFaTzOU59x44dO3bseAgkQdpm/fjHP368zSf/OKcuWbZ277XymCjzQE9NjhaMvsHhOAvHYyXJMclS3Varp1r/9m//1gM67zT0BIkpjGSlWLN4MDu3Y8eOHTt23BckvyTC8XzeLWvxppQ05TC5rH5tMUlS7qsP8BxXkrUBSI7JqODVSIgino4wJUFiBOoDOmEM9gd3duzYsWPHQ6HmmPoWoOxiOparkigt3uSyVh4TpRyYLdbkwZOVpG3Uf/bP/ll/FZHGtle9D++zn/3sWz/60Y96gvzwhz/cE6TtVZ0mc+u8MqME53J+x44dO3bseCiMu5bJT3JQzVdZ3DnfrumJ0r1JK8c8d+Orjsokzp4kvYpHxc+keHLVB55i9e7ARvCdloHfQzQZW6d1tbjjzcBs4jMev8mY6WfHq6Pq9DF0/KbZ8FbkfUg+5Cz5KwkTJNaPfOQjnnx958c//nH/VStfb5QLLRLz812SZV9Wuu8oOSplUQ/qNKaPD+nIvh6nrZ0q9+3U1x+cdw2za94kLOlh188yopst+qlttl5zH3jMvm4FtyJz+LgPXmY/Ei1vZXXZkqWnXp9997vf7S/KkSDdYrSylBvlw+OreezN+lkYZft71hj0WrmTJ1aVIX5fQuxYxq7f28e1bbT7yI7XFffh25VGVpHOKSXQdt7XQ17IffVhHm/mydOv/V+SpA+gEfEevJdeLYe4jGypevii5snnO3a8aaiDcO3cjh23iDVffQw/rn08RH9ylWdp7IZKjDVnpd7K4/1JebD+5qlzPVuCLVYnG6N9FYlhHYDV5JgQHe/3Jl8dM8d4CGd5VTwVPh8bVQfqQW2z4+FQdT7D7Jol3OWa1w1Vd4+hi9qHnDLmmVdF6CuTr/SR7/inv1Z6SfozL0SXJOvisf/LstLJ1tArfPq7WAGBwF6u186NGXnHbeIxnHzHjh077gv3HbNKEuyryeQ0/chjedbm7bfflvNeJB/aes1qsv/zujknWqP+fcgwiqjEiPC4atwf2rk/0Hcwnq/Hl2CJ5qWY8fSqNJ8qlmRf0sdj6Gmt7/pZjsfz18JWPmqb8Zot15/DSHP8bHb+dcKa7I+xEFrr4770LxkmOcpjec4mfR/uTUqUJ9+fDPo/X/dohJ41vPvJT36yX7AEHaaejne8GhirGhIY8VX06/qKWZstwFecCR3HHO1Nsf2oxxH0EdvRUz1vkjmjeQlqXzOkz/E652Oj2rbyOF7zEBj7xhNEb7NrKrQJjVxTj0NvCTOaFaFR9QLO+Wx2zeuEpXt1xni+F7+GSusu0EfiSezgfOw7tr8UoVd5rX3kHLQkiYf+tKuF40mStIpsDD1v8AOWnUgluuNlheZc1ZPj2i6fjUlFG8feEJFjbXN9kM9yXeySz9XR4eiQ/ur1FbmG82kfB83nuR6cD41cB6Ed2K7I/n7a5vpKG1xf9XALCL9LiO1qO/qrskUXtX0+c6y9c6P+HNOdXZlclza5HpxLvbapPKibEX/0ox89Bjfn9Z02EN7CQ86Hn/HcrL52boT+4ufZfQrfVa4lLPWxpe9A21lfzuW8Nviq7bbw99QRPUb+2WdbEL/M8VbdjbZxjBZeLun/rtBH+sRHK/0m5fNstfYkmZuTbTA9b6vIniQNrBr4dqyDckcHqQZWzzllgmbapo0A95nPfKaXOZ9yQP9V7nZN/2Xu1qbDcc7Vz5X5PJ8d4DfXOi/tsxOenRPcch4f2nLe8D5CEMyroUJrifYSjcdGeKv8jSCPSQXZ6m0G+nCuBpeMnci3RLude7/haAv2add8tdHq9ZwPfKZ9++z41DmeJMbaP171rYTYVz1t8FdlwZ/Pw2fK+0DtN4EvOsI/3tYQ/UImE2ihk3NrQEN7pWuUzoeP8IaXHKdd/fx1RfTCTnRg0qt0nHNrqPqFXMO+9Bc6S3Bt/MEx28TGjwGy87HI0VaTPUkmQfYkKWPag20fvGiNDNyTF8KG2I45Yuh6DNHdJz7xiWMbhnAeMsB9nkFbrvPdna+2ZHkMoMoDfH+VrZ63ts/bZydwzmcz+Gy4xkNanuo6SajNaY79tc9OvgoUh06Q89Z99Xzeru9wTrLP+Ubn+Fk9l/qtwu2HDNrIoM5mHmLLMdvSR65r501Aug7b9V2v4LjB0+O+ZtXtYFCCOjjf2kxt57rWxpZQ94t23OnzlabzXm+f9XHcrjsCv4JBPdeuP/KvTk5lPq/y3BXpA+30RVdju7tgSxJLn1Ufszr+cu6++HsK4MOpx/bRyRb9LqHqfQ365JepVxr1BTYPhfRZvsHRH+CRF7Oa7P8ag8eXB2CWcjiKeojtWAY9nRtYHCGTDyjtjwmxrSIFPklLIDwGzdam4tk3vvGNt/7iL/6iv0oppVcoeQ+v0m+BOu9ec50RzXCwfQ3CHem71QVzQb0H4NZ/cEyerV2XLbPQnAe+5PN6znGjd3LuKYAs5MvYIEcmC+24r+4lqva5JGYCctRn++zEhtG/N3p40xW7xZZ/+qd/2t/24S1Yzv3VX/1VhzeBeDNIo+dHz3tibTY5gXPts6PNoPH91ZYkjzZr57q9TNBa+5dsMTs3w5Y29INejts1XU+trL60iHZthzr/C1xPrmDpOnLn+tpnu6brgs+Sox3HjieTIuXrDrGp6aHbpemg6wnUmw461CuiX8ixMjp2TbVLaAY5D8aM0jUf+chH3qd/9mjnHhyNl25n/TUZ+rlW9vuSGaMJlAYyQU9mm2afqe+Yg4JTp3A6dA7U3Qwus5Teph2/3wKUAfxuc4gXrXwetHZH44D36Ep6Qf0JF/ByXr9/5l2D+UWXBNdKZwZb7UG+BpTzAnJeVdh4PkmkzaHgRRsU7zZZDI6TlQuHC3IOEnzSpl5zLYw8jMf4tKWZscCm5Gjl++3cV9tM3Lg5JkVoNLoN6bTqOPqtoF82zU/TAb2zbWzJrs5r45y6dy7//Oc/P+mj0sVDw9Fm0GTpyZPvNT8TmPpXveKr5DrINrWNc/V8fHoL6LFNAvX3B60cJw2bQY4Rd2nXjjOR6MkSmh93mdq5jtj8dQY5m8x+PupkYg7ts5Nj4N8Vjcaxrn3gPNT6iAXaf9B85X1jrp2b8nyfqPnOhK7xq1+J/Ljl2peUB0Fk/j5INAROEwI75qCn2fkB/f6ThNIMUAPqSUIcA50AKEgmUAY5FjSTOB0LoOr5JZfQWAqkM6Tt17/+9f5GfCsbiVpg9m5DfVrp+LzJ0lc0DX0LsKHLSN4qP7+a1W8dbNtkOh4bvM1mx6TYxsrzNkbgWXQ7Pj4+Q2xB15nwVLs6x64SaOzsM+3YV51dQqvSTX3psyZPXYX27fZWkuloMzKz0zlbbfF9tLKdZqek0XwuuZuE2RFRrsFkT+kl1JGlyrMFbPLTn/70rX/7b/9t99tvfvObvd54MpHoQRmvYp/yTUiOQbNNfy2bX4ESM7xU5hLd8uFa/uAHP+j2+va3v91p0fUa7JDwA5M+1/OPBrd8HiX/lMTY7X7weXH6eWTq/1qjniTrxbZi6vGbCgocj8dzFAy1TTvu2xdtJdkDaksemTEdE6PByyFnTpnzddWonmNlViCOJTFJUnD9yle+0suRZkXoxxEqnPva177WaUqU6GdFq78E8qyClOQ6yNeTZpP9Xc7eyr7KPDhfR+qt3fHcLWC0a7ObcyeJsaFPbv7sz/6s68M2qW1tb+qo+kuyVI+u83kFXdJvJjhKxxKhHYLYNzoHv1aQoFKRfioqL2mjFMzwX+x2nOg02Y8Js8l6opP2+cnxFngY7VB3n/aFBE8+skWmJZCbTiS3v/u7vzvRc2RZg0WAN6hIAvRYJxzoNvv2r77xySRHdb5QVxmvMfqq6e///u+7v/FBeqPrUZdryLMtxkV2PaLnc9BWv+x5GF89F7WYOeP33uG5itT5tzHQ8Dz+1f9RUnOIzhjHyEC4y4B43WCwjMeB4zqQDgFFgOkPZlB0w7MkopSUn8BVB7r6eCxQxJGUs+MkS0FPwpIkBYAZ7XquIsFcHW9mlVnF6GeG8KJfdcHbIHF9+8t2X9/Wohc6g/jYGICvAfzgRWC0kojPt/OS44kdTRySzAQC+oHc4IdaX0K1RXRJz1XX9Kkv55TRs779QoFJS/WnYNZXyspb+tQPumb/7e9ZgwlzT5itfD/3FOlJSUd0FT2dg8ST2bpgRKetfEYGOx6Rdwnk5Ff8OvLCFj1XkJXN0FGaZJgA8tcmT39oMcFSUiffLfjnq4LeYeV8T5J8ANhkpr8lVJvwsfzMFJ+N365BWzb48pe/3Gk0vbuNY3X7KPpPH/pLLJcL2/Fvt1sJ2ZTkvlifPXLqKNWFytcdxWFeOlZGgRRaP8v2TMP7FNvO96Dajp/ZbjAYbSlYadSApqzOtQZBbA0JrGZtAnYSptn6L3/5yynNCnzU4Cr4mK0bMLZXZ31W6DMzR33bHjNzrzSbTszW+7ZWnngVaA+6e2XEHsrRZ/VTB1s+zzW2dMKLz9p5ybzbseGZlaJtI1vMgqqBL9CSPdtTddZ9afAe9Tnioe2bpCFpoW8iwGebLkxy+nZsKwWN4+oy+ir+v4qq/8O9+Oe22SSqmcwVZFdaSeadmkGVawnagOvRYT/yKunSirrxZzJn/N6rX94SDr7dy9QPdmHfZyYjkhXQ29b4VGE1ahs7CXBL/OBvHjhU4qPxhp/Oc8qHBF0o9ZWdBLmwnX8RHRgMHKQ/2Vov4iyPweS1sSYnXfgMtKsTCGULEj2gNmfr23Ct/swqKqtEEJDsuQtKghvHMUg5UQLgGkLnHGowVOrXk5AzmhUGB2cVMJQCvyBZt7W2Ag/eVMHhyUZmA0AfTX/9XgM90qsB+pCPeMdOCeRsp2/1+LjPDoFCsjQw+pPF7DgLwHSSgZPPf/SjH/WERX/kzeyZ/Ftm0pX+Gh7SvujN5IWmj2zH/kGDh5Wir16eQ/SbJ2lb6enF/o7MpT5nSADOJIEskvpM5gpbiHywTlQr8GDs8s0mX/cRfNrqczzK89RQZUi9TG7Er24LMIH69a9/3SeEmTzNdFqhjQkce5j4mMjM9LwE+v/bv/3bXm+89MkK3h7jfiSIE2NcOJwXC56REWP/n3bQGXNBygyG1xmRtx4zTg2oIJjn+0SH8yerjWrw1ONwzlG0LVBlkocZG0eMsy0h9JYwBpocC4IS8ozmCI4OVkr4VI50LwG5bJ+Eru2yprfnvuZSHfE+UW2pXo/ZLMf6Z+Papp3L030nD1JlsJ8b9JFXQBYwci9Gghp1PWJGr+Ia9vVZTcrQdOPp677aosPoNTpeQu4rJVkaW+36d1t5vA2xhqzMtRWIv/SlL3U9061xNJO3wjUQepEL3dBuvD1rMNk9xj1bxJHhqYNc1W7ZzTEe2/njvbfYQ4wyGdmyHR6wCXtUn6n1c+DPjRdjsN+Wof9sfz402Fyf6ikbH103ZDsmSQqMg3D+Mtt47UEx5OdMyigK8ihykmMrX0qOnIuR66CvDmJFwfFsRaqbAXMqW1wZxEsIjTUsOSYDz2hWZBsPX2bcWf24PkFkDWmj38hvgKFp0Ahmh/s+z5sufQ+q6/W+ZuqxlbLW83l8Wl+QAMHWrcxk553IQwY7AVWPZMxxlVPpmB4lLNuHZCdz7Dzqe0T6WEPlpdbvy77kUI9cQe2r6e5klm88bLXfYewcY0rTvQehTt5qsoTKA38yjvCvTpaZzBUmMGyDTuSs9CNz47Hfl8Tr4CNPHtE7e+Ue8wEmBj2OVfub1Ga1vgXx9fhV6KV+Dto23mzvn+xo1nH8kKCf+Kh4oe+GniTJh7ljkszsKYHlTUCUA3TAeWIc9dLOG+JftPLk6dTRGQxGCRPUgRMZqBQuMXImwdT9Ls61htBYQvqsfGS7d0ZvhICutLqQuPGprLTPIf2mLoAJTuQmr22y5og9CEW3dH0fg6DSGGmmrqw+rV2DX7vpkx1fL7BNNN7js8VXj2cgMzklI9tUdJctQau3Ud8jqh5nSB8PZd81pI2tyqavPss3JoyZquc10LWJkevUD7bo9yXJFDmXoP/IbtwkINNvlXMJ2pE5MgWVvuTQZOqv5cRzfuThsbb8HhpWZLFXsRtbHrda6wSJf2T8znRawSb1ODSCassZ0qb5xnESVpP6gdcHR+KDHKjfBrw8J9PJdmucIhfUJPE6g+NkEOecQGCbtZ3vTzk29NWGAeu+W3WqanDwWf08DygIWEr3hRJAOeIaQuMSpO/M8s5BIDEoOHze9jLSXEOVlx7IhVa2a0wsGvoskRPyr6xGou9XQRn4Lw0sds3kT7u2Suj3HtnTAze2H7/zne8cZWHfek+52rHWq73JKAnRt1m4EhJo1hAal+Ah7Rtfrnpof8dZvgBGp+pbH9Fn52ydHcqTAH0O5MWT4E0G/rVV9qw4K70k3XpcfTRxMHI+ZWQ8JMZlLLS6hVFfzceflGwuTpno0feozxlMEJVsE/+pdNcQWzT++n1hPsVH8B1eHxKxcXJebN/67ytJcp0kSRdgjlNHqc4/ZZAjmH1eZVRPO69pavU8lPMsq4w4QFADaoJLjq0mlQa0gZ1Bntm9847XEKdbgv6U+kk9zilAzGhWpI0ygZ7TR47a1xq0BX2TEx00TRCaHp83hz+ZJVZdvyrqvQv+qwztHHP+Vu+7Aa189jd/8zc9oZEZjyY+1ZbnUOXOpEBgSeBwLoFjDVWHMzy0fYP0UaEf7div6fBOs/z8SLsg5Jqs0lrZ70tGzjWEH3zTMXnoNvU1aENmcqwFbZ81Pl80vo5P+Vc5nipqosmYONiiP5hC9qpnJX1l52um0wpt+HoWANFzpbcGbeziNN5OdprqmH5IJA7xUf7p2PlWP70n2dAHgMYaHhqdEHuqIEdAPueUqVdjFAX1Bzna8TMBlANUw0MNMvX87DgB0+pRma2iLUG00llCeBn71c+MZgXHzmCofFU6W1ADUORC1/3Ipuvjk630Ts/R9asCvU996lNHf0XXuQTzzErb+f6DqrZWreQja/issoz6HINr1bPP0JGEEsSfkn3RDl3lKCs0fR4fqAB2jO5jhyWkzcEG/VjZ7LL5viTgM3pWkmWL/EHojDqs4xo/jdfup3jGZ+R4yqB791ljv3auf8Wh6gGiB5PcTC5muqzQhj1SjvrdgsZTX8Xjje7xa0X5WPrXX8qDfpS/TZLtryfJNDw0OCmfMsykyBFZZorPPZOGvnpsunjH4/UcRUDhANX4CVqzgDLCdRSNliBaA9Z9BdHKR+VzaxCpju4agSgynoP+gpwjawaah5WaTt376zP0SwLsFoSOpJhAkM+yGmj2NOl5x3fiTHpsA8cOShhlUt6Cfateax222hcfNZDhdZZ41aF+1vTZt1qNj8SIuhsQXS9Bm2qTbGe1c/3tO5WHkZdR/3zKtnFkmck64px91XPceO1PuYbXyvdTBntFFjZs4+K41TrqBOLHW3QcP1eyy4xe7Miv8p3ifK5sOrcgOYkPj4XopdqajtqxheNvk2RDT5IaAsdu554cwv/svDJbD44Zo7ZvMvfVYzt+Jpi6d1OdJQYPtgTQII6EXhyK8rc44YzeOXA82BKkIQEeX3hSzujOMOrBcWQ1aOiz6bcHnuj6PsFXY8scZ3dAvdm0ryANUN/f/NznPtdX9FlNVvvWgV3r5/AY9p3xtoU+rNk3tHJrIHVbz3TW9Oo7ksfbMQLupRMd7ZNYxZl8P7bRO275BfxnaWzVRJ9yJm+FduD6mQ7rOf02mfq232PcD3sMmCjmSfK8UajVT/QefaeMfmf6nCH+7zrXV91mwhX/co5vpa/mA8f73fErfpbJ1GNBn/wZ6KqdezlJVoc/NHotQHglZ4mMzlUZ23EPpL4Y7kXIAsqf/MmfdAdgeA5QBxMsDeQZQkNwTsBCe4sjzujNUPlRx6++ZjRHaIfHBHeotM9BX9FP+k1Abjo/PrUGscF9+RhbxsYQOxtw7Nr6ecfTtfj54he/2LfOrUbcnyOn81bO4b3KlPo5PLR9R15yrM8ZzREJYLEJVFp15Ti+1Yb9ml67/cbAFVuuodo59TKp6Vta41PE8eXwleNMQpTZ3p7JW3HOvqGdY/w02AreJN+tgwz5jreJSrPBcat11EH0XXVXdbmE+L96pVvL8Rzwtabn5y2Jd31L5tfSefXTAw8vJ8mGsdFrgUOwPB776SoKIeNhsPoqwDtmN96c8i/+xb/o2zrqgmkGZhwJan0LOJHAlMGNPuXfVxCFGX9b6IN2CaDhcetDLNXpc4wWOr7i0nR7DDr0T+9Kx9UudwVbho57kznfzvUE6Z2k5MmTtnYI2MOx8wmiVX81aeTcGu5qX33P6I2ofNT6jOYM/Lfa10Sh2nec7YPEpU2zV98KM1ayGmRDOo8tz0G7IMEoAbud6wGb/qve9a2s8uaePpkysRtlHXHOvjmffhpPx5VzeH3qoPesIpveX9pqraCHmR7XUONHtVfoxbbxOVuusQH7N76OrzyMj8FjribpaDj3cpLUKA1Tvi5OAmSpr0FryTJPr/aVhqRoAApwAgmj17IafhxY5xBHMqgN7vtOkpWPWt8SRIDcaRtnr0FlDTXY5poEZa+pajrug4Dz1yCrvO9BEPotoPeJj9ddxYYmPJKDYyBrSp9HhirHVh2g8ZD2raj2xfeMZoU2eFLHj2Nl6KRMUkpd2cZM3wozdmIzdcj93nPQVkIFx7YxUwf0G45faFfWemyAp/hoEuQW+WGLfVPHC55MCsLjU0bGhNjHhu24J8nRt6tf1cnIFmS81zgZ+uyIdtW5N5GpNz/ot2KqrqtfhfeHBP9U0k3KQ32+kkyD8cKnDAYQjC3lc64lyPfa+f5iAN+RE9TcqxI8vAg5X/K3JccBOA2jMnacqTrVGrSLw3Ekdc6kr/sKotXhK1+u12cQmuk7/UseZCTzKG9onYPBED7QNHun3waP+ne98ys+lSBZg+VdgV7e4nM47lvnts3Zj9wSpMDqxQa+F4k39yQ95h574Ju8kbnW16DNQ9s3qPzQdfpdA5uyb00wkTf2koDqZAcOj+Ufn0qm2wQtZWwZvS8hE6GRBqAhaOsnsoWnUfeO+SX+48+RaQ1b7KvPer7xc3zQ7KkjYy+2auVxUjLqOsfioTEy0+eI+Dg9J27UyQ5U36r3Jhsfx5/FguQdcSH1h0b0En/OccM8SYJGj8XgfWEQ7qXjnFM22fo2nCDKwIImA9uGoxCBNE8/CqTOCbKMy7BxqNER1pAVTJwK9FkT1xJm9EbMAovtMvynv5FuAo16AknaGSCZAYbeVmTGT5/tr9/PqklMsJzZZwlb2gm82rV++v2W/AJL5Ims5PJ0axJFzlf7Ro7odAsutW/6hRm9JVSe8EuWGf0RWXnhS5/4jS9XmqmzvS2xptO+C5AA4t6WMg9GbYkT2sP45HG5tm+55l5o7FD5yliLbumaTDNZR5D3nH2rr/Pfxk+fHFR+nyrIkIlJ03kfH2PsqnZX5x/0PNPnDHyLvxtfrq+6DX36ZYOc88Pb7a9PRiRFcSEJPZMw9ceC/gZ7b0uST8VJwrOy1vNZVpGtfvwqgCBuAFGCAQdxDAYHx2ZVtmN/8pOfHA1cB9UWGKSCdpyKMyVw5dwSZvSWkBkbp+SE+XUKiDxk1q9Ak8CeEp9WV1bTJhEj/XPQP93YZvXVj/Z3fOjDIIhfXYLYdPZZEPs2+v2pvdg1ILvSeTqodp7Zdxzk57BmX31WOFcxozdDTRx0LImxb/pcAj70m3peE/iLX/ziSBvdGjj11f76VlhsNtrO8Tm7VNTrq00FxvZZt5vX34WH8KHEnyTKr7xInr7Zjp5HeUecs2/6UAbt7+i3rwsOY6Sv2kfZ6zEb0HP15zXEp5XGfH2140gfkojbX/evmQ/FV6rPPBTSv74GXuZJsjLngpkAt4Zs2dnWwXeVwYwkb/hoxz1BxlCj8ZbA0GZAAlK2rergNFjX4Mv0Bnjdcqi0x3MjJDBBXd+Cg0AX51T6DE/aWQErrTA8sKJffaz1UwNGQN6srNNHEgtENufwQx8GCP58v9TbbNBpfyc35e+C2Lei2ti9FmW1b2xWZVrCq9qXnlzPvlXP1d71vHo9pkN06LHCOZ9lAgMCV4JXfqk/dJLoKu34efrMZ86zFz/Rh0SiJDf6yvb3mImiByQy2f3QfyaxJm30IXCTMTLM/HYG7dfsy2cdg8/11eLe8WtLI2pcfArxEY/Gx6HskxG6FZeiY75GF/zB16RmelxC7BE9u1WFDj9KfAB6Bp/5Ddb2dxMTkdiTjhynbOg+STZ/TzpJ4jV8S4q59+HcYZYqUb7XZlI9gAoseeQ8Bj4HQYXBbc1KRBwrXyEw6Nag3TigHW8d5IIEhws9dUEtwZMDGuAcXV/agwGwJp/P6uc1ANEPmvpJn+GB7PoOH0nMSv1rg077Www0l4IfjvcpkjwP546PtdcJ0FYdv4p96aD2k/5TjjqubX0W3S4hAUw/SsCjYFRpV5q1j5kOtEH3C1/4wjGQkV2A9Ko+n7W/41OeD4mDXbv9TK6sdPkvOWMDxxLYqLsq0xrW7KvM6wkdW6maYLa/kwneGA8f88nLV8Vh+7Lr2GSDL0VmuiB3dMP2dHuJfmtbekYb0I2uUzrvrVft7ybu+8auTTf9OGXDPEnWwDM6xa2jvl4uiRL/EmRLlu8YYIK/AZPBtsUR0tYglQzMhsx21ZWZKS2B07heX7nvkuPU1yDZoSMgczT1zH45YRJZnN1ngqvPXa+ftb58Nguk+iGzQZNZdpJxAqu+nBew8WGWKMi4vv3d20yx+uGYLKEd9xly5GBnciVRreFV7UsfaKS/6Fo5qwc5ptM1sKkSP6lLGnQd3mf0fZbPc5y6tuGdjOg6VgeBtP298i7AVhzijgnVs0wG2AMv8S38hf+gyrSEtFmyr+P4MZ3qy3H7e96Sy1clGDwG8b3EylsHPg/xsD/VSp90yY+U4oZVZepK/rFFt0EdZ3wq8Yce0xfd8lt6b3/3NoF+VSTPjXZtx+eTpPIpIPejcs9LCQfBe4K0BfiXf/mX/T5djDn+LNI5JFAxuqRkxsupnFuD60aHc8wRtwRxjmUGhlaSYeDYQDfAk7z0l1nc2G+CaUXO1xIEC3TSp9I5fKDtnOMMCHUD0DXkan/3liQz6UkJucnfIJC/yC95RKdVli1Ysq96RewaCASujz6DWZCpPKWeFeMS9Mm2dK6Oz6yG0ldorqG2wxtaeFdaRfCjP/zDP+w2bOPm0YJYiTU9iJOVjPyeP9Nx/Jltt4yZGc7ZF/2MH+3a34kOqu9l0lYnb7cMfLbY3vXL5nRr8k1msYXcfI1O6Gemv3NITIvN0BETchzdSsjt7+bu+cYPzybJNHwqxg8qv9kGaef6VwEkRsa3tZRAMbs/uAYOwNDA0GAwcwTlGrQZB3YcasuADx1OluQEjtHm5JzeQHcejxkEM3ojopMa1N1bEDTR0zd5JeLIDvrGQ/rOYBPA0Wh/97KdUoMTB+aj8dMD+grE/aw6CYKtAfVV7Evm0KHL6FPJz6peA+dyPquZ9AnqzvmMbvVB/4JO+HPs+vQ3wnl2nH0G6AqM+uBX7lF+/vOff8uTwc1uPYiViciDIfZstu2THXYkL7AHH2QHK5HK/0yvS1izr374bvQR3XvYp/H14oMf/GB/uje8KsWbGnNuGcYMXlvZv/pRkyJ/ir+Bc4kb/GeLjscxRnfxV/qFxBE65l/tr+9S1LF9bcSesXHD65Mk8UzZRTj1vv9ue9PAELgFAQILpAksfh4pxl0DZxFIEsQYHTjVObgODX3eZbvV9RnASk4XB+SM3/zmN7M9ZuYruF2C/n2pTBqqw3N2MqZvoEulweU8XRhUCToZCOg23OtKpG57sbXBL7A2X33Bth7MCO8wPim5hjX7JriOiE60D43Rpjn2WRKmc43/Zw3u+c1ssgXP7IyMfbGfPur5+nnguAYxEx32Zju+1PSqj+Nbkh4a7HkovdyjP53Mp9gEb/TtXJVt6wQIXLdk3/huxhn4jH6ih9mtnKcC46aNkeM4SUKMzGJjJl/kNmla8qEZalu+RW8SMbrsxr8yZtBm34ab2GqteK2TJOAX71aRBjYjtHPPOEFgsNWBtTWI5hoJCdBicM4AGXhL0HakybG2OmIGriB2eCrMG0FqwAQzM47Hji+h6WZ6vsE1VnxeHTfimQRs8ETWDDBIkgYyRlZJs/314NJoTO11KeKXNVGycyu7nbNNZJBaPSURbNHxOfsmkQSjfdmm0tNn7onm+BAYfHEavObNPdRuA+WSffLZ5PNut4bqAycvrI5cqYcfwB9Z8E5WW6xWkR7cYVs8Nr0+yv3I8vUd6D+fJWjjT9BWxjbhH8hTZVrCOftmouOz2DT+3BLis5Yg+xthyg7Vkd/IcE3gp2L8TOneKr1KXlbkdGDMkDk7CXRN78robot+teFjKdGP7fgS2vwsusVH44kPZwzfBKKr2PUw5s4/uKP+FJDXzR0cpX8VwPeiPvvZz3YjBTGqcgwcS0gbRo+xDaI4VqU/g22bOBE66lBpr8FAbeirjoaeDNtxD5YpG8wUj/qoBl+z4+Ezq24JrdNSHiAB+R3B44oHLwZVAgr56MCgcK/BwJPI23XHgfCqqE8Rkqfx0P209dFnx5IyXgzIqrcEx3M4Z98ZtAtMvkJn9KnGr+Qo4bzbgm3X7+/8zu+8tH13DrVdqUtisX+3Vyt74qR/0H94wVf8DiRGvJOH/cjrlkTj71kbT+/mNWaN3oMjX9Pyg8eN5xff+MY3Oj9swdfo2TG+6xbylvFzzr5K52tA16cEaneC/Rr6hOHgd51XfvhY+lkDHoBfVH5y/oA+mTR2IzP5Ug/ILZGOOtwKuyWJDaHNz9CUgNm16a1vtf7jf/yPT+S4Jugo44qNle3YuJonSY1zgYuV10R4WOMlDtv47u/stBUlAGSWFMSQMeolgyyG5wSZ6arHGdSVaZP2//Sf/tN+fQ1QGeiCqj36cVUrGTVISpKUgJWEeDK7vw/7sDW7x/Y571hAb3Wz0KxobIcJGj1h/vmf//lbIMB86Utf6g9YuKfU+Oorkfvgb5zBl2OJ4XkGPnvQcbXvFpyzb1YV+SyBFtT172tF+XI+HpqeenJskByPemjH/Sls9/ro+j70g2bqjV6318FW3V4NfaIj+cUH+Z0xYlJDLqspspjQ8bvWtscDfIb2Q6H11/XQeOzHB577U651jNF3bDWWazhnX3LX8ZtjScTEj683dH2wHV7x7Ljq/lqousMX2HHJuYY+8RBnyE0HZLQzxbfJHZ04p6yx6hxGG0R/0bUysbjx1l9TGV5vRX9K+oLw1OrzJBnF5sJbEqIKE74o2kB23D7vzuBNMbaNJCcBm8Hi/DHk2gMNM2SGlIElKRh0mZGC86nnmIOYSYVOdSiBSnCNQ+Kp8f+sOXhPjJ/+9KclxvfN6MkZfZA/Dhad3AfQQhvUodo/fTa832b8PQC3c95/2xOmQehNRuqtTR8I9xlkBShlZNZHwzO2YAeIbi8Z5LBmX+eSRGLjtFM6rqvWxtM7dNNwnNC0c2PgOuo4x3cFu6Qe2+X48JuI73/84x+3gvUO3RcN3V6eBuabAiNZPeFqpq9N87mTydhDwuvqlFaTeD/41vO6DZrAW212yRhes2+CefrK+NWWbprtepJkP/qkY7xWvV8TdYzhKT6Wsn3e9enWiQQo+ZMvstJzdEPPjmc6XEKNaer0GVro+kqY0oSj6fC5Cb+YhrfY/powNpUZN9Fbw7YkWS64KiLIDBwDvw19S8FAt7yPM8ThGd9giVEF0nEWtAYDiuHBzCgDLs7GOarzBVZagmgNpOlX2XTc7zE29G255kg9QI26p4M6CFrbexmooYlezoW2ASgwOB77P1wrifetvlbPCvMPmvPf25Nr+k2fKdu5vtVq4Efn7EOf1b7R9xYs2TdBVJmkGd9yLt8LhSbzO4032/2dT4kdqi585ljQhZy/K9BgH1BnL6tt/TiXIHrg6f2PfexjJl+Z4PS3r5jgmFj+v//f/+8+08cfRI6HRPrJTzk19MmuB4jYgo7pO+OXnu9i4yX7Op+xCz53Lu2bPU1c363b/nhW1gR1LYSX2ErJ7uqHpN5X5iYGkZtcJgWSJplzLjqhrxqvzqHujLke9BddqntBQ9Nj32qtP2l3bURv0VmOG5aTZAac41uBQDmrcxC8CkwN7zCWH0s2K/7e977XH0ZgMMYyEKph64DbggwkBjdgs80HcQZ1/WWwOcZL7Zcjodf+PAHa7zE2GbwE/GR70qBsq8luk4DssVHa3SdmdAWCDETAl5m02aD2+HFeYmz82ZrtLyzO57nurojM6hKO49ZXfxDBSij2NcBjT+V92TcDnn0FFudMwvTpvNWzgN509E6TuSdIPELVGzgez70qqj/EHsqcw4fkKQl5Qbn+D20ko74d22zqh2/hD1qifLRVZHBY8faVBd4OfJ08eEffdQwpM9HdgjX7AtvW1aTP9GnSLbg3HfXxmVUQPqsM10R4YWclGx8SeJ9wSFASZF1FGi9kBOf5tPN0Ez3P9DgibQOJFx10o1PjtPHWJxvhUck31W8BGTPFrj1JktHfMUlmYN2SAwRRLh5roGnHfVXxox/9qDsAY8f5U8+xQSV4XrrKkHwNrjiRgBknc44j6BsyG8tnVpKjQzX9vrQlF9kkIbLGFinHdnAfdkIjAT2OG9pxYslJkK02CF9lQHYIdPn8vgZB7C05KxvdvtVK33TPHgY62wqgse9WO5+zr3OgD58553Pbce5FNv56gsSnIFpfcKGkN3ZVB7oZz90V7KQf9JR07hzERmP71PHZjt9v5VcbL/D+7/3e7/U26CQhPDT0qcxq0vZw4+G5LTr2pXsle7LVUoBewpp9+ZByhAQJVthNL8/pJ7zel1/fB9g4No3t81nzB7sGz8UgycuuAdnJ5zg6ICc98GfHl6wiA/ZwHTuhqx91XwWxU4GPxt9XMzbElJl/XgvRW+FpvpJMg1xQFX5NLPHBKRrPfZvVbOmLX/xiHwyMJEGqM3pmSjFmDJtV3RriMAYXRzLQ4lSpcwbHOa/POCMnSbDGZ4N7ju9FBrIB3QtyflZKsBCgMsP2WdrV65K0Hgr4AXX9CerZzgtPPnMMaZvBmgFxX5CAG21buS+8RYm+6ZgdlLFrIGnObFpxzr4CR+pKdk3pQZfGT99iJXP4jG7quWDp/H2h+oq6cwISu7FPyrSNDznXVpG97tp8rnxI0EX6gwPvPbhnpwDYZ7TvzJ4jztlXCfwHchywc/Pt5y05StxdX/QC0eM1QX/VnxIzwP1dekxMJIuSLsTExC7n85l4RV9bd2K0iY6hjsno1a5e46NvtdIffvFZ7X4thIeUxedfXkn6MMpOw1sQojqiQKyMolu9P83qUW0GiTOox/jqGRgxfGakMewa4gjocK44G5qQc/rTh3NJmsoEb3w2eKClb9vQre0v8pAxg89x4DyZqx0yKMa2rwp96A/U0YfoPzzXayRBn8dvJHb82iau7V4F6T+/Sdn66gNfgqJjtqBjts9gVcbW53DOvrGxz32mH3YWwNtf/xV7fAF9RG/x0brKpr/oUJv7uKelj9Eu4UE99sxnsVXqPmOzep4czoXGQyJjOl8JOPDbJ0K+/J6Aq8yYNX7v077g86Cet03ZeOxbhVnx4jl+eQvga6nHbnZdmh7dX34Wud36kRwd818LB7pwrso+6vAc6DgLAWNDX0rx7/CE8PFed03io99eA+Ehvm4cHOrzleR4wWMMki3IrAM/JQD3bdZqLIbKoBjhPIfIIEki24LqOCN974DVr8Bcn1ZNO2Xj0/aqhH7iGEmMkHOz49RHrH22Fedo5PParsoAGaSj/4zt7oIE7zhvG2j9fmSdvUbXGZhsxs4C62jLGdbsO57Tb2zc/vrs+MDXkefUq86C2bn7ALpL/eV8/XzWNueXPnsIVB9Rz2SolT3AVzuzlaRl+1CAH+24hHP2PQf3L5uPd1uzbXzyMfW0hPCSCVfu67Z6vx9Z5aiyjyvF+vnWcQMmjZKucWf8VTopm86ef/Afvifc+YzNw/s1ERumLP7YkyQZ/Z1st1Y4dwuo97kkTMo1s2vl8cvSW1CTo4HDqNXgM2hXBxnE+Kn7iR+z3Lo6db7x27dXG47bq3UmdQtOcutIwomuWvDsSTJ6rriLfeGcfWs9x+2vv3qPT+ILan3HdtBbVpQp2VlwrTYw8cm9Ncly60R3zb5bcEiSfcuVPyaQZnJ4bURnkHt9tlobn9Nxsga6yep9pssR2tqizUs9MoGsK/2mM09SS9pTnq8N+qo4nH96SZKC8+BGgycoX8QgW1FnPMotMybOsjbI8OBlADmXRNn0516VINqf9sS3AWZgOa4Os2MZ0RPdKZs+Fwf/XewLW4IoO9dVTfvztZ1+myLA347LwL50lzESPQqqgmudeFq1WEGyLZtJmjN7jthi3yWwua3Jxov37R631m/pwRNjg/5q0sZrw0WLCLg0SRpr2ppImMCgUeMyHqI3OsOrBBl73wIyfoPD+aeTJJuCj/VyX+pODpC9+aw47iOI/vrXvz4eJ4g2/tx/7Nur4V2dY0S39bMdy4j9Da6DDnuSnAW6h7Avm876an/HV+/ttrw7EtirDtn6UPaH8vLDAGzLVuyrLmnO7Dlizb5bYKWUV6o1fvoT6QJ++L0mxBT6Mk4SHxte2mq9BJckSfczPdwmWdbvDGcl2fTl9Yh9nNSJRWx8C8BTxeH800mS2Z78j/6j/6iXTeF9FXmJo6etIJoHL+4riI4PEDT+jvcfAf8cAjh05GptbspRbhXRWXTV9NYDZ52tPqR9g0yAfAbtr68k8VTHSuw+nt8xRx0TVhh0lgeg2rn+6sHYIA+YsK3AbMt1tOUMr5IktbVCsprESwv0/SlX/CnD+7VAf5lo5L6krWq8XrrTFiRJbkmUWUmatLhupNX46BMLPNYVpPF8C/oDtqw4nH86STIztrLV2u9FcoAtzp6gpp4gypgGGgOPRp/h3CCLMzaj9wQZ3utLfDOwUuckt6LjW4ZBRU8HfR1nyNH5Q9t3DDSOPazV/vpKstpQnW1zXOs7lhEd5j6Vp6QP56zajhNiT2f6lYktwbvi3Phdg8kRGvyp2fPkaeZbse9ksv3SRPISXJIkTSC0N4EB1/uVGSUeoq/wqExSrxOka4KvVRzOP50kiY8ouCXKi7cR6oDICoPgHIBxq8GXsGWQGUAN3SEMnvpIe3UG8iTw59yO86DThpfuRz6Wfe0Y1PPtb5okU9+xHUmObKzM7tFh3BhT/daK7TyB2H3JfH91C7bYdw22d9Gw5dp4PG653hISY/CGx5kcW3FJkrSCZBPX0FNouJfc/o737Q+8HW0sLqZ+beCr4nD+6SRJivxP/9P/tNdb+W5DHzC+brHF2dNGyZACaZwgAXULZjQh23DN6F4S0J/gMshhdALH9Vy90b5jGfHHpuOX7ke+qn0TDEKv0hzhfL3X0uzXxw2wa8aMcrftNtDVmCQzKT6gByvjzK/M+N6d1QubbdkpuMS+M2jryU20rGLZvY3tbvdbsHHVHX4af32rNXHpLsj4gVGfM2Sc2cmJbt1Hbn99QpEELiZGZ5kI3QL4YMXh/NNKkodZx/sf/OAHX9Rf99+CGE3J+GahGVxmQAy8hjjCjGbQnOCdz3zmM/0+ZCuPg32mw1vS7VMAXSVoNr32AJBExQ6vat8tQbTed07wwUfj6Zgk6/0W94Y8kZ3Pdqwj44H+Us8YauhbrnRupSJR+Vk2K5iZPUdsse85eHLTO6G9wILdkyTD6zVBT4fk2Out7GNkJsdW1CQ502mFcWbMuUaSdL2HGdtf/4pU+MzYuEXQXcXhfE+SZPTXk6QPD0o+cdbHQO1LvR7nnqQb5g3TVcQasi+v5OyENsAY1o1/A28NDC/Yjn2h55wE2dDvQ7799tvHbQQyDDPiHXdEZstNnycvkKD/OmO2Bce2Bq7VBhvPbFrBHxJEY+OUaFf/qV9HaH89CAhQsbNxE3+FpUQ5+viOs+hbrpkEGcfq7DyzacU5+8aea+BXXnmJTrPb8T7bLayGxJqagPCGR3xvlS/6SJ2c9Oup3plOK8RGpQeb6Dp02t+9/fD6Q8NYTM5L7G7ne5Ikm79jkjx8eJUkmf5qv6kLko3549c+qlG3IO091MEBBNL6gMcaJEntQ0uwTOBs/PVAWV8vRsmf+MQneplzO+4OSSi6VDad9yAwBgA2NmCtImNftp7ZtEJ7gTe2Da1K1/mcU89uRhsn/S0s4VPJVxM8U/Lj+PLseMc62mSjb7N7TZ0tVy/MznuaZzatOGffLUgCkJS98LzZrm8j3tIk2Nho/tgnkV5uMpNjCfFxdaXt5cTJUZ8jtKNfupFU0TI2299xbNw6jMVMNNSh1U9Xku3kyfbBIRgdj28A/Wa0d7TWYFUNvYa0jSETSK021NfgGls8MX6l2/RzdIRMLAwcJR3uK8lXx2GCdPTFVh63k2rQAwPWE5AmP+xrgjOzaQXbao9O7Bsfq32M59WbffsPTMf25XtqJ++v9Vn433EZDqvxPv691P6rX/3qMXiz98ymFefsew6uESesJq1glfyv2f4mVkkJ7odY08eGpI73LTGSLsZ29EvPM32OYAfjLMkSvfZ3stV6y8jYFGNyfCh7kiSjv54k0/jQ4AjHj4WV/jrDZnGMuMX4gftJaW+lYYvVDNTgyWxpDa6RKEPP4/9otr/jtku9GZ3tthrYd9wddYWmbDrtgSA2ZYsEP3bNyp992W2054j4wMyn6jn1BNeU+m38vdMSYt9ulxjz81L7BOl+0cZT30ny4M4/+Sf/5C0/uD3acoat9l1Dvo8pQarzv8bTzSXJ6MgW4daJQPVp/kwndGZiINmO+hwhPmpv7JlEoNPGRNdPxu4tQ4wOhuOec8jI4MckKbCnYYg8NNJn6voOSrt+T4IxqoETHLeCo9uuMeNBywwze+tLMCjqDyeX1871p1nDa4I4qNfjHXdH/KD4Zk+SsyDAnuwV+5oFzmxa4WsFmQShWRG6YzDN98CCZut3GnqixGe2Wa2Cwv+OuyExIVuuVpP//J//8/4QzRe+8IWpTSu22HcNbM+PrKzQsc3b/vpK6b5/Cu6uoKOWJI8/IUdufG+RMTE0Pu4ayU6c3BIf6UV8VDcxRaMlx77Ddgv3bLeixhn1hh5nyHVMkj5MA+VI5KGgv9RrvznfFN732Rn/61//+ls///nPNzsAaAtWHFaiZqKMb4aQcg22eN0LERjjSI3Pk+9EhmezuSRH/C89uLHjMtBp/KHVu/P6ClD1BfZhq6wgbQMpZzatEBD8qgS71ienEzyW/Mx5PgWulyitKMNrvU+949VwWJ33JOl3Y41HiWtmzxHn7HsOfMw9UHT4lpWT4/Z3E/fc+Bqfa7GnvxD+O9/5Tp9AGA92vWYyzcCfLQCUf/VXf9VXhlaTM51WRC9K/f7H//F//Kzh5DmNpwBxnC6Vh3qPM2S8mSSplGRyPry0JHl8UENgFAgTABnGimENGUwSrEeTOUSSXQLsGrTTr+v1aZA23voAyZtBymu0+vYgOeq5Ha8GW0oCwWFrqf8KiO22v/zLv+wzWAPawGanDPit0F4gZF9BgY0DfpbZtM/4k/NKq1UBM7NnkCibb/QVJT+AyMAXRn/IVtmOTej3Jdmdrn/yk59ssvU5+9ZYMcPScxDt72a2XCWkhv7TYvSSCaRdlZlMFfyXHvgynzamfvaznx3lHPU5Im3SvvHRY+PrkiTJdpIkNcoFI5GHQgKFgGJ5Hh4OQaYPjGxvYZhhJT3JT3CsTj8DBxDktEdj3F7Yis9//vP9J7EaP8dVZHWE8J1yx/2BP2YC9cEPfvD9loxe+LXzBL08OMBOs4G7BfwDDUkxEytlfCifO855cJ/KahINvtV8tv+4dkPfiq/8Qz3Hf/j/GqKDNxX0BAe99dsusdklY3jNvmuQPOqqU5+AjwM/L/H8mKAXvtZ09CK/bYtPsXFLfMzYqRNC128dP+lP++bPzxq6TtpqcsrvrYKPKenz4G89SZLNX0+SY8NaPiT0Afq2WnBOgjz03bdYch+QQTg3YwqQ48xwCRkclwZOyDUG1Le+9S2rhRcNnPJEjh0PgyRH/uChKHpvyaO/v5dt4w8GebVbBu9WoBFfESjQrT60BI/L8xH9ZTuv8dh/R7T58fE9vvEXT8Dy78hUE+FBtuNxcBgLbyzKWOu3Xu4yju9qX+Pe9ekzEyLH7a+vmvAXm3784x8/2us+7BbZK61K3+et7HGyJnO8S4CjPCPoJfExC4rQuBQtQT5v6LnEWM3YvWVUXSqLvvuDO+Tyd9UkCXGw9J8nRPHVcHx7BMeszh3HPwdOwNnvMrhAALTN05Ljs4Y+U0pC3/GwMND4B9/I+3A9xNH0/9wqLrY1a642u9TWCRb8BT0BY/SjGepDXQlS+uYzzXePq8rIQ5Z2fEz4kY2ctu+tLrXTJg+GqENonDteOvcUERmit4bjavISG9/Vvkka7JmJV8r2138Giv1yeyV8OncfOwGRP+XsXCuPcTK85cGbmUwV0YvyLkkyPq9svvvi7bffPr6Grn4l6lYx6pLdDsenSbLhakmSQjPj0D/o19ZrO3/cF47xY1gBEkajL+FVk6StVoHZr5Pj2eP+0deOh0UmTUkgTe/959LykI6BLUnexb65pgbRBIzqP0vIQyFB/DRo/mtbzorD4/k9WWZcfepTnzrKWMdaHQc5dw6ztpdcf8uIHAe99Jgw6nkJr2pf14ROXanZ3Wp8nNx6CZ/iWXz1VRGaKcdzBz85vmUnenF/cct2a/QSndxlJUk3Td7+nWF85WtQeAvPt4qqS2Xh+XaSJCRJjset/34zujqnLdbsozPszPAVGRh3TZLZ6nVDvCXJF80ReqBryfKE5x0PB5OSrNw9MaxuQDY8y8Bm42q3rbZOu+ovfCV+cw78sdIBgeqnP/3pydOUzZf7FiyfbuPsuLI0xkwCBJaMP/KNY+JNRXSSpNP01bcW6Thbn2t4VftC7SfxAMSlxsvxV0HwGD7r8xUPBfT5Uiv7qxorn/jeEh/vI0nqt43F5w09j3g9pzE78nuLiI1Sxt8abitJUmiUmuDQnK1/76cag1MyIoPClj33DAYDo9K6BAbk7//+7x9nSuF3D2QPj/hkZqf5Wk3Tfw+WVpNsyxeqzerE6hwE0ho8lVtXGr5S5PrM4BNEE5wlytSV7c/qoyfLhvfHLakySFefkHZ+9tnS+acMOjHWDrrpcSH63oJXsS+/qn1VWwMfbLHK6vb4m7diA17vyw6VTuopWz99Zc3fx2c3yDmTqeJVk2R00WR+3sZozyMmCo8xSbgPTPSZz24nSXKoWmZrrQWI/r2fGCPOyfi5L7nF0TmAksNUWpDjNWiXmVJLlH0wJLDtSfLhwSchuuYnbNBWWz1J+u5rAl+1aQ1k5+C60OArCRzxnTVoEzr6zJPYglblwXZ9jpWN92OybCVZ+mrEKjKrkXN4jPF5bbjHV0toK5X+ZplLxvBd7ZukwZ6jf4kLzVbPW3I8xs9qk4eMD+mH/zT0rda6yt06CUhyVL9LkgR6aQmy77IljuMv9VtG0WMv2fDw2WmSbA2uliRBP1GoAMG5WpLsW62YrMEmjs3htzh5bR8ajLp1gIH+G3/9STY8tmTZdbU1mO24O/gF/wCzU8cHP+3bTL7X5d6LR/XHVdwlSOC0chAsHG95AtK9H/0JmLXfOqvPOcgKN22bLLZh/Thtv2/ZYCz2r4+cCzLa1Ho9fp0gHkiSSk+PtnP9Kw+X7Bbc1b4QGrFzpdsmNf2+pFXkwS+P5Tn7bUXoTc4dt1qBr8WvJLstO233kSRbgnz2n/wn/0nfZWtl548vPuQk4b6QMZMyum7Ht5UkOZMVpP4OT/SdbLXWwMKInH1LgoQ4wF2TJMf76Ec/+qzh3Wz1gRl/6jseDvHJ0TcPAchXLN7JW1VyDzCBbKuNQUARNH0BW8LlZ1sefMhTtemrBtEkyBrMK08+z5e4va2kyXhMmK0u6PSvF5AZ1HOsTBBWJonUz59CkDqHyFDlcc+rHRuPx+9MnsOr2ndEbMreLRb0+5KHBH7yQNargi3ZNvYG9cO5vtUaPip/iXvncB9JsvH04iMf+UhfQNhlC394H+W5NYTHlHg/HL+cJH1YL0jjx0AdzIfV2XGrNUFFQOGYjClBcnglw66BE2SbZRbAtqANgv6oNweNjjhBeN5xVUgmz3xfMVudefMOey8lynpenS9JtvzFU9OCqgA586kK7UOnTuaW+h0hYCdY6dfK2Nthmp8dH/Rp6KvLjNEykE8ma/yz1rPToV2Qz2cY25xr/5iIbJG9JaT+5iU6jN0zpum+ju+HtK9+xIeGYwxNPKtx7a6oNrGTkvOHJNm3ncdY5phP8a2ZTBV0QDdZdUqSVX9V1tCux42nvpImO4TnWt468F15Phy/nCR9mIZQ6w+NmnD02wb3yf3IigSUGFZ9DRKkhKoew1enihMswcAwCNqsta+2K681KO24DpoNzGBf1NeU2eqsW69riC9YYfAnqzo+46lVAWT0pxH8sPpT4BzfmfVZwZ/R0J/vXCo9jJQHktrfcXXZ0J+MNYgFYL7oq0gJns7ZkQGfLY1h5yvG8/U49WuhBl7Ibo7xaFyOeq/35djgoe2r3nicfn+6JrVXQWwZmx/o9i1n/fOj8BT+yCkJzmSqoAugG7I6V2lWRN4Kcbrx02MjHsVE/MVuTwHVz+NnDT1J0oO/Y5IkmFLjx0L6Y3xOoJ4kmUBSjR+DZiU5Gn0ERzFzrNsIWVHOnH8GM1YzRbyNg1Z9x/VwmKj0r4Ow1aX3JTPw+ZKgaUVqBs7PZv40g+vjq5X2FkiSfJQ/g775qzoevvGNb/QXanvbU/O3/rBPw7stORqzPWFGF1aOOVbWz2Z4Cv5bkw5+EyNMjhr623eq7sfyoe2bWNL47L8KZCsYf+d0vxWRObbK7kBD32qtMazunHiZwJb4SCf8LStLCD3IRC/H6c84c77x1p/VkBgBn2L5Fv+7NeAdz8qGl1eSGqWB+mOCUpXlqdGTJBkDqTOqWWCCC0dYg+TIGZb22tPHDGnT9HJ8FV0Mn3LHTeAYMNkrAzkB0nH9bGznmI9YyZmBZ4di5k8jtEdjRIIn2mtIwE6f6uGBr3tnsFWQbVhPyHr5dBsbz9qYed7wogWmdxuOTxWmhHoP/alDXEqcSIxqY7JPjmLHqu/UUz6UfYPGS3/heXk6/8j7q4A9yZt4U+zck2RkHGGStSU+ZnLGx770pS913Yy0qk6r3Pywof/iRytPYmL1w6eCqudWf3kl6QMNHjv4Y0xZB8DHPvaxniTHn7Zx7Fc4GJXzAmdfg4TKGfy8jsFUA2dor6HxY7ur//o8/sxsiyJ7ueN6YA++0+zzXrPHO5zaQGbn3Ks6B36Vn0PiK4ILH5OkZj5V4XWF+ssKtibhLTB5M+FLf0rHzgtYkqi6AOZ3FAUzP4fkZda/+MUv7HIcv0rS9NGfijWjp5eqJ+f5bfXZWq9wfumzayBjTmkcKg/yHe9LVtTJj/Ih7cvH+Frj53lbRfY4CmPSeBWwReJP6q3sX/0IL+EPr37tyK+XZDJwDnRBL1aUHiBDk5zR41j6HMTo5mtd5sRvMuOvrHifDPAemzXd9iRJXn8n35NkBPXHQvobtop6kvTzR//qX/2rPrtOouME1Um3gHHzM1sSK6fgHAKQgAToz9D4cz+ob0fjjQNETzm343oQjFJv9uiBg50FN4M+Ow6xc2bX7K/kW4KlQCrYJRDAFj/jV37BHT33ESU0yAqx+tIMa33UoJRjPOpTghT4rTAlzeaXXnbhu2omdMc3wEQ3B/2c+OxT8N8E34rw3RJT/wqEuMCGJsQZ28Y5Wz+0fenf+caL1f27+D0k8BPffFXUuNOOu9zsT15+Tl48OcZTfGUmU0X1LSV5xd2ME6tv+jM5M8nQl9LDZWJ048W94c5j4vdTBd0WGXqSpAN/0ySZ8jHAAcx+1dsqEh/9qS2GYfQ4uzqjjobdCtejSXBOX4On4yDntGt6OCZJfIbnOMaO60NgOvhrDx5/+7d/+9Yf//EfH+3L7gKbmXX8yTH7Zuu++smW4FnBZ9wDEkziW/rhs/GlJczojZjxY7WQQJYV5w9+8IPjSwqMIfpo5Uv6qqifqx/0eDNIkjTebGUagxl7eG3oEyOJUkCXsOgE6Peh7Qv/9J/+076yb5OSflsm35m8jyQZ+6CVeuunb7WSix/jKyV58TeTYw2JpRIrGcmFHjnRkxj18YUvfKEvViTLZhu/dHN8a1QeGGMjtnkqq0m8pizjoSdJOvb30ht3IBc+NPRJmRR7UGp/aotRGAmTjARx9kuTZNqHVhwdEmjGfpznIO3v+E7CKFGJX3B+x/WQgRh/bZOtvu3q/h37gQRigGe2za8y6Yqtq79kBr4lmGqTIIWWOh9CH13n1lD7UF875u85xqO++K7AqK/4rBVG89OeLJt++hOx0VH0FEg4fBoEuBrYb8W/R57xqsRf+6wnDMmR3q2iBHJBvI7l6DC6U1bdLkGbNfsq6d+bn5ou+4Q6PpnyVRBZs4iAyIwnvODJRAk/jmGLbJAYWtuHbuJiZHasD2Oo/R2f6D3wdGKnpxQbK9/Rd8PLSXJsWI8fGgaqwQmt3/66MYYBTAIDccjRoOcwGp+R0YuDM37OZSDkc4m68dMdH590UlEUuuPKqLZotumJUgD44he/2O3qZQMC6Ze//OW+4jDQIYOff9RJ1yU+FhoJnI5zLv60hBm9ETNenNNXJgDqEmRWld4pa1LQ9NK/b9n0YsXV71l+4hOfOL68Q2KE6LAmSeNSmxwv1a+M/hUgTwHTAxtIkNkeZIPYt+quHp/Dmn0hCarp61lbRfbEcV/6iT3QS9Jtduo7bfEhfeMtx3i6VMaK0EInE0m6jdyeC2l/xzeQPXXQ7RA/lOtJUr0ePzQyGA3WVvZZEke/jyRZwdDoVKdHO45fHc05j4vjpfHY9QOV7/F4x+MjM1ZOPsy2e6J0785M371tiZJNY+u6knyVoIIeGvwLzRpk4k9LmNEbscSbPsdZvoCdoC1Zfv/733/ru9/97nFl2RIkvXTftS0YHx5XkPexCnpESEzPyOsBJ6tJTwWbKNALVL3dJUku2Vef9M3HDvfpXjS8n6dcXxXsglaxT7+lkEkfPvBWYxe+7itJqvOx9OFc+/Pzb8dV5FNHxkM9buXLSbJh8aKHRmayHKH125MkB0gQqwZjxLs4gGs4OWMnqChDe6wrOSJeGm8eJHpJJ4+pox1zsIFJVpKlVVLs0sqeKNkxwc3kSz0TJjZ3XLfg4l9bt/PHIKqMLynXMKM3Ysnf9Rk6+sRHkqagjZc//MM/7OfI57uWzY/faXgv/uxrIjUh1olGEH2u1a+FuuVKPjsFJkJ0H/0rq94ujR9r9tWXY5Awm157vLivr4BAbMJmzVZ9py284CMJLL6Ar0tlrAgtdOJjJgL0YHXe/rqMeHodwI8nvjxPkmm4cNGDIQHu0G93eE+UYZBhYrCHSJIp4xgZDM67QY0XPHFQPFqxJMBUGXZcD35Giz340bgK+tjHPtYT5a9+9atu0z/6oz/qdrbKYGd1qH4S/9qaJPmOgCWQSEihq7/QX8KM3oglf4+vptS/SUBd3bhXpvzqV7/an+72UFPzX4nSS7n79ytNMjx8EZ/OeIzPV19fql8LBx766spveNIpWemA3I7Zoert0vixZl/HudftuOnseVv5HePFfcCKX0nWhv7DD7aTExvZP/ErfF0qY0VooQPk1gffMuFsf8fdNXw9dRz0eqwfzi8nyQrnHhoGpMQDjpsD9CTJGJzxVZNk2irj7EmOcQalvpzjDJxC3aPQeGm8HR2C88Nj6WfHOsZgFD+q213NVj1R2g6z9cgH3KsU4GL/6iuXgj8lUaEdv+JDyjXM6I1Y4it9KlOHsQ/+bIWlNDnwYI9A25Lji7aS7KtKejIW+TVk9ZJjyHH0egvA8yGG9KdcrXQ8iWrsSiTkZ4eqt0vtvGZfOtWPBOKYXhvu7b4kGrFPs0mfDNhCl5hj38S0HOPjrr4MVT5jBH16de7wXuF+PzJ8PXXQccXh/O0kSYrWVxTeymOS5ID3lSQhAaXSU9eHunOgX47hYQC8NPQkCYf7pp3XBOQd1wU7WA2BY77kHDv5SpFzVpTt3Dv5/mRm//EB/nEfD+4oHecc2muY0RuxxEt8WV/81bHVE/9Vd06QsytjW1Dy8NASvw7NprO+qmyJ5n2+nXE48+34/Vi/Ng727tuQVsv0Yawr6Ycdqt4usS3EljP7JqbQs88PE+ueRHIb6VURm7Syx0b9ZkuZfA+ZJMmXLWzjpunYvW0Tktcm/pGl4nD+fJJ0/BgwC0yp3ziCGW9NksB4jHiJA9S22X4BjhVniNNzduAYnF5AbX99a4FD4DGOj9fXxUmeMg6riGMgYZ/4UlBezyZRejvNM98p5A/sLgD4EjVfib9s9THt4kO15Ft8SX0NM5ojlnhBXyAzTtDis9WXlbYe+bMApzQ5IK8JQSYFTWdWP37uyE+PHV8PGf0ddHccqxB9XxsZg423vsoip0T12c9+tm8NzvS81bawxb76jO7VGx99Yp1J26uCDei+6by/hs/3Mt0Kyne+HzJJmkjqJ1+xOYyf9+/znustgI6Dw7nbSZLpS3kIbj1JMopBXY3/qkmSseMAcerQBk4P2nB2DwK0v+NN6oOjdn73BHk7yMSFTWKXlPxK3X3Kg68Jph6hf0di5AdWVr4MXv0GtviZNoIJn6kl300QXcOM5oglPtCvfcZ30VXn31lhqmsD6q6XJL3BSl0fTY/vtODXE2WCYPyd7yfoq9vOjo6vCTyEr4Ndn/meJJkzeRj1vMWuwTn7Ok5dQgHxq6HvPo38Xopy26C/nzhP7NoVsGpWf8gkia5J1XvvvUcub3U6riIz7l4HkCk4nDtNku2DngTGBFAueFCkP/03HJNkBjlGOV8GN2x9qKLOmG07xZnNqNHj4Jwi21SpcxD77+2vJ0mBAY81ICt33D5iOzaL3dq59wSdhmceZhn9BhJoPBk687d8zkfBxCrBhS85x5/WMNJcwti/Y/3MaI4wEVBmxYOvMYjm6d6WHN/5+Mc/Tjd+s/EYA+qq6JaCY41R4pjYIaiTU8keEDkjN/1tTSRr9nUshognsUfj4eQrEnQJ6jW2Vt7X4BqyNRr9CV5b5vq1DbrVvkvQbvQttMXG3JIAtOm28dBj4euSIGOD2CU5kL5b+Zxe/R2T5MyQyseAvg7ojs7h4niZCXPGGLYadSvcfEYDTY7A8OqcSln74hhe9tv+TpJkysfUzY67gy8L8LGXY2DHj3zkI2bnfsWgv3iAj0gWnpKMz1RfUx99z3V8yszegBI8+VACq/oaKq0Zxv6V4ZUPz2hWaAMmfo4T3EOvTgAiXxIlfdVttTqJToy4NvAhYLNvW3Udn3L1vVhyZ+JbZY28W+C62DcxaLRrklTiiAdr2t9LX7Yf42sF/ivqZ/zX72e265578IxMdj/q7aMl+47yrCH2zyQj+hOHTSTptvHQZeIXt+IDr4LoOrKU+N6TJJ36O/kVEOWaMR8Kpa+eJBmIcZQY5fQccDRqPZ4hbZScJ/do0LX9mroBwNEzEPRl5dn+Th53TrnjaaDaS11AdY+y3nf7/d///fdagH3R0H+TMv4imGY7EmpwrclFUOFLfIfPKvlUXs6/htDbgvhy+s3tgzWYCBo/eAJP9fLtMVHk9wHTR02UVpRKY1TATrJMeW1klYu/Zs++5WqckzVxI3JB6vXcGqp9JQ22RVPidKzO7hKV/ui8/R3jBr4SU8NnLbegte33I/VXXzq+1b5r4MuQusUE2vqyWiUnneIhPNeJ51NG5BlzXpNtvpKM0CWb9vIhkT5K2ZOkm+9uTnM8xsesc+4jMWYG9Fb4SRvXcyBOwPHR5WBWjdmmCBxr0/6O9ySDosjjuR23CV9lYCfJsX5R3j1KiC2tQprfvytZCkZbg4x3xPIrfiRgxXf4GJ91fg0zX61IP6mnFMw8WDajWWH8ZMWRgGqHRFJMYMyYAm8oSr0Fwnca3hMQozv6ok8xIsnzmsBPs9nxWPxo5557dZp7dm7biCNeCB95K6quZ/jxj3/c3+AjbtAf2yrRZV/H7hM6VooZyvZ3suU6xowcn8PhobN+P9J9c7b0QJLYZRJ/zr4zmUZED0p9kBc9sqm77USnDT0Osj3+b2WS9CqIPchUj/lRK5dXko8pvD4ro3hp6L8lWQcvIzI6B+QMZm7Z+liDNhyKY1kVZKAIgtVJ0kfqAV7iHIDXUaE7bhfxaYi9nIsN2yrypN2nPvWpniwb+lOwApFJlCApKMbnJEEDyPYXP6krzvhR/GsNo7+OyK5GAjRejIEE/hnNisqHOr8XQAVS9I0LtDNGBEVykk/AbAmybxvST54Szir8ViCJA5u22NV/IKGOb3oirwRGlxJAVkqjvkfEvnQWmo6j1zqZUhdfxC7H7c+E67jlKq7Gz8YYyzcrcp5MDcffzdRn7SPnwtdo33OgB7ZOoudXfDmyRj46JUsmneE5fD51xB6xT5OtJ0k6kAR6kvQhg9QLHgP6DWMHHnqSrA5QHdGsiaMnWCnXYEAY9MrQuAR4OfDU9VP15FyVZcftgS8LoPExtrOCrD7u85Yc+2dZlbT2/SnYhp4sBZ1MzrLlxhcllwSoYPTZNcx8tkIi5r/pOwHeubHfS5AAiZ7ka1vN24j0py9bbM433Rx/7aFuUY86vAXg5zA++9ZkZJVUyMVudEp2dfKN+h7BvlVvQO/RfbXBaPP213ehxodcEjdSroFPNvQkWelnsr+E2HcmUwU/oht+MLulBU2nx63WuvvyOiG+TN/ka7Y55qGeJNuHJ0ky5WNB31F8K4/MVQdMXaBgyK3g5AaD+kgvjjaez7ESL3jCH2dXtnOd15Q7bhtsFuevvp1jdgwMFii2zVdGPLTwzBYnnxKA+JVgK3iNPrQ1SY7+OkIAi89LyhKYwDYL3mvAU10hoGdVipa61USSBtrOKX2ftCXJd9oqst+fzMsZHjtGLEHQThJSslvj7bjyirzkoj8y02GSJDnX4Jpq26rP8Tj6daxsf8dbNdFX/Eu9+NgirNya3/WkH1msjPVRE2XtXx3v2QFZgzZ0wdZ8gU5CI2Xr/2Q3rdU7IsfrgNhHeZDvNEk64YNqSOUWI94H9F1m8P2eQgwPqSsTIDIbNANag8GR2TijozHOwkJ7dkxRja++kswgrHynvuPpgS2rPeugj22tMg+lbbxjsrQNJ4DaouIn8a1LMfPZCn7Od8GxwMb/YfTbJcx4Qw+tlFlN5Lj2655rk9/LBvrW4dtvv33U0y2Ajdgx28Gt7Fuu9FPjhtVxEoeJh2RZdT0DvVS9LcUKZfScc+2vf68QT1bhfCoJPTyLuWtobbssle5ozzX7zmSq0CYTPqCT0Eh/+m+Tkb7lnjh94O3JI+M/Y59c5Gz4bZJsfz1JauBDZS5M+RiIg1fmYqQKwWGL8Su0d91Iawvw0tCTZPSjTH3H6w++6ZH3w3g4WVl6FL/ej6zgv8HsM+XMX5ME4+uQlU8NfiPNGca+c7x1DCWRtCB/8iBKfQjq2qiT14xTNmoBr2+5mhTX1aOJjcSQ7es10FPVXzCz6Qz8pPH1vhUv/vA2m4yF/5p8fNZwXDRA7VdyfFX70oe2Jg8WFHSERui0vvtWa3iCTBzxV88/RVS/UUamVh717u+qSTIzK9B/c5KeJJf23AWJGHirI2j3Kkky+klgeJ2cZMd5sDOwe3nK07s532140cBHekDOrF7irG/xyflxi59fVj+dwWf8Pqu7nA/tNbxqEJVQfK3ANnOT8Z22iuzbrreymkyMKpOYnO9BLvJKBpIAmeiRXFt0sKTnUa9LaPHseUuQPX4kUYbPxD7nnQN+5lySZTuWoLpveVgn/Y5+FFxqX3oxWUiSrPKiRYcNnX/+jy9jAO/h9SkjtkgZmQ4y/zZJNlwtSZpVxVn0lyQZQ42Io8NWR9DuFZKkX3b38zRHnm/t6b4dDweBoQYDx/HXA97//d//fQH5uLqM7wgyghkkeNWgJpHyzerHWUEG1X9z2yDXVFqXova5BkHUtrKnH3/yk58cV0bRRdHDVRBbpMTTga9jHKH/PI1syzVJIVvMa6CnUXewVfdNXyfPNCTJ4NU5qFt9SY5kaPWTrda6rTrbYq3Yat/4E11EL6FBb/pv/PSVcN09wHfqTxlyTi2LXLeTJIHy4xwco/XbHWOGGHVm8CVoL8jcJah4nBo/jbfjo9z0RDc1ce54fcHOJkYCF7sDH7ANm+ND2/c/85nPHFeX7bpnY1KsvuWzmhD5tpLPCloJ4kqfKXOPnU9f4s9j261jyJfyfS0kvx7S5D4+6ZjEdE3EFurKUj/GEbLTH3msIoGeJf9R3hH0VPUWbNV94+Mlfflh8PCbuKdOFsdw8Knjatj3vNFTT99ZTeZ86rDVvtrRhwSpNCmSgKH13e+pVp5qgj/w+KQRGVKS6/DZbSXJOiM9KL//Nlw1epyAcyd4JKBsgUEyOtJWtL+Tp9RqsHRux+uLOnsGga5um/mepS/Vl8EF77dA6Id37UC8SLKcBTe+KVDVoDYeJzkKYO4ZCWbOX+LPY9vQPgcrL8nx85//fE8qnqxscvdJ4y34Px4SxPMKvdiilcetSrxnRUwuOtzy4B87VL0FW3Vvm5oPND86/v6isk4w8Ft9Kvy3OHPy/Uil5DXr+672rbGUrHQUWvpuOPk1kzzdTIbB558k4sMpi0y3lSTLk60517dKGCsGS3mXlSTcNUm6pv2dvHUnfMbpd7z+EIRrUFBPAjVOBL22ijyuEsC51u74coJD0HmWFSXf4peZ7ClrPfeIIEky57QZfXUN1ffVMy7OQRC1ytC3hOkHm43NhuN4uAUkVsUm7NXKvhKj79xzo1dySJJb48gsbszOzUBvLU48b3wdY2xNOoXXLkNiCjlaWyvQ6WJh3G69q32BTmJfdTTojM82nt4Pv+M91dcBkSUl+xw+u60kmZvuJem8lCQDjs6wHDyzoC14xZVkf7LvEPROZoE7Xm+wdx1AAprjnPvwhz989NucA+cElfh2u+79Nhns9y4Fn+ZDPfjxzQTrJMz4duBczkMmiqOfruGuQVRS/C/+i//iLa95kyzx0/76eIhuqtyPDfag6+zu5FV5jht/bpG8sPqVFOkwifKS2HHXuAFWZo2/Zy3p9W3LJHG6gxLzjnKot3bH+5Gz+4/ZEs3xXe3Lj+gjq2p6OSTI/ixGEiNEt8Wnj589VcR3U7LJoTxNkq3BVZNk+uEkFI+fhpNthoDTJUiY/YxGX8Jdk2Su4bCNx35fsijyRI4dryfGcQFjgKjHaZfrEgi1OeyaSJgnq0uvhBPI+WmQ1aMAlmBmRWQMCGajr67hrkFU//hIsrbaEJzb33HLdQ3kfiykv2qLhr7liu+qR7Kpj/LOcJe4EejTu0/ZuvFx1Bfe+EeSEB/J5PvgN8f7kaG1dg/yrvY18fFQE53wwc997nPdvo3H5y1h97xQ7Tjo9skjslWbHI7nSTIKSJkLHhrjyqw5TE+SjBXjZ+YkeBi4HDyryjWkLWcInTjTFujfNU0nzxuf/Sk1jh2l7tixBr4tAGYsOc74aonSasF9pyTMZ1ZskmAepBC8gA9LVEmm4KGymc+OqAE0/o/elklmEnbee4oHNNrfS98fJtdjxYwL0IOdd5KSh94SE8gyyjtCu8SAqj+oSWsJbOeVhk0v/SnXTJiyYgxGvUlQrpnRHPEq9gXt6ELJ91zf7NpfIFB5eh0RvWdMpuTbrTxNkpx9bDga7qGQ/gQQfBz4OTpIdUwzM4Y0o+YI55BAox4ad0Hj7fmnPvWpPpnwnk9lHH7HjnPg10o+bjVZxxb///jHP557l+/wt+9973t9Vi+I8V2lL8B/6Utf6u9ZFdBGH51BALV9VgOpOpp5V+cajDWl/j3pajyh0f5OXi4QkJNsEJmvjL7l6vcQyUJ/4gFZsrJcA51Hd7mXHB2mvgYTDAlaPGvok2x6ETvY3XHd0szXy9r5lx5enOFV7UsXdEJOidJLF/TbeHjJtq8j6F+ZHKRkH7Zqxy8nyfEC55QPCX0Fjg+Jsj++HcNnxubY02mcm0GtJDPTXQLja2cG7su4Em51qHNwDTS+njVn7vcVytuBTmTZsWNEJlKjrzjv/lT9Uv5hDL7X8A6/zU8jZfXD570iTiCr32e7BHyfP6OD7mzMVAikVpFZlVjp5td52l/fQiRbAr26MTLKe2X0Ldevfe1rXQ7bn+TyCy8zmSvck028yGTd8dYYQndiT7Pt8WEndhbnwp9JU1aWh7Lfj9yyUh1xqX2zM8GfbLt6Vy9eGw+d19cdbKFM/uG3zh1s9fJ2axw7FzwW4jC138ZLn0nFmBKd34erq8paPwfOY9sjgx0EoOowM3j8nfOg0QLb8b6kAPfYetrx9FC35ssA7PWA/w+/zShR9q+OxH+rr/vOnABqPMx8dglWDRKsJJGffgrNczB+tAfjwXcn298x8AvuVabIfG3Qf8Mx4G3dog5+/vOf94l5tmYl10xa6HKm5wp28hudTR/9+5KxvfihTm/56kom33Ta2jwXe2Y0l3BX+2onseKVnVvf/anWPGT0JqAmSSUbtPLlH11Og8x+HwOYG/t13NAdhUMyvIQmUVbDbpnNVUdxvRv4SjOnOP0aDIbPfvazvS9Bq6FvQwxBbceORUiCdRCqC5COP/nJT/Yy4wCMgwZvOenbrwlefLj+xipfnvlshfEDmRS61ymYXhJAa/8QGsZnQ48dkNVQ5En9mjiscH1HsT8pmi3TcYtyDWKF7Vlxg9z0Sgdb4kdo0GHTVU8+WRSwdfyA7pKUWmzx3cTn+pvRrHhV+1YdHHg8vqv1Vmz4GDDmlGyiTJKkY3/Hr4BEKYwY4z00wlSChK2HAx89STI4J+ConIZR672BLYgjmBWYEYLkt+WehD61S1I22Bpv/YvB4X3HjiUYRwI1f6ljiu8cAvhxJ0WgTB1c0/BeGw/v8PkxWW0J0vw37fi90jhAB73Q2oL0bzy639Vk6F8TSLzwdZjwbgw/VgzZgqbHvuVaZamyLUE74x+87zXxSLklidFXEpZ41nTyVcmQ/RPzKp90po22Et6MZsV92DexTV2/jb/jvdPK2+sKcmbcHXIPzJNkDDYO6IeEwFAYq+c8yPDCnj4nkNTMlKpxL3F0TsDp4uAcKlsUa9CnexnooNF089zbVPDpi+NviiPtuBuSCIFfO+YzCZDqYHKYdsZfEqvj1rYnyvggSJomjjOfrUjgFEwdG0vqdXysoU5IE+zzKxqHe239bTLkEfxvbTzQ4UGfPehdut0KEiS90Te56dHuVmLJGlwfvbVAfHypACTe0l0mGHao2vn+EoHHsC+EP37V+u2r3fhneH2dwWcz1orM3V/o1N8xScbBKUj5WMgAC4PKw4rSdtOzrCRtL8WwWxNkBeeRbLOiVHKqNXBAZRypKbNvueJR0KOzWwsMO24H1TcyEMd6RR0DKT3x2MbBMVEGfHj01xE1iCodXxpEA0FUadwYj2g1+Y73JUcZbmFc5DVqDcct1x/96EcvybYEMtNbklLiR2LITOcV7keiI161GNe3p5MQ6w8llMlUf2hHvGGnGc2KV7VvbKq/Zq/jzgBeYsc3AXKQsvhsT5J07O8kSVY49xhgjDCZ4MFQHKqd79kcs2awddZTjb0FVoWXJkkOJ0lXZzLY2iqyP9UXPVWd5Xz9fIa1z3bsgIwLE7KG9xreiS8KijOfHcF/c2vBsfHk+ruMIde43vhBt/nw8UfJR55vwb+NwcSUVvaHAY3hS2QXJ8gqFiRubNV9pdOS5LOWIN9NkqQn/B146/X2Wd9qxZ++ZjRHvKp9s1vAlg0nC6Y3AWStOJy/nSSZfqqzZCbTyu4w2d7xfaMYlgMkYW4FR+JQSZJJvmvgeK5xvddbKRuPx5vbce7I4jjyJFjs2HFXWG3wqwTWliS9NL0HejsrM5+t4OMJ8HwZEkTvgpokofHm1056/Ijv41dSvxX/L99rPn7/uj4AdQ6RN8kxJcx0XhEa2flqOunbmbErvrLV7rihxzxtTepnNCte1b41hra+O2/R25uCg96POJy/nSSZgWSApc8kyYa+9eA7P3/yJ3/Sv3NUDXwpsiq8NElKrnEm9zQECnw1frtD1YBAjtSLHDt23AnxIfe/+VbzNS+c7tuGuVe2Bj6e3RPHCexbVxkjZkmyoccPE8OMYeUtJEk6M8HAT6v3719nLG/VQeRNvBh1uQZ9pD9l00nXV77uAW41pd4+6/cjXZd+1nAf9tW29XvyPt5qy9cd5Kw4nL+dJJkgUJOLvhnJuXbcn0qLQ8T4dQa0FdkuQSczLnTXoJ0Hflyvz/zafOOxO1V4dk8hM8I9Oe64T9TtOWjjot+r588znx2RIBq/h0uCaIXr0KlJsvFzfGOXcQv4fawYsobwcogleLp4y5XuyFrLmZ5n0MeYJFuCdBsp/PS4gb9W9iSefresJOE+7Nv6PU52wlt09rqDDSoO588nScePAcmlDioGqv23hNOZ9eVlySrGvzRJui5OfkmS5Ki+TBw69YGhxuc7jd/38IlvK8rwPZNlxNpnO3YEnnjkS7/3e7/XjyWldvzc06Uzn63g5wns8XvHlwbRwHU1GDcf7sGVL9egeisTxXyfuSTJ45brVmRybeUuIWVrc6bvEaERfTe7HW/VJO4lbrAr3sQY0OeMZsWr2jeThcaLl1f0F7CHp/D3JoDcweHcPElSytDwwWHwc+D06XgwTn/3oiQpYTHoVgeocM0lyTFw38d2LxpJzBwYPSXeGs/Ht/DgPfyTRbljx11hXCSIWlEexkpPksbEzGcrBMzq80rn6ti4BHUcQePluAKB8JrxfG0Yi4kxh3HZg99MtiUkSSpz/2/U8xIqncSPxkf/rjW+oielJNnQedN2y4r1Puzb+uyJm37oKROc8sTtaw/6h4OPwGmSbB8ek2Rp9GiOPuuXAzHWwVB9y5UzVONuSZZpo4xj1VlXzi3BQ0NWsEmMaNXvjuGr8dpnhnEugQL/6kGMENTPduxYAp8yNhKw+I5g2vzrudcszny2QsCMryfQj+PoEtQkiX7jrSfJ+L5XrGUsC7iR45rIdjU0Po/3JbfED0gCIrO6+AH0WXU9Q+0jfbb+j08EA93RVasfX2qu7ZZk/Kr21U/r+3mzW88BeUXeQVfH+usK+k+95qF2/jRJNlw1SQYrffdtCMZnVMbd6uBpD3FyjqQ0KxydbkS+0DvSU4aHxvc7De/hWXLMvcka2MjmM1B/bN3ueLoYfaod9yT5ne98Z+qzFQKngM7XbRXmPlf8+RzGceY4QRmd5sv9dwezggyPt+LfdKdMwD/wdUxG52CcJ26IBdFftl6j5yWgQWfRo7L9nSTJw2TieD/ShFy5JQnfh32b7V605Ni/0saOiU/Vpq8ryJk6ueFQnyfJKMWFUZTja6MNuu5AXux8yaPbEOcEju51WnEwzp9Z4RK054ihU1eRkPNNX+80Hvv9SXqrCVKZWTW9qifoVR2rj8ep3zJGvnOuHj8Eah+zWe8WHmqbx+D5VSDgQ/OtniT9IsfMZyvy3uOsMtQF++rDa+DfdQyBcQToNX8+/s4qHsWQ2CI+f23gI/wpG166L1kn0+OxhEiXVX/OJUGtIbqremx99y/tsyWfg8bjCU9JzjOaFZfad7Rls9ezhr4TVpNifeL2dQbd8wml4+iAj7Tyty84P5w4UVIuuhU0fvrs75vf/GZ3ILOtMWHNwCm0V7qH42skfiKHA275vTWzM/ck9VUHTup+p07pqyFNjy8OT6h1J0sirEbIzDYBpOpZfTxO/ZYRPsfyPnCOVvRZ26lXna9hvG48Tv3aCC+H4NWT5N/8zd9MfbZC0PQdY5NCiU1Q5c9+9aH68zlkvJmkugVh5YJ+0/PxF+wDuo9dro1MVjPe8NbK45ZrYsNsbDvvV0B8P9vDe2KBBCSGSEqjrmeI7pKcfvWrX/VS//jAE9s29CSpHdtYEOhzRrNii32rbOEj59uE5vlnPvOZbr9Wdh3hp5avO6qcY5KkY3/HJDmbjV8b2bpp6N+Z9Htnnuozi+a0nHUN2VKVIDl8dZgt4FQc1s/WoGOQKDmm2SRe1H/84x8LGMcn16B+YRgYIINVEKmTktcBTfZe3ufg2kKr3kfRPny8DqiTqczum+/0L5xv8eVZgBSojQe+OxszFVmZCL6So0lq3c3BR0NfSSYh3ZL+w1PKoPHYv48ohpBNnDCOrRwkm7xc3LiP3rINSqfO5XgN6Epa9EjnaIpdzZ7P2VEcgHZ8XARIypBX2q3hnH3Jl5U/2RznnM+bfx1/sCGvyUtciu+9SUgO5NOt7Ct7f8ftVsZSGpCB42uCc2fQcezG47N/8k/+SZ9lff7zn++Gt80A6uNxHN5v4MWJzIjzomPn1pD2nNsveCsTQAwufDj/hS98of+afOOx35/EM9BpHaB0ygnzec5VXd+K7i/FyPNjyBAdVt/NZ09RhzOQQ8AqY+H4VpaZz47QLm3jz8aHnZSMlSVoYxwJ8vzcBNH1oYeP5s89foTX2ORWgKe6BXyodx368QJymvCaDBjXkgiZjXXyj5ORUadr+MpXvtJ15mUoEiZ6VqLtr/6wcX+C3++DakPP4kqS8TmMfFX7Rg7ysWFkI2fTQ/+ut3hUksMxOb4JSZJvBI4TRxp6kqRTfy/9nqSyXnhtYBxPH/zgB/s2EycyO4uxOUFNXvWYs6ibBVdH2gqzRc7KudBCk7OpgyRsoOFFMv7+97+fRGlF2bdTIImSTuN8ccxR17ek+3MIn7My/vSQWPLVnK/nljBeP6N3LeCDLPGZwwTrmCS3om75QVYXGStLEND5vgTiWPCudPExJkllCTZXRfwgoL/DZ31nKisuiczYNo4lFMkq8SSyRn8px+Q5g+vpj+70o3Tc/mqS7AH5W9/61rF//GyhHyzZFz0LBHxkEoC2+Nn00XmoCbLei3Sc+uuK+EVkTdnOdZvQpb+Tp1treQsggNL9vTbw+s9ncWxGtpJj8DhDdQylz9SVnJMTVce7xAkNmgBtDpdZnwTMEb/85S/30jZJ06Gt1xctOb6XAFfvUUa+HfeL6vA5rp8/NZAl8kSWdnxxkgyyRZgJ3jkYP7nnpc7vKz18NJ76061JjOHzFhJlEkDGYNHhbz760Y/6xYtnxmwSWRIKqJO3JqCaiLaADk2exQg/3KwP+mx/fRWHl4YekMU0n2lbf/HoEszsq088kAVdsvn6UNPFybta6YrN4m+3YL/HQmRO2TBPktWB6vG18elPf/pYb4mm/2SQ1ZztBA6QwWwgZzDHOTiEY04TRxqT5Tlo7/rQ00fo2iL5Z//snx1vmP/RH/1R58tDFY6bLt+RKKPLOB6HpOdilK7vqvNb0f85RIaUZbb+yohOlnQRfY5BEPCzdu1TgV0IMpDn8D3Efj9t5qvnkK1SvisxJJAuIeNKgFWH0DKGGh8vGvrDauE3tsBvzl0bSZb45J+Hd6f21aSkZPVmTEfmjHcT4cgbXJIoxQWTZ0nJ7SGJlz5/+MMftu7f8pYbfEiWz/Rt0q3tXZPkaF/8K2372gVA14pWf4d+u06iH0j9TUiS8dv4avHjeZIMcsEtOHkMqMyXglu93+SWKJO0gFNDjvNZzt11FQmcLvTVQ5dj18GVPlN6+rUNhON9StsZgl4CSU2W6pG1yr2GqqtrAA/ZSk4pAN2X76BjsCojb5X7UDcbtrrqs2J6cw1+6nUjnAdt0m48nl13n0ifS+AnfCbbYI2vPkl0/3vmpyMS0Ed/TxI4B+34tWDLpyWTrKwaL/1BtbysO76snl2Ta4MOU682xevhXE9QZCSrpGZCYOw6JjN9kZkOL0mQQIehTYehW7Zc8fHCsb6sJF2j7ZYYdc6+VpBkknwlRxP4Q5Ks271HRD+x4+uOyDmRd54kM3OIoqqDXQt4qCsTx02g/gi3L1NLTpwhCZOzcUSO7lySGKeJA8Wxtjh82qAJCRxo5twaOKXrBTYDspX9S7tVnpSpk1dwnH0WzM7dBWt9jJh9LngnKY1t6g7AqwDN0K++cJhE8IU/aPDmF9tHJlDHlU1Kbf0Ar1/TMNkKPaDrTFqgfjYZPJ1m6L4qsko8yHI8j59MOpIgfeG78daf8HYfvPrpOYy+zo9n/jpCsM5qxCpEwA2Nppv+su7oqOpwlOeG0YOhr4VZ8RnXSSzq9FT1FmyJHZB4kYkGOGdV1/TlB9z/f0o7Uu7/1nh2yUR+yb7kMLFxTB51T9e2v+NXUN5kxEdTlrH/dJIk4Asvlb+Gvpo0cDmcLZM8zWVAcwaJ8lWTZJCgEaffmiQNONfrq/HvFXa2p2yXdQcli4BSg7/gmJm4z1Nqo23aRS9pU7F0/hzQDN2cEwQFQOfrOfykneO33367J6HwWNvfFfpAW10Z3tJHq3c/8LUEW03qrV3XcaufvB+zwnl6TpJyDn3bmZJotUc+m9E5h7Vrar9JMJ/85CePX2nxeRIlNJ77092CnIA++ugaloLoORhPAq3g7p6aQO56X4ui58ZXn/SxR2So8jwB9GDoqxeZBNgWJSf56anqLdgaO1xPh4lDjtX143ZM+/t/ZXUXfWunzYzeEpbsKzbaavWVEqtJ/ba/ej/0jUbGYEpx4fDZ00mSlSeDL8Gr1fv9hO9+97vdCeLUBrLkKDklkcVR40BxqK2ODpy20tqaJCVs/eSGOjRZvHGjr3qaPP07SmSyYvCFXgky8kb2wDk6yWevCnSWApr+8FKTYYXzEoqgHjulzC9X1PZ3gT7wCNGL83hu5/qOAtt7xD76rcmyle+2FaQn+I6TEny5XgI63OM7nk+/jmtZz6f9eH5WPwe08FF9IJ9lGxNfDX2b9dvf/nZfZdiWqz51DktB9BxMNk0KJckEdxOSxvfxO8H4L5OWLlNkeALgF/03a+k1qznjltz0VPUWbI0do57Fjuxw0aXSpEc8EcfyGczoLWHJvuTI/UhJ0hO07a9vtdYJ2JuKjNWUJQacJsnW4GaTpOCBj8yuDUB8OtfK471Jg9mWieTIETmFGRpHSWKrTgSXJMk4OVqXrCS1Cw3fzcwWikB+CDR91SNZ1uAiOfzjf/yPewnRQz6Hh7APmhV4Sj8CocCdwcUO8Rn8tZWkhN+TUYL+fUD/CcIQ+zf0t5QIcLarotskD/ZtbU1IfHHbqsev+vP1zmPVt61Yv2BP15FrTQb9azP77FLUJIknX+omr3rTt9WwFWS/D5ldEr4ev9qCuybJJEf9gjGFVvt73vjucaPqcfSXnL9VHHjs9yUlSPIqrSqjg1mc2Bo76A6N6FvsYD/xyDk6zdOsmYw4p+19bLeKjZIxu6H705/+tIn6D1ut9+W/Txnx1ZTRSTt+OkmSE+OjzrCTNFq9ryQYnnP5Qj8HlyjjnIHjrY5dkWtC59IkaQDkpn/o4Tf0Jcsmi/cnetLt3bZaOj6AErALPSjpogaiV0VNBAl2yuoL6Td15/Fje7WtJP1Svp/4kejJ8Act2Zwk/FdB5EyJbuGzfxXCVpXtR7qtevZqrugYGu89YbZruq7b8fu2h9EiV9UFxPcq9K2s7bYiNOq5bKsD2vxcCS1Zvtd48FNsz+yYCK78L8H1PoLoOQiwAjo4Fsxd3/g7efCDXNFXzo36vFU0vntAtOX6uc997rjqMnbJXHWX+qjPJURvsRuIHeIV+FwpidkBy2fabe0DluxrZ83qUenJ2ma3vgPAv0Y9vImIv6ZMfGvHLydJjUqDk/KawEPg2MAz01YezvdtKI6QmVhWkGMimzn7OaRdnRFekiRti4XWz372s2PdqvKXv/xlD945d3Bgv/T+oiUcScf3z47bsZH/IRycLmd0nY9fNEjeX/WwhlVECy49MTb4Qvkz3w9t/D1vSbIHz/vYzqmytz6Ox3hq/PYkyRaCTfQIs63ImlTa9f3+cENfXdqSbXThOMOOzz0konOy5bglyvfptuEdK0ZfFxBAfb1Iyf+++MUvnsh2DktBdAsS6PPk5WHC0X9HtdpDkhzlunUc+OxbrkkmdEzefF0julPWetXnEsQNOuOjytRzLF5lIqLM9rbPZ/SWsGRf9PGAnslks1PfAYiPv+nIGE9JL+oNv02S7eCmkyQYiBmMeMoALOcE62fen2o1mS8EczzOkgRXHWmrkwdoxdmUcT50z0FfAnT6rAE8gTufp02TsSfMZpO+TdjKHsSbzMdVpqB0HzaqAY0PtOOeDBvt3qeSjvHSSr/6YKDBM7Nug8/ghsbfs5Yk37V1GZqvisofkPuw4uoPstg9MPOveox+BfSaHEfgt8HEhK67vska2Q/oT8tCeJgBnyOvS9flvPaH5CIxSvqS44uGZx62EDglRH5kZcP/6JnMM3mWUHUCCaJbwM/ZGR+2tum8ge5PJjEBeUyQzunrFlDs1bdcbdtbLdOvrUryR3d1fI76XILr6XrUN51KhvrIJIStxRX2tVMwo7eEJftK+OzGl/R58O9N/vwmIDpIyacPuhHznkaSHHnIcXgF921aknzhlXAejbf1xiEy800yq460Fjhn4NCcWZBCizPHuddg67cOrFoP7awmx8/wyLmbrIKS7a3+NYdWHoO4MnB8F7RAUa8XLPTR+yt49vWvf/04u45O6YUuTE5yL6UFyD4Q2zVHG90VCWICb11JNvQHt6y08CIYVJvWetV7RdUzGvh336/9efqvyt513tB1tKDrvgKF9vmRf3zj+XCuTz6AzttnnVar2/5yb9pWcJ944CcTMcGTnpX0n6cUL/HhUf6tSVI//+Jf/IueJNnYbgFfbCDHUVZllfupgT1a+TwrOboXR+gguqt+NOpzCewXoBW9O84kPnEF9OtBG+WM3hKW7Cv+qLOdSe2HPvShd01gyJzyTUb1X2XGb4OxeZok6+BuDpOG/fiWkW2qT3ziE++1+js/+tGP3hLMOYiEydk4obdY+BWQONHWAPP/b+9ek2RJjrKP6xMCgRB3DFjD2cFsYd4NzA60LW2A+YAZhgFCg8D4yBjGXYgREjeJqwAhbsYbv6CeGq/oyKysPn1Od5+ONvt3ZGZFuke4R7pnZGVl5sAg02DLmXwGtG17uIRT35pwyx2JSMKXDLQBzS/9u7XWb0mzBvPX4iTrlTb6LR5dEkf6mYM8ffeZoG0mqWRvv10VRJscg+yOv24lMvLdnQNb4mkzyX6pVXLUJm9ryHeQ/HWLndXXh9wAVm/a4D/fVbW/MXGOnGegG1ycfLT1ThIjHWYx+sPfAjUSXC0bx+xum7ou18/6UzHOawBlF5f6+c5JZHy6hRmV2aN2OYb+8R//0YOx9cPM98JXzxGx7lT2S67GkXHsjlM2ft3jd2bTyuv6t/o2Mc1x4Bg1no1r/tMPx2VLko6bO3Z4qbRjsBObWD7lQsfs3Rt3VKjlc8Ddlmlv62i/7KpjZmcGd972YT2XHBL0893lHhloXj9zy5l7kLQN+CQVg5dc7cjyHmOQg/Ux8GV7XTYrcnAk0AsAuRNUIEBtkxLq6G9sF8Z2QPtSz2/nrBtcbaA92PceToQEZAM5g7mVPUnWduREBvqRy2V78IP9al9ngXDWd9vAx04OWr/7ycsGr3IyIfE46TE7G+XpR3xedWZb6mmvm3lmfarkJCJjnn5jYfTtFvQqfZWhbH54/wtf+IL7AM53nD9nMp5O9Mf95RVVxsHrHr+x4zXu61/+VGqLNpr5S/Dxm2PS5KB+j6yvfNfGZO37iya2KGW/ssC2/s5J0oBRKRWfC+5Q1PYWTPtl1wSAXMY02A08HXYpo56xZbBtkaBLDjKYyZwF0xkGrhmhoJ0ZAtkC2KhvJDLozEF0BO2UBNN+B5GSzNpvbWOP3BHMPg68yLmmMwcjUreNn54khwB0b+qdzUm8TXYPaNGv5FPtN0OynD7uoa7Z4xFfqiPoIPWVkh9Z7EiWMrNS9mVPZXyQUr1Rx8ho/6wb45kJXkM7wMfsU78CuEb1b0uQrxq+M+2/g30o/z4mQx96YNTXxA48xPG7xUP5V9uMJ5dVLVeZxmg7bi6e1erE813w30ORvBebtOV5khSAVFLZ+nNBEM1ZbXN+v+wqkGWQ5EB3Jih4wvI42GY4QAxWg5ecI8G0Yj8BkQw3XtDt4BIoDWqf7UEnGePBVOUrazCDdtIxQmb6ZlnA1A6fCfaCqM+qrD1qsoh92hhySbGPqYfAePS9Xl4K2+jfR45tSSISxJIkqy1n8ElNVtofm27ZvKKOWaHARCf9/Gt8Kd0tycYCmXY5EaFX26reUZf1+LR+VpeP9I/O6l9l/Ju+7pF6ypYcP/CTHzHCQySqj547En8rz0kSOfbY8b7Hb2TtETuPy0f8m3GnrnFo2Xb7Z/woW2y/uKvV74LT98X/xRjjOvZJkmRLfxdJUvmckCB10JlREmUbAD1R1kHnzNBAEkgFLMHKgFLCgK9kOxwgZFTIPUoCd+6Yi17tGPWOjHqr7nFbXQcHu6ScIE0evbbnYE+pjiCgr2yUhBddW8x0t78He+yV7yAzLvnXQG7Jsr9XtOqEviUJ6FcSxB7q6rPxUfuj/+OJFtJvy/Zxxs+vbqbJiVdsrNSOepkOlm1D9IXoq9ieRIXMcmb9GeFbJf8ae/qq3NI1kq8Z2nHWZ5GOtQTY2Z2tz41Tcgz9e8nqd3Z6neM3ft0iOu7rX2PIWONfaCcfRzbfKZvfzne16mu9OrP4lDFJsrG/niQZT4UYEXX5qVJ/jO3gFURPeOtGT5QZdAaPwW0wGVgJXnukjv1DHdBHEBij000hSmTms0c9oDLw96h17E939FnmdAdSEgibqJcnciijt8rdIonUcg5IN3i0v35zR3xzX3IwG4sZj82v/fvIahO6BTD+1Td9tRw7bpEThdrfLOsb0q8Z6pqh5cfaZAqeSvq1I22pdreOmbzK+DnSHj6tfdmCHmNNOwR62yJr1DdDPbPI5ov+u8icmNZj7zmjT+lLG1dO7s6X8cFu9z1+I+MWbvGvY9a41xb1fc9tfFV5rX++K/d74N7H3NX6HOL7m6bawHJyYKMnSTZ2htGTZBsctULHtgh4qmij7yTT5uEywoeN84zS4MnAFqwMqgQrB0IGf4IaBFDbtoLlGFBG1KGXTLIyuG1T2r7HqCfrdZt25bOawNN20FX7VnXYLgikPRIHmUmAe0Rf6lp2o0P7e7BLrsZlkuXpuzAH/MX7FOlmU32WpPj3iH2dFLBH2m5m6O7ArI869BN1LJiB0ylgJWjF9vF9/BBsi95K1Ydq1yxHN121LzNSR5lAzzZkVT17tAT5vpt1HGvszw/l0vezZkwcjT6brPZ5neO3+nbGQ/jXOFIag5aNP/tHfuujO6j7sai/uVTu6tupzy8WY7rmPLHmtK3f3crG5ySpgg9HAXX9qaLtdTnrp/afZ5TO9D12ShKAwZSAyhg1gNnmswxG+2fgZfkIBrwDyiAm04FmIB89yGYyR2rAzsFtG/l0kVMDc92GbKtE3hHGpKKP7e9BkqSD2ll+8Wv/PjJ9rnr5S5/Tp/R5j9SZ+ZWOa/72eeyMJKMkSduip2LbNTtHd3w6tiWy9xj1ZdxFhj5uQa8E2XCyef46I4EkPnru1HjhZKz1r98Uxt7s8KaP39fxrzGfS+ralzZWWe0Y+qCd1JwfFam/75L/XofRDtZPseZukqyVVarlc6f1zTMw3zdL+NrXvna+xGgQGvww0AQTg41hfJ5LVLYbbA6YDLyjGKxkGLgGcA1YD3WQzdDWI/Khnn6n/9qaA/cIsUtK8trfnSRpPOXM/ejYEpCVznpP+3vq0HvRlWCgrIHrSICBPse/ITKP+Psp+Lf2G5bpT1u0TTC1ns8ip/52+Hvf+16Xy/eeL9yOmf5kncwakySRYJL150xN/qeyf+fNt6g+rbbM9j1i21up/r1GxroYprRfxm47Vs5va4kfzZqrL18yGcN1LJ/G9qdJsv31V2Vl0COD5V1BgG0DpCfK/G7QwILAloEGA8xgU0qmGXQJnJXZthmRS5fSOrkPfZDV9txykCXAa5c2KavcI9AX/YJI+7u45dyYyriybrxZvoYz+9Q1o6xJcrR/7JukETvvkWBn/yrvqG/xmP6NvyyTZznb6mdsUvVWWfmxvJPI/ICd/OavPgNh+3bsnH1imQ+z/pwxtjI2yw1Jnp50vnuaHWNDJ9T1ikW16YzIOMLMvzOZldH/2qed9ifHsfLjP/7j/WTVu0r1M8fT0WPwJcAuyX8nu7DZZZKsg/5dMp7AmoNaonTXq+/MYDCZLWbgQ6AD46SsMysDOYO5Duo9ErTJT0LKAFfuMZNXqW0Y23bkIIN62pjAisi8Rp1x5sDUz9y808bS+TIP6kFqOdu3KDPI7sdW+p3ene8jlfqgP0p2zvoe+sz/Vc64fI3H9G90KPUlPqxlHQfZXuX68Xz8mEvnzTfvN/plVn7KXcZ8Eb+V7/GeLfqT7+j0yzg7be+v4WML9qpjqdo527aIjbeofrCcdeWR49fYNeaUGXeW7e+kpx1r3njTT3T0VZnv99ds8lNqjDrZ6W6SbIyV3ilyqaH17cM2aAycVy415cfnBrwbMAxM6wJeLsFia1BneQ8HGBkGsQHsu1DGf+iDTJKq60fkQ59z0GujfueO4COMdfXP043awOuXXAWe8SaBOkPcI3WUZjV8N9Or3wle+nS07+rzSRI86glRtu3x2P5Nn0O2K32WEwZ+TuCNDD93INNPPVxuta0li/ebvT8UB9id/6pPkiTH7c8RfTidfPW+Gpf63frYL7exB9uxIb9W/x4hdt7iiH/3iG+VYpmTfjej2b/1qV/N0Z/qq8TC+HExzXnzmWQqpkyAes44ACBIGygnBFt3SL7vkWRuizfIJEYDLtf2BT0D1bYM4gxg1AG9B1mRk4Mt25R7zORtMbbviPwEUcvqW1ce7RvGWTYZbNrse76rDjVR5mz2CA5qY7GVHgr+Xp29pp1K/ksSGBPHHupGHmLH0Z5bkPFY/h37OdMpsOfuZRjXkRGfZb3Z+f3mNyeSZx85fsQEQZUfYN320VfPlSSOMkbPSZKN2Y1/U2bbaOuR2PUI9zl+M+6Mfet+ApI34mj/qR/nvvGd5ZQvndghNlKeluczyVQYd3zO1L44yL3CqfSz3/kqoLuhR/BwNibQ5ZmIGYjjIK6BZQ/1cjDlwEryPXIQzGRuUdtU9e7hAHNSoLSu7wmiR5NEiH5yJApJ8gtf+ILE1n0g8PJBxtWR8WUf5clf599HzmZ7dKYvbDsmkBnxR2RFXl3eQ53H9m/6Gn3pd8px9pP+go89tNxys3GfQTa6zSXJOtuoJzmp8y6QcRlOv5nsL3RnF+OJreu4yrbYdIvY+Qhb/r2GBKlN/JwTXvu3v36pdXa8ZdKQ9ZdKbGI8Wy42midJqPQuHQAGvf74/iSDYri7y/cunkbR3/5uYBpwkqQfDjsYJNH6FI5xQF9D4BaYGDzBM3oy0LeYyRsZ22Jd8HPQzGSOOLBqANBeMo720WVP339kXd+8w64lx35nnd/W1VlHAu/Rg1Q9/iKrcf4+Mkk87aw2TbIf+zqivktU2l/7e8sJwmP7lz7+i74awLXLcur6jG2qTH1v4//9Rr/EitPvUc+xwLZ6/OT3ks+dOi7Tp3xH2ZJlf7AAG+ZEI8cKW8fGe1S/bXHNv3toW74aypUws0ntbpyfehXf8SOfJi7m85cOW7BN2XYsSQ47PVtm/YhRTn11tuXa/fu+m/HdZIKegWeWmTcDGMDjoL6GIJzLITD4c7Bl2xYzeZVZe8yykJ+w7KEdNbF4coybbtLfa9TvBS17a4L9yfO9ZAtC5yfvODBzs8etB2jzTf8+UvCol1thm0Dv2ZV5s7y+VJtvIfDlFVBVXpV/jcf0b3yXAGkdaYPLrD73sPskbid9fEVus6unsbjB6pwg45ta2n7yw9knt/rwKZL+5MRt6FMPlOKB7/nc7OdB58a1E+h6tWmL6rcZr3v88rv2uI+Cj5VO9ls/+qXW2p8svwt+eyjifzapY7sxT5LViHYYdnonqWdYDYHC62Qu7p40i/T6KAaTPB0gBqegbDk3/gjO6uTGH4FKHTdE5ECoB8SRYCyw7ZFgmMSQAOl1SHm/4jXGA9UBKiAIApkVbaG/DubgQK39amPpvXZGfv6JUYJRyms4q7dvm0n2n354z2XalCCi3+xc+1CX90hbtTtPztFvJbljf0fUNT5uTayBji09+smX8W36al1iz9WNqnur33wqMfq5h3HBjs0fZo9m5/0khp2dxCizXn3xAulP36knguyorNv2mPm1En/yM//yuXHtdVf1PZZb8L02KTMOlM13D/JYyHcdMQmTMd+TJHv6e9FJEqfvIDqtz34j9aVGvwM2g9ANPhKimYfBbTDnLM6ys3jbDXTLCeTO5DN4x4Fdt21B1jXo1BYJXIL+1V/91R68Z/JGxrYFbSdnpi9IyHSyiTNtszgHeGToYxtL55sH2NnYyonJ0VvQ7fOTP/mTPUkKKL/8y7/c9busJLh4PZD16Nzq0x7251/+ssyOmZVZ34Ldx4ApUR0NojOZFfbVBjamK/5l562TAst1XbD9+7//+/Nn7NNs2r9/zMkKG7v0WI9527L8gumXXNmuHrPVvnvMfDoy86/j96iOfNWRUtz6whe+0O9qHfqyGGAjZKyXMT9PkvWAyc7W32X0Of3M7d+W2wymJ0uXCxv9zfEuUxm8BrVgqszZfRKVbTkrFHSVDG3AHzkzHCF7D0FU6WDLTC4PKZ/J22JMLKMekDlu01d6zeT03bYqq42lPpOMfY2tJMcj40tC5aNW9iTpUhId7K+fmf3xTW3/0USZwEemQMW/EjF7Wk4/t4id6cvPKarca9h/ZtegHT43jvTViYFxxe50JRlbprMGVm1ir7TFZ82WnqLjakm/vBobu5Ej63xkW/XDC6YHy/GeBLattt5i5tMKv8JxzL/5ysBnM3kj/K8dGe987ThxvLwr3xu/SYx5JDmKNcq2fj1JKl8aAoXLe+yQgNEGWv+5iGTZyle+n3RTigDtEqxgLUgLZAmwZpEGfg6E8WCqga1un5GzzeBgqiQxpx2ShXVtOCIf9SCDZbokv1HfCF1K/bScpBE5zY6v2I8tW3lh79h4D75os0j78sMX+cD3nmyvjZnd58y72vZo/8FvbJiEJFApq+0r+jrrb5YFqyOJciabPWtJT/wskNo2G1fQhro9bWp2THLki/6AB5dWzR7r8c5HTmZsz7YXTr/kGnse9WuIT7fgU6Wxp3T8Ko2rW8Zv4O/mw36plS9LPxY7HE6SqXgkeL0r6KuZTe5oC3435UwstmhB4+OGSxj9Tthvf/vb5y/xBVOXSQQ1ywZ+LrfOglkOshpUt0ii3UJwp0cpWeTg044j8ivambbqC3lkpx8h2/RRIs2BrqR3lOmgbVx8P1Jn7UdwwJPRxqjv0M4++Na3vtXbKshE5639Vp8M7TdDw16/x8+qrOrrXP7ao8qfkdks/yZRKmPn2tcavLO92codxj05NroPjHX2tywoVKpPbvHPO06/5Mq3mVG6KlR9vcU4ZkYcP8Zbjl/HVMbiTN5I2uDEUdl8eD4pXRwnYz05sLGSZKjBImfVOYtmB8FZsixJVKAxCJ2tvTLAfcnuDFDwEtRgoAtuBj1DC1r1ko3BfeQgI2cPB5bfdjrgkqTg4JvJ20JbtDHBVb+0f6ZTP4P1JGX17TfKFqSbLT/+/Oc/3+3MjuyqvMYv/MIvnN8TmnFJVuN8wuKSIh/UhJH+1HbMiA/0Q9v5i00t58Rn1u8guJGRGUb9LvLIjCNyqp7ArtpiVqtdOREBvZFRdaYt7a8nx0a/MSdXSE7262WdLWZbll1VGV4795I5B8xbmfm14uTOVakkR2WOpZm8kXGMNx+/99nPftYD2i/utVjsk/Evzpy2rSRZSaKEvqf/NYgE206f12Tp5pRXvk+QrARYgU9QwziQrdfAtoeDBvXs0wEU6uVVnykFVkH0SJDWFvWSLCCZk52DFVV/hS4J2YmBZftEb7NT/3lBoz8DFGwX6o/T98jPRlx2rdubjI/bZ0mW3Qex9ZG+I/1Of9mS71zW3Op3bMLPgly1neWjvkVkzXTxJbsaQ9lmWfv4PTNVOqHvzQ5+H2dM9suq7AT2TuCsM8lsTz0xoK6/dE4xkR37JdfYun7/vEf15wzHjnFnmb8t86/tY9zYw5jzs63mu36pNcfM4hiOA2VyYCvnSTIHh4rZ6V0nRjGzKQaa1sHELg4gP3HowbqV7zU7vvrkk0/6TRa+w3TLfYK2gX/k4Ap19gAHERxQsM0ZqARl3cHmzFQQncnbIkE26962T2aCdxJIbQd92ichu2GoJb1XjfdOfPC5z32OTXqgZrfRvkfHmHqpq6yz0FMw8P2LG3s8atCNVs6mcfFTni34R3/ZUV8gUOV7ovhAn9mCTVKPDcjg31uCWiCvBkh66MtMw3JOPiTlfOYnIJIkvxlvxl2zjZOFnhwdy7FzjmvYlu0htt1bfqk4mTjZ7PwgiyOX0UPGzx7xs3HFz8adr3Fm8kb4PxgHjX6plc9XojyGcZ5jIsdKW79Mkq3SRZJUrgPkGJkNnYzse0uXOvqNPq10lxn6wWUg1xmO9SxnPWSb4LmHGU+CtbNPOOD8ztH+znidZY66Rqpe37f4yYvgLFnAgSyYS74Sv8+hb0mKjS81PvKbRraIjd4kGaetHdnmLPqjn/7pn+4nLo1+4tLqnX1Q+w1JUpL3HbNL1wlY+squNZEliSmtS1z1xId/qy2vISiSB8tkVrRLO/iYLv5uf2bonouLfklVn9t4648gW8fuw9Ns3B+JyGc5GTpyUjT6c8Q4ywlYjmPHmiR59G74jDXtcyc5/yeWL65T7ZWybZsnyWbk807B+uI6LsMycGzWbPmx97i1bT1pNhKse8DeuxyYIAsHUA6iWRCVyJx55jd+1gV7yfLIGW8OsJSQWM2EHayCslmW7/xaH3pwRluW/D/44R/+YbPFj1p5cWnPzVA///M/f2GjNwFdEiR9fJAxrGyJ0vLHEmar12f6bT0+6H6QINnJE3f00cmFwOV7QHaUHK1LUDnTl9DYBnwwOwmxXhPmFkm+SDIOdAqcAmb7cxlVm/tssfXPMXu2u/6m78036/h9IMwkT7hp7IuNnJxc0OpOGetkuflmk7pPto1yQ63b+GLzfR8POXlf7NNse3GsNBtm+90kqZKD61TholxsE5uBgb3YFNnmkocA3gK5wets9DzDafYdD4CLy4OCaJIkMuOoCKa+t5IUzTh8LyqY+4kEGQL4OLvJctarPm1Ie9I+CbGROyRd1uy0Ov2GkIwTB+aP/diPnd+o8Dagm92zzt55aMFYr9F90MoOP7SynrxUXkmcZtFsnySmrL7IjD32u/WSqySYExE+o5d+bQqtzfmOsdu8ce5T+/w8xqzbvgLkwxK7OoabvXMMn3H1qH1+Qf18XK802XeY1RnlOw6DOqfyPDYcA23bRT8Wd2m2vSjZzPLJ5tuXW5uxe7m4jsEoKFWbWUYSiGW2VcYZrXRp7GLgN+qNQBeJCtabjMor33v6fgoeeOAnEQKu2YfH4bX9zrO/mcy6vXEOxm17b5PSJdRWng9AtPU+g1NmXVn7yDap/6agS5LI2FWaUdqWUjvH/XBKJt0Pkr7LxJZP9ATaqPa5sH/T1b9/Nhsdk6P1bGsyzj7Yo8nv9m/L3eZtuQfgpuvC9vrFtsZXtrF7rYOtfi9ug72VxkuW2Xtm85HU26LGBcs5pmzLzVXXOI3jjv3id/KyfbEPuyljM8dgK/sbh/zdudwap8H6YpvYSdByNj9+VgO4dQPYgYZ6gJT9+mwntM962epdcNrWk2qrMw26jX5prlGD/5mm/6wDbbn/yBxtuZODVlsTmB2UtqWOdbPH3OSQ7en3m0Q76NVORH/Kuh21jn2tz9p5mpmdfdH26TS/fdR82jltO3/v2eRs+kDdVt4h8k+ck2Gr38dIDYCW+UCbsy3LPvOTDf7Rnyb7HNAX98fx6/V6fr7EJ9X27Msfe1RZR+C3ujyTWeFr7dJO+9Sn7FRZizlsBDa0nrJtczyu7yQfgvrAgdjPwBVkDWLbqh2rbev2kXxGViBrpNXpl4Ba/R60W71z0G3r/akb9q26LNvX9qzns1rH54Jv9q/1bNPHBI18LnAkadX6b5LooVOwSJ/zub5CvZT5DNb1Mz671m4y9DOBqenqybTt12eAsNy2K/uJh/Zg1E9OttfPlHVb1uvn9s06fJ7lun3x+sTXGdfjGLsvZJGjxOjjsf4WaYtxXI+Dsd7iktg9ts4x1NZ7kryYSao0GjU7LraJUZUGZgZrtV0GbQ1qynpwVLLfUWpwJDMHWvWnddtD1WOftKXWd8CN9fSjbtcn8uiKbmSft4G20J222JY+pU2pO7ZVWftY69UENtaxHlnqZftoM8upG0ZZW6SeNlRfRm/abnkMitUWi/uTq0MZC0o+djJle/x7X8iofsq2ur5H/Gymy/9p7zgOF3NGG7HhybbzmaRBoAzrIDtGDH0y7nQ5dcO4rdafbd/6vNaZfTajyhv3G7eNn28xHuijnDfFkTG61R77PkQ7k6yyXLdneUZ0j9Q6Y//q52Pd2f6L12dm54eMjVX+1vIt1PG42Gf0Y47ZZr+eJN3N7qaCc5JMFk3lZejFYrFYvKtIkuMVGOVmkixZdCXIxWKxWLzzSJTJfWVmeZEk3YHnCTHnxJiKyaqLxWKxWLxrTJJj8p5fBbzqSdKjxdqK32f128/dAKDMzovFYrFYvKsk15VJod9Of5DXIPanfbQNnr3ZL7m6K0pZM+tisVgsFu8ikqSrqMl9LVn6tcd7cmNPkh5lZkOj/wwk2VSSXJdbF4vFYvGu4qadJEn5TnnKhZ8mSc/9tEH2tFN+/3P0kUiLxWKxWDxXkuvyVaOrqnKi52H3JOkBzm3Dq5ZRveboYqf8MHWxWCwWi3eN5Lw8Z9vMUi6UE/N6wP5Wg7//+7/vb7RufGwn0896qbV+P0kQsr5YLBaLxVNnzF1Zl9/MInPW6NcAAEI9SURBVNHWPcrzg7/927/tb1aSKPv7B71EtyVGD2j2NoQuIA9KrgKzPFtfLBaLxeIpUfOU5XFdmVf7nZ45LQe+585WV1n7TPLLX/5yT5Qtm75qeKvEeYcqaG95sVgsFounzixvSZLZ3maTX2pJ8pV3xnrxunfG9rtbv/rVr37m29/+9vmSay6vrrtbF4vFYvHckQRnCTKTwVPZL7X+3d/9Xc+JcqMX2H/mt37rtz7zla98pa+0BPmq4e3zXWCSZP1Osi7PlC4Wi8Vi8VSQp+StMV9Zz407p+8jv9TK/iJ7V1jNJPt3kq692ihJ/su//EufTf74j//4+eWvqIlxsVgsFovnxN6EzmdyXkuQH3z3u9/tD9j5wz/8w8/8yZ/8yf/NJP/nf/7nM96Z9Z//+Z+9NJtsO3ypcSGoZmLL61LsYrFYLJ4b8lhNmnKdnGcW+d///d/nXCg39pcu+5cN//7v/96XWxLss0mCMouUFE1JLZuieiN/PlssFovF4qnh1xq+PpSrYF0uUyZZynW+i5T7ZvQkmdmkEk1Yv9OVUHf+eOs1hQT+1E/9VC8pyZeeTxltPbJtsVgsFnOeaxytD8T5sR/7sfNyJnoSaKPf0Tomx9CTpClm3XhKlO83PiTQbyaTEDObxHN4Ig9H7jHbZ7FYLBaPHz+39BzVn5lj3ebRq8ln7fMPG+/Le//1X//V81+uroaLFcnR9ViVlU34OVFqkMxrmdIf/dEfPStdLBaLxeKh2UuER5KkOiZzropat5z9Wj77sM0oe4KsXzvWnIjzxswmaxa1zYyyJcUPCa7JUYZOQxaLxWKxeKpIkr4qlMPksswg/+Ef/uHiK0dkRhkuVpIglUmaufTaBPdEiVxydT13bMxTQ3vH9VC3LxaLxeIuWzHzOcTQsd0mdzVB/vZv//Y5z9WvHWvivNiorBnVtmxvinqijLKHSJCPZeTH0rtYLBbPkeccM139zMQuCfI73/lOf4iOhwXkJx/JeUqzycwozxtrpf/4j/+42JYse0qUnu968fMQWK9k+xZH671J3ob+x+7j4s2y/Ptu89L9+5D9JyvMPp9xa/0ZpzzlZx5y1/veevWbv/mb/S0fHmBec59cl59CJjeeZ46SYJ1uos4qQ2vwq4ZnvJ5nlWnI6Xbai+S5xUN0/ija0wzU2xa92Tar/5C8zX4u3j7Lv+82L92/YqRYGTuIodk2qz+S/baY7VPxHeLYBstpx2yfCR+2fT5o9V9985vf7M9l9YpIL1T+3d/93Z7nkhDrpPGcJLNhj7ojJNPWyH7n60/8xE9c/F5SB/wGJR3QSVNduPVW52yPgdLxLSIX9ecn5NbPtqAP6mubbdoRQ890VtS3b2RETvbP8hbZP+0J+WymszLKG0n/2Jye7Jf2VllbaAd/ZTlYn+mspF4dyPykPdpgfQ9tVM/+sW3aXvVsEf0pYTt5R/TbL21QVr22ZXmL7K+s5LOZzsoob0QbsPy7/LuFdrwp/8ZGYqa6lrUrn1V9M1I3bUubLNOZbSnz+S3+hfZZt2/kn9psMte/f5QYfQcpMUqQ1r3to+Y1pXxXc955wxbjbJIg2zzjrnXi/ZYgPRD945/92Z+9aHSMOetQPq/r12CwyMs2jqx1ZkSPfZXZX3mkDakztn9r20jVoQ/1swySh0SbZgfMFtpX62b56P5jH9JHcsf+HsE+9g2zOkcY+7VFdMzq3rI/ln+vs/y7jzY9Jf9W+SkTS6ttrkGP/epEZ4/otZ92jG0JZMZe+ez0NDhvs+qXV7/xjW/0xOgSq2exusQqWX788cc9Uc6umNom18mBdz6cke8ofZFpJ+vesyUbtyT5qvGBZNka9VFLXDi/bsuDCBjGbNO2caClc1vYN0awb8oqYw96ZwMhbaq6ZiQRq28/smyzruSka5ATnWSxQ7ZVXTNm8ippT2ykpAc+H+WNxB5pl/3TT+ujvhG6kX1siyzlTGcl+yjVJyv2OaK/trfqDaO+EfrUW/6dQzeyj22RpZzprGQfpfpkxT5H9Nf2Vr1h1DdCn3rLv3PoRvaxLbKUYmRsZz2o67O6bQbZ2lnbqLSNrtre+nlIH8dt6qXuqfy4zRw/asuQiz5ovPrrv/7rz/zGb/xGf9vVH//xH/ek6GYdSdN7lDOTzKSw5r1w/nCL+puRTEeVnpQuUf76r/96/wK0GeNV473WMGjgl1qC7I1uHcDFm0UggerwHurlyT5xpjLLVd4ecUgcmwE/01mpMu5L5DRbTD/bY6w/Y2aH7DvKG1HH/tqmzLZbsI/9676Rfw0+qXaJnJDt16h1s1zlbJF9XofIWf69y/LvZf0ZT9m/lhMrM+FIIj1CZGSfyBj7POpOmbrlczeN9rzSPvuoyf2orfek2NaTf/pLk3/xF3/xMx9++GGfOXqrh22/8zu/0yd3IT8BGUnekwPvfDiSqWi9TdYrtf7sz/6sK5eZf+/3fq+/cuuTTz75jC9GMSTNc+Js9A7q6A30u2kZicFw1FHqJTF6Dm22NxkfN2a6prR9OvYBB2XbFtl31t9ZvT1qfdCftszqX2Omd2xnfIVRf/avdVD3H+uOjPuO+9d6VRa2+j/WC7XOjNSLzOXf/9u/1kHdf6w7Mu477l/rVVlY/t1npndsZ2w+s2/2r3Uw27+18TzBSQwVU29JlhJtk9mXlU1uT3Yj7fOL9g2fuXz6QVt+D01GeOUnHZkdykkupXrVleSY7RKiz+QtEzz8xV/8RU+I45s/kuvQd9qDMm9olghlYlPVP//zPz9/NxlBFEme3/ve987bqkKft79Xjd7Ba9R6zQhf5Cizxza4uqHbtvPyNZqMXp9TLTdHc9AXI39G2++tc6v+Wv/aPlt16v6Vsd4Wt+47q7/FbP/KLXXDrfUfklvbW+tf22erTt2/Mtbb4tZ9Z/W3mO1fuaVuuLX+Q3Jre2v9a/ts1an7V8Z6W+zta/mUhL54ipk9hoqllludq9R64reXZYjlZFZdM3xeadtemZyZkAWJT+kemZprkptqwrM8JsHvf//751mmq6PyG+Q9SVQOvJh6zvBFJwHe1OyyqnVT1qpIwsyl2FCz88jXvva1c9Kd6RxhoGZUZxLd0Eq07eflLTg1Zzy5bNDWnR295yxipq+iv65l1/6l78prcIL+sl2MDmczR/o/k1lJm0IGgfb+5V/+5VRmJV9kK61rpzOwDLRR30gGI+i0n/4aZM7eRn0jsQP99I6/0Z3prKijDcbaH/3RH3U54Yh91Vv+3Wb592X7V4yUKMXMIYae4+oeYjQk1hZzs80M9T360+ct/+obe+ub9dg8ffZAAIkzfah9qj63LdvT93xGppt6zDjpsk42f9PV/+1hhwwM67IsAYRrRDXyaPRg29iodPYa9NYkmcR4dBYZOEnJUZxEphnxTGclba39SB9nfZ1BTj2oGD8HXNU1YyZvxtgWB7eBPpNZqe3gW6W2VllHqP4l0xiperagS322sUxOlXUEfTcWDXJynMTRn/7ssfx7jOXfl+lfMVKsFDOT5BJLb6EkSMt9khKdR/072lvd+CXjaubTfJbl8TN6oyttYAOybbtQuoXKdsq6xo7KbiGyjgwydeIkBuYgZQxeHbHHUFfCfc8ZyExnhX7U9t/ad0YnI4a3nm0znZWZvJFZe2yLk6/xmP4NsY/9b9Fd6xro6fPYpy3oxZbMIyz/Xif2sf8tumvd5d85b9K/YqRYeYqZs1h6iCFm9/hL13Pw7x2lM96kEyJzC3UYtBn3WSdJNjQInCHd0v+ZvJGt9mTAXeMx/RvUtZ/976ubfcmpg36mq6Ieqpzl332Wf1+Of990kqw8Vf9eKNziMQ8ydRi0GfdRkiQe2gnKyB11jczkjTzlgywyr6Gu/ex/H932YVd9yUGmnOkaUXeUVdevsfx7HXWXf+c8Zf++rST5lP17oWyLN+mEyNyDQZtxu5OeY5LUX8Z3rb1e/z7S/5m8ka32PIWDLDK3yIGgrv3sfx/d9nmsg2z5d5vl37nMylP270tIktf8e6FsCwJqgx/SCZG5B4M24z7bJMl2nM/4bHlL/2fyRrbac/Qge0z/Rq+69rP/LbpTV5nBTmbkjfpmqDuTeZTl322Wf+cyK1vteQr+fdNJ8jn490LZFm/SCZG5B4OeDPtskyQZ+q20nm0zfZWZvJGt9rykIAqDPH2OvKprC3W3ZB5h+Xeb5d+5zMpT9u/bSpJ4qv69o3BExZeeJFHbf0vf1bV/7JeSDY4cBDOZI1vtOSL/sf1b9drP/rfaN8v1d3v6lHYcYUvmNdS1//LvnOXfudzKVnuegn/fZpJ8qv7t//Z4006IzD0YtBn33klSvaHuW02S+qnPtaxnTXvMZI5steelBVEPMY7u/N4psq+xJfMa6la/Lv9esvw7l1vZas9T8O9Wkjwae8Ms/tL1HPzbN15Dg5We5mCZU442ZPbjTorJ80Vp1TNDgxm0Gbn/mDU/SkVd3kJSheXyhIjuJE+mmOmspK1jH/T/6I+R2QvsR54+6btto76RmbwZY1usx+nXeEz/0qW+H047KCLjqG3VS12PlzKwyfK4KvJmOivLv/vMbLD8+3L8K0aKlaeYeY6hNa4eYStJ0p82PFX/9kbtYSeYClvPzoQfdcSIZ+SRwQijvhF1GFSSZOiaGI86KfXKU3rOSXKms6Lf2sDgeczRLQ5Q11mJxx6RY1nfZ7pmzGRWqg+ynLbx20xm5bH9a0AqYxv731evRx2SQaY+GfSjvpHl37s6r7H8+3L8OybJ+uxs5VHE7pIoz0my8lT9e5GVZ6ShBMCrsXTiaCPgeYBZ1hFOcKbAoTOdFQ1mUEmSgSXJGLwYfZc4tiTY7qSvf/3rU52Vr371q73/42C+ZQB6QLxLCeynzwYAG3LMTGdlJm+LtCm+yeWLPR7bvwkE7ExvlXvExqmjNFY++uijPtDJPdL/5d/rLP++XP+KkWLlKWaeY+itjwWFeH1KruckmT4rn6p/u4I9ZGrYMQ7xPD8PpGXQNGgLjVAvDfKmEIbXCNPqUd+It0oz6JgkLR8llwjKft1Jf/u3fzvVWfmDP/iD/oBkbzcx8JB+jX2d8Xd/93f9gcH6y34uhygNRA6Y6azMZFZi1yynZHMPJ57JrDy2f3MmyBa+//DMyvTjFjw42/70OiM18Mmd6aws/871huhKO5Z/X5Z/xUix8hQzzzH0yMPNIV5n1pl9T7H8vX/91389t+Mp+3e6Y6Uqs6wRHMARMv81ZGaKdBpea+LM5YgD8e///u/Nnp9ebnUGE2MfpTrUvs1xZL1H9kxnRZ85wLsyGY7jkDOtWZ8rf/VXf9VlsFl1YLXrHjOZFWdd1cEGtoHDzto9k1mp7bD8tv1bbWEfbdcX9s2ljz3U4Q9vEIje9GPUNUPd5d9tln9ftn/FSLHyFDOnMXUP8ToTm5Ise5LUxufg3/OGW6HAFFUn93CGo9GWnfEYEDN5ezDoybDn6T6DV6ftUS8NnJzVk+RM1xYGUqbk6buBPfZ3RP1RVnXwNWYyK9rljCeBh71zmeKojhlvy7/aaHBmPTLI04aqawb9+qqscm9l+XfO8u/yr1h5ipnTmLrHKd72slzR60nSScFz8O/Fh3vYSaZPtmVMZz3KPWIIWV0ZY4xZew8GPRn2fDaizPI1Ui9OzkxypmskZzaMaRDlbC9nKbM+V+wz6+fRvs9kVgwOB5dlugwMg27m/D0e079I3fTlKPqpDZarPsvx3R7Lv3O9Yfl3+VesFDNrDD0ae5F9vAvYcqMnSfqfg38vPtiCwcZtHElJDLuFegaCTmi0xo+yrsGgjYskeTJ2Xz5K9k2SnPVrBkfoqz5kAOvTrL8j6lVZM4fsMZNZYVNtgvW0E0d1PaZ/08aUsW9kzXRWnA3Sb7/048jBVVn+3Ua95d9PZb00/5ItViZJ3pIcQ+J0Zp9tvSdJep+Df+9sGBl3yvoRB6A2OEap8o7AoI3zdD/lUdTPPi7XclLj0Eyy9ldfxj5dw36jTBw9AGYyK9qhPezqLEppsPtsJm/kKfi3cvTgrsQ3M3nXWP7dZ/l3+VesFDPFzjGeHiH1ywSnJ8m04an79+KDGW/DCddg0MaDJEmOarxzSVLwyVlp2jaTN/IU/FtZQfSS5d/l3z3ehn/FyhY7PypJ7qYYnPrvbJLc4iGdcA0GbTxYkmzl4SQZ3qQT9pjJrKRdaVMNQjN5R3mb/q287SAaIoO82qdr2G8mb/l3zvLvJWlX2vQU/StWipn3TZJQ3/6nfR8sSYbIGPt0DfvN5N0rSY6D4hYnpANbTrgGgzYeNEm28qYkmb4obznQjzhhj5nMStqhTfVMVDmTt8Vj+rdyi21D9B+16Qxyln/vsvy7/Nv++t2tbzpJPlX/Xnywx9iBmcIZR5xwDQZtPGiSbNwrSerLUzrIELs6yGo5k7fFY/q3cottK/Z7iINs+feS5d/lX7FSzHzIJNk4J0k8Zf9efLBH3cnyTOGMI064Rvu7d5I8OeW8z+skSVQnHHXEzPlHB8RMXkUbYlclO7/uQfa2/Vu5ZYBXHuIgA93Lv5+y/Lv822LmNEkmph5B3dNNk+hJstr/Kfv34oM93qQTrtH+3rkkeZSZvAqbxr7a5QBLG2fytnhM/1Zi25muPez3EHaO7ZRH27H8e5zl30ueg3/FSjHzPkmy1nlOSbIy3TjjTTrhGu2vOynGPuKccHLKeZ/7JMna3zfhhD1m8ioOqtjYj5L9GNm6z27R+5j+rcS2M117vM5BVvtL9/Lvpyz/Lv+KlWLmU02Stb9kPrR/pxtHqpD84FMD/K5nprTix6nqcoABYdso8xrt75wk81udlNfg2Dg3ZaMnySNtSB1PZsiASt8MqCxvoT4ZsVv94e+RH83OZFYMCPAFXXnahPbO5M14TP96SoiSXvuQFTlHfmyefgswkVPlX2P5d643LP++bP8qxcpTzLyIpSWeHiL7SJJt/b3a76fs3/OGLQgw0NOYbCM8r7/Zg/EZQie8ekTDjwyuCoM2LpLkLQ5K3bJPd9JM1wz9ZVBO5QjL+qRvsz5XPEMwtkvAiMws7zGTWdEWttU2tlXOXku0hXY8tn8r5NDrgD1iX/VycMzkHUF/l3/nLP8u/4qVp5g5i6VXyWyylD3+0vsc/HteOIqdPRnea010UMP2cKainoa7lOD1L7OsvYUnvDNo4+wkxo7BjzA+jLfJ6E7yepaZzhHG8/oYZ3n6ZEDpTxyzx7e+9a2zwdNf69UJe8xkVrwxIAGn4vUvXnszk7nH2/YvffWg9HZyMg32BI89DHIHtrcIaDedR20bln+3Wf592f4VI8XKU8zcjKl7bCVJr0F8Dv6d7riFgc2QGpRXi0TQNRwokPQMDPLyUss98j7JxtlJo9GvMXFod5J3pc10Vpxt5H1lY5+OOPO73/1u76+Bz2nkGZTOdNhyprMyk1kZ25B1tjbgZzK3eAz/woHqQBFAczZ3xLYV9b16h11zgBwJwsu/l/q2WP59mf4d3ycZbkmSdfZ5itk9/nqfZPQ/Zf/2jXvYAWm0a8eccdQBaWitr0Fka8iob0QdBj0Zthv7aHIMW0kyL9vcwwGuvbX9tww+OMPJG7fZjlx2jFP2mMmr1IFgOeuCkbO0mczKY/uXbvXpRmQc1V/rsW8uGbH5Efsu/+6z/Puy/StGipWnmHmOoQ+RJEe9T9W/Fwpn2DGVYzzZlXGdecyUzqjO0LEjBkDP5CcnMXIMfgvlrqp8p9md5AxkprOiz9q61Ze6fQYb6S/yUlCDWsm2M52VmcwZ2qQ9aRtm8kYe278ObLYwUJWRUWVfI7q1Wx/gANeOmc7K8u9dXTOqTZZ/X45/xUixUsycxNFDJGafEqTynCSr7qfq376yRwxvB+saZHmmcIYGj41ljCpzD/oYlGEZ+5YzmBDH2v/k6O4kb+Ge6azoPwOOA/gWMugECmeH5JrKxxl7zORVZu2yzeUWemcyK4/tXzbRTu0QUGtfRrlbGOj2c/YXm5KnHaO+keXffZZ/X7Z/xUixUswUO8XQxNPE12uMSbJxkSSfun/7h3tUJyit3+IEVCfoiP3JmekbobMZ9/zFcd5uHcMfZXBsd5Ivt2c6K3FWbX+Wj6C+PsSpzpDIwxEbzGRuUc8c6aVrJrPy2P6NPgNSEB3l3QI5sS+5ypnOSupFxvLvXZZ/X65/xUix8hQzb06QSKxOgm3LF0kyPFX/3lE6wwCXbQmzTlgUjEqvYR/7R9YRmmH7mQwDZ5p/q6NS/1R2J7nePtNX0U6Mfajr12BwNszgs360/zN5I1vtOarjsf0L9TPY76MXgvCtBxm9qHKWf7dZ/n1Z/q3fSQ4x9BDjPjX+jrqfqn8vFM5gsAhIg+KE+zA64QgM2ozbnTSZut9EddKRmWT6PPahrl9Df6vxUx6xwUzeyFZ7jsh/Cv6F+uwSGaPcIwgU+kIOe2vHTFclfa5yln+3Wf59Wf6tM8n7xNzsM5TTJPlU/XtH6QgBye7Ws+N9B/rohGuoy6DNuAx7nrLf53JrKR8lSSrJHG25x0zeyFZ7jsh/bP8G9bUhMka5RxAoHvMgW/7dRv3l3zlP2b+zJJnyFmbxd9T9VP17VrZHnBDj4aGccA11GbQZ995JclL/QZLkURvE6bWc6Zoxkzcya4dtM3kzHtu/SvW1ITJGuUdwkGWwkxfZe6S/VU70H23H8u82y79zmZVZO2ybyZvxJv1bk2Sjx8/E4KwfIfVP5WaSfIr+vViZoQHZMY23/lBOuIa6DNqMe+8kicGpbzVJxvkuJxjQ1o/2fyZvZNYeyzN5I/HnY/pXqT67jLLq+h7qZpBHf2TvoR5GWbW8xvLvNsu/c5mVWXssz+SNaMeb9O8sSQ6x9BDZ51TeSZL0PlX/XiicYefaYKVtM2VHGJ1whGbY175xJ1Qnve0kqcz3BzNdM2byRmp76vJM3shj+zd61WeXtD+yquw9qt7IPIL6GGXV8hrLv9tEr/rLv3Nqe+ryTN7Im/ZvTZL3ibnZZ9h3miSfqn8vVmbYOY2PoLFRtzA64RrqNQP3n4CYPdYfsR5x2ljntN6d5DdAM50V+sf+3uqEOJ0cy86YctY06huZyRup7anLM3kjj+1fdlAXdKf9kVVlz5j1t55VV10zontLZt2+xfLvNsu/c5mV2p66PJM38qb9m99JipkbsXQXdTBc+evxd6u/T82/FwpnqGgHGdZU1G26ts+UHUHDjxoA6jUjn5NkfZjAESfVH8BaP5XdSZ4mMdNZeV0n+A1SjO/HqrFfpvajvpGZzJHanro8kzfy2P6lOza+TxCtv/GKnclR6tNMZyW6q8xqw7p9xvLvPsu/c7mV2p66PJM38qb9W5+4U2PoOGHZIrFXWbafk+Rz8G838B6ePGBHztB4y4TNFM6YNbR2cqazoqHNyOfvJD1MIEYfDD9FXWXqnkoOf88DdWc6K143o+/pRx7QfAsMTla1n20Z4HvM5I2MNuZ429huJrPyFPxLt7qeuBEZ9YfVe1T9Bjp/RbfBP9NZWf7dZ/n3ZftXjBQrxcwhhp5j6zWSTJX2afQkOep/qv7tDdnDTh7Vo9E6wSmuU+e1JjOlM9SFTvz+7/9+l6UhM52VvAXkZNiLZHfkTCaOTGk/shrvffvb357qrBio+qvdtb9H++4p8y5ZeNI8WRyg/xww0zcykzkj9s2y9n7zm9+cyqw8tn8FTrCN1+WQYcDPDt4Z6mUfP3ym29smyHYAjfpGln/n+kaif/n3ZflXjBQrxcwxOaa8RvZzFTDxt62/92//9m/Pwr/THStVWQa2zumQQU/YHpRQSrlGfPLJJ92BkXUNr1Nh0JNhLxwU4+9xcsq5rsTa4PD3PB9xprOind6ppt0Gon4oDcycbexhv/Q1Z88ZFEfOpmcyK9rAvmyL3/u93+sHCv/80z/901Rm5bH9i7Th+9//fh/wzujAxjOdlVyS0V4D/ujBEZZ/53rD8u/L9q8YKVaKmZmUjDH1GqmXr8raep+kmAA9B//2lWvUBillbYNcps+A30Idjbb8la98pTtilLmHBre/8zXxOAgMfo3Uj4OUjZ4kj+hPfw2mL3/5y72MgQ3msb8j+j86PnKzvMdMZsUrXjLQDApnluxs4B+Rj7Fdb9O/IfXZl0x9ImvUN+KM10xFcIkc7c8J0KhnJPWXf+cs/75s/0KsFDNrDE0srrF2Rq1XkmxPknQ9B/9efLiHrFp31jlo1B4amkZrlNeR1A4eof31JMnAMbrS+lHqWVArz0nyGvrNiDmg9cNAjpFnfa6oH1npc8rROTNmMiuxrWX+sOzAUx450w2P6V/EFtFLnu8DZjor8QG99r9V7/LvXG9Y/l3+FStPMfMilh5BnE6sTpI1K5Uk6X8O/j1XOEocpwFxxB7qOUPSCWdMrjePMvfQ4PZ3TpJIkrwlUcZBNUne4hBtD/plWp/lPdSrA/gWnZjJrJDPvs4GOd0ZWbYfOYhH3rZ/nQWmZBt90HbyDOCZzopAm77bv/b5lv4v/85Z/n3Z/tXf9neRJBNLj5BYbTk3XSZJ8v9z8O+dDdfIoNc5hp0prug8Y2iwqa2pdRx5lPZ3kSSTIGP8PVKnnMUoD88kwXAGU/rCqXHwrM8V/Z7JG7dtMZNZId8gz7o2ZuDN5F3jMfxbYWe6a5/2iB/sFxnjwXaN5d9tln+Xf9tfj7+ZQSaWHom/Y5I8bTvPJJ+Dfy9WZmSHsdFp1DXSUI3OOpljQ/Zof91JMfYR54TUjYPvkySh3bVPHJH1PfTb/gYeG97Sb8xkVshnX+0JttdBt8dT8G8ObPtUuVneI/1V1j7ccpBh+XfO8u/yb/u7SJIpj8ThWmeWJNNf5VP1750NW4w7UxCn7pHGZ51DZg3Zo/29VpIM1pMkG4eSZNqa9uuLAci42baH+qNMHLXBTOYIHc5GnRVpm3JL7xaP6d9gvwSMo/pzgNegEv1H2pE6kUfv8u+nLP8u/4qVYmZNjjWm7jHGXjPLJMnoe+r+vfhgj7HBR50QI3DGaIyjtL97J0lUR3FSKw8nyZD+vAkn7DGTWYkfRjvbNpO3xWP5d9RLDrm36r/vQRYib/n3kuXf5V+xUsw8xc6LeHqE1JUkT/ueZ5LPwb8XH+zxOk5IqeHOmLZkbtH+Hj1Jph/6XQfyNY44YY+ZzIp2pG2WtY1O22bytnhM/yJ10/5Rzx7xySjrFpZ/5yz/Lv+KlWLmfZOk/dQvM9Eef9PG+GTUewtv0r8XH+xxXydAB9RPB3K9+agxGLTxLGeSmPXzaN9n8io5yDLItc3lmjrojvCY/kXq2j+6j7YhekeZt1BlLf9esvz7sv0rVra4+dpJsuzf4y+99D91/158sMd9nVAdkEEwa9QeDNp40CTZ1t/Kd5Ko/c3yURvM5FXSDm1yN5szQeXbOsgewr/IPjlwcKQNqTP292gbUq/KW/79lOXf5V+x8nWTZMrTvuck+Rz8e164xtjoo07Q+TjdGVKm8zlbOQKDNh41Sebgfh0nKOtydOwxk1fRHtSDK76ZydtibM/b9G/VTWY9cEd9I+qojyrzqP7oXv6ds/y7/CtWvk6STN3Zd5J46v49L1yj7oRbnMD4OmFZ42fy9mh/r5UkOTcOVsZJM11baLs+aL8yfZr1eaQavi5X+VvM5I3wRexs2RMnLM/kbTG25236NweE0v4Z5EfaEH9gJvMoy79zln+Xf8VKMbPG0Czfgt9Xit1t3x5/6XoO/j0vXKPuhKNOgLoa7XFLnraeH6uOMrdof4+eJB3YGUT6pD/Wx77OqIavy1X+FjN5I9rExnBW6BmMniRxVAfGum/Tv6mv1H5ns7HzNdTLATKTeZTl322Wfz/1aV2u8reYyRt56v4VK8XMGkOzfBQxe+9hAk/Zv+eFLWT0uoPGe/gsZ3rSepy7hXoazAjqe4mnp9RXHXuo2/56kmTgkDuljhCncpT1tu/hJBnDff3rX+/94YQc5Po19nfE6268/SDybnX+TGYlZ0sZJLH1n/zJn/Q3qMxkVh7bvxVP8/f+ugzeI/rVU/KPtxdUebVfWyz/zvWG5d/lX7FSzBQ7xdBbk2TqjpdbvQXkOfj3PGC3cEZDWBR6tuBf/MVfnJ/Sfo1x2qwRXotCrkcgzXRW6Gp/d5LkLU46OaZz2tad9J3vfGeqs+LSh1fOGDhjX45AhwHPfgYk55FrUGZ5j5nMGfVgUfLPX/3VX01lVh7bvwa0AEH3fd6DFxKAc8CTd+RMcvl3n+Xfl+1f/RcrxcyNWLpL6imTXNtyv3GnJuOn7N8LhVsY6GA0lwKUceh90HlGIHOmr6Lxzajn6X6MXpf3UCfkTKZt70mScWY6K9qJtD2D2WBC7dcWnrT/G7/xG92hAgbINhBHfSMzeZXRD1l3kDgznMkceUz/BrYxSKveI22ID/iFTq/LIYttyZvpqiz/3s7y78vxrxgpVp5iZp0NJpbuor5ymNT0JEnXc/DvWckWdmA0WTUv8bQj4UcbAc9vTH3G1wCyZjor6nJSoz8W6VYn1bq+OD59edyTpOvvM50VBjRYGZ4Dbukz7EcOGV4HI+mn7xmMe8xkjtQDoi7XQbTFY/sXsUX04qju2l8HlTNAciwf0b/8e6lri+Xfl+lfMVKsFDNL/Dwzi7mVJMeh7jlJPgf/9oU97KB0diLTEqZM55TXGBsWAzDIqG9EnWbgaZIczk6uov5p/54kXX+f6azQr89jH2b93EJfDWYvUmU7jiDXYJzprMzkVdKWOjjyQOmZvJHH9q8Doq6Psmb6Kuqk72RlcB/RjeXfud5K9Ibl35fjXzFSrBQzxc5bYy7EamXZtydJSY2+p+7fXuEadpCxdYIg28ZGHUGDDACKOTVGuQaDngzbDT0x+ibqZp9CT5Kuvc/0VTJgaj/qgD6Cfuqvs5Lf/M3fvDgLGvWNzORdI4OPjpnMkcf2rwGqVD8Dl7z04xrq2ccAJ4P+o31f/j3O8u/L868YKVaeYuY5htY4fI3E6RKve5Ks4+Ap+7dX2EMjUkaQQZ+G6NweY4PAqfAl86hvpDeyGZSTGLg654iT1M8ZUKnfneRGgpnOirMKfdbf2UE963NFHU6PrDjXNuWob2Qms6JdSnqynHbGd3s8tn/pYwtnxNXOkT3qmxG92s3G5LJtlvdY/p3rDeqMLP++HP+KkWLlKWaeE+TRWaX6ibul/jlJ1jY8Vf9eKJyhAbDMcNl5bMwWaUhtFGOQFbl7qMOgzdDdSbncavkocVTZ73CSDGN/jsJxbGYQZxBUO850VWYyR+oBUbfTM5NZeQr+pTPlrfYNbBA7K+k/0v8QObfqX/6d6w3Lv3O5lafs31mSHGLpLqk3JNUef2s7nrJ/7yibobKdMtAJimOPUhuvMdW512DQZuzz3VX3TZRl/XCSTDtnfZmduYyoSw6bpd/WOeKhDrIZ2nZEPh7Tv7FDBuZM3lFcrnGJJH2Z6RtJO6uc5d+7LP++TP+OSRK3xF51Q9l+J0niqfr3rGyPCLAjIcqZwi3S2JS3GoFBm5G7k+plU8lSeYTscyrvlSTrQKrL14jB2VBpPbJHfSMzeVvUNt1ykD2mfxH72M/+6cctNkb01nKmr6Ie7L/8O2f59+X6tybJIYbexCz+1jZUvU/NvxcKt7CjBscJadRRYvyc3URuGrOHOgzajNuTpFuQlXgNZ3Un/emf/ulUZ4V+U3Htvq8T2I4N3S2VAU12nLDHTF5lbFPWlUcPssf0L2Ify/avfVBeI/ozyJW5fDLqGln+vc7y78v1rxgpVoqZ94m3IZdaZ0nyqfv3QuEWBMQBBPgSPrcp34rGz3RsQS+DJkl6/t+RL4wDp0yc253kzq2ZzkqcEEcig+moIzghtiMrd3HFCXvM5FVqG7Sxrh+Rj8f0L+iN/qM2DbW+Qa4vZBrs7D7qGln+vQ36Zzr2oHf5d05tw1P0rxgpVp5i5jmGbsTVKeoNMfucJJ+Dfy8UztAIDbZsp4ce7Edg0Gbo7qQYfGL4Q5wc25105HIr9Ln2JQ6pjtmDDDbjDLZ8yIOsMrbniPyn4N8c5AZpZBy1berl1nXycoCROeqasfx7neXfl+nf2eXW+7CVJJ+Df8+KtrCjM5PagQz2o42IA1JfI2TsUdcMuppzepJMcmRo5S1OG+p2Jx253GqwpL/6kb7U5T3UyYDjzMjjgDhhj5nMLWp7qt49Htu/sYG2OjjtnzPBW9AG+2s/OyN92mP5966ekehd/n15/q2XWxuzWHqIWfwd2/BU/XuhcAsN12A7EcQpRxuBGN/BYdn+RwYY1G0G7klyuI34JmZOqm8k2EJ/3XHlWYq1v0cHIPSB4cmL8TmD7FHfyEzeyOgH69p3NJA9pn9BN3tor/1vsS0SdGNbttanma6R5d9LXTNii+Xfl+dfMVKsPMXMWSw9RPY5lT3+xq9P3b8XCmdobCpb9s4xhvuXf/mXqcI9dMLT2k3hnTWMumZ4on0z7Plya7g1YVbHtn27k7797W9PdVacVenvP/7jP577cYsDwIm1vwZ/BnbVNWMmrzI7GAw60DuTWXls/9LNDkpnrfX1QGO/tuAPb5eg14OK9TtBeaazsvx7nOXf/5P5kvwrRoqVp5h5J5ZeQ10kVp/KHn+9+YPep+7f6U6VOJDTqjMN+HRmDw5UUuYBsp4FGBlHYMhm5IuZ5H1nkyCjld1J3/ve96Y6K/rsLMXT8J1xMFx13tjfEU+t0IdbHRdmMivaol2cWrd5V5uBN5NZeWz/Rmfs/Id/+IddjkGbM7o9PLdR3x1gbBx5R+0dvcu/c5Z/X7Z/xUixUsw8xc6bkCATty2ftvf4y6fPwb/TjRXGH7f5kpVxvZZFo/ZQT2PV/epXv9obpmPVoXuoV5MkQxdj34T93B3b5Ph+887vdLZgAwd0+qBPHgGlX7M+VwSD8U4zfRq3bTGTOcMZVfjVX/3VfoDM5I08tn9R67Kz5yfiiH3VcaA5QOpAv0X/8u82y7/Lv2KlmCl23if2jjG7LfckySfPwb8XH+5hx3TCMmPCWcAeGux1K1lWVllHaEbtSbIa+r74nWVzOlmHkmTayYmuWxu8zj4sK2tfZ7BR5DhjifNng3vGTGbF4AA92uh1OS65sHV0HeEx/VttQaeB62yQrauuGWYmAovlKhNH2rD8O9cbln+Xf8VKMbP+Rv0+ZDZ5iuXvGQfPwb/nhSPUHRnUQNeYPfLQXQbhfA2rMo/Q/u58cQxGz7YtUhdZb+XhJBnSV+13BpKBPPZ3JE5AdTpbHjnQZjIr7GqQpTTgbTdoZvL2eCz/gm0MULLIJUd/Rn0zMis5atMZy79zln+Xf8XKU8ycxtSjiNen91H2+Mu22vDU/XveuEeyay0ZVyMouYYOgCO8yiUyaqP2aH8XTso1bqX1PdThGKX9T4n1piSpnTFq+qJfHDL2dWQcdLEhXEuvn82Yyaw4mJTOoNiXT/jG9qMD7jH9O7ZRPxy02n/Evtqonu9TqpyjYwvLv/ss/34q6yX6V6wUMzMTrDG1xtoZidlZPtHjr3HwHPx73rBHGlydpoNx7B6uETtD0nAGMQW+xQBofxczyTgL2bZFkmmS5MmxNydJZzoxrH5g1t8Rg53h2Q71WveRg2AmcyTfJdRr8HxTHb7HY/q31tVe9nKAk2vQz3RWfJ+hHt1V1hHbhuXfbZZ/l3/FSjGzxlCcJhy7qF85bevxl77n4N/zhi0iYNwWh6ZhWzC6uhrNGcoqp8rdov1dJMkY+xayzynBHk6S6btBB33hVMbFrM8VAaH203J1xDVmMis5ENI+9lWOZ0hbPLZ/1THIUzqj1HZycka4h7rp+yj3iP7l37nesPy7/CtWiplJiomlR1E/k5Uaf9PP9D16ozv693gb/r1Y2WJsrHUDXINuQSc0qso6Qvu7M5PM8q3cmiTTd4Mng44T9Me2sY8jcT5nChJV9hFmMiu1PXRZVtbBfo3H9m8wOMnQpyO2hfr8YpmMegls7NeM5d/j0Lv8O9ezxUxm5Tn4V6wUM+8bd9u+50R5osdffX8O/p1urMwaSlg6eBRnKc6alLcOtvZ3kSRPl0wPw0FZPt2hdThJBv3lhPTF+hEbcMQoS/+PDADMZI44IAyMlGnbETunTm2PbeRmEO1BTw5sy2xE1tH+pV7KHDAG+KhrBp05GHJWOco+QtpO5vLvp9Cz/Hsp66X5V6wUM+vdrTWm7lHr+QmJMklS+yp01VncERunjrZnTPFvnaHuod44rlBtf/HBHt///vd7SaCGSXgZ8HvkUoLGqG99lH2N9vdaSRKchXp31UzXDI7TF47QF4NZeaT/6kQOu1XjHzkIZjIr2sSm9PCJAW/ZgJnJm5GzqJS2kTvTN0K3uqnvO4ZR/lHoP6p3RL+rnCMHWFj+3Wb5d/lXrBQzT7HzIvFdw8wx9X/gB34g28Ty9/Q17ah2PnJDVCVXKJIY+Vd/qvwtqt7IynJsed6wxdZgjCNnikeSINMJ+3PoKHOGegzakNi6wW9Jkqk7OLYnyVsONO3XdoPKQHK9+0j/Ocz+dQCPB9seM5kjaZf2WM4AOWLjrXYc9W/0qau81b+o9tAP4+ToIIe62ktG7c/y7/JvWP6dc82/+ipWipmJn4mlR+JwTZKWT9t7kjQOtEGp/xJUfKpft/iXvfQZ/JtcM/Z3pPq32rvatTdkD5WS2asQBqVEQ/ZgfAPStW7rjBEZM30j6jEoww6J7rCTlIOjzjPJmc4R9apR9cEX3jnw9uC89LfqG9e3mMmsaJMBkYHB3nT67Ij8DAY+zrLtGcCjvhnqRS+bpG+36A8uldSDe6avYhzyh5K8yKl9uYZ60bf8exf1ln8v+zuubzGTWdGmp+xfiJVi5kYsvYr6yOXattyTZOyvpL/qzIxu7O8WGVPVv7aNfR1RJ7pqfiMz5XnjHirGAUoOcWlAYyi5BiPogH2s18YcgUEb/UwmBrd81EmVfCfZOD+F/hr6b9ClH8o4eOzrCGfVKXxOOFC3bzGTWanOdudgrscLKlXXUdKm9HfUNyN2ycC8xb8ZV/DEixzcYdQ1UuuRhVvH1/LvPsu/L9e/lsVKMbN+J3kLidnlql6Pv9X+lvlW++uYOQI7SY5kyEmSvf5H9h5yUvVjxpcxA9vOK3tkZ2XWc3YXJ2+hjkan4X6XY/80bNQ1og6DNnqSlBhvTY61/slR52e3znRWMmD0V38MJn3RL8tjf0c4gpzoUtbl6NliJrOSAz5O186cTR2Rn/Ygg8Ny+nsNNoArBfQ6yCPPmBn1jahXl+1fZVddM9Sh15l49IYj+pd/92EDLP++TP8q21+Pv/XK3dEYrF4mNaXsSZJefc6VRrpqn9KfPap/40/2POJbGAv23zrhoWP6QUWllDEaYtxraAQjZF3DIuMIzhIY9GTYOw4Yt82ojnI21OhOmumbwYDarf0ZyM5A4ow9nBjEhhwaG8a515jJrBjYSm3JGahlZfTukUBjOW2yTi7fjfpGqn/Zpuo9oj9Ed2SkHPWN8Iu6lmPb2qcjLP9us/y7/CtWipmZSYqlR2NvsI/9T3G4x9/0nW/0OYlKn47OotNGcviVDfWJzPh8D/2NT+mPPGT7dMcRitMAnWFMO1eBW6iTeikz6I/AkAwqSTKws5mToc/lHupwjjurcgtyw1nRe5988slUZ4URXQap7cctl0I86unXfu3Xuhz90X+2xExnZSZvpNq4HrwZhHvEt+o6WJyx59FUR8nghvfReWixZyfWk6Mt1GFjZ7Au96T9R4NQBjI899JzIPWFLP2a6aws/15n+ffl+leMFCvFTLFTDBVLS8K7Dz1J1r7qv+SmP0p+m/V3hmRY5WT5KPGnkt7oT5K9o3CGHQio2+7TGNiPrCNZHuoxaHNId1LOZo6eyVRHln365VbvXNOWPRyUyrEfRw9yOGv1MlF9iRPItF51zZjJqwgibIp6JmbZIJ/JrGhDDjL2dnB4N1s9cPao4yDLDjKX1fV7prOSsZWDu8qrAfII9heM9cXyqGvG8u8+y78v279ipFgpZg4x9HCSTL1SvyfJ6A01OerXkZk+1K1yap+OEDtmBl9tS/4dhTPsWBts51sbEuxXG3AN9RhUkmTkXBc/6qAf/MEfvKjrLKjRk6QXfZK/hzMMZ7Bpu4NLeUv/HdAGHVmxpRIznZWZvC3GoOMFqjOZFQeiwalt7O0gc2DcGsCQA5698i67mc5K7OBA95qgKu+IjVOHX8wu2Jle/RFQZzory7/HWf59ef4VI8VKMVPsTBwVU8XWrF9D/dDWp0nSGKn2lSeSB/ZghyrnFt+CnuhlR+WjJknckiTBoM2490qSoTztwb7nmaR+7fHlL3+593/2lnAH3LhtxMBzmcaZNDkGtC+p2WCmb2Qms+KOQWiLs0e4lKS9R3RoUwKPtjk42OVI35ADqy47k9VHvhv1jTgw1FM6g83Bfev40m/BjJ3JNb4E0VHfyPLvPsu/L9u/ZImVp5h5EUtvIfH6VG4mSUlKP/RL/7XhGsZClXPr2KInvjUjZ8vIVV4o24KA7Ag739qQikaRkUZcg0E5iZFvvdwaPvvZz56XM5P8h3/4h3M7tnA2941vfOM8gJR1YF3DAeDg1mdnwvrDlpwx0zcykzlS21KXDfCZzIp25Iycny07e3SwHj3QAt32Y7McZKO+EQPTgcE+9mPbyBrlz0h9dnZw06kfzrBn+kaWfy917UH38u/L8q8YKVaKmbNYeo0kx8TrmiTT15SSpP6wr76wuTZcQ9/HftT1a9BjjEa/MRu5ygtlW2SQ1223NqRCVpxcZW7BoEmSOYvJjPIa6nEQx8Zhn/vc5z5u277Y1sl1vX2X1Jsxqx9uqftQ3EfnuE+Y1Z2R+g6m++yPut8t+99nn5FRRmVWP9xS96G4j85xnzCrOyP1l3/n9R6S++gc9wmzujNSf/Sv9RNfFDNb3R5DxdK27VAMVl+pflk/zyTlkTFJyg+SZJ2Y7fEQSZK+nNBFr23KC2VbjElSo95mkjw57F4zydTj0HpHVis/bpB5FfVmzOrOuLX+61Dbd1Tn1j4nm19l3D/M6m7xUPvPPrtG1VmZ1Z1xa/3XobbvqM6tfZZ/5/VHbq3/OtT2HdW5tc/r+jc0OecEKYYmOSa23gqZrTwnyeSFzCDFfLmh5pw9XjdJRgb90ZvE6bMLZTPslCyb5GZ9puwotyRJdZtRndlwVncURsNvUb9stn87I+rLKY9CjsFBd2azR67NVz1HzrweAnqOXhLJQM9JRLbp75H+xR/ZB/HPkf3tF72wT/Y74mf76+vr2nb5d87y7/JvjZnRB3WzvEdto7LJv5MklWK9RFXzzCwnVJJHan65NUnan07yols7TA5t6w3ZQ0WlqTABlk2JCb+1MSENQdU1Q2ObUXuSjNMyGOLMI2TfHCiWq8O3uEXHjKqjyrL8urJDZG3p2iP1Hqot9yHtz/IRv1Rq8Kqyln8/rfdQbbkPaX+Wl38viayn6N+0ifz44UjyDWK1hG//3A3b5JihTpOk70LFfMnJ986znFBJHqn55da8RE5mkcqsJ/f1GeI17JwEqQTh+VL9GrXRliPPXVkzfRX1GLTh7CNG7uWtB9tisVgs3i5Jqp///Od7mSQpFySHKN0YJcdITpKlO4pnOaGifpJk8kzKIzcuqSsZJzmSaRJoUqgN1vsH19AIO/pxaWaUacgRRmO4W4zMZOo91EmSlByxkuNisVg8D374h3+4x+0f+qEf6rFbkmzlnbtb5ZjkhXoDzx6Sm2SW3FLlHYUuMuhOaSZ7nklSsoeGemqFjGontxgrZ8pm1AQZ7O9HrzN9I36jNM4k2/JKlIvFYvHEEaslSMul7Eky+SD5QWLKbz6Ta8Z8MCI/yFH2z8zxliSprkRIF1kmgSBbG5R9YQ+zRxVNSfM7IZmXcL+pmSmupMFKnWAQmVqj/Lh4prNCf5KkaftKkIvFYvE8EK/F7Vxy9R2lJNnoSVIOSZKUY1xilV8krMwq90idcSKG2bYROUmSNIP0RKj8/takULIku6/sIUun1AEzQDvPFM5Idk+DJUvJNs9UHPWNaHySZIwOyytZLhaLxdMnSVLMbonSG0XOl1uDCZi8kEueR/KDZ+raL7mlUmXvITH+yq/8Ss9vJm/0khn9F1l5horJ1naU4T0JQiOOZOqgvsctKT0RwtlCLt3uYbbZkuKrxpdqgqzLi8VisXh65JcILrXiR3/0R89J8l//9V97DkGe9OO5sXKO2J9yDxOuPBO4PnrwyE078NaTv/zLv+z5yIxSrlOSbZvynHW3qALzqKPvfve750dEEbqHpEqpbO0M4Wtf+9pn/vmf//ksc6azkku6zcAffP7zn/+YoWP4lSQXi8XiaSNeJ2Z/4QtfkCy/1NZfuYEz3/19/etf/8z3vve9Husz+VLOckJFPfnI/iZdclJI0tvDJExyHSd8Wafj4oMtxqxMgCyrg7VRM1ya1RgNzvSVjHTwCPQ3w54vuf78z/98N/jRH7MuFovF4u2T5JjfSLYY/nHb9oFJVvKCnCCXJNYrx6R1DfuTJ8ck8R7JT/RHV81zVf954RpjUtOgmdKRXK5VxiBVzlEkyZYce5LM721GxpnlmmkuFovFm8d3jbP4K0kq/QxE2WaS/aYdk6zkiOSHWyZOI/aPLDlGkoz8PdSfyattufhgj8dMkjJ8c8KrxpfiANe2GT3EKVnOepYXi8Vi8bDMYmzdliTpMqt1l1obr+SEzPSy/LpJMjmJLLmm5qEt7DOT96ySZL6TVLYk+UEztgeTn41+H1byXCwWi9fnWixtCfG83GaT7in54Jvf/ObFj/Zx3ySZfWqSTK6J7D3eiSSJJMrMJhvd6Os7ycVisXgajAlTnE6SVLbP+yxSHnAjp8SYPPK6STL5hrwq9xrqjTLx7JKkL1HzRWoz/PttFvlhdQbnJHFuoc7oxHF9sVgsFreTGFxjapaVjQ8b7/vZxy/90i9dvFBanpDYxrh/FLmJnCRH5bObSabB902S9a4jd8s2Z3zQ6O84Gx2yWCwWi7fDGHdncbht8xXZB+L/J5980n+0X5Oa3FCTpFwz5ps9apJMzrF+JEepsyUzyxcf7PGYSbLeovud73znfNl1KzE6o4HlmRN9trXvYrFYLP6Pa3Gyfj7WPV1ihVj9yu/jv/KVr5wfb1oT2eskSSQxmkTJM9aP3OH6TiVJ30t6Yg8DOxtpRn+/JbsPkxDjIMsegZS7quKo6jifqZdti8VisbiL2Fnj54zE3Dx6DmLsj/zIjyjF6Pf/5m/+5jNf/vKXew6A2WTNDa+bJPOcVXJ93ynP1J+ZbPFgSbLukA7olIePp9Nb5IGx7mbSKCU59RLqNSTH1KeXXE/uYfzmwP79pLtdf+7nfq47DJz0Ez/xE2cnSo5xII44f7FYLF4y4qb4mXg5xkxxtsbWz33uc//70z/904nDH7bP3xerPTzAE3Ekrsz6THjEcwnOtlwxTHlLorS/J/jIDZ7ylkee1lw0w34zeclzlu98OJJZnOXaaA+ijZI9ZHSJUd08BaFePo28LWod+iXdX/u1X+uzScZvifH9xvlGHk7MXa/VeXGuMk7PZ4vFYrG4iySYZXHTeuKn8rOf/Wz/zPpP/dRPneu2RPlh431x2k06+cmHJJl8YNIkJ9iurHE/OeIIJlHyjMQoL8kxkIRnOamiDUmImOm9s2EkidHOwTYN0rmZ4gqjSGxJkGafkXmE1E3pGX2e/M4A5LrOXRMlx3FWdRgH1qQYByPbFovFYnGXfEVVt9V4+pM/+ZP/+zM/8zN92SVXCbLNKN93/4hno8oTif0SpNxhu1KOkBskOTE+E7KjJB/JM5AXlEmaYz4aodv+IXJNzpIwzxuvYacqRGN0/hoaYforw//6r/9674D904AjJDlbZmiyTK11Ujs8Bb4lPN9R+oL4fNerGSXnVodiTJiLxWKxuIukp0y8NLGQNGvizBW7Vu/jVv9LjffzbkbJSoJMQpK4bMvDzS2r55JrjffKmm+2SB3fRWYWSZdylo9GJG0zUTJqTqrJ+rywR92BIE9N18l8+bpH7jYyrZUgXSKtsrJ8BPW9ToXeeqmXQzzFoc0m3fX6QZtFeuBAfzJPnCtheshudXr9fLFYLBZzkhSDZFk+/7jNJCXHDxqvvvGNb/TEZ3JkUiPuywOQB8RsCUqZWJ7XXeFIchyRV+iUHEGP9eSILbS1JuW6HNl3MuuIDuhokh3FtUO38h//8R/9S1wNnOkb8ZJnHUZNsBXvBNOpzHabA181R37QkuCXWnL8qJUejN5nmBIjh0uWuZ6+WCwWi33EzkwsWultHuKqp+h80HjllVU1LpuhHZkIqfP973+/X4Kt97pIrrOcUDEzNUOdzQaP4PVcJnxmtPRldkt2ZqPnBLSFRmTWqDG26cDRxtTkFSTdr371qz3hjvpG6FJPkrYsyVbZs+WsS5bNmV6xhZ40mzM9hf6jliQ5eLFYLBY7tLh5psVUpa+1xNP3xFj3iYjRZmWSzvi9olwxxuoxf9gmz0iSyQvi/ZgPRtSRVOsNnrciOdIrvyVBZ5mO6U576Ezt8FHqfrdk++xX94mcfJb1keyTOpza+H+hJcv/1wbBYrFYLA4ijo4xdoaYWz+viawu1/idWF23XSN1a7yvn19j62ah/5Pzv5/5/0LJC1Q6oHB1AAAAAElFTkSuQmCC;" parent="1" vertex="1">
          <mxGeometry x="240" y="615" width="37" height="41.45" as="geometry" />
        </mxCell>
        <mxCell id="4-l5QpAymt0JCEmgXWtR-2" value="" style="shape=image;verticalLabelPosition=bottom;labelBackgroundColor=default;verticalAlign=top;aspect=fixed;imageAspect=0;image=data:image/png,iVBORw0KGgoAAAANSUhEUgAAAlgAAAGQCAYAAAByNR6YAAABhWlDQ1BJQ0MgcHJvZmlsZQAAKJF9kT1Iw0AYht+mSlUqClYQcchQnSyIijhqFYpQIdQKrTqYXPojNGlIUlwcBdeCgz+LVQcXZ10dXAVB8AfEzc1J0UVK/C4ptIjxjuMe3vvel7vvAKFWYprVNgZoum2mEnExk10RQ6/oRD96aYZkZhmzkpSE7/i6R4DvdzGe5V/35+hWcxYDAiLxDDNMm3ideGrTNjjvE0dYUVaJz4lHTbog8SPXFY/fOBdcFnhmxEyn5ogjxGKhhZUWZkVTI54kjqqaTvlCxmOV8xZnrVRhjXvyF4Zz+vIS12kNIYEFLEKCCAUVbKAEGzHadVIspOg87uMfdP0SuRRybYCRYx5laJBdP/gf/O6tlZ8Y95LCcaD9xXE+hoHQLlCvOs73sePUT4DgM3ClN/3lGjD9SXq1qUWPgJ5t4OK6qSl7wOUOMPBkyKbsSkFaQj4PvJ/RN2WBvluga9XrW+Mcpw9AmnqVvAEODoGRAmWv+by7o7Vv/9Y0+vcDGX1yg5PPszgAAAAGYktHRAAAAAAAAPlDu38AAAAJcEhZcwAACxMAAAsTAQCanBgAAAAHdElNRQflCRUQEQZGFsAYAAAgAElEQVR42uy9d3gc533v+5nd2dnZXXQQhSBAACQBgr1IoqzeqyXZ6lZk2ZZb7Dhx7JOT+tzk5Jx78+QmcWwnTpzYli1bsq1iWc1Wt2R1URJ7b2gECaIQAFF2p7/v/WMJRec8uhZmxbJDvZ9/+Sw477T3O7/y/WlSSolCoVAUKQOTAesGfE6v16kvjasTolAoIoGuToFCoSg2fAFZV/Bit8s/b7FII8mh8SfLU1zYapAxYugxdZ4UCkXxoqkIlkKhKBYkMJYTrDvocvcum8EpwSxDe+ffD7uSupIYd3aYrGk0KE/F0NRpUygUSmApFArFe3M4K+gd9fnJTpvNIz6zEhrx91BPgYRhT3J2nc5NbSYtVTqzMiqcpVAolMBSKBSKdxh3BF3DPk91OTzT71EV10jMQC85Ao4EkisaElw1L8m8Gp3ypBJaCoVCCSyFQvEhxpewvs/lrQMuLw962B6kCqhhtwIwE3B+XYI1jQanNRnoKm+oUCiUwFIoFB82NhzyeLPH4c1hn8O2xIxB7AOIIiHBFjDL1DizRufMliSrZyfUiVYoFEpgKRSKU5/e8YBn9ti8PeAx7Eh0Ppiwei+h5QM1SY0z6hNc0W7SXK6sHRQKhRJYCoXiFGTMljywNcf6Qx4TvkRIjmv3nzwq3Mp0jdNmJ7h1WZpKU+UNFQqFElgKheIUwA4kz+1z+OUum5x/8l41aV3jxg6TyxYkMeNKaCkUCiWwFApFxJCAF0g2D3h8f1OO/qwgc5JFjQSmfMmC8jhfW5NhfpXyWFYoFMcX9ZZRKBTHjJwn6RnzuXebxdohnypdO+niSkhAg4VlcT7SkKDcVFYOCoXi+KMiWAqF4pgIq+HJgCe7HB7ocikDzJNcWy4BO4A5GY2z6hOc05pkgYpcKRQKJbAUCkWx4wTQP+7zRp/LXXscDCEpKwITKiuQENe4oiHBuS0Gy2cbvF/cKp/aBEM1HSoUCiWwFArFyaJnzOftPpdn+zz2TwWU6dpJnQuoAa6AQV9yZUOCK1oMOuoNypPvf1SDWcGGPoecKzmtyaClUkW6FAqFElgKheIE0j8Z8Favw+v9HtvHBUmNk+6cLoEhV7KwPM4n2pMsqTeoK3n/WivLh7W9NmsPeLw85KNJWFoR4+yGBGuakzSUqnCWQqFQAkuhUBxHcr7k+X02b/R57JoIkIIZzQw83jgCXA0+2ZbkknlJakrizKSufuugx3N7bNaPBGQ9iXF0LZ4ALQYdZXHOakpwyQKTtJq9o1AolMBSKBTHmsd327zS7XDIElgBFIOVlASygWRJpc7vn5ampUJHn4HgG7Ulj27L8cYhjzFHomnvbXoayPxsxNmpGOe1JrluoaluBIVCoQSWQqH44Lx9yOOBrRYHpoK83UGREEgwdY07V6S5tNXgqBPD78QN4MVuh1/sshh3wi0mpkFjSZxbl6U4Q804VCgUSmApFIpC6JsIuGdzjg2DPsVmfK4BV85Pctuy1Ixc2YWEwamAf3k7y9Zhn8wHSPcFElbX6XxqRZqmMlWfpVAolMBSKBQzECIDkwG/2mPzqx6XhCyOGit59NhKdY0FVXE+vzpD/QwK2AMJjif58ZYcD3e5lGnMKIX4fngCPA2ubTG4tt2kvjR+TAdWKxQKJbAUCsUpIqxGcgGb+j3u3mkzkhOUJU6u5cI7YuaoyFtcHueaDpPT5xgz+t2UI9g66PP/rs8ReIL0MQ7DSWDCk1SnY9y5yGTF7ASzMkpoKRQKJbAUCgX51FnPiM89u2zWHQ5oTGpFkRIMJNgCllfGOa8pwdktSSpmMOIm50l6x3x+ucvmhX6PKl07rqInkNDvSNor4vzBUpOWap26EpU6VCgUSmApFB9KRm3Bzn6XZ3pdfjvoUx3XSMbykZmTiQQmfElDJsa1zQanNRk0V8zM9LNz1Oe1Hocn9nvkXEnqBOocX8BwILmoTueKZoNFDQZVauahQqEEljoNCsWHg3FHsv2Qy1v9Hs8c9DCAZJHoACuQ5NC4Y0GSc+cmaK5KzKgGbNyRvNRp81Kfy7bxgJLYyYvCOQJc4Io5CdbMTtBRn6AqpYSWQqEElkKhOCUJJGw+5PJyt8vaIZ+cL0nGKIo6q0DCsC85vz7BLQuTzKtOUGLMoDsQeLHL4c1eh7WjAZrgHbPQk8m0P5cf0/j6ihRXtSn/LIVCCSyFQnHK0Xsk4IGtOfaOBYy6kphWHMJKAuOeZHZJjM8tTbGiPkGZGZvRse047PP4Noud4wFHXFk0UTjIR7EyCY2vnZ5meV0CM6Eq3xUKJbAUCsUpw7AleGCrxbp+l2xw9IEvkmPzZX4czTXzkny0zaQmHUObwcEN5wS/3m3zep/LEU8W1ZoAxn3JVS0Gn1uZocTQZrQmhUKhBJZCoYgATiB5fLfNz7fbReFj9V50VOncvjzFwuqZFbBL4NVeh3u2WhxxJMWmW4QE09D40zMzrKhTTu8KhQJ0dQoUiugjAduXvNDl8LMdNrl3DS8uluOLa1CZ0Lh5aYqLWpMzEklSwoGJgB9tzvHmgE8mTtGJqxhw5XyDT63IzMjIVAJ+IHlot0NpXHLNwhRCojy0FIpTDBXBUigijuNLdgz73LvNYtdYQCZG0aSmhAShQYOpccYcg5uWpmY0qkZIGLMEv+12+OY2i9qYVlSCMZB5V/glVXGuX5Ri2QyjVm4g6Z8I+MbbOTrHfDRNo70izmeWpVhUo5PUlcpSKJTAUigUJ5UpV9I/7vPrvQ6/6HWp04tHhEjACqAhpXFGvc4lC1LMq5yZMdWYJdh32Offtlj0TgTUGsUjOiTgCmgtjXHxXIML5puUJ7UZ/W7cEjyx1+YHO2yq4to70S5XwKAvubnZ4Jq2JA3l+oy6KBUKhRJYCoXiGOIJ2Dfs8Vqfy8O9LsKXlBVR5MMOIBaHC+t1zm9JsmqOMaO0Xs6X9I/5/HK3zdMHPSpj2jGZHXiscAXE43B5o8FF8wzaZ80sapXzJbsGPB7cZbNp1Kc0/t5jiCZ8SUzXuKHZ4JwmgwU1iaKtoVMoFEpgKRSnFDuGPHYNeDzU4zKcE1ToWlGlA8cCyZpqnWsXJFlcn5jReBuA7lGf13tdHu5xcb0T68L+fkgJA57k7Fqd6xckWTLboHSGEaaesYCXum2e2u8y5cr3nYkoJRzxJTXpGDe1GHTUJ1hcq4rmFQolsBQKxXGhe8xn8wGXZw947J0IKI9rRVUUPelLkokYX1lmsrw+QV3pDNOBtuCNHoff9LjsnhCkYsVV7G0FEiuu8bVFJqsbDRrKZrYuT8DL3TbPdbpsOpKviwvjLi8kjAeStrI4lzcmWNFo0FqpepIUCiWwFArFMWHElvxmj8W6Qx6dUwJNUhTDmCHfzWcfncH3mXaT69uSVGTiM0prSeDlHocXOh12jwc4AUWVDpMSRnzJGbU6X1yeoqlSx5jhid87GvDkTot1h30mPqAJaiBBajC/JMbpsxNc2p6i2lT1WQqFElgKhaIgnACe2WvzUo/DwZzAE8UjrKYF0oAjuaAhwRdWpKgvjc+4A27/eMAD23JsGQ7I+pK4VlzWC44APwZfXZ7i7LkGpSEU0n1bc7zS6zLoSGIcu3UFMi9A56RjXNCS5Io2k2RcPScKhRJYCoVixrzd7/GTLTmGs4JifDhdASWmxheWpjizycCcobDyBPx4U5YXe1y8In3rOALOqNW5c3WaOaUzVzC94wF3rcuybzwgOM5r04CaTIxPL09zRoOqz1IolMBSKBS/k87RgO9uzLJ3JMAs0uhEIgaXzE1yw5IUFSFSVS/vd7l7c45JRxatoWZpQuOGDpOr280ZR55sX/Lr3TYP7rGRwYn1H7MDaKuO8werMsyvUuEshUIJLIVC8Q6+gMO5gAd32Dze5VCha0UnQAIJJQmNRZVxrltksrgmMePf9Y0H/HxbjtcP+aRixefCPr22xZVx7lidoaFkZulAIaFnzOeHmy02Dntk/n+sF4434mjX4XXzktyy2GRWOl5U1hYKhRJYCoXihOIFkiO24MVulx/utElISSpeXPLDE2DosKQszrmtSS6el5zR7yQwPBXwSq/Lj3bZxILiW1sggRi0ZWJc2W5yYWtyxr8dtQSbDrr88xaLmF8ca7MCiadpfG6RyYUtBhWpGIm4KoZXKJTAUig+RAxMBmzsd7l/j8PBrKAyoRVVZMeXYEtYUh7ngqYE582bmVs5wKQj2TPk8uMdNjvGAiqLLCIngWwAs1Mal801uHiBSW1mZiEfN4DeUY+7t1k80+8zL1k8HmSQ73w85Erml8f567MyLKhStg4KhRJYCsWHgKGsYPeAy9O9Hm8Me5THtKKyJhASJgNJYybGFU0Gq5uMGW/SvoTth1zeOuBxd5dDbby4ZgdCvjjfBa6ak+C81iTLZyeY6SH2Twa81ety1x4bzc8bhhbTi1OSt8yYVxrj2nlJzphrUG6qXKFCoQSWQnEKM2ZLth1yeXW/y3MDPiUaRVfEbgcg4/CxZoNz5hrMr56571PnmM/6XoeHejzGHUF5EQ4sngokjZk4N7cnWdM0c/FhB/B2r8PzvQ6vDflUxIsrajUtjMcDydVzDa5rN5lXraOSgwqFElgKxSmLBF7qsnn7gMf60YCsW1wjYCCfVhoLJCurdW5bZNJRkyAzwzEwhy3Ja902rx/02Drmk44VZ4H+iC+5ZX6S69pM6stmXgTeNx7w7B6bFw56ZD1ZdBE5yNfJ+XH4+oo0p81JqKiVQqEElkJxarPhkMtv9zlsHg2Y9CR6kZlpakA2kBDT+OqqNOc2GZiJmQkkAbzV5/LUXpvdR4KiM0GdZsqXVGZi/PnpGdqqdVKJmft1vdjl8HSnTe+UAElRWkuMuJKOap2/PDNDfenMhaMnoOtIQHtVXEW6FAolsBSKaHBgIuCRHRbrB32yvnxHzBQTQsKAK7lzkckNHSZlZmzGAmlgKuBnWyzWD3h4kqLcoIWESQG/12Fy6yITI0Sh/XBO8O9vZ9k94uMX6fqkhGFf8vWVaS6bnySdmPlRHrEF33hjigPjgtPqda5fnKKxTHloKRRKYCkURYrlSe7amOOVAy4U8RPlCGivivOHp2eYWz7zCIYv4P7tFo/tsYtSNE7jCZhVEuNP1+S76MJEnl7qdfmXdVniRbw+X0JFKsbXT0+zpDYRan1rD3h8860p5LuFowbnNRp8flV6xhE+hUKhBJZCcVwREgIhearT4e5tFhTZwOJp5FHBUJOOccsik3ObkzOOWAUCNg96/OuGHKPZALOIvZWMOHx8gck1i8wZH6eQ+e7Of1w7xe4Rn4xenOubfkmf05DgjpVpqlMzv9GynuT+bRa/3GNT8h7r8wQQhzuXprhqfpJ4EdbSKRRKYCkUHxJh5fiS7UM+f/92lpwjKNG1oot6yKPHWp/SWDPb4NrFKapmON7GCySDU4L7d1g81esWnZ/VOwLw6BDk1bN0rl+aoi2E95MvJE/tc/jhVouYhGLUVtPXsCEd49q2JBfNN2cs4gMJvWM+392QY89YwO+qf5fka9bSyRh/eUaGJbU6SV0JLYVCCSyF4gSR8yQ7hzwe2m2zdsinukg3IUtAVVLj3Dqd8+ebLJw1M+EhgQlL8HyXw09323g+Rdf5CPk6pJyAxRUxLmoyuKDNDB192jbo8cgOi42jAVIUX/QxOBp6PKdW5+qOfIfnjK+/J3m11+V7W3J4ASRnuDZxtOvyI7U6Ny00WVSbCFXjpVAolMBSKMIJFl/SOezx+gGPx3tdYkIWZbrMFWAB1zYmOK0hwUeakzOOrE26kh0DHo/ssXl7xKcyXpzi0Q4kphHjY00JzmxNfiDH8hFLsrbH5sUDHutGfGbpxeFzNelLGkvifHyewXnzTcqMmR/UgfGAp3ZbPNjjURYrrMPTDiQipnFds8HZjQnm1yRI6UpoKRRKYCkUxzCKsGvIY9NBl1/0uGRdSUVCK8qhxYd9yeqqODctSLJ0TnLG4218CTsGXF7vdfn1QQ+tCGcHwtF6KV9yXm2C69uSrGw0jllar2vUZ0Ofy487HQJPUnqSxISUcNCT3DzX4PIFSZbUzTxq5QpY3+fwyG6HDaP+Bx7BJIEjniRjaNzcYrByjkFHbQI14lChUAJLofhA7BsLeL3T5vUhn+7JgNIijOhIYMyTVKZifHGRyaK6BI3lM8/p7R8PeLnT5uV+j+4pUZTiEWDClyQMja8uSbF0doLZpcc+b+kGsGfI5ekul8f7XGbFtRl7Sx0LrEDixDX+dFmK05oMqkIUso9Ygid3WTy732PMEaSPoQqaHqHUWhrn7Fqds+ebLKhU1g4KhRJYCkVIuscDXuu02TTss2tCkNSK00jTFZADbm41uHx+kjnl+owFwaQn+c0emzcPuuycEOgU5xqFhNFAcm2TwXULTZor9VCi56Ueh/oynYVVMxcER2zB5kP5oc792bzoPBECclm1zqeXplhUFy5KtGHA46mdFm+PBsTl8buOgQRHQkdZjJU1OufMN2ktV0JLoVACS6F4v03OlTzfafNSj8vBnEAWqYO3BHIBdFTG+dyKNO3VcfQQu+qbB1x+tdOmcyrADSjalI8rwNDh88tSnNsczlDz4KTgvo1Zto8FZHSNi1oMPrYkxUyrtYSEI5bgoR0Wj3S7pI+TyBYSchI+3mpw/aIUNZlwIbOHtls82+Uw4sgTdh2FBE2DOekYF7QYXBKyRkyhUAJLofiQ4Ap4udvh4d02o7ZAFPETEUgwdY3fW2zy0XbzHY+rmTCQFfx8U471Q17e+6iI8SWsrtX5wmkZ6kKKjuc6bX6x0+aI818XUtNgXmmM31uRZlltItTf2z7s8731WQ5MiWNq5SAkpBMaX1qV4uy5yVC/Hc4JfvBWlq2jfr7b8CQR06DKjHHDQpPzW5NFOa9RoVACS6E40Zu4gD0jHj/cbLFn1C/Kwu53IyVc1GJw29I0lebMjzXrSp7ttLlvt0Pgy6IvUi43NG5bnubiZiPU7w5NCe7dlOO1Q9572hJICS5wS1uSaztSlCVnfiJcAU/ssbh/u31MjPpjGswvj/OlNSU0lYZTJRv6Xf5jQ45Ru3iupRVI2qt0PrciRXt14oTWrikUSmApFEWCG0hGcoL7tls82OnSmNSKNhUoyXsYLanW+diiFEtqZm5JIGW+O+5b67PsHg2oTBSvS7mQUKprLK3V+fxpGSpCiB/Lk2zod/nGRovAlZjvUxY06UtqMjH+eFWaJXUJzBBhqRFL8P11WXaNBEwVIFYDCRUJjUvnGdy6LE0YHTJuS57Za/OT3TYpii99LSQccCS3zDe4bUnquDQiKBRKYCkURSqsDmcFj+2xub/ToUyDdFwrytGB3lGH8o7yOBe0JrmwNRl6M3d9yV88P0HXpCBOcdZa+TI/4mZBSZzrl6Q4rWHm6TtPwMhUwL3bbX7V61AbwvQ1OGr5cNO8JLctMqlIxzFC6IG1fS6P7bTonBJ4At5PuwYStBgsL49z0/I0i8MIZfKO7D/eavHaIY8KXSvaWYlSwqSQrKrS+ftLy9RLR6EEljoNilMZIWF4KmDtAZef73aYckTRzpwTEmwJbaUxLmxKcE6ryax04fmWnC95bIfFMz0uI44kVSSpm+lC/aa0xuUtSS5pM2fs2wUwkhNsOujy/Z02E5Yo2Ldq0pckkzF+f5HJmiaD6hDnetQS/HafzUsH8hYXSe29o0qWgOqkxhUtBh9bnCId4liznmRbv8s3N1tMWuI9ZwkWC44AM6FxZVOCm5enKVEO8AolsJTAUpy69E8G7Br0eHivw87xgApdK9oapClfUm7GuLbZYE2TwYJq/Zj83UDCxn6Xp/bYvDocUBo7ueklT4ADfLQpwSXzkrTXJmacKgskdB32eHi3za/7PGoTH/x6CgljvuTihgTXzE+ysN543zTju4Vi52Gfl3ocHu91kYJ3Zv4JCZMCzq2Jc1W7yaoGI9Sx9o75vNzj8m+7bBoTWlHXzh3xJAvL49zQnuScVlMVuysUSmApTlUmHMkbvQ6vHXB5eyQgCUX50tcAK4DDQnLHvCQXtxg0VydmvMGHYXgq4Nl9Dvftc0jIkzN7b9KXtJbH+dRRU9Ryc+YHcWgq4M0el8e6HUYseczPkRVAJqFxTYvBeS0GzZUzF7iTrmTfkMdjnQ6/6feo1jWEBp9YkOTyBUlqSmZ+sK6AzQcdfrHLYdOIf0J8uApFAuOB5ILaBDcuSdFRo6uXj0KhBJbiVMQKJK90OWw66PLmaIDnc1zEyjHZnCR0OZKrG3RuajdpmZUIlSYbdyV+IKkOkfezfMmuQY9/3ZBj2Dq2jt+/C1/AUCC5o83k+vYktSEKoAWwrs/lyb02m0aD41pPJt5lpnlhs8GlbSbJEP/Z4axgyyGXJ3pcbj8qIsPM8Bu1Jc/utvh1j0vWkxRzlk1ImBLw8ZYENy9Nh0qvAuw47NNaqRflMHGFQgksheJdvN7n8mKnzY4jgklPYsQo2mLgKV8iExp/tiLFqjkG5WZsxsfqSXhil8XaXpe0qXHLkhQdNTMvDpfko1n3bbd4uMul7jibRB52JS0Vcf6vNRnqy+KhDEOP2IJHd1i81OdxxJPo2om5pp4AU4dF5XFuXJYO1b3pC8i6gtJkLFQqdtewx4PbbbaP+gSiOE1u3y2uAuBzy0wuX2BihFS8v9ln86u9DvUpjQvmm5zdZKgXmEIJLIWi2Nh52OehbRad4wFZP387F+veJCRMCLih1eDGxSmq0+E24fUDHvdtynHIEthB3kCz3NC4bVGKC+clQ/kPeYFkXb/HX7w+xaz4sa/x8QVMAl9dluKi1iSZZLjutzf6XO7elGPCk/gnQXBM22SUxDVWzdb58hklxyXN7At4scvhvp0W466k2MuXhARD1/jvZ2ZYPTucaasdwKPbcvy628U56pCa0TXml8e5aWmKRbNUilGhBJZCcdI5NCV4YGuONwc8AlH8xyuA5tI4d65KszRkrcrBScFDO3KsPei9p3O3FUgubTb44uoMqRARIgkMZwV//8YUXWPBexp0FoIdwMqaOJ9ekWZepY4WQhxZvuRbb2ZZf8grqsLuUkPj9mVpLm45dtEWy5N8f0OW3/S6RW90C/kmg6byOH99bkmo1DTk3ed/tjnHK/0e75UVjMfgzPoEty5LM7tEVckrlMBSKE7413PWlTzXaXPPLhstODnF2mEETEyDqoTGdR0mV7aZoaI4biB5ocvhx9ss3IDfOarFFWAkNf7hvBLmVuihxIkdSB7bafPYXhtPfLAIYKmhcc38JFctTIWuf3t1v8t31ufwA1m0A7ZPr9P5wuoMdR9ABAQS9h/x+fNXpnAdWfRdd9ObxAVzDT63Kh2qrgzgwHjAN9/KsmfM/511f54AGYdPdZhcNt8kY2hFnSpVKJTAUkQeCUw5gtf7PO7eYTGaE8XdXSXBB+pNjZV1Ce5YlQ7lf+QGku7RgLu25Nh82Kd8huaSQsKYgD9anuKK+clQ0SyAzYc87ttmsW8igBDDrn2Z78BbWR3nusVp2qpCFLFLOJwT3LM5xwsHXDLx4jXShHy0MJnQ+Is1GU6fEz6aZXmSZzodvrPFojJG0QsIV0J1QuP6RSbXtJuhfusJ2Dvs8VdvZJGuJDnD2+KIJ6lKx7hzcYqzmxKUJGMonaVQAkuhOMaM24KeUZ+f7rRZO+hTV8RftRKwBVQYGmfW6FzSboaqK/EFHJrweaHL5d9328zWtYLSdkc8yZn1Cb60Kk19WTxUNOjQZMCTO21ePOSRPVpY/rsiMZaA1VVxzm82uHiBGWogctbNj7m5e5vNUE6QLvKOMl9CSULj/Nk6l7ebzK2Y+bUNJAxMBPznxnxauyJR/LMvXWBRWYxPr0yzKOSQ7KwnWdvr8s9bcpgBoecTCgmDruQjdTqfXGTSUqWHsvVQKJTAUih+h7A6cCTgiU6bR3o96hJaUadSHAFSg4vqddY0GnykORla2Owc9PjBTpvBKcGsD9jd5wioTmncuSTF6Y1GqGiWJ2H9fodH9jhsHvUpfY8I2oQvacjEuGR2ggvaUzSGHFq8e9jj2X0OD/e5VGhaUad6p9e7vErnmgVJzmpJhrJQsDzJugMud2+3GLHkMat1O14ER7sEL21McPPSFHUl4ZTvUDbg2b0Od+2ymaV/sA8iV8CgJ7m+OcFH55s0VsSV0FIogaVQFIInYMeAy6v7XZ496BEEFHVkI+8HJFleqXNVq8HKRoPKEBvAhCvZetDl2R6H14Z8yo9hR58n8jPwPtZqcEWbSX3IAbzdYz6vdDvc2+lSSr7ezTvaHXhpvc7l85IsD+lQftgSbD7g8sAeh87JgOoij+QEEgZ8ye+3JzmvNUlrZbgGhYHJgGf22jzWnXd6L3Yh6UswdY1b25NcOC8ZWszsG/F5cLvFi/3HNkqXCyAeh8vnJDh3rsHieqPoz6VCCSwlsBRFw44hjzd7XV4Z8DhkCTKx4i5yzQYSMxHjE21Jzm82qC2Nh6oV2Trg8UqPwwv9Hl7AcYlsCAlZAWfOinPNQjN03dCUJ9l+dB5e96RgQUmMzy42Wd1oUBWyk2zdQZfnOx1eHvIxZHGLDQ0YPVoL9LXlKZbNMULN15PA+oMuv95t8+bhgEwE6q2cAGoyMb64PMXKOUaoiLEvYV2fw/07bbonxHG8lyWzUzHOn51g1RyDFSGtIhQKJbAUHyp6xgNe6rR5+5BPTy4/OLdYu9Y18mmLMSG5vsXg4+0mdaVxzBDFR4NZwfN7LF4+6HHIOjGmqLaAWlPjvMYEty5PY8bDiYX9Yz7bh3wW1+g0VuihampGbcmvd+R4rd+jPyeL3r1bSuj3JLfPT3JNe5KmCj3U9bEDyaM7LJ7rdhl2JMWe0dI4Wrc3O8EXV6ZpKIuHEoOWD8/utnis02HcPf4doMFRx/05KY2zGhJcON+kpVxZwiuUwFIo/uvFHMC9G7NsGe4vJ/IAACAASURBVPQYciSBoKiH2koJhz3J6lqdzy9P0VKhh6pt8iU8vcfm2U6HQVvgn+D1Cpk3J11YEecrZ5aE9hvyCkhxvdHn8qtdNvsmA4Qo/iiOJ8CPw1eWpjivJUkmZC3coSnBd9+cYu94gFfk9/O0uOqxJb+/xOQTS1KhnPYhXyv50805Xj7onXAHeiEhFoPapMbyugR3rMqo0TsKJbAUH27sAJ7aY/H0Pocjnsxv/EV+zK6AMlPj9xalOL85XzQe5pj3jvr8aFOOzrEAyclfbyoOn1ia4qoF5nH5+2O25MEtOV486EbCCBbyjQGtZTG+fHqGhdXhXcWf2mdz/zaLXEAkbAUkMOBJvnluCasajNCdfv2TAd9+K0vnWEBMO3lrnvabq0hoXLkgyVXtqaKdQapQAkuhOC4EEjYecvnRJouBnECPirmNBufNMbhteYpZIeuOcp7kexuyPN/rnrDhymE2pnMbE3xudSZUfdH7RRV2Dnl8c12O0ZyITCGyHoPzGg1uX56mLBnuXEx5kh9uyPLqAS8yfk1CgpnU+F/nlDCvSg/9222DHv+0LkvOLi5TWF9CfTrGZ1emWDXbIK4MtBRKYClOZXyRr+H5j405toz4lMaL36FZSDDj0FYW58ZlKZaG8AGSEoSUPNft8oPNOUQRO867AuaXxfj90zO0VYUba/N/rnncFvxkq8Vj3Q5VEbjG0y+/OlPj+kUpLpmXDL3mvaM+31uXpXNCFL0j+7vXvKpG5wunpanJhAv1eAJe7Hb4x/U5KmIUfL8c72d3MpCsnKXzqaUpFszSSSqlpVACS3Eq4QSSw5MBj+51eLDLpTJG0W9C/tG6jkWlcc5uMbi8zSTMFuT4ks5Rn59tt1g/7FMa04pyE3o3uUCSSsb46zMzLK8P35WV9SRdIz5/93aWiZygJAKhSU9AQoezanVuWZFhTsh6tKwrebnH4a7tFoFPJMSVOGqUelmzwUcXpagIGanLupKHd9nctd2izij+a+wK6PMlf7Y8xfUdJoYSWYoTiBpdrjhOwgqGJ33W9Xv8w1abCiR1evH7HWWFpL0szoWNCc6dZ1KbnvmuKYHeMZ+Xehx+vs/FkJKyIn+hTzvPzy+Lc8lcg4ayeOhzNjQR8Pg+h/v22VTHtaIXVxKYCiRLy+OcN9fgox2p0Gmk3jGfZ/Y63NvlUKdrkRBXjoDGkhi3dJicHdIoFfLzBO/ZmuOVg14kxBXkDXMvqYzTVBInpilxpTixqAiW4phzcCLg7T6XR7sd9k9+cEfyE8GYJ6lLxbi6KcGqpiSLasJ9ewxOCbYfcrl/r0P3ZEBFvPijVo7Ij0K5qdXgvBaD9lnhIlfjjmBDn8s9u2wGs9GJWtnAlQ0JPtphsiBkIbsbwMaDDvfssNk+FlAbEaEx6kkumZPgY+0mi+vCXedAwo5Bj7u35Ng3LoiKifoRX3Jalc7nV6eZX61iCQolsBQRZmAqYGOfy6v9HhtGfNIxregLTB0BExJuakpwQWuS9ho9VBrBE/B6j82rfR7PD3iUx4p/5IuUMORJzqrVuWFBkkWzDUpDCAVBfoDv850OT/V5JAg/Z+5kYAUwK61xc5vJOc1GaIfyae+yB7tdZABm7L/qmYr5Wu/3JH+8yOSSNpO6TLg12wG80mXz4C6bIbv4R/xMkxNwQb3ObcvSNFaodkKFEliKiDLpSt7odVjb57JuNECTFP2LWMj8F+6Syjh3LEmxsEanNORBbxvyeLXT4fkBD9sjEv47ViBx4hpfWGhyXrMRenTOuCP5zV6L53s9DuTybt3FHsOR5AueT5ul88mladpm6aEF4Zt9Ls91Orw+5JMp0sLu/+3FflQcjWrwz2emWTrbCO1vdcQWPL7T5qkeF8uXkUiDAmQDOLte58tnZEJPGlAolMBSFA2/6XJ4ucuhc0qQ8yW6VvwbriNAxOALS1Nc0mKQMmKhut36pwTP7bF4e8CnLytOiAv7sYhkjAWS02t0vrQyzezyeOiuqu3DPg9sybFnPMAVRMJiQx7tJvvskhTXtpuYhhbSkR2e3GXxdLfDsC1JRKSMZ9yTtFfG+frpGVqr9dD358BUwPfWZdk6EoAsfnPYaVwBV7YafGZlOtRkhWl2HPZZPEulExVKYClOIm/2ezy+w2L/lMDyJZoWDZEx4kkubzb40qo0pckY8RAfuJ6Al7odfrXHZsASkTBHnT5uGYcvL0txbnN4Z3JXwD2bsry632MqkGhEZ92mofEXZ2ZYVpcILRIOTAru3ZBl84hPEJFrDTAVwEVzEtyxPBU6QjktpL+9dooxNzrXGvJzQW9qN/nMinRBEcYndlk8stehLhXjusUpzmxQMw4VSmApTiC94wG/2G6xbsBDROjOcQU0lsf4yqoMHbPCez31HAm4e2OWLYeDyBhnQr5AeUm1zmdXpWkpoBZl65DPv7w5xYQbrdeEFUjOaTT4yumZUPVl06w/6PKdDTmmHBmZ6I0EAuCGeUmuX5oiU0C47cl9Dj/YmIvUPQ4w5Uv+ZE0Jl7Qa4e8VX/L4DouH9jlwVEjHNDi9PsHNS1I0qxmHCiWwFMfzxT2aE/xyh8WTPS5xiIQ78vQ4mjJD48YOk8vmm6Fqb4QEy5P8dJvFw/scSmJEyhW60tC4bqHJR9vN0OfNDST3bM7xRJeLoUXrXk3GNT63IsWFrcnQ0ZcpV/LYTou7d9lU6lpkojcSqDA0bllkclkBo48sX/KTzTme6nIjU8g+/YymExqfXp4uTFx5kid2WXx/h03F/5FSDGResF7dYnDj4hRV6RjK6EGhBJbimL28JmzB2gMud++wmbIFmQgU3sijxz7L1DitLsGNS1JUh/Szsj3J+n6Pb2/OYVnRWDfk02IVhsbiqji3r8rQENI8MxCw4ZDL9zdbDEyJyAzOFTLfybiwMs4XT8swJ6Sfly/gwLjPDzZZvDHgRcJa5N1CYGFZjJuXp1lVgEnscFbwb29n2TzsR6aQHfIeV1VJjT87q4SFBdRNTTqS5/fZfGOrRcPviPZlfUmJGePOxSYfaTQoM2ORiWoqlMBSFKFAGc0JekZ9frrTZu2Qz5xkNMaeeCIfsVpdHefiNpPlIT1/cp6k74jPA7tsnj/gUZPQIvEy9Y+G65aUxbmsPcm5zUliIc/dwGTAi10OP97jkIbIpIlcAbPTGpe3JLm0zQydEpx0JZsPuvzTZgvpClJxjSi8FAMJgQaXzk5w66oMNalw6xYSuo+O+dk5Hh0xLck3qiyrjPPplWnaCxBXIznBvVssftrpMN98/+stJBx0JB+p1fnkIpOWKl1FtBRKYCnCMWYLOod9Ht1n8/yAT52ukYyA348rwNfg7BqdC1sMljUYlCbCeTsNjAf8psvmoS4XgvwcwihsNtlA0pCOc2VzggvmmdSE9DrKepLth1x+ssNm93hAZQRMUiHftJAVcF69zrXtJksLiN4cHPd5fI/DvXsdGgwtMpGJXCApT8a4rS3JZR2p0Gk9T0je3O9yzzabg7mATERy31KCB6yp1fn0ynToSCXAwJTg/q05Hu52mZ2cuZjWjgq7QV9ySb3OxxeYzK/RqTSVFYRCCSzF+3zF7x30eO2gy5MHPBIiGgJDSBj1Jaurda5qMVgy26A+ZFrscE6wvs/lyW6HneMBZfFobLTTruSXNyS4eF6SZfXhO+X2jvi82uXw816XdAT8y6Zxgnxn5Bc6TNY0G9SVhLtZ7QC297v8ZLtF50R0BAbk/dtOn6Xz8XaTNU2F1R09ucvip3sdRBCday4BR8IVTQluXZpmVib8ge8e9vjFTpuX+j2qEoVHKu0AvBhc3ZjgnDkGbXWJgpopFEpgKU5hPAHbB13e3O/yXL+H7UlS8WgU9457EjOp8dmFJqsaEjRVhPP7cQW83efwcrfDy8MBSYhMDcpUIJmTiXNbh8nqOQkqQn5FjzuStd02z/S6bBkLqExEp6B7yJWcVafziQ6TxfVG6FTmUFbwm702v+p2sX0ZmVSokDDsS25pMbimI0VzAV2hQ1nBLzbneOygR5lGpGqJcgJuWmBww6IUZQVEjbYPeXxvQ47uiYDUMRDUkny3qpnQuKwhwZlzDZbUGZHrwFQogaU4DnSP+Ty9x2bjsM+gLTEgEqkhT8C4lHxsrsFHF5jMrYyHGm8DsGc04OldFhsO+xy2JekIFXOP+ZIb5ye5fqFJTUk8tCv51kGPp3fbvDHsg4yGYSjka466XcnXF5tc2ZakJlOAx9OQxy93WGwZCZAyOl2hgQRPg08vNLmszaQsGf7Atw753L8py4YjgtKIOQ8c8SV/uDLN5fOTBRmIrjvo8tOtFn1T4phfcynzMz3rTI1VNTpXtpu0ViqzUoUSWB9KBrOCR3dYbBrwGHZlpJyaJ31Ja1mcL65Ms7hWDy2sxmzJIztyrO/3GLAlsYiISo5+LZenY3x1ZZqVsxOh157z867kv+nJu5JHyXLCCiQlqRh/eXqahTUJknr4gu7Hd9s8tc9+Z+1RWb4vwdQ1vrQybxRbyLP66C6Lp/Y6DNkychGWCQF/dnqaC5qToYyBp3m52+He7RZjjuR4Ll0cbTSpMTRW1if4+OJU6NmPCiWwFBHFDuDxXRbPdDpMeRJBdDYZIcEHPr88xaXzCvuKfaHb4aHtFqOujJQzt5RgS7i61eBzK9PoBdSI7Rr2+N7GHP2TIlLXXQK2gDV1CT67MlVQUfOUJ/n2m1NsHvTzL70IPbNCQm0qxlfPzBvkFsJ335ritYMerojW2qWEUQHfubCUjhq9IGG5dr/Dv220sL0TZxgrgRhQktC4Yn6S6zpSkahnVSiBpSjgYdfIf70/uMs+oS+aY8mahgSfX52hooDUSM94wI835Ngy4kcmHfa/bbAlMb52Roa2AmbK2b7kiT02P9xu54cUR+zeTekat3aYXN5mFhR52Tbs87evTKKJ6EQq383iWTp/cnZJqI7YacZsyXfXTrHxsB+5Zz6QUJ6K8TfnlBQ0gcAN4IV9Nt/cbFEeP3n3vZBgJjRu6TC5bqH5zvtYoQSWIuLCSgjYPOjxoy059k8IkrFoRayScZidjnHn6gxLavTQ6x/LCZ7ca3PfXgdDRsfXafqBLNU1Lm0x+Nji8GNPvEDScyTgW+tzdI36lCW0SN27cQ1aS2LctiId2stMHo1+/GxLjp/vsimNmKoOJKTjcOm8JLcvTxf0UbB3xOc/12XZEyF/q3ff+7WZGH91dklBEUvHl7zS7fC363O/00D0RK7JETC3LMZnl6dZUZcgFlNCSwksRSSxPEn/RMAju22ePuBSpmmhC6FPFv7RwuP5pTHOa0lyZZsZulZowhb0jPn8y0aLnvGA6oi5chtxWFWtc+0ik0U14cXFpC14eLfDT3ZZVMaic+0h39lZbWqc35jgxqVpSkJukIGE3jGfuzbl2HI4iEzzwvS1cyXMTWncviLDRxrD+3oJCesPOPzTBgvbkZFKTUny7uxn1+vcsTLN7JIC0sGu5PlOm3/YZNFYZM+9L2BCSq5sNLh+oUlDWZxUQsksJbAUkcATsH/Mz9ca9bjEA0lJRL7exdE6o3klMS5oTHDefJPadDhlYPuSQ0d87t1h8/RBj3o9OuJCSMgJydLKOBc0GlzYliITsuQm60p6xny+tznHnrGAsghFbqSE8UBybo3OpQuSnD03Gfpv2L7k9f0u9+6wGLEkZsSGcjvA+bU6n1iRZm4BA4azruT1Xod/3mKREkSqmF3IfAr3wsb8gOXaAsTVhCO5f2uOu3Y7tJrF68Y/5UuCuMZNLQYXtyaZW6krawclsBTFTOeIz/YBj4e7HfomBVUJLTI1J3YAug7XNhuc22zQNiv8l3vPmM/6gx7/udPGlPKY+NycKKxAYhoxrm1McM68JPOrwhcz948HPLPP5tEel1jENlcrkMR1jZuaDS5dmAptFAvQPxHw3F6bX3S7JGS01u8KSOpwXavBRztSoT3NAPonA57f6/C9vTb1cS1SNVdC5g1EP9GW5JpFKcoLqLMcnAp4ZKfNLzodZiWKf9SRlDDqSZpKY9zQmmRJfYL51craQQksRVHyUo/DhS9NcUMmFpn2e0/ASCC5Yk6C69uSNFcnQtcaDeUEG/c7PNXrsvNI3oU9KsJy2jjyvLoENy1MsrA2QSpk1MkNJK/3ODzZ6bDtiCAdi47lhiTvb7S8UueG9iRnzE0WZPT6xn6HZ/Y5vDTkM0vXIlXM7gioMTVuX5zi7GYjtP0EwLZBj4d32rw66FERsXozSX70zVdXpFjTnAydEob8PMWfb7N4fcCLlCM/5COXD2cFL15QwgUtSRRKYCmKMQrg5SfD/69NFi1FXnMkJfS7kqVVcb68LEVjpc6skOlAX8Jb+11+2+2w7nDeMDNKUYspX5IwYnxhUZLTGw3qC0iJ7Bv1eXa3zauDPlNutOptAglTAm5oMbh6oUljeTx00e+YLXl2t8UTvS6jtiAdsc3VFjC/PM7nV6ToqE0U9GH0206bh3Y77J8KIhW1nf7AGPQl/3hWCWfONQr6MOga9fnhxhw7xgKiWM7U40r+ZmWKSxaYqh5LCSxFUb+wfckL+xz+58YczUUqsqZ8SdzQ+PLiFGsaDaoz4SfS7xv1+dUum63DPmOeRNei1R05Hkguakhw6+JUQfUXnswbhj7X5bA/JzEiNvLEFZCIw1dWpTmrqbCozc4Rn4e25Ng4GhCTRM6GYNKXXNxkcOeKdEHPgB3Ao1tzPNnrkvWiZRoLEAjwExr/cn4JTZV6Qce/dcDjJ1ty9EwKoljC1OtK/seqNBcvKMzXT6EEluIkiKzn9tp8Y7NFXRF9EQUyP0vs6maDmxab1JXEQ2+KdiB5cKvFCz0u2SB/20bpteQfrbW5c1mK81sKe6n2jAfctS5L10SAG0RPWLgC2qri/NHpGZoKiFoBPLIzb5Y74shItroPuJI/XJHmho4kegEX8FBW8MDmHGsHvEgZ5r7zgSDAS2j8x0WlBUUup8XVt9dlGbej6es36En++4oUl7WZSlwpgaWImsh6cpfNXTtsSoogbSSAppIYty1NcVqDUdDX6qt9LndtyJHzo3m7SmBpjc6dBXaICeDeTTme63ZwRUTvSwE3tCf5zIp0Qb8/bAl+tinHG4e8/FiSqN0DEiYlfOuCvDO5VmBK7Lvr8gOL4xHcl50A2qvj/NXZJVSmCos77R72+Ns3snhuNMXVVACfX2xydYcSV0pgKSKJE8DDW3P8Yp9zUtzLJfnoSqmucXVbkqvbCxsX0TkWcN+2HOsG/IIKoE+2qNKAWabGNe0mV7eZBf2drrGA763Lsmc8enUm0y+XWakYXzkjw9Kawjqldg17fHd9jt7JvGFu1M6BlNBUnhcWNQXMpxMStg64/N1bOXxXRsrbbPocBBJW1+p8+fQM1enwC/AFvN3n8qdvTDE7oUUyeulJuGVBkhuWpUmq8TmnPKov9BQlGYcrOlIMZQUvH/JO2NeuJF+APsvQOKMhwVULUzSVhnuZCpn39Hl2n809O200SaTE1fQ5KE9orKzV+UyBI37GbcFvux1+vNNGC4icV44v8wJ7ZZ3O51ZnKCvgHEy5ktd6HP5xs0U5RE5ciaP37tmNCT6zKkNJAbWRlid5rdfh/95gURMjkuJKAFc1G9y6Ik1ZAefADSQbDnr8t9enaDKiGfUREs6t17m4zVTi6kOCimCd4gxmBfduzPL6wPGdwycBK4DqpMbSijiXLjRZVR/ezyrrSnYOefx4u82uMZ/KiH2pegLicVheEeeyNpOzmoyC/kbnYY8fb7N5a8ijOmLWA9ODueeVxLihw+SclmToayiBviM+v9xp83CPS31Ci9wsQV/mXelvaDO5pM0s6CNhNCd4aq/Nf+ywaYigsBASzDhcMy/JFQtTVJrh15DzJM/uc/jWlhx1EU2p+dMO9asz1KWVq6gSWIpTR2TlBD/dmOO3B93j0sruCgg0OLM6zvktSdbMNTBD/j+ugH3DHi90O9zb7TJb1yIXtcoG0JyJcVmzwUULklQWYBh5YDxgc7/Lv++0ifkyctYDvgQ9Dhc2JLi63aSlMnyQPOtJdhxy+dZmi5GsoDyC7euOgKVVcW7oMFk1xyioy23/EZ97tlg8d9CjLqLiKh6HOxaaXLkoVdAHXtaTPLzd4kc7bWoiGrnKBZKL5hh8clVaiSslsBSnIsO5fIHwr/e7VB8jp2MhYTKQLCyPc3VrktMajYLqSzpHfbb0u/y802XcElREbEP1RH7MybVzE1w6L8m8mgRhMwB2ANv6HR7anTfMbDSiF7HJBVCX1ri9w+T0ucmCUkEHJgJe7HS4d59DhuilwyBvnnpdS5KPdZg0FdDQ4EvY3O9y11aLvokgciJ7+pkwDI2vr0xxWlOyoPT20FTAE3scHt7nRGpg9TubKzDiSa6Za3D7yjQ1SlwpgaU4dRmxBD/bbPFQl8Ps5AcTWVYgETGNOzvyabD6snjoOq8RW7K22+bFAy5bxwQlsWj6GTWXxflkh8nyhgRlBRQJdY/5vNzp8Hifi+8TySLuQVfy8RaDmzpM5lQU5mu0rs/lV/ts3hr2KYlHr4hZSDjkS/58eYrz55lUFJAOy3qSF/baPLTPYdKVRC0jph19N8wqifO1VSmWzzYK+jv9EwE/25LjlUM+yVj0rCg04JAjuWlekttXpKhOKXGlBJbilGfMEvxsi8UDnQ4NBYgsIaHbkdzcYvCJRSb1ZfGCWo1f73V4sdtlw6iPEERuI/EFDAaST7eb3LgwSUU6vMC0A/jtPpvf9jrsHhcYGpGKWmnkU2ETwJ+vTHHWXKMggXnEkfxmj8WT3S5jroxcp+S0qLB0jX89p4R5s3SSBSjM4ZzgkW0WLxxw8UX0PjY0YMKXtFTE+euPlNBQXljYaWAq4Ecbcrw95EfKRPjd56Hfkdw6P8nty1MF21Eooo/qIvyQUZmKcfvyFBL4ZZdDnTFzkTXmSWpKYvz0/BKaK3XShcwNO+Lz2HaLTYcDJr28j03UxNWYJ5lbHuebZ2YKFpi94wEPbcuxfsjHCaIXtYJ8+mNxtc7XT0vTWKEXlAbqOeLz8y0Wmw/7BIJIjjsZ9SSra3X+2xkZaksLM87sGfO5e1OO7aMBGtEUVyOe5NzZCf7gtDS1BRrwdY36/NvbWfZPiciKq0FXcosSVwpUBOtDy6gluHdzjid63PetefIFZIE/XpHiwtYkqQI6+2xf8uhOm1932rjBf3lERYlA5mutPtVhcnW7WVDLvSfg2X02D+2yyXrRNU0d8yV3dphc15GitAD7BUne0+g7G3LYfjQd2acbG66bZ/CJpSkqzML8rTYd8vjPTTlGcyKSxpnTIvPjrR9MVPQdCfgfr00ybslImqgCHPEkH20xuGNFmiolrpTAUgLrw8thS3Dvxhy/Pejxu/aGNbMTfGpFmtoCDRK3D3l8d2OOQ5Micmah74hMCe0VcT67Kk17dfjArwQOZwV//8YUnaNBZH1whISSpMYfrU5z2pzC6mscX3LXxhy/6nIoi2jbvZRgJDQ+ucjk4vmF+Rr5Ap7vcvjOxhypCNYZvfvZuKbV4MalacoLEdsSusZ8/ua1KWwnuuLKFnDRnAR3rEozS4krhRJYiqGc4J4NOd4Y+C8zUkHeHHFuJsYNS1KsKWAj9QVM2IJ/35DlhT6PWRH0MZoWRpVJjavnJblqYSr0RioBz5e82ufy/7yVozJOJDcQSd7odHVtgluXpWgqK2Dcj4S+8YC/WzvFoaPdcVF8+UigIRPj95amOLOxcJH5o005HtzrRNZ+QALxGFw/L8n1y9IFfTwJCVsHPf7wxUnq9Wi+IyAf3T6rPsGnVqepVd2CCiWwFNMM5gQ/eCvLhsM+UoOFpTHOajK4rC1FOmSwJpBgu4Jnuly+v83ChEhGrTwBqYTGmTVxLm0zWVIb3jTVDST9EwHfXpdj24hPVSKau4croCkT49IWgysWFjbyyPIkr/e5/MO6HKWx6IpMAayp0bl1RZqWAou4B6cCvvFWlu3DPqV6NEWmkFBiaNzaYXJlu1lQ9M0NJNsHff7klUlmRXgmn5CwcpbOF9YoE1GFEliK92DPYZ8Ht1m0VcQ5Z75JY2n4F8WkI9g55PPznTY7x3zK9Gi22k8KyVmzdD7SaHBpm1lQEf64LXih2+GenTZEcMwN5FM/LnBZvc6l7YWJTAn0jwfct93imT6XCj2aM+QCyf/H3n3Hx3XV+f9/3elNxZar3KvkItmyHdsppBIgQBJSCSEkJITAQmghdJbdL3XhB2EpYSGEkgSSkB5IT0hbp7j3IvcmF8m26tx+z/n9MRYLSxbimZGtGX2ej0f+jKy5mpn7vp/zOZ8DIbhsQozzZqSoyqPqFGjY0ubxw+UmB3tKe7l8eCrExVPinJvn+ZpOoHm82eb29TaZEs4kgYYJlSFumJvOq3VASMASA8Te7oDRFcf+VB5o2NTq8cIOhz/u8UhSmrviunzN4ESIC8dFOW1SklF5hEw30Gw86PH4VoeXD/glOdur91qMy4R55/gY50xNkMmj+mb7mtX7XH6/3mZbtyJdon1nPb5mRDrEB6clOH1SfoHC8jWLd7vcvsYi6+mSDNzG0WsxuiLMjXNSNORxFFbv++LxZpu7NthES7j3zFUwrjLEx+akqBsaRQgJWKKodnUELNvt8KddLgctVZIDIn0Nrb7m/Noob5sUp6E2llfV6mCP4sVtNg/vcOl0FBWR0jzeZJ+nOX9UlAvqEkwbHs3rmJe2rOKZLRYPb3dxA0iUaJXikKc5pzbKe+oSzBie3030iKV4arPNw9sc/BIdRWEAh1zN6bVRrpieyDtQHDYVT262+dN2h0BRsrsm7UAzpjLMZ+enmThYKldCApYo6hcMPN1s8XqLx8r2gHSJ9tV0+5pBiRAfmp5g7ugY1Xns/vE1vLbL4bmtDsvaAxJGaV4LJwAVgRvqE5wyPk5NBBfbiAAAIABJREFUnv0kaw56PLLeYtmRgCileS16p7L/S12Cc6ckGJ7nOtaezoB71pi83upj6NK8Fgaw3dZcPj7GVY1JRlbkV4pstxR3rTJ5bq9HzCjNcGUAWV8zuirMVxamGVMt4UpIwBJFtLjF5dlmmzUdAV6J9hcpDaaCM0dFuWxagrGD8jveZW+34r7VWdYdCTjk6JKt1FgBjK4IcX1jklkjY3mdAegqeGi9yYs7XfbbuiSXiSG3wYEIfLwhyanjcnPf8rH2oMevV5jsyCqiRukuhbW4mk/PSPDWKYm8Z1wdMhW/W23yUotXkgNE/+dzoqmtDPNvJ+c/qV5IwBLi7+zsDLhvtcmm9oBOr3Tn1fgawmGDG2YlOWd8HCPPPpCnt9r8cZNNq6P/8nRbkjeNo/N7rpuToioRyut1HMwqfrk8y9qjE9lLdenHVTAkaXDj3BSz8zxHD+DxrQ53rzGxFSX7OQFo9TQ31Ce4cHqSdJ7jJNqyim8u6mZfjyrpz4l9NFz968kZRkm4EhKwRDGYnuaZrTaPbnFKdvp4L0fB/NooNy1Ik8yzR2pPV8Bdq8xcmCjhy9E7Tf9Ds5K8fXIi75+zaI/Lbcuz2EFpv8+VhhmDwnx0QYaReS4J2r7mVytNnt/llnSw0oAy4PoZCd5Rl8w7FLVbis+90E27qUr6engKaitCfGFBmrGDZFlQvDnyThH/PFB0+Dy3y6XL1SU7v8gABiVCfHBWipNH59eg6yt4cYfNL9fa+H7pVvCOThxg6uAwHz8p/zDhKbhjZZYnd7qU8vN87xDVhSOj3HBSJq85X395GPE1Ld0BESM3M6tUM0UqkptxdV5d/sF782Gf/1icpbPEw1Wgc7sFb5wn4UocG6lgiTdlY5vH7StMdnWXznlpvYMhqyIGp46OcmmeR3kEGg52B9y/3uKRXS5DSnjitKehJmpw7qQ4F01P5j19e0e7z+0rTNYcCUp2/ELv37YmbnDe5DgXTUsW5We6Ch7eYPHsNofDni6pXYOBhqEJg/fPTPKW8fG8f86mNp+bX+omQekuF/e+18dVhLh+ToppMopBSMASfWV9q8evV5rs7lH9/sk80BAKwazBYS6sT+Y9s6fdUqzZ7/HdVSba0yU5eqH3eigDGqrCXDErxfSh+T2JZ13N0r0uv15nccRWpMKle8yLpWDe4DAXN6RoHFb8ysSGNp97V5us7QwwNPT3t46joL4qzCXTE8zP8wggT+Vm4n3j1R60Lt0KXu97ZGwmxHVNqbyG7AohAUsck42tHj9cmuWIpfvlk6kGzEAzoSLMeeNjnDw+ntep9m4Au9s97t/k8MRel+ERo3Rn9igYHDc4d2yMd9YnGJTnVsfdnQHPb7X53XaXCkpz9yjklnodA84fE+XimfkdYv6mA7qteLrZ5s+7XQ7a/XeXaXcAc2rCXD83zYTq/EqSnoLnt9ncutoiRulXrgYnDT5zUpppEq6EBCxxvCxvcfnOUhP8/hWyPAVZDVdOinHK2BhT8yzp7+sOWLzT4f4dLp2WIh0p7SrNrMFhLqpL0Fgby/t4lsW7HR7a4vDqQZ+R8dK9c5qBZlA8xOVT4rx1SiLvEQzHFOg0rN3ncv8mm1WHfdL9aBiv1nDA03xwcpxzpyYYm+fuODuA57fa/H6DhR2U9s5JpYGIwZdOSjF3VAwhJGCJ42rVPpcvv54l2U+2oR90NY01Ya6dnmTq8GheR7sEGla1uDyx1eaVg7kbYaneKAINHYHmfZPjXFCXYFgmvxtnq6l4eYvNPdsdPE+TDJfm4cQAPYFmckWYDzQkmVMbI3ycq0mtPQFPb3O4c5NNZT94bykN3cD7JsR4z4wk1XmW17Ku5tGNFo/tcLF9TaTEG9qtEHx7YZrZtRKuhAQscYKsO+DxmVd6qDxBE6qNo0/OB5Tm8zOTnDYuxvA8p0zv7Qp4drPNy/s8OlxdkseZ9F4TM9CkkyFunp1i2vBo3vOLVh3weGyjxeJDuen0RgnfOE0FJw+PcM2sFLWV4bwrry/scKiMG8zN8+Zr+Zr1Bzy+v9Ika+V62E7EF7DScETBzY0JzpiUIJ3nG97xNXeuMnlsp0sESn63YJcBPzw1w8wRsiwoJGCJE/wEvKnV49OLeqg4ziFLA22uZv6wCB9vSlFbFSaaxy+ggFd3OTywwabFVGhd2r0jBxzNO8bFuHFuikw8lNdrcQJ4qtniqR0OrZYu6ZsmgBnA+ZNiXDkzRUUBy5s/X9LDa/t9khE4b2Kcd9Ql85pWrzT0OIqfLjd5apfLiOO85BpoMMJw/YwkZ0+KE8vzD9ztan65PMuiFo8wpR3AAw3dBvznaRnqh0VL+jtASMASZUKTq2R9+dUe4sdpgnegIRyGK+sTnDMxkfdNs8NW3LXa5OW9Xu7DUMJ/h0CDbcDNc1KcOjaW903zQI/i7jUmSw94+CW+Cwygy9d8cWGGM8flv9zT4Wh+uKibTZ0Bvd+WGpg3LMI1TWlG5DlHzA00r+x2+f4Kk8RxekBRGuIRgw83JjlzYv5jGLKe5qsvdrOnMyj5MKI0OCH49im5ypVkKyEBS/Qry1tcvrfUJOjjxncDmFwd5urZKepq8t9av2i3y/eXZonq0n7yhlwT9aiKEDfNTzMhz0GImlw18pZlJoezKq+zCPtV8NeQSRj822kVjK/Of1BX82Gfny7OcsD6+9EkvoKadIib5qWoH5b/jXlHu88tS7K0dKs+71+qjBlc35Ri4ej8A6fpaT7/fBf7u1XJVzeVhnDE4PPS0C4kYIn+7LVdDj9fbZH1NMW8P/e+QYfEDc6dGOfi6fkNhFQaelzFLUuyvL7PozJS2ncHDcRC8O6JcS6Ynsy7jybral7Y4fDtFSa1UaPkt9eHDJhWE+HmUzJUxPJ/MYt2Oty6ysL9B1P7lYZ9nubLc1KcNSGed79b1tP8cYPF4zscnKD4lUMNjEwYfGRBhhlD8n8w2dke8O+vdNNj69KvXAHpqMFHZyU5eVwcISRgiX7tv3c4/HadRadbnJDlKKiOGTQNiXDhjGTeM3psT/PaXpefrjJRfunOcOq9WQYaplaFuWBqnFPyvDn4CjrMgB8tN3mxxaM2Xro7BCFXyctEDN45KcalM1J5V+EsT/PnrTa3rLMZbPzzZW8D2OdozhwV5VNzU1Snwnn/20v2uDy4yWZbV4BBcYKWrWDO4DA3LMhQm+dypga2H/H51qIeutzyCFdVMYMPzkzylgkSroQELFEiXt7h8Ou1Fj0FfBH7Ghxg/qAwp0+Ic8bEeF6BzVewp9PnoQ02T+11qQqXdoXGUxCNwFtro5w3PcWYivxumIGGV3c6/GC1ReCeuN1sxQqcroZx6RCXT0tw8rh43ktXB3sUTzdb/LjZYeIx9Pb17t4Mx0J8bnaSxtpY3tWzPV2KZzdbPL3HxS3gYUBrsIGzhkf44LwMg5NG3p/Ftfs9fr4iS5td2mMYIFd1zMQMrmtIcrqEKyEBS5SaV3c5/HiVReDrY3oK10A20IxKh3nH2CinT0wwNM9J2+2WYtlel3ubHfabAZkSbxg54mnm1ES4cHKcuWPjBR1KbAea/1qc5Yk9LoNK+I6pyZ39t3B4hIumJagbmn8vVHObx/0bbZ7f5zEkz+VWpcHU8J4JMc6fmmBkZf6DO5fvdnh0q8OKwz6Dj/H3CTR0Krh2aowLZ6Tymgv3lyC+y+GXq3NV6XgZ9OaFowafnJ3Mu/IrhAQsccIt2+ty86Iehr3JL3dfQ6fSvLM2yjumJKgfFs27ErGixeWF7Q7PH/SJ6dJeEvQVHFaaD0yMc87keN6N7H8XQG3NC1ttfrzBZkio9MZTaKAr0Fw5JcE7p+YfxCFXzbtro82OrqDg3jwNWAE0DA5zWX2CxlGxvKs+O9p9/rzV4a7tDjUh400tPXoKYlGDyyfHeGddMu9p9b6CF7bb/GGjTZtd+uEKoEfD1xemmTdaGtqFBCxR4p7dbPOvy03G/pPlkh5fU5MIcX1Dktm1UarynCrd4WiebbZ4ZrfLnqyiImKU9LbrTk8zJB3iozOTzKqNUVnkmUm2r1nV4vK5JSZDKJ0g6ivo1vD1BSkaa2N5N/hbPjyx0eS+bS6up4v6+h0Fg2MG75gQ47y6BJV5JpQuR7N6n8vP11kcyiqq/sFrdRXoMHyyMcnpExN5v55AwYPrTR7Z5mJ6Ou8jlvqT3a7mmyeleOvkhHwxCwlYovS5gWbRDpcvLM0y4Q1CltZw2NdcNinOxfUJhmTCeVetXt7p8OetDms7Awxd2lOlNXDI07x9VJQrZiYZWx3pswqT0rClzePbS00O9QRkIv23H8sgt4RckwnzjZPTjC7gurR0Kx5eZ/LSfg9U34zrCI6OAZldE+aymSnq8tzBpzTs7vC5d53F0y25Jcz//et6CkakQlzflGL2iGhBRwHducrkkW1OyX+Oeu1wNd89Kc1pE/KfESeEBCzRL0PWf+9w+Noyk1FHn757j7khYvDVBWlmj4jkNYkd4LCtuWdVlmUHfbq90p88HmhwgeumJzhvaoLEceqR2t0RcNtKk6WtHlX9tC/rsKs5c3SUT89PU1HAmtXGNo87Vll/2a3X12FZ6dxu2CtmJjm3gAGftq95crPNrzfYxPif8BNoyEQNPrMgzewCjnlxFfzotR6WHCj94bt/CdKe5uvzUrxlQlzClZCAJcoxZMEL22x+sMqiKgwdnubiyXE+1JQiGs5/GW9pi8tdayz2m6osbgaaXBXi2qYUc07AeWjttubuVVme2eP1q54bDWQV3DAzyXlT4sQLCICv73H4+SqLrKOP+5BZpaFpRISbFmZIFvAaVhzw+M1KkwNH3/fDkyG+ekYFwwvoQ/MUfO3FLra2B2UzzbwjgM/OTnLWpASxMEJIwBJlGrIUPLXR4sk9Lp+el857uQTgsKn4w1qLP+1yyYRL/0m7d2jo7GFRrpuTpiaZ/y42pTThkJF3eMh6mgfXWzy908EL+sG10VCRMLiuIcXJY2N5VyhtX/PCNoefrLVIc+Im+AcaqhIGn1uYYVoBnwEr0Nz6epZdnUHB4coONN98uZvmw0HJn2zQ+3nyNXxoeoK31SfLoodMSMAS4h+HrAAiYfIeQmr7mi2HfL69NEunqciUwTT2QMOohMEF0wtbPvIDzeNbbH60xuZHp2eYNixa0JE3j2yw+ONW54QNltRH/5sxOMz7G1NMLeBopHZL8Yf1Fvdvc6jpB+8ZrcHS8OGGBO+akiBSwNKVryloNlVLV8B3FvWwz1QlP+Oq930TNuC9UxO8e3qypHcQCwlYQvQ5paG1O+DRzQ6/2mwzJmaUfK+Vq3JHdTTVhLmqgEODlYYD3QF3rjZ5cb9HRdjggKu5uSnF2yfHC+rhemmHw2ObbTZ1KpLh4/v3xoC3jo7ynpkpRhRQndnfFfCfy7IsPegzJNZ/3jQa6A40Z46McvWsFCMqwsc1yGpgV3vAL5Zl2dgRlEWVpzdcXTYlzgUzUhKuhAQsIf5h9cFWNB/0+NEai8NZRXW09KtW3YFmcibM+ZPjnDEpTiLPtGj7muV7Xe7eaLOj+2+HqWYDzaWT41wyPUllIv87zbb2gPvWmLx4IHd+Y19ffVdBMmZw9dQ4p09Jks6zcOUpaG71uGWFSWt3QLqf7o7sCTQTKsJcOS3B3NGx47KpQWlYd8DjN6tNtnYrkmUSRHzgqqkJzp8hlSshAUuI/1OgYWubx9PbHR7f7ZEJURY7BB3g3Noo501JMGVoJO/Asr9b8fxWi7u3u0QCiIf/Psi5Cs4aFeWKhiQjKvIvQbWaikfWWTy02yVN3/0dOj1NQ02E909L0FTAMMgeT7Nou8NvNtm4ru73N1snAD8MV06McfbkJCMr+vYXXrHP4/ZVJju7g5JfZu/VFcDHZiY4r17ClZCAJcT/qd1WvLTV4bGdDgdMTbIMGtldBbGIwZV1cc6eFM978CTkdk8+2WzzyqGAin8whV0DpoK5R/uY6obm38fU5WgW7bD5xQYbI6CoS0paQ6uvuWhcjIunJRhbnf/vebAn4IlNNn/a5RLSpTOhXmnoVnDqkDDn1SU4aVTfTBv/8zabh5sddvQEpMtkbMF+T/OVphRnT0lIQ7uQgCXEG95kgNX7PZ7ZYrOkzUcX2MDbX2QDzcSqMJ+al2ZMdZh4njc2R8FDa0xe2Ouyz8wd0vxm2Cp3GPK1s1PMqc1//IOvYOkeh1tXW3TZuqDzEP/6Z2YNuHFGgtPGxxlUwHrVlsM+962zWN7mEzZKM5SbgaY2FeKs0TEubkwVdVzGwxss7ttsY3mUTRBp9TRfnZvi9IkyikFIwBLijW8snuaBdSbP7/bo9nI718rh+Xqfq7muPsH7ZiRJFtBkvflIwANrTFYe8dHq2CszvoZMBK5uTPHWAnYramBDq89/Lc+yq7uw5nc70MTjIT4/N8WskdG8B0Eqcmdf/n6dxd4eVfLvHaXBCMHsQWEum5Vm6uDCk8Mf1lk8uNlGqdI7d/INb17APkdzTX2C9zcmC5orJkRfiMglEP2Jqw12mYqhsdL/svQUBGG47ZxK6oZECjq65NltNg9utDniaAzym+EUMcAM4BcrTXZ3BlzXlMr7xjZjWIR/O6OCH7/Ww/r2IK8qoxnk+q0+MjfN+OpwQdf5mS02d623CMrkaJeQkavsHQlgXFVh4UoB31/UzcrWXEU4VCY55JCr+UBdgvfOkHAl+ulDgFSwRH/S5WjuXmPypx1OSfeH2AGcPjrKtU0pagpY8upxNX9YY/LELpdirn64Cs4aF+OGOamCbk5ZX3Pr4h6WH/CPaYeeAk4bEeXquWkGJ/L/9x1fc/tKk8e3O2XTrA25auNJI6N8ZmE67x2mkNtUccur3Sw94JfV90Q20Jw/Ic6VjamiH4AuhAQsUbbabc09q02e3eMSKaGlnt4PUiJs8MGGJGdOjBdUTdl22Ocny7Nsbu+bnV6eggnVYb5+RgWZAiqGCvjtyizP7XRxg39cIdFAKmLwjvEx3jcrlf+11nDYUnzrtR62HPJJlUm4UkcPhz5rbIyPnZQu+GHl9uVZXt3vUS59370T2s8dk3v/DEpIuBISsIQ4Jodtzb2rsryw18MogZClNIRD0FAT4YqZSSYXMHU862qW7nX5wWqTkE+fngkYaBiRDvHZBWkmDi6sY+CxzTaPNtu02voNf2dP5xrtz69LcE4hE+sVbGz1+N6yLN2WLptmbU9BKgIXT01w8YxkQe/5gz2K25dleaXV+5vZaKUerrSGs0ZHuWJ2mhoJV0IClhB5hixLc+/qLH/e6/XrnYSegiFJg/PGxzl7SoLqApYsWjoDntpqc9tmhzFR47j0y7gKRqVCfGRuihnDowVV3VYe8Lh/jcnyjoCqoz9IaTA1nDMiwgUzUkwpoGHb9jWLdrr8dLVJuEz6rSC3O3RkwuCKmUlOHx/P+++ugT0dAfevNXlmn0dVmS2bnjM6yhWz8j+rUwgJWEL8dchak+XJXe6bHklw3J6oNbT7mtOGR7ioPsGskfnPLXIVrNrr8NsNNs3tAUNix3fquB3AkITBB2YmOXVcLO/dfAD7ugIeWGvy+D6fmNZEowaXT4jzjvok1QVUHdotxdNbHe5ptolSPs3aZgCTK0J8cFaKWbXRgipXG9t8frXKZN0Rn8oyCldmoDlvXIwrGiVcCQlYQhRNu625d43Jg9sdaqIn/rgT42ggURG4bkqc+ePijKrMvyrT0hXw6g6HO7c6RBQnbAq1q3IHcX+gPsG5UxKkCjiSqMNWPLzeYtkhn/dOSXDy+HhBr2tXh88D621e3u+VVbhyNdRXh7m2MUndsGhBP2tDm8/tK7Ks7wjKpnJlAIc9zSUT41zRKD1XQgKWEEXX6WjuXWvyu80OtfETG7IOOJo5QyJcMzPB9OGxvzui5lis2u/yx002i9sCUv1gWr2vcyHrzNoo18xJky4gZHU7ii5HM7LAQ4xX7/e4Z53J+g5FIlQes9EArACmDQ7zmQVpRlYUtkf0uW02T2xxaO7KnUdZDl/qvXOurpoa54qGFFWyW1BIwBKib3Q7mnvXWdzRbDPqBIQspaEt0Fxfl+Btk+MMy4TzvtlbPjy72eKxbQ6HHN2vesyUBhdYODTCdXPTjMicuC7yJ7c4PLTRotXRfdrsf7w5AZw2Osq/zE2RKfCFPb7Z5vcbbCxPl80ZfAbQ4miuqUtwxcwkFRKuhAQsIY5PyPrDFpvB0eP3pesoiEYNbmpKMm90YT1Ke7sC7lptsrrNx+/HU7UDnWt+/8wpGSZUH98zSCxfc+cqkxd2u3iqfJrZDaDD05w5NsbnFqaJFPjHf3STxf2bHJxAU04R5Iinee8UCVdCApYQx1VbT8C3XsuyoyM4LlUNT8P8YRGuaUpTW5H/P6jJLXf9ZEWWTkuXTB9RPASfWphh3sjocfn32m3Ftxb1sKszoNxurUc8zafnpnnn5HjBf//blmZ5Ya9LoMrrGjlH57N95eQ0QzNyuKCQgCXEcdXSFfDDxVm2dwZ9uryWjBi8fUKMS2emCpq35AWaezfY/HqdVZLHABkGXD0zybumJvr032k+7PONRT04ns7rOKD+SpPbRHD9rCTvmpIoKFwFGn63KsuftruEyuxz7WuYWJXrSytk44gQErCEKMDOdp+fLzfZ0hEUdQlJayAE41Mh3jc7zZwR+Q/gDFRuvMC/LupmV0dARaQ0G5D10ZB1eV2Cd9clSBQ51SoNL+x0uHW5SdigrCpXvs5Nr//s/DRNtYVVAY9YigfWWzyxyyVKeV2nQMOU6jAfnZti/CA5JldIwBLihNp2xOdXK02a24sTsmwFg2IGZ42OcuGMwraFW55m8V6X7y03SWiIlHi5QWvoUvD+yTEunJ6kMh4qSpWp29E8usnigS0OEcpnBAPkxjBMzIS4pjFFY4Ezro5YivvXmNy7w2VotLwWTwMNdYPCfKgpxaTBEq6EBCwh+kfIOuxz+0qT5o78lwuVhh4FJw0Oc+6kOKdPiBf0O7V0BbmjY7a7pELlExqUht2+5osNSd5dnyRW4CpOW1bx4DqTh3Z5VJbRdepdEpx+NDQUcnRS7/vpyU02d253GFFm4crXUFcd5vqmFJNqJFwJCVhC9Cs72n1+tiy3XHisvVJ2AJEIvGd8jLMnJxhdQO+Hp2Bli8vDzTZrjvSP2VbFrDJ4wNtGR7mgPsGY6khBr21Tm8+D60yeO+iXXUXGVbBgRISrGpKMqY4U+N4O+NXKLK+3+QyOlN91mlId5mPzUkyQZUEhAUuI/mlvZ8D3l2TZ1u6TfJPrhV2+ZkplmPdNT9A0KkaygBtYl6N5fJPFEztd2h3V7472KbTKgAHXzUjylvExqhKFrXc+t9XmT1scNnYFDIqUx2DMv35PvW1MjGtmp6hJFXadNh7yuWuVyfLDflmdKwhgBZpJgyLcPD/N6CppaBcSsITo1w52B3zz9Sw7jvik/8GNO7ckqHnb6Bjvb0gyNFPYtPH1rT6PbjB5/VBAlPKZ2wTgK8jEDW4+Kc204dGChlkq4K4VWZ7c7WF7uqCdmf3RAVfz8YYk502JU1ngDJGXdjg83GyzrUuRLKP8YQBZXzNhcISvLkwzvELClZCAJURJOJQN+PdXsuxs90m9wVN/oMEIwbUNKc6dWNjQ0EDDY80Wj29xaLXLLzBYgWZ8dYSvnZphSDpU0JJgu6352WvdrDgSENKU1RgGgDZf87mmFG+dFC/oPQXw/HaH36+z6HB1WYV1ANPXjB8U4d9PTTMkLeFKSMASorRudj0B33gtF7ISf3WHchSMqAjxhQW56eSF3OTbTMVty7Osa/PxNWU3FLPd07xzQowb56WJFniXX3/I5xeLe9hv67K7TlrDQV9zy1syzB4ZK3i36OObbR7YZJP1yu+r2Q5y4epfZYiokIAlROna3x3wvdez7OwIiIbADDSX1SW4Zlaq4J/9eovHHatMDtuq7K6bJjde4BNzUpw9ofCJ489utblrvY3tl99XTaAhHTf45JwUTbWxgqpNGnhkvcU9zTaU4beyp2B8dZjPLyz8cGshJGAJcYI1t3r8x+IssRB8uCnNvAIHPTqB5tGNNn9otstumUsf/W94KsSHZ6eYNbKwuU2egkfWm9zZ7JAwyq/CpzRUJw0+vyDN1CGFva98Bc9usfivdTZxyvNapeIGX12QZuqwKEJIwBKiDGxrD6hKGAxJFnaO4J6OgLvXmDy3z2NQ1Cirm6A6uktwwfAI72tMFTSqAuCQqXhoncXvtzsML7MRDJpc5WraoDDXzi58xlW3o3lso8Uvmx1qwuXXmxZoqEkafGRWirmjY/KFJCRgCSFyLE+z7oDLT1ZZtJqKykj5DXpMheH8iXHeXp+kOl7Y69t8yOfudRZ/3udRGy+vEQz6aBhdOCLCe2cmGVtdnHD1o402Y2NG2X121NFwdX1jipPGSLgSErCEEEft7gx4ebvDr7Y6VENBIwr6I0dBbTrEB6YlWDAhTiF1Kw2s2ONyyyqTw6aiKlJ+4coM4MIJMS6emSyoIgpwoEfx3GaLnzU7jC7TcFURN/h4U4p5UrkSErCEEL2W7s1NZF92yKcqbJTd0k2np1k4IsrVDcmCjygxPc2LW21+sckm5JdfEAXoDOCGaQnOmZoouMq3t1vx2xVZnt7nURszyq6nPdAQjRp86aQUs2olXAkJWEIIoNPVPLPR4k+7XDpsTaLMNjwpDYd8zVVTElxQF2dYgdvl93Yrntxo8ehulwTldVhz7/Xa42m+c1KaUybEC34/bGzzuG+dxZI2n0y4PMOVFzb47qlppklDu5CAJYQAWN/q8aeNNovbfMJlGBY8BW4YPjc7t2yTKXBpau3BXFhY357/Qdv9PSxYIfjGgjSNI2MFV+aW7HW5d53Fjm5VllW+QIEZhh+fXsGUIXK2oJCAJQFLDHiugue22Pxxq80hS5ddsILcVPbqVJgP0J0gAAAgAElEQVSvLEgxuSZa8EDMl3Y43LvBos3WlGFWwFPQE4Kfnp5hypBowe+JZS0uv1ltcdBSZXm9Ag1WGH5yegUTayIY8rUiBjh5xBAD3hFLcd86iz/vdjGgLMNVj685rTbG9XNSDEsXdnt3Anhik8W9m22UoizDgqtgTGWILy3MUFuEg4hf2uHw67UWpleeYVRpUBGD/zw1LeFKCAlYQuTs6fB5aZ+HLsPz8SC3++29U+Jc0pAiU+BMqiOW4p61Fk/tckmGKMsbqdIwqSrMJ09KFRyuNLBoh8MPV5pEVHmGd6UhHjP40vw0U4dKz5UQvWSJUAhgRYvLz1aadNjlszyoNAxOGFwyNcHbpyYKDgoHuwJ+sDTLmjafqmj5JYXeAaJvGRnlA3NSBY9h8BQs3+Pw78tMMro8w1WgoSpucOOcFHNGyW5BISRgCfEGXt3l8IvVFlm39EOWp2FGdZjLZiaZNaKwqoKnYOshjy+/lsV3FKky3Pl2dJA954yOclFDimGpwsKV5Wme22Lz5ZUW9XGjLCujSkMsDDc0JDlzckK+QIT4X2SJUIijThoTp8NU3LXJxlelufwVaLA0XDQuxjvqE4wp8MibLkezdI/DN1dYDA5BsgzDldIQGPDeSXEubkwRK7BJqsfVPL/V5lurLaYlyrMbSQORMHxgWoLTJkm4EuKNSAVLiL/ia/jzZpv/WmsRLaEDig1yuwQT8RAfnBrnjMkJ0gUu47VmAx7ZaPPQdpeKUHn2pwUa/BB8ujHJKRMSxAvsZ28zFU9stPjNFodh0fINV56Gf2lIcs7URFmO5xBCApYQfRSyXtpm850VJoPD/f/uYQBtrmbGoDDXNSSZNSpW8E61LYd8Htxo8eoBn3iZNrM7ARA1+Mq8JPPHxAv+eQezirtWmjzT4lJdxqnjSKD50pwUZ0yScCWEBCwhjjVkqVxP1hcXZxndzysRB1zNpeNjXDgtwbgCDx8ONCzb63LfRovtXYpyLMIYQNbXDKsI86WTUkweGi04QDYf8nlwvcXSVr8sB4j22utp/mNBmlPGxQueoyaEBCwhBnDIWrzb4abXsozrh4fxKg3dGq6ZGufd9UkqCzwfzwngmc02D22x6XI14TINV52+ZnJ1mJvnpxk/qPA21A2tHr9dZbKtS5XlNeu1y9XccnKaBWMlXAkhAUuIIoSs13c7fOn1LCP7UTlH6VyT8Ycbk5xThCZj09P8ZqXJ87tdQgZlOyiyy9ecWRvlg01pRmQKTwlbDvn8bHmW3d3lHa72e5rvLEyzUMKVEBKwhChmyFq0w+G7K0wy/aQfqTYd4sNz08wYWngFpi2r+I/Xe9h2JCh4B12//jtqOGNUlPfPSjEkVfgLXbnP5dtLTLRfnkcrQa6hvUfBF+akOG2ChCshJGAJ0Qch64WtNr9Ya2FwYkKWBsIGTB8U4eMnZ6gpcASA0rCxzefbS3qwLF3WN0/DgLNHRbl6boZkgZlUadhw0OMLr/aQLNPp7L3vNw18pCHJWZMTEq6EOEYyB0uIN/NBCcFZUxL4SnPXRhs3OL43Vk9BZczg3PExrpyVKniXoONrFu12+d4yk4oQZXvz1BpiEYPzJ8a4YHqq4HDlBbBqv8vXlmRJlXG4UkAslJtzddYU2S0ohAQsIfryw2LAuXVJlIZ7mx3sQB+XSlY2gCkVIS6qT3DGhMLHCXTZigc2WNyz2WFQtHzvnL6GdMzg4klxLpqRLPjnuQr+e4fN55aYTIqV53R2yFWtYgZcVZ/g3LqkhCshJGAJcXxC1jumJel0Nfdtdvq0Z0lp6NFw7sgI509LMnVI4R/XPR0Bd64xee2AX7bhygCygaYmGeIjjUlOGVd4KO12Na/scPjOSpPJ8fJOHK6CCybHefu0JGH5yAshAUuI4yUMvKs+ie3DfVttKvvgEd9ToEPwvkkx3l2XpKbApmwFrN/vcfc6i/UdAakyvXMawBFPM3dohPdNTzBrZOEHEB+xNX9cb3L/dpfh0fIOV12+5vLJCS6YLuFKiIK/j6TJXYj89LiaB9Zb/HaTzfBY8c7osxVUxQw+1JhkwegYyQJv6p6CF7bbPLTJpsXSJMu038oA9juac2qjXDMrxfhBhUeEdltz72qTp3a7xELlO77CAA66mg/WJ7h0RpJMTNYFhZCAJcQJZHqaBzZY3LbeZlS88JDlKhhbEeIT89JMrIkUPFupx9U8sM7kmV0epq/LegzDYV9z0bgYl85IMqKi8HC1s93n3rUWy9v8v4SQcg1XLY7mhhkJLp2eJBWVcCVEMcgSoRAFSEUNLpuea6D+5Xqb2gJClh3A7GERbj45U/BUdoBDluI/X+uhuT3I7aYr43DV7msuGxfjitkpqhOFv9C9nQG3rTDZ1B4QNso7XO07Gq4um54suFoqhPirz5dUsIQonOVp7ltvcecmm5o8blI9vuaqGUmunJksyu+z6bDPdxb1YPqacr9lKgMumRTn8sZUUaap7+zw+flyk+YjQVmfKwhw2NNcXZ/g8hkSroSQgCVEP5X1NPettXhwq03qTd7pNbkZVJ88Kc3Jo2NF+T2e2e5w63KT+AAYDBkJwdvHxbhmTrrgn6WBnUd8PvtyD/i67McTmIHmkskJLm9IkpZwJUTxv5/kEghRHOmowaUzkyiteXyH+w+XlnqfaiZWhbm+KcWUmsI/illP84d1Fn/c6pR9uFI6d72vmJ7gvCmFn8UYaNjb4fOJl3qIB7qszxXUR1/vRZPiXDpTwpUQErCEKAEVMYNLZ6ZAw5O7XODvQ5avIRqCs0bHuKwhSU0RtvUd7Am4Y5XJy/v9st0l2MtRMCET4rwpcd4+uTjhaukel++uMIn7mnAZX7/e42/eNT7GpTNTVMhuQSEkYAlRKqriBpc0pNDAkzvdv6mGOAqGxg0unprgzMlxUpEinCfY6vG7NRYrj/h9MpOrP+kJoL4qxA1z09QXYfBqoOHVnQ7/b2mW6pBBqMzDaaBz4eqShhRVcQlXQvQl6cESoo90OprfrzZ5brdLxMjNt6qrCnH1zCQza2MFN58rDS/vcPj9Rpu9PQEVZR6u2jzNRWNjvLM+weTBhYerLlezZJfDT1dbRMt4p+Bfh6t3jo9xqYQrIY4LqWAJ0Ueq4gZXzkqxtydg0UGfC8bGeH9DkpGVhc9ochU8us7kvm0Ork9ZhysNHPI1F4+LcUVjiqHpwstM3a7m0fUWj2x3BkS4sgOYOSTM5Y2yLCjE8SIVLCH62KFswMZWn4aR0aLMaDpsKX63PMszB3ySQKicG7I1dGq4dkqcd9UnqCzC9et0NA+tM3lyp4vS5X39AExfM21IhC8uzFCTDskHUggJWEKUD1/lRgoUal2bz53LszR3q7LfKag1OMB7p8S5ZEaSRBGqdIeyil+tzLL8oD9gwlXdkAhfOyVDVVLClRASsIQQf+exZptHmm06XF32wUADhgHvn57gwvriDF/ttBU/XJxldatPJFT+y4JWoKmrifC1UzNFqfwJISRgCVF2YeO3K7I8tdNloHxaoyG4blaKcybGi/LzDvYEfPf1LDvay386O+R2q9bVhPnSyRkGSeVKiBNCmtyF6MfabcUdy02e2+eRGgD3SQ2kwwafWJhm7oho0cLVjc93Ezh6QIQrT8PMmjCfnp+WcCWEBCwhxP+27YjPr1eaLG3zqR4A07YdBXWVIa4r0owrpeFAd8CnX+xGObooPXD9na+hsSbMR+amGZoJy4dICAlYQohegYZVLS7/3wqTbksxKGpQziuDGnA1NA4O87EFGUZmQkX5mSv3uXxjcZawoqyns/91uJo1JMx1TWlqKyVcCXGiSQ+WEP1I1tO8st3mG6tthhqUfdVFaehUcNmEKBdOSzG8SOFq6R6XHyzLEgTlv1OwN1w11IS5vinNmGoJV0L0B1LBEqKf2NMV8MJWm581O4yJGhhlHgwCDaEwfGBSjPdMT1JZhLkTpq9ZvNPhjvU2fkBZH9rcy1UwoybMDXPTjJLKlRASsIQQf+uxrQ4PbXEYOwAmbQcaPOC6qQneUZcoyowrO9A83Wxzd7NNoCAyAMKVp6C+Jsyn5qcZJj1XQvQrssVEiH7i8roEyXiIQJX361QaYmH41JwU76ovVriCRzfY/KHZRg2QcBUo0FGDG+dJuBKiP5IeLCH6kT2dAR9/oZuop8uyMVsf/e+m+WlOGRMrys+0PM1/Lcvy+j5vQExn7w1XXtTg1rMqGFMl4UoICVhCiH8aQPZ0+HzmpR7wdNn1EMUjBl89LUNdTXG6E7xA8/3Xsyze5xEbIPX4QANRgx+ekWFMdQQ5ulkICVhCiDdp+xGfr73Sg+WUR8jSQDpq8M0zKxldWZwk1OkovvpyD3s7BsZ09t5wlYwbfP3UDBMHSwutEBKwhBDHbFObxy1LTA5bqmRDliY3WXz64DD/enoFySI1R7Vbis++0E1HVg2IAaK94aomGeKm+Snqh0blAyKEBCwhRL7WHfD4+UqTfVlVco3bSoMRgvnDInx0foaKIuyO1MDB7oD/90oPrT1qQIxhgNycq9p0iI82pZg5QsKVEBKwhBAFW7Pf5bZVFvuzpRMofA0+cOmkGFc0pogV6Rdfd8DjPxZnMV09oCpXI9MhbpidpHFkTD4QQkjAEkIUy9oDHj9ZXhrLha6CQXGD90yOc+6UBKkinKOogNX7XH650mS/pYkOkMpV77LgJ+amaJDKlRASsIQQxbep1eNbi7OY/bjx3deQihpcOzPJGRPjRVnWdBW8utPhng0WBy09oHYLpuIGX1mQpn6YhCshJGAJIfrMtsM+n1/UA27/m5MVaKiKGdy0IE3d0GhRdvYFGv68zeGOtRY9viY+UMKVAmIG3zstw6Qa2S0ohAQsIUSf293hc+OLPcR83W+GagYakjGDr52SYeqQ4gQCpeGB9RaPbrGxgoExnb33dQcRgx+dmWFstYQrISRgCSGOi95hpNc9280ggxN+KLSvoCYT4vtnV1AZDxVt8OVPlmR5abeLYTCghmnu8TS/OaeCuqFRGSIqRAmTswiFKLWnImBUVYRvL0zTpXKB60SGq/GDwtxyTiVVRQxXP1zcw593uYQGULjSQGcAPzo1w5QhEq6EKPnvaqlgCVGaAg2v73K4ZbmJcZzP4NPklrIWjorymQWZoo1MyHqaL73QxZ5ONWCms3P0WmoDbpqbYuG4+ICZ7yWEBCwhRL8NWYt2ONy2xsL2j8/uwkBDNATvmhjnvQ3Jos246nQU31rUw7b2YEAFjEBDImJwQ2OS0yZIuBKiXEgHpRAlLGzAaRPjBEpzx3qbnj4+INrXkI4YvLc+wdumJoo2MmFPR8DPV2TZ2h4MmGb23nCViRpcMyPBaRPjhOUtLYQELCFEPwlZwBmTEwD8ep2N3Ue7C10Fw5MGV81IsmBcvGjhasshn58vy9LcpUgNoIShNCQjuXB1xuSEhCshJGAJIfpryAobBj9eZaIpbnO4r2FkJsR1M5PMGxMrys9WwPoDHnevsdjUpUgPoIShyfVcfbghyWmTpHIlRDmSHiwhykhv4/vXl5hUFemu7QQwsiLEFxemGVsdKUp1TAOv7Xa5a63JXlOTHGD7mTsD+Np8aWgXQgKWEKKkQtayPS43v9rDyAIP7bMCTdPwKB9tSlFbWbw6y6LdLretNOl0B8509l77Pc33T8kwb0xMwpUQErCEEKUWsla0uHx6UQ+j8ghZBtDpaeaNjPKVUzIki3i68h/WWTy2xcEM9IALGC2e5j9PyzBnlIQrISRgCSFKNmQt3+vyhVd7GHqMW/OOeJr31ye5cmaCeBG39f1yRZantw+86ewAh3zNd0+VcCWEBCwhRFmErCW7Xb65JEsq9OZCTTbQXD09yUXTEkWbceUEmjtWmzy93R2Q4eKIp/nCvBRnTUwUbSirEEIClhDiBLIDzRObbO7YYBP7ByEr0BAJwSfmpDh1fLxoFSbL19zyag/LDvoDajo75Jr5fQ2XTY3znmlJUlEpXQkxUMiYBiHKXCJs8PapCSxf88hWB/UGx+oEGoYkDD4wI8nJ44oXrjodxa+Wmyxt9Ys2N6tUKJ07iPvSyXEulHAlhAQsIUT5SUcNLpyeBA2PbHP+Zk6Wq2BUJsRHm1I0jIgW7d/c3RHwuzUmr7f6JAZYttDkwtV7JsW5cEaStIQrISRgCSHKUyZqcOGMJAAPbHWIGrlwNWNwmKsbktQNK264umNllpdbfQZFBl648PXRytWMJBkJV0IMSNKDJcQAk/U0j26wuHWDzdtro3y4KcXIIs64WnvQ49ENFi+3+lQPwHDV42uuqk9w4XSpXAkhAUsIMeBC1sYDHhMGR6hJF685asV+j18sz7LPGnjT2Q2g1dXcMDPJe6YlSEYkXAkhAUsIMeC8UbN7IZbv97h1aZYjjh5wDe0GsM/RfLwxyUX1xZ0dJoSQgCWEGKDuWWfy1FaXrK+LGtpKJVztdzQfa0xycRFnhwkhJGAJIQawe9dZPLLZRg3Qb5J2T3PdjCSXTJdwJYSQgCWEKJCr4J41Jo9vcwbk69eAFcCV9Qkunp4gIcuCQoi/ImMahBDHzPY1v1tl8ugOl0Ro4J0rqAFHwQUTY5xfL+FKCCEBSwhRoE5b8egGiwd3uGQGaLgKNJw6IsKF9QkqYhKuhBASsIQQBTjYo7hnjcmf9rgMjhgMxGgRaFgwPMI1s1MMz4TlTSGEkIAlhMhfa1bx+1VZ/rTXY+gAHaDpKZg3PMIHmyRcCSEkYAkhCrTpkM/Da01eaPUHbLiyA5gzPMJH56WpSYXkTSGEkIAlhMjf1iMBt7zWwz5LDcijbwDMQDN7WJSbFqSpTEi4EkL8c/JNIYT4h8ZWhRiUCee6uwdiuPI1DcOifPmUjIQrIcSbJnOwhBD/lOVpvvFKD2tbPZIDaJimFeTC1VdPzZCSg5uFEBKwhBDF1uMovvtalrVt/oA4a9BV0DA0whdOTpOJS+VKCCEBSwjRR9otxU+WZFnZ5hMxynMGlgZ8DU1DI3xifppBSQlXQggJWEKIPtaWDbh9ucmyNp8Q5RWyNKCAeUMjXD83xdC0jGIQQuRHHs2EEMdkaDrMNbNTTB8UxlPl9do8BdMH5V6fhCshhAQsIcRxVVsZ5qqGJBMqQ/hlUgP3NUyoDHFVQ5LaSglXQggJWEKIE6BuaJQb56UZng4RlHjICjQMT4e4cV6auqFR+eMKISRgCSFOnEk1Eb54cpp0wijZkBVoSCcMvnhymkk1MntZCFEc0uQuhCjYvq6Az7zYje9owiX02BYoiMQNfnhmhSwLCiEkYAkh+p+DPQE3Pt+NKpGQFSgIxQ1+enaFHNwshCg6WSIUQhTF8EyYn5xVQbwElgsDDfGEwU/OknAlhJCAJYTo50ZUhPne6RVUJ/tv43ugoToZ4nunVzCiQsKVEKJvyBKhEKLodhzxuWVJlr09iv50hJ+nYXQmxE3z00wYLA3tQoi+IxUsIUTRTRgc4RPzUkyoCOH1k0c4T8OEilDu95JwJYToY1LBEkL0meY2j9tWmOzsVoRPYCUrIBeuPtyUkjlXQojjQipYQog+Uzc0ynWzU1TFDNQJepRTGtIRg/fPlHAlhJCAJYQoEzOGR/mXphTKyB2mfDxpQBlw45wUs2olXAkhjh9ZIhRC9DkFrGpx+dIrWaqO48a9zgC+c2qaplExDPkzCCEkYAkhyo3WsOaAx6de7mZYpO/jTquv+dHpFTSOiGJIuhJCHGeyRCiEOD5PcwY0jojy4zMqOBz07b91OIAfnyHhSgghAUsIMUBCVsPwKD84LYOpi9+TpQFTww9Oy9AwXMKVEOIEft/JEqEQ4njTwPK9Lt9fmsULKMoIh0BDNAw3n5Rm7mjpuRJCSMASQgxACliyy+Xnq0y6PE0hbVm+hsqowUdnp5g/LialeSHECSfjjIUQJ0QImD8uhtKaX62xaHfzC1m+hkExgw81JiVcCSH61XecEEKcsC+ghePjfKgxSWXUOOYDooOjlasPNSZZOD4uX2hCiH5DlgiFECdc73LhT1eauMeQsmJhgxubZFlQCNE/HyCFEOKEfxEtGBfj6plJuvw3F7C6fM3VM5MskHAlhJCAJYQQb8wAzp4Y5yONKdpc/X/uAjSANlfzkcYUZ0+My25BIYQELCGE+EciIbigLsEnm1IceIOQZQAHXM0nm1JcUJcgIt9gQoj++tAoPVhCiP4mUPDHzTa3rjIZHP2fmHXE03x8dooLpiYIS7gSQkjAEkKIY+Mr+GOzza/XWiRCYCu4riEplSshREmQOVhCiP755RSCd09NoJXm7k02185I8O6pEq6EEKVBKlhCiH4t62q2tAdMGRQmHZOWdiGEBCwhhBBCiAFJiu1CCCGEEBKwhBBCCCEkYAkhhBBCSMASQgghhBASsIQQQgghJGAJIYQQQkjAEkIIIYQQErCEEEIIISRgCSGEEEJIwBJCCCGEEBKwhBBCCCEkYAkhhBBCSMASQgghhJCAJYQQQgghJGAJIYQQQkjAEkIIIYSQgCWEEEIIISRgCSGEEEJIwBJCCCGEkIAlhBBCCCEkYAkhhBBCSMASQgghhJCAJYQQQgghJGAJIYQQQvSdiFwCsfmwzx8323S6GqOP/g2toSZhMKoyTChkMKYyzOiKECMy4dy/adBn/7YQQgghAUscd1lXsfWwT6ulMfow5WgNAR4a8LXGURCPGJw0LMKcEVEW1kYZlAwRCRmEJG0JIYQoYYbWWstlGNhW7fe4bUWWNlsf9yqSBnwFltJkNZw2PMqFk+NMrYlQlQwRlqAlhChAoCHrKAJ17P9vLGKQjsmXkMiPVLDEiU34QDQE0ZBBJbDhkM/LBzxmDwrz3qlx6obFGJ6RVkEhRH46bc0vl5ts6AyO6YEtZMA5o6O8ryElF1FIwBKlLx6CUTGDlm7FFxebnDXC49KpcWaOjBGVnCWEOEaB1pi2oj2riBxjwDJdWeARErBEmYmFYHTMYE2bx8aOgCsn+bxreoqkvGOFEMcoZOQq5cdawZJeUFHQ+04ugejPkmGDUKD5TbPDHUt7aOlWclGEEEJIwBKiGE+f6RA8tdfjt8uz7JWQJYQQQgKWEMURC8HKwz6PrTexfLkeQgghJGAJUbQ37LMtHs80W3IxhBBCSMASolgMDfdvc1jZ4srFEEIIIQFLiKK8aQ04ZCle2+PS6cg2aiGEEP2PbHoXBfE1mOqfT4APYxA2+Mt/he5+rogYPLzH4+TRHk2jY/KHEEIIIQFLlAcDqKsKcfLwKL76vytJWkO7qzniaFosxbZuhVaaVNjIO2gZQFRpnt/tMmlIhMqEFGOFEEJIwBLlELAMaBwe5YLGf36UhB1At6NoNxVtXT7LD/o80+IR1eQ9oT0dNniqxeOSeiUBSwghhAQsUT78NzmSKhGGRCrE0FSIqUMiTK9VnD3e59bVFvu6FPFwfgHP8zRr23xGVUWIhvvudbbbGl//7VKo0jAsVZ7B7pClaO0JUEf/vpWJEGOrin+Bd3cF9DiaHltheQqtIRkLkYkbVCRCDE+H83pviOMv62taOgPcQNNpKTw/V9WOhA0GpUKEQwYV8RCjKo7vZyYSNjDyLJWHDBnlLiRgiRIzKBFi0MgY36wMc8tSkw1tfl6VrOqIwX+3uJw9IU40XNiXoaOgpSvgQFdAa09Aj6WwHEWg4YirCf7XKqgGRiYNwCCdMKhOhRk3OMKUmgixPryHdDqK9a3+MR37oYFo2KCuJkIm9sb/Y4ejWbzbYVubx2Fbc/joazaAphFRrm0q/NBbBaxv9dnS5tJyJOCAo8n6mm5PYwW53zMVhnTEoCJqMDRuMHZQmKbRcf7/9s48yK6rvvOfc7e39r6o1VpbiyVL8iJbsjA2eAMDQ4B4SMIUGSaGyXgyIXgoihSZFJMhcUjCUBmykDEDCZiMGSoBzEDwYGxsY2xjbMurNlv70pJaUu/db7vLOfPH67YlW5L73vd6sfr3qWqrytX93j33nnvO9/zO73x/Pc1nV1rawPHxiEPDUex7knUtNnQ6UyqJMuobdpwIYpVPMUDeU6xocci68funMbDtZEgx0LG20yMDS5tsuhvsaS33cqqoebrX58RISH/R0FfWBBpGAoM/Ic4dBS2ewlHV59qRUixptVnc4nJlt1vXk1bDZc3OU6++G5aq9uuhiomdjmCAo2MRzx73CaLz/65rK3paHFrSIsgEEVjCHKEtZ3P7piy3PzSG9k3slaZnwcMnQv5IG5Kkzo/6hmePB+w+GXB4KGQ0rK7Ei1F1ggh19VPPNUk9OyG6HAvStqLRhSZHsaTZZvOSFJu73brfs94Rzd9sLdAQo3JtZCCTUvzBlhx5z3ndRHLv7jKP7K/QVzaMh9XJ6PSJb2Wldvf8Rw9XeGRfhaMFzVBgKIXVyVdNPrmJ5oyGMFIxGGAnkDoV8uBBn/UdDu9fl2Fxw5lCK9Swoy/ga9tKNMcQMaGGhU02d3Q0TKnrHB+L+LtnimRiRNQCDRe12tx6eZZsghCrBv55V4mjIxFODCUyEhg+tiFDZ87Gm4YI4I5TIY/sL7NvIOKEX31fjKn2GQVnvMchcCwwr/S10ECmP6TR8fnhdsVVy1K8a3W6LouSwyMRf/10gcbT+oE21Xc6rtA0BnYMhBwciTBv8HutacVHLsvSknYRBBFYwpyhM2/zh5tzfPzhMbpT8UVSBtjZH7J5kTdlgfbM8YAne32e6vWJFPi6OhCfNs9jA/YbDfqnfZ8fGU5FcBLD/oLmiWMB7RmLf70uw9uW1u+kY2hgoGJe2b6b6t/4itf9TTE0/M2TBZ7tC5iUqGfTKLXslPSOae7aOs7LIxHl6NXblrLOfU9PfwbawMmK4VRvwNN9Ie9fk+aWtekzhUwE/RWDiuHaEWhoCAyGqYnzSMOQr/FjhMkqGoqBQSd1EzEwFhiGfRMrwtsfGIJo6m2bsoAZjbhnZ2Gy8jgAABz3SURBVInn+kLKutouNTmRnOdrTu8/9kQ/HPINQ75h384SD+yr8IG1aW5akarp+iIN/X5V7E0KulpaH0xc5/k+Qxvw7Op3C4IILGFOoYC1HQ5v7XLYPRDFXsnmLNgzHHHlouqEfC78yPDokYDv7SpxoqCxXmMXoerUFjWxqq0YOFrQ/PVTBf55Z4lPbsmzsqU+4YS4gue1UaJJcfWZh0Y5NqrrYp1xtujLYwcr3LWtxGjFvO5+x71+qEYivrmtxIunAj79ljy509RgknsyE327Xn1qdr59QrgYuH9fmf+zvUQ5evWTVR3uTaihr6T58rNFXjge8G8vz9KZs+pyz9UMPENJ0xLOhRy9EuaG0rcV71meYjiMv9S3VPWE4vni+IdGIj7z01G+9NQ4pwrTIyjOd33HxzWfeWiUB/aV58w9//yjY6+Iq3oTGXhwT5m/2Fp8RVzVC8+CF/pCPvPQKOMJtpWFeIz7hrueLXDn82eKq3rjKnjoqM/nHh1j34AUGxVEYAlCXbAVbFzgMJ5kwlWKvSPRxHbI2WnPWbQ4irSlZmVCthRg4M7nS/xwVyn5llGdVuPfeK7IywPRtIirQMOj+8v89xdKZGFakqwdC46Paf7452MMlTSOdV59LSRkoKj5xtYC395bIT0Di5KsrTgyGnHHLwvs7ReRJYjAEoS6YJTiorz1utN6UxEN5TcYi3OOYnmL/cY5VdMsspSBu3aVeXBfecZFlgE8W7H9ZMDDhyrTInyMgaePVPijZ0o0TZO4Ol2U7x+OuHNrgYJv8CSSVXdx9Z0Xi3zvsE+rM3M3N2MrBgoRdzxZ4OCQiCxBBJYg1N4ZLVias0iwSzilqNRlizxy9uzOwrYCHcE/vVRh58lgRr/bmziy/tM9ZYrR9HxH72jEl18o0aamV1ydfj+39Yfcs69CoyMKq14UA8N3t5f41gGfTnfm72vGVvSPR/zt1iKDJckeF0RgCUJtk6Wl6MpahGZ6QjsbOl0WzAFjUM+Cw+MR9+4uM1qeucmj0VU8cKDCzsFoWrZ6Ag13v1BkqKQTu/MnHcTKgUHkVf348cslvn2gwsJZDAvmHcWLAyHf21GS7V9BBJYg1IIxhso0JtHaCjYt9ubERNzkKh46HrL1aDBlN/xaX/SCb3imL2DYnx4x8uC+Mg8eD2L5c9WtfaKu6sbWYwFf21WhY5ajvQZocRU/POjzxBFfHowgAksQkhLpamTHncYs9GuWenNiNayAjILv7i1TDqZfYSlVNVUtBtPT+mJouGt7iRbZpntTM+Yb/v75IllVm/1AoKEQvWrYW0u+YVrB3S8WqchOoSACSxASrlgNHCoksw2IpjiCd+WqtdCmOt4bqpYDp//US6J4Frw4GHFwOMLMgOqbzq/4wUtlKmF9oo/aVIuDj4aGkdBQiAyBllOCM8H3d5XoK2iS6uRyZBiOYG27w69dlOaW1Wk2djk4rmI0NImeoQIGyob7dpfkAQlvKsRoVJgb4go4WYg4VTYsi+nmXjGGyzsc1BSn9/evyfBXTxXO6iRuJib4SWHVnFIsa7JfWYHbFhwcjhiuGBxFzTYHzTb89GCFNe1OzbUUZ4vQwH17yzXnXZmJyMfyZptrFrn0NDt4tqK/GPH8iYCtfSGV0GBLkGxaGPENP9pbSVSyRpvqcv3fXJzhlrVpUs6Zb2M5Mjx6sMI/7ixT8uM/QwP8bL/Pzasz5y1VZICChqw+M4rgWsnEvzbgm6n1WyNLAEEEljAXCSLDTw74dCTokZGBhtTUR9CrF7t88UlI8WopDdeqevCsbLXZ0OWxstnm4vZzX8xASfP0UZ+HD/gcHosITbIBPG0pHjwa8DtXgGu/OZ/dzw/5rxT2TSqsjKnW7PvQ+iyXLXBeN0zd2JNisGy49+USDx/yGQ9kMqs339leTFRaJjSwqtnmtiuyrGo9+zuTcRQ3r0qztsPl758psGMwvgfbyYrmJ7tL/OrFmXP+zhULXZ74cOsZ/2+wbPjyL8Z4IeZ3Wgreu8LjtzbmpHMIIrCENy8nC5r7jvjkEmQrFzSsaXGmvN+dthU3LHX5RW/AwrRiZZPNpqUptiz2SE9R5LRlLN69Ks27V6W5d3eZf3m5zMmJqFYcLAWjFcPuwZBLF8x+odhJsRNNXNvkyv98j+WXhyuxvctOjxDYCt6zMsWHL83gnWcGnCyoe9lCj68/U6B3otyRUDsDZc3jh/1E4qqn0eI/XZGlp/WNp5OlTTYfvSLHV54qsH8s3mnWcgT7T4VwccwFmDaJt+C16HhBBJbwZqYcGr61rYQTGVSC/Z8ysKbNjpWU+87lKbo8xTUr0qxori109N6L0qzvdPmLx8fpK+pEtRT3DkWzKrC0gcBAzlUszioWpS0a0oqGjIVS0N1w9ns0WDYcG01mqmUAH/jImjQfWJeZ8n27tNPh41vyfOHxMYbrXIZnvvLYgcobboWd7fnlHMX7V6amJK4m6Wm2+ZU1Kb76XJFKjK6jqOZovjwQsqZNpi5BBJYgnJdAw0/2lLnvsE+np2JnMQQarm53Yv/d5V0ul3fVT9Asa7b52KUZPvdkAZd42yyepdgzGM7qM8i6ipu6HNZ1OCxpdVkxxaLUL/cHiU1LKxqu7XK4cUUqtihd3Wpz28Ysf/pkgbS8RjWzvS/A1/H6rQE2dTi8pSf+E7h2WYqH91fYPjj1zmMpOFnWHOgPRGAJbwrkFKEwa5wqan68q8T/2l6mI4G4AhgMDTcvcUnNsj2AAtYtcPlXi13GY1rR2wqOFmbnDLqvYWWzzSevzPKRK3NctzI9ZXEFcHAgpJhgf1Ab6Mwo3rEiRVtC89erFnt8oCfFaCj7OLWwbyjiRDH+PWx0FJuWeGc9LDKV9+Vdq9OxtyQLIRwbjiSdXBCBJVz4JPHKGfUNjx+o8I1nCty5o0Q+YS/UBnKe4tIF7pw4gZf3FFd3u1TivoQKeseiGb/ecgTr2mw+tSXH5iUe+QQlUQbGIpLYeIXAVR0Olyz0amrD+9akyaUsyZWpRWANBAyFJnb0amFGsXlx8ud35SKPfEyneBvoLWqOj4spljD3kTirUBNjvqG/bAjOE0UwwLiv6RuN6BuJ2D8U8uKwphAYGmoQRqXIcN1ij6bM3FkntORsVuRthkpT9/NSwIA/swoh0LCuw+bTW/K0JowgjfmGwUr86zZAs6dYu8Ct2dqhJaO4eYnHD/aWyYvJaSL6hkLGA4Mb84Td0hYnkaXDK5OPgiu7XB485E/5XbEU9JUMA4WI7rzEBwQRWMIFijbw1LGA/QOj5w3Zm4kE6rHQMB4YQg2ORaKthdMZR/GuZR5N6bkz0KZcRVdG0V+M55E10y0oKfjPm3KJxRVUt3hHw/hld4yBpRnF5d1eze1wLMX1S13ufKnMRTKaxe8HIfSX4otkR8HqjtpzGNd0uNx/MIbAompAWxRbd0EElnChUwjNlHOOFK96TtXKeGj4taUey9rr14UrERwaidg/GHCyoOkvvn4Qjwwsa7JJOYqL2hxWtDpnCMVJS4O5vGN10jfc8dY8XfnaTk+OljTF0MTeJlYKFuRsGutQSFgBHVmbS5ssxssGCWLFY6SsGU1QKNtRVQPeWlmQs4hi9p0TJc1YQQSWIAJLmAfM9JymTXVgvn65R0uN0atSYPhFr8/DB332DYcE0at5Zedq11PHA+BVz6jVrTabu1xu6EnNecuAUMPaVptN3S61lnw0Cb2rUxYsreMpMM+By9ocHj7i44jNeywGihGDvokdQfUUrGypXWBt6HDwtSET48VRkOhghSCIwBKE807qoIEP9qQSJ0hrA+XA8MPdZb75UhkrMmRshaWYkkBSp/+rYO9gxM6BiK/vKLMob2EigzdH5/nRyHDr8lRdhEjfaMSQnyD6YSla65g359qK5Y02ZQ1ZW96ROIxXqhHouM+wqA13bysS1SGQlIvZF10FxwuGUd/UJQoqCCKwBGFCHL1jkct1FyVzP/Ijw44TIZ/fWmC8qGl0FbXuK1kK0hMfMVjQ1a3QOTjuGwPKVly72K3LNq1SKlE7UxYsbKyfErIsRaOnELeG+JQDTSkidhg60PDtXeW6RK+zCcS+yCpBBJYg1JFAw9u6XT54WZaGBJYCYxXN/fsq/NULJRa4qiqu6sxc3iL0NWzucLBm+SItOG9JnLi4FixpsBgz0CmvyYyRm6XtWFspRgNNJTQgESxBBJYgJEcbKBq4eZHLb16epSPBybdyBN/eVuL/7q+wcJ4OymVjuLjFxpvlTPDJ3LV64tkKScuZH1jAQMVQ8jVkxapBEIElCLFRE8IocuC2NWmu7UnRnmBADTQ8sLvEQ4f9WVt1zwUKGlZMnIC80DBGto3mm8hSSp64IAJLEBJNmIcqhi0dNreuz7C+yyWVUBzt7PP57u4KvmZeH+MvamjPKOSgnSAIgggsYZ6hDQyHBuUq7tic5YpFHm05K3F0YrRieOKIz0DF1HzCLDLVn9AYXKVe8byy3iSCxbPAti5MdWWp6ulSQRAEEViCcBqBhkJkaEpZ/O76NG9bmqI1a9UcbTkyGPDA0YCkdlmGqudOgGJJ3mJRzmJpo8WBkarJ5rGC5nhRk7chbak5GyGLDKzIWbhz4ALrfcoyMtA7pmmUdBxBEERgCfOdyUTniGrU6u1LXN6+NMWlCxw8W9Uln2bcN2w9HlIIDI0JhIUx0JRW/IeLM1y9JEXeVWc11hytaJ49HvLzIxVeOBliMzejWvaklX69H2RMKhqOj0UsbqiPIoo0jAXi4i4Igggs4QLCVuBZaoozrcLC0OBZtOcs1rQ7XLLAZUWLTXoaEoNGy5pn+oNYLtGnc8Nyj/+4KYd9RgteT3Pa4sYejxt7PE6MR9y5tchzp8Kaay3OdfIpRdpWjOt4RpWBgcFiBLh1uY5KqNk+EJKTCFZs2vM2nSnF0UL8kkcpa3YWEraCBk+Ja78gAku4cLEUXLPY5ZZ1Wfw3OiNvIOUouvLWjBU2Lvua7cOatpi5VxUN7+nx+J1NuQSiw6KnweLJE4aUdWFPAPmURcaG8SDm/Y0MBwfDul1HqGHvSIQ3R0+VTUfgsJ5iJUk3TdvwyasbaEurGc99M6YqsNoyoqgFEVjCBUxLymJRfu4NdBoYLGkKoaE9xkpXG2hIKT66MZt48NeGeeEZkPUsUrbCmHjRj8hA36imHFUn6loZK2leHI5YOgf9zdSEYI+0qakvTxddjQ4L0hYHx3WshY8xYBnDsiaZQgThnEEIuQVCTUJmjpo7BpHh6JgmrvYbiwy/uio1se0pnI+OnEWjo2KnYVkKjpU1O04ENV9DqOFnR3ya5ujjshUcLGiKlWQviqWgr6inbSuuKaVoTsX/8MDA1l5fXgJBEIElzDciDf1lTdxqOAMRXL3IQzwM35iWlEpUskgB/RXD9uN+ze7rxUDz4GGf/BzNcFcKRnxTLeuSgIGS5mhh+gSWAroabVIxI4mRgT0DIeOB2OcLgggsYZ4JLMNgOf7JsrKpruprmVCnnPN/AbCgwcJJMooY2HoiZG9/bVGsB/ZV6C3oOWueqqhGU/cPR1QSqMknen1apnkXblGLEzsSqYDeoubR/RUZbARBBJYw7zp3wkm3Fm1U9A0nShp3noTAlrW5ZBKoG1vB4aLm4QM+owm3z/YPRXzrpTKt7ty+182O4l8O+IwW42dT3b+/Qnqat6vXdTq0uvG3essRPH7E5+hYVLdrGSppfvBSicHi3LCNlUi2IAJLEOqEC4kiDZOMliKeH4xw58mbtarNIWcnv9cP9Po82+vHTuQeLBvufLqA0jN3nkAnrHfoKOgtRDx8yCeI0dB/2l7i2LiediuEnKNY3eHEjvbaCnYMR/xsT5mwDhHbU0XNV7YW+Nq2MvfsKlGa5e1HbWCoIPUBBBFYgnDWATIuLTbsPBUl+ls/gp2nQk4W9byp99edt1iQ0IDKUqA0/O3zRZ467E85gjJYNnzx52McHItm9D4va7bxE875TY7iH3aUeO7Y1BLDH9hX5kd7yzPWvi1LU4kiZY6Cew743PdSKZZ4fC27B0LueHSMZ06EZCz4/r4K9+2t1PSZtWKA3nHN0TERWYIILEF4hZRjsa7VIe5OQ6Ot+PHBSiKBdXAw4Cs7y7TMM0vxyxa6iaMslgIb+JMnxvmfTxfe0E/t2b6AP/7ZKPvGohl3wmjwkns+qQmR9ce/GOcfXyieMzm8FBq+va3IXS+WqEQz17YNHU4iZ301MYl8dXuZ724vUUgQdbr7xSKfenCUvolonQKytuKr20vsOhlgZimQpYDDBc29u879LIyBrccCvv58kb5xEWLCaxYgcguECxEF2Fb8KJZnwda+gEcOVbhheWpKwiHScHg45NOPF8iY+Ze38c5Vae55qUKphq3VvKN44KDPQ70BH1qTZuMCh2VNdrUWpG/Y0R/yk/0Vnj8VkprFAtubO11e7g+TJfYDOVtxz+4K399b4YoFDssbbbSptufomObxvgBLMytVAD64IcufPTYWW7gqIG3B3btK/OSIz63r02xZ5OFYYFlnlr3SBowxlEPDM8dD/mFbkdGyIfuaUJ0CGiz4vUfG+ObNjfTUkOlvKZW4vyjgx4d9dgyF3Lg8RXfexrXhpf6Qo+MRW0+EDJQ0m9scrItk3BVEYAnzANeGta0240BnzL9tcRVf2lpEa7hmiUfKVWfdqqmEhnJg2Hos4M+fLdKs5mYNwukm6yiuXuxy/0G/pnqAngVGG+7aVuTLL8DkzoyroNGCBlsx2+bdixssdpyqbeD0rOr20zPHQ548Vj1FaQBXKdIWqFlq48YFDpe2Ozx3MpmAzDmK8ZLmT39ZIO0VubHb5dIOl7SjqsakFpwYj9g+EPLY8RCjDU2OOq+Y7LQVf/jYOF+6voGuhmTJfm0ZRUdKEQFJPsFV1WLiX3m+iG+qxq9ZCxyl8BQ0OgqxzRNEYAnzS2S5Flc02/SP69gTRtaCLzxd4LpjPjcs9uhptlETo6gxhqJveO5kyP1HfPYMRyzw5vcIe8vFGX562K/ZnkJRjWblga452M4t3R7f2VOpuXammhBa3hyz/P/tK3P87v0jGJ0sEmspqicSNTx02OdHB8/0OkspyFiKJhvUFO6hpaBSNvzJ4+P82XUNNCdU2LatasqHsRU0nGP1oMUKTBCBJcw3mrMW13a53P1ymeYES8xWV/HU8ZD7jgR4jmJZzsJQNY48VtI0TURV5ru4AliQs/j1i9J8bXuJtgRH/t8srO9waEoptL4wo5UL8xa3bcjwxeeKtDu1+cFlbUW2DqWQHAv6xjV/93SBT16dJ5fAlqM5Z+HZoCVNSphBJMlduGDJuYq1rTaWnXzCz9iwKKVot2G0pBkraZzIsDylaHFV4lycC5H3rE5zSatNOZrZ7zVQsyP8VPFsxa+vSjEazpyEnOkIyTtWpfl3q1IMzCGXdkfB86dCfrijlOhZtzfY0+4nJggisIR5xbI2l2s6HIo1zsBqYpB35mme1VRoTCl+78ocQ4oZO/llqEZL2jLWjAgR24IblqXw7ZmJ0o2FhqbUzEYEXQved3GG67tdTvlmzmxiljWMBiaRdcX6TpdGZ94UWBBEYAnC9LMgb3FTj0d7evonYAP4mln17pltelodPrcxwz5/5qayt3S7vH+Fx8gMRZU68ha3XZTiRGV6xUcxMvzG2jTtWWvGInSTtGUtbr0syw0LXQaD2RdZo6HhV3o8fmtjNtHfd2Yt1rQ7sjgSRGAJQj25ammKa7scgmn8jslIyhULHC5rt+etyLIUXL08xX+9NMOJad5i0gbWtNp8bGMOx1aEM9RGz1bcsCLFpg5n2rZDS5HhqoUuH16fqZqbzkLoZUmTzUc3ZnlLpzNj4vVsnPANt1+R499fkSVdQ17YTavSMuEJIrAEoZ44Cj54SY6NLTbTpnsUfGBFio9eXl1hz+dc2oyjePfaNB9fl2ZsmgSINrC82eazb28g5yqiGSyZA9DVYPPhi9Mot/45UuXIsHmhy395ax7HUrNmtDkpsn7/mgbeu8SjMsOd2piqVcdfXtfAe1ancGoMP61tc3jvqtSMRwMFEViCcEHTmlHcfk0Daxrtuk/EjgXvXOrxm5dncdT8Fleni6z3rcvw2+vTVR+kek26Ez89LTafv6GRtD07AkQBmxZ7/P7GLKk6npr0NWzpdvmDq/O4c6TeUmNK8Ym35rl1Q5r8DBXWNsDiJpv//d4mNnW7dXtnf2NDljWtdv3TBUS0CSKwhHktstKKz97YyLWLXDKOIjTJx0VtIAI6UooPXZzmtk25V1bdwqsi64PrM3xiU5bVjRaOVT3tl+QWGSA01aP/7+rxuOP6BlL27LfxmuUpbr8iy5K8hSZZNGuybZ4F71rm8aktebw5WG7ploszfPbtDVzV6dDsVY076yVUJk+CKgULsxYfWZ/hCzc10p6t7xTlWfDfrm/k8k4H16KmMWDymj0bmtNq3tQfFWIsvuUWCBpDWcN4ZFAx1oq2guhN5rKXseETb8nzyMEKTx3y2TkS0V8x2BPtsXi9waKZEE4GCCYmgSVZiw2tNu9ck2Fli33G7/oaxiJDYKZ+LwdibKUZYxgKieWaHhqD0bMT7dm8yGNFm8vP95d57ljA3nHNiK/xVHVSUur123uT9zwyEEwI2XXNNjeuSnNltzun+tSWJR6dDTYP7S7zfH/IkaJGm6oDuAXwmvaZif9EE/2pwVVc2mTxjhVprlrmvc5tvKwNY5HBjdGfBiPQ0/CwVzTbfPptDbxwIuTx/WX2DEccKWlKYVW82EztlK2ZXKQYCCee75KsxYYOh2tXpOhumD71nLLgs29v4P/tLvPYwQoHCpqxoPo+2ac9q8l+aU5bOOkJURUB7SnFRQ0Wlyx0ubYnTUtKFJZwJsoYWXPPdw4Phzx3xMcPTKxEFgUsaXPYsjT1pmx3RcMzvRUO9YfsH404VDCMBIb+ij5jZZ51FG0pRbOr6MlZLG2yWdPlsaHz9euToZLmqUMVhgsaK8biO4jgwxNRsDfiyEjEY3vKODHmIGPAdhTXrUzRnpu90M/JoubFYz6HBkIOFzRHi5pB3zAamDNyY9pSiiZX0Z2xWNVoc9EClysXe3hnuad+BA/sKfOXzxdpj7GFFWpY3GzzP25qqDm/Z5JtJwL2nwo4OByxZ0xzsmIohNWfyck651TbtiRrsbrRYmWbw5VLUzSexbBWG7h3V4lSWcdyVg8iw4Zuj3Vd3rR6te0eCNl3KqB3OOJQQXOsqOkrG0qRwVVnLgIM1RO2RkGrp+hMWyzJWizNWyxrd1jd4dKZndlNlVNFzQtHfY4OhxwuGPpKmmHfYKhaQhRCQ95RNLhV09Rmz2JRVrE4Z9HV4nB5t0eDGA0LIrAE4dz0jWtOjUeUfE2prF+N9ChwbEU2bZH1LLoabZplpVozoYHjYxGDhYhixeAHBnOaqs2kLdKeoiVrs6jRPu/2y1wSWJOMVgy9IyFjZU0QGILTBJbrKFKeoi1ns6jJmRNbnbXiazg+GjFUjBgvacLIMFQxDJbNK8LQUtCZVuQ9i5SnyKctOvI2nbnZz1TRE2PAUDGiVKn2w7KvCUOD6ypSroXrQC5l0Za1aUnLGCC8MbJFKAhAV96iKy8piTM28ChY0mizpNG+INvXmFKs63TnzfP0LFjWbLOs2T5DRJeCV4WlpUhU5mYmsIDuvEW3jAGCCCxBEARhroto2T4T5jMi1wVBEARBEERgCYIgCIIgiMASBEEQBEEQgSUIgiAIgiCIwBIEQRAEQRCBJQiCIAiCIAJLEARBEARBEIElCIIgCIIgAksQBEEQBEEEliAIgiAIgvBapFSOIAhvcgzawFgEcUrJBcbga6l1LwiCCCxBEITXYVuKVe0Ot1+SxrOnXvvOGGjKWFhK6uUJglB//j/n5/UFJPRaBwAAAABJRU5ErkJggg==;" parent="1" vertex="1">
          <mxGeometry x="877" y="614.27" width="60" height="40" as="geometry" />
        </mxCell>
        <mxCell id="4-l5QpAymt0JCEmgXWtR-7" value="" style="edgeStyle=orthogonalEdgeStyle;rounded=0;orthogonalLoop=1;jettySize=auto;html=1;strokeColor=#000000;" parent="1" source="4-l5QpAymt0JCEmgXWtR-3" target="4-l5QpAymt0JCEmgXWtR-6" edge="1">
          <mxGeometry relative="1" as="geometry" />
        </mxCell>
        <mxCell id="4-l5QpAymt0JCEmgXWtR-3" value="AWS Glue&#xa;Catalog" style="strokeWidth=2;dashed=0;align=left;fontSize=12;shape=rect;verticalLabelPosition=bottom;verticalAlign=top;fillColor=#ffe6cc;strokeColor=#d79b00;fontColor=#000000;spacingLeft=-20;" parent="1" vertex="1">
          <mxGeometry x="1110" y="420" width="150" height="90" as="geometry" />
        </mxCell>
        <mxCell id="4-l5QpAymt0JCEmgXWtR-5" value="&lt;svg class=&quot;w-6 h-6&quot; height=&quot;48&quot; width=&quot;48&quot; xmlns=&quot;http://www.w3.org/2000/svg&quot;&gt;&lt;path d=&quot;M34 44c-1.731 0-3.288-1.111-4.385-2.875L34 38.202l4.384 2.923C37.288 42.889 35.73 44 34 44zm-1-15.929v8.394l-4.266 2.845C28.267 38.028 28 36.561 28 35c0-4.041 1.81-6.51 5-6.929zM34 24c.901 0 1.678.955 1.917 2.21A9.027 9.027 0 0034 26a9.02 9.02 0 00-1.917.21C32.322 24.955 33.099 24 34 24zm6 11c0 1.561-.267 3.028-.734 4.31L35 36.465v-8.394c3.19.419 5 2.888 5 6.929zm6-5h-2c0 1.916-1.15 2.976-2.083 3.523-.182-1.743-.679-3.141-1.396-4.23C41.597 28.517 43 26.942 43 24h-2c0 2.283-1.136 3.347-1.82 3.785a7.069 7.069 0 00-1.182-.808 5.881 5.881 0 00-.669-2.739 5.276 5.276 0 001.42-2.386A2.003 2.003 0 0040 20c0-1.102-.897-2-2-2s-2 .898-2 2c0 .624.293 1.175.742 1.542a3.306 3.306 0 01-.712 1.175C35.434 22.272 34.744 22 34 22c-.744 0-1.434.272-2.031.717a3.306 3.306 0 01-.711-1.175c.449-.367.742-.918.742-1.542 0-1.102-.897-2-2-2s-2 .898-2 2c0 .838.519 1.555 1.251 1.852a5.285 5.285 0 001.419 2.386 5.893 5.893 0 00-.668 2.739 7.033 7.033 0 00-1.188.814C28.133 27.353 27 26.282 27 24h-2c0 2.942 1.402 4.517 2.478 5.293-.716 1.089-1.214 2.487-1.395 4.23C25.15 32.976 24 31.916 24 30h-2c0 3.274 2.332 5.044 4.026 5.728.057 1.176.245 2.302.55 3.35C25.49 39.373 22 40.517 22 43h2c0-.779 1.918-1.695 3.243-2.029l-.061-.245C28.589 43.883 31.115 46 34 46s5.41-2.117 6.818-5.274l-.061.245C42.082 41.305 44 42.221 44 43h2c0-2.483-3.49-3.627-4.576-3.922.305-1.048.493-2.174.549-3.35C43.667 35.044 46 33.274 46 30zM17 15h27v-5H17v5zm-8 8h6v-6H9v6zm0 7h6v-5H9v5zm-5 0h3V10H4v20zM4 8h3V4H4v4zm5 7h6v-5H9v5zm0-7h35V4H9v4zm36-6H3a1 1 0 00-1 1v28a1 1 0 001 1h17v-2h-3v-5h5v-2h-5v-6h27v4h2V3a1 1 0 00-1-1z&quot; fill=&quot;#4D27AA&quot; fill-rule=&quot;evenodd&quot;&gt;&lt;/path&gt;&lt;/svg&gt;" style="text;whiteSpace=wrap;html=1;align=center;verticalAlign=middle;" parent="1" vertex="1">
          <mxGeometry x="1145" y="600.72" width="80" height="70" as="geometry" />
        </mxCell>
        <mxCell id="4-l5QpAymt0JCEmgXWtR-10" value="" style="edgeStyle=orthogonalEdgeStyle;rounded=0;orthogonalLoop=1;jettySize=auto;html=1;strokeColor=#000000;" parent="1" source="4-l5QpAymt0JCEmgXWtR-6" target="4-l5QpAymt0JCEmgXWtR-9" edge="1">
          <mxGeometry relative="1" as="geometry" />
        </mxCell>
        <mxCell id="4-l5QpAymt0JCEmgXWtR-6" value="AWS Athena" style="strokeWidth=2;dashed=0;align=left;fontSize=12;shape=rect;verticalLabelPosition=bottom;verticalAlign=top;fillColor=#ffe6cc;strokeColor=#d79b00;fontColor=#000000;spacingLeft=-20;" parent="1" vertex="1">
          <mxGeometry x="1110" y="250" width="150" height="90" as="geometry" />
        </mxCell>
        <mxCell id="4-l5QpAymt0JCEmgXWtR-8" value="&lt;svg class=&quot;w-6 h-6&quot; height=&quot;48&quot; width=&quot;48&quot; xmlns=&quot;http://www.w3.org/2000/svg&quot;&gt;&lt;path d=&quot;M21.306 18.375C23.678 18.932 26.68 19 28 19c1.321 0 4.323-.068 6.695-.625L29 29.764V33h-2v-3.236l-5.694-11.389zM28 15c3.95 0 6.573.561 7.617 1-1.044.441-3.667 1-7.617 1-3.949 0-6.571-.559-7.616-1 1.045-.439 3.667-1 7.616-1zm3 20v-4.764l6.642-13.284c.226-.278.358-.593.358-.952 0-2.783-7.654-3-10-3-2.345 0-10 .217-10 3 0 .359.131.674.358.952L25 30.236V35h6zM4 2h5v2H6v40h3v2H4V2zm12 40h24v-2H16v2zm0-4h24v-2H16v2zm0-26h24v-2H16v2zm0-4h24V6H16v2zm-3 36h29V4H13v40zm-2 2h33V2H11v44z&quot; fill=&quot;#4D27AA&quot; fill-rule=&quot;evenodd&quot;&gt;&lt;/path&gt;&lt;/svg&gt;" style="text;whiteSpace=wrap;html=1;verticalAlign=middle;align=center;" parent="1" vertex="1">
          <mxGeometry x="1145" y="430" width="80" height="70" as="geometry" />
        </mxCell>
        <mxCell id="4-l5QpAymt0JCEmgXWtR-9" value="AWS QuickSight" style="strokeWidth=2;dashed=0;align=left;fontSize=12;shape=rect;verticalLabelPosition=bottom;verticalAlign=top;fillColor=#ffe6cc;strokeColor=#d79b00;fontColor=#000000;spacingLeft=-20;" parent="1" vertex="1">
          <mxGeometry x="862" y="250" width="150" height="90" as="geometry" />
        </mxCell>
        <mxCell id="4-l5QpAymt0JCEmgXWtR-11" value="&lt;svg class=&quot;w-6 h-6&quot; height=&quot;40&quot; width=&quot;40&quot; xmlns=&quot;http://www.w3.org/2000/svg&quot;&gt;&lt;defs&gt;&lt;linearGradient x1=&quot;0%&quot; y1=&quot;100%&quot; x2=&quot;100%&quot; y2=&quot;0%&quot; id=&quot;Arch_Amazon-Athena_32_svg__a&quot;&gt;&lt;stop stop-color=&quot;#4D27A8&quot; offset=&quot;0%&quot;&gt;&lt;/stop&gt;&lt;stop stop-color=&quot;#A166FF&quot; offset=&quot;100%&quot;&gt;&lt;/stop&gt;&lt;/linearGradient&gt;&lt;/defs&gt;&lt;g fill=&quot;none&quot; fill-rule=&quot;evenodd&quot;&gt;&lt;path d=&quot;M0 0h40v40H0z&quot; fill=&quot;url(#Arch_Amazon-Athena_32_svg__a)&quot;&gt;&lt;/path&gt;&lt;path d=&quot;M18.726 14.285c1.8 0 2.982.285 3.42.5-.438.214-1.62.498-3.42.498-1.8 0-2.982-.284-3.42-.499.438-.214 1.62-.499 3.42-.499zm.014 3.198c-.088-.027-.164-.079-.164-.181 0-.14.114-.253.256-.253.042 0 .072.026.107.043l-.199.391zm2.939 4.156a1.203 1.203 0 01-.303.156 4.024 4.024 0 01-.566.166 9.261 9.261 0 01-1.978.202c-1.542 0-2.616-.322-2.846-.522l-.688-5.794c1.187.401 2.937.433 3.428.433.496 0 2.275-.033 3.464-.445l-.202 2.298a34.447 34.447 0 01-2.44-1.048.754.754 0 00-1.475.216.753.753 0 001.041.69c1.178.56 2.09.944 2.781 1.186l-.216 2.462zm-7.525-6.797l.822 6.891c0 1.411 3.698 1.427 3.856 1.427.78 0 1.564-.08 2.206-.226.269-.061.507-.133.71-.212.624-.241.94-.574.938-.946l.204-2.305c.299.068.534.098.715.098.478 0 .604-.189.69-.319l.077-.476c-.122-.492-1-1.187-1.297-1.404l.224-2.543-.005-.001c.001-.014.007-.027.007-.042 0-1.424-3.811-1.496-4.575-1.496-.764 0-4.575.072-4.575 1.496 0 .02.008.037.01.057h-.007zm4.591-5.448c4.765 0 8.643 3.803 8.643 8.478s-3.878 8.478-8.643 8.478c-4.765 0-8.642-3.803-8.642-8.478s3.877-8.478 8.642-8.478zM6.017 21.267v.998h4.177a9.69 9.69 0 008.551 5.082c5.326 0 9.66-4.25 9.66-9.475 0-5.224-4.334-9.475-9.66-9.475-4.41 0-8.132 2.917-9.283 6.886H6.017v.997h3.217a9.236 9.236 0 00-.148 1.592c0 .136.015.268.02.403H5v.997h4.203c.105.693.285 1.36.535 1.995H6.017zm27.486 11.265c-.614.603-1.68.608-2.295.005l-5.253-5.152a12.068 12.068 0 002.34-2.246l5.214 5.142a1.566 1.566 0 01-.006 2.25zm.726-2.955l-5.334-5.26a11.64 11.64 0 001.953-6.445C30.848 11.326 25.418 6 18.745 6 13.95 6 9.6 8.782 7.665 13.087l.93.402c1.773-3.943 5.757-6.492 10.15-6.492 6.112 0 11.086 4.879 11.086 10.875s-4.974 10.876-11.086 10.876c-3.732 0-7.192-1.827-9.254-4.885l-.848.551c2.251 3.338 6.027 5.331 10.102 5.331 2.333 0 4.506-.662 6.356-1.788l5.388 5.286c.498.488 1.159.757 1.86.757a2.66 2.66 0 001.872-.761 2.55 2.55 0 00.008-3.662z&quot; fill=&quot;#FFF&quot;&gt;&lt;/path&gt;&lt;/g&gt;&lt;/svg&gt;" style="text;whiteSpace=wrap;html=1;align=center;verticalAlign=middle;" parent="1" vertex="1">
          <mxGeometry x="1150" y="260" width="70" height="70" as="geometry" />
        </mxCell>
        <mxCell id="4-l5QpAymt0JCEmgXWtR-12" value="create&lt;br&gt;table" style="text;html=1;align=center;verticalAlign=middle;resizable=0;points=[];autosize=1;strokeColor=none;fillColor=none;fontColor=#000000;" parent="1" vertex="1">
          <mxGeometry x="1180" y="540" width="60" height="40" as="geometry" />
        </mxCell>
        <mxCell id="4-l5QpAymt0JCEmgXWtR-13" value="add dataset" style="text;html=1;align=center;verticalAlign=middle;resizable=0;points=[];autosize=1;strokeColor=none;fillColor=none;fontColor=#000000;" parent="1" vertex="1">
          <mxGeometry x="1020" y="270" width="90" height="30" as="geometry" />
        </mxCell>
        <mxCell id="mQP0bRxGn1huynhjHFoy-1" value="&lt;svg class=&quot;w-6 h-6&quot; height=&quot;40&quot; width=&quot;40&quot; xmlns=&quot;http://www.w3.org/2000/svg&quot;&gt;&lt;defs&gt;&lt;linearGradient x1=&quot;0%&quot; y1=&quot;100%&quot; x2=&quot;100%&quot; y2=&quot;0%&quot; id=&quot;Arch_Amazon-QuickSight_32_svg__a&quot;&gt;&lt;stop stop-color=&quot;#4D27A8&quot; offset=&quot;0%&quot;&gt;&lt;/stop&gt;&lt;stop stop-color=&quot;#A166FF&quot; offset=&quot;100%&quot;&gt;&lt;/stop&gt;&lt;/linearGradient&gt;&lt;/defs&gt;&lt;g fill=&quot;none&quot; fill-rule=&quot;evenodd&quot;&gt;&lt;path d=&quot;M0 0h40v40H0z&quot; fill=&quot;url(#Arch_Amazon-QuickSight_32_svg__a)&quot;&gt;&lt;/path&gt;&lt;path d=&quot;M33 13a1.001 1.001 0 00-2.002 0 1.001 1.001 0 002.001 0zM21.51 24a1.001 1.001 0 00-2.002 0 1.001 1.001 0 002.002 0zm-1.001-7c.551 0 1-.449 1-1a1.001 1.001 0 00-2 0c0 .551.448 1 1 1zM10.002 27a1.001 1.001 0 00-2.001 0 1.001 1.001 0 002.001 0zM34 13c0 1.103-.898 2-2.001 2-.376 0-.724-.11-1.024-.291l-8.926 8.029c.283.345.461.781.461 1.262 0 1.103-.898 2-2.001 2a2.003 2.003 0 01-2.001-2c0-.93.64-1.706 1.5-1.929v-4.143a1.983 1.983 0 01-.8-.421l-8.49 8.483c.177.298.285.64.285 1.01A2.003 2.003 0 017 27c0-1.104.898-2 2.001-2 .37 0 .712.107 1.01.283l8.62-8.614a1.964 1.964 0 01-.123-.669 2.002 2.002 0 014.002 0c0 .929-.64 1.705-1.5 1.928v4.143c.071.018.141.039.21.065l9.053-8.141a1.98 1.98 0 01-.276-.995A2.003 2.003 0 0134 13zM9.001 9h23.016v1h1V8.5a.5.5 0 00-.5-.5H8.501a.5.5 0 00-.5.5V24h1V9zm23.016 7h1v16.5a.5.5 0 01-.5.5H8.501a.5.5 0 01-.5-.5V30h1v2h23.016V16z&quot; fill=&quot;#FFF&quot;&gt;&lt;/path&gt;&lt;/g&gt;&lt;/svg&gt;" style="text;whiteSpace=wrap;html=1;align=center;verticalAlign=middle;" vertex="1" parent="1">
          <mxGeometry x="902" y="260" width="70" height="70" as="geometry" />
        </mxCell>
      </root>
    </mxGraphModel>
  </diagram>
</mxfile>
